G04 #@! TF.GenerationSoftware,KiCad,Pcbnew,(5.1.6)-1*
G04 #@! TF.CreationDate,2020-10-30T20:32:16+01:00*
G04 #@! TF.ProjectId,light-ctl,6c696768-742d-4637-946c-2e6b69636164,rev?*
G04 #@! TF.SameCoordinates,Original*
G04 #@! TF.FileFunction,Legend,Bot*
G04 #@! TF.FilePolarity,Positive*
%FSLAX46Y46*%
G04 Gerber Fmt 4.6, Leading zero omitted, Abs format (unit mm)*
G04 Created by KiCad (PCBNEW (5.1.6)-1) date 2020-10-30 20:32:16*
%MOMM*%
%LPD*%
G01*
G04 APERTURE LIST*
%ADD10C,0.150000*%
%ADD11C,0.120000*%
%ADD12C,0.300000*%
G04 APERTURE END LIST*
D10*
X168619047Y-106452380D02*
X168619047Y-107166666D01*
X168666666Y-107309523D01*
X168761904Y-107404761D01*
X168904761Y-107452380D01*
X169000000Y-107452380D01*
X167666666Y-107452380D02*
X168142857Y-107452380D01*
X168142857Y-106452380D01*
X166761904Y-107357142D02*
X166809523Y-107404761D01*
X166952380Y-107452380D01*
X167047619Y-107452380D01*
X167190476Y-107404761D01*
X167285714Y-107309523D01*
X167333333Y-107214285D01*
X167380952Y-107023809D01*
X167380952Y-106880952D01*
X167333333Y-106690476D01*
X167285714Y-106595238D01*
X167190476Y-106500000D01*
X167047619Y-106452380D01*
X166952380Y-106452380D01*
X166809523Y-106500000D01*
X166761904Y-106547619D01*
X166047619Y-106452380D02*
X166047619Y-107166666D01*
X166095238Y-107309523D01*
X166190476Y-107404761D01*
X166333333Y-107452380D01*
X166428571Y-107452380D01*
X165095238Y-107452380D02*
X165571428Y-107452380D01*
X165571428Y-106452380D01*
X164190476Y-107357142D02*
X164238095Y-107404761D01*
X164380952Y-107452380D01*
X164476190Y-107452380D01*
X164619047Y-107404761D01*
X164714285Y-107309523D01*
X164761904Y-107214285D01*
X164809523Y-107023809D01*
X164809523Y-106880952D01*
X164761904Y-106690476D01*
X164714285Y-106595238D01*
X164619047Y-106500000D01*
X164476190Y-106452380D01*
X164380952Y-106452380D01*
X164238095Y-106500000D01*
X164190476Y-106547619D01*
X163476190Y-106452380D02*
X163476190Y-107166666D01*
X163523809Y-107309523D01*
X163619047Y-107404761D01*
X163761904Y-107452380D01*
X163857142Y-107452380D01*
X162523809Y-107452380D02*
X163000000Y-107452380D01*
X163000000Y-106452380D01*
X161619047Y-107357142D02*
X161666666Y-107404761D01*
X161809523Y-107452380D01*
X161904761Y-107452380D01*
X162047619Y-107404761D01*
X162142857Y-107309523D01*
X162190476Y-107214285D01*
X162238095Y-107023809D01*
X162238095Y-106880952D01*
X162190476Y-106690476D01*
X162142857Y-106595238D01*
X162047619Y-106500000D01*
X161904761Y-106452380D01*
X161809523Y-106452380D01*
X161666666Y-106500000D01*
X161619047Y-106547619D01*
X160904761Y-106452380D02*
X160904761Y-107166666D01*
X160952380Y-107309523D01*
X161047619Y-107404761D01*
X161190476Y-107452380D01*
X161285714Y-107452380D01*
X159952380Y-107452380D02*
X160428571Y-107452380D01*
X160428571Y-106452380D01*
X159047619Y-107357142D02*
X159095238Y-107404761D01*
X159238095Y-107452380D01*
X159333333Y-107452380D01*
X159476190Y-107404761D01*
X159571428Y-107309523D01*
X159619047Y-107214285D01*
X159666666Y-107023809D01*
X159666666Y-106880952D01*
X159619047Y-106690476D01*
X159571428Y-106595238D01*
X159476190Y-106500000D01*
X159333333Y-106452380D01*
X159238095Y-106452380D01*
X159095238Y-106500000D01*
X159047619Y-106547619D01*
D11*
X110500000Y-107000000D02*
X110500000Y-113000000D01*
X123500000Y-107000000D02*
X110500000Y-107000000D01*
X123500000Y-113000000D02*
X123500000Y-107000000D01*
X110500000Y-113000000D02*
X123500000Y-113000000D01*
X137000000Y-111000000D02*
X137000000Y-116500000D01*
X145000000Y-111000000D02*
X137000000Y-111000000D01*
X145000000Y-116500000D02*
X145000000Y-111000000D01*
X137000000Y-116500000D02*
X145000000Y-116500000D01*
X163000000Y-119000000D02*
X168500000Y-119000000D01*
X163000000Y-113500000D02*
X163000000Y-119000000D01*
X168500000Y-113500000D02*
X163000000Y-113500000D01*
X168500000Y-119000000D02*
X168500000Y-113500000D01*
X176500000Y-119000000D02*
X176500000Y-111000000D01*
X170000000Y-111000000D02*
X170000000Y-119000000D01*
X183000000Y-111000000D02*
X170000000Y-111000000D01*
X183000000Y-119000000D02*
X183000000Y-111000000D01*
X170000000Y-119000000D02*
X183000000Y-119000000D01*
D12*
X129785714Y-107678571D02*
X129785714Y-106178571D01*
X129642857Y-107107142D02*
X129214285Y-107678571D01*
X129214285Y-106678571D02*
X129785714Y-107250000D01*
X128571428Y-107678571D02*
X128571428Y-106678571D01*
X128571428Y-106178571D02*
X128642857Y-106250000D01*
X128571428Y-106321428D01*
X128500000Y-106250000D01*
X128571428Y-106178571D01*
X128571428Y-106321428D01*
X127214285Y-106678571D02*
X127214285Y-107678571D01*
X127857142Y-106678571D02*
X127857142Y-107464285D01*
X127785714Y-107607142D01*
X127642857Y-107678571D01*
X127428571Y-107678571D01*
X127285714Y-107607142D01*
X127214285Y-107535714D01*
X194357142Y-107678571D02*
X194500000Y-107607142D01*
X194571428Y-107464285D01*
X194571428Y-106178571D01*
X193785714Y-107678571D02*
X193785714Y-106678571D01*
X193785714Y-106178571D02*
X193857142Y-106250000D01*
X193785714Y-106321428D01*
X193714285Y-106250000D01*
X193785714Y-106178571D01*
X193785714Y-106321428D01*
X192428571Y-106678571D02*
X192428571Y-107892857D01*
X192500000Y-108035714D01*
X192571428Y-108107142D01*
X192714285Y-108178571D01*
X192928571Y-108178571D01*
X193071428Y-108107142D01*
X192428571Y-107607142D02*
X192571428Y-107678571D01*
X192857142Y-107678571D01*
X193000000Y-107607142D01*
X193071428Y-107535714D01*
X193142857Y-107392857D01*
X193142857Y-106964285D01*
X193071428Y-106821428D01*
X193000000Y-106750000D01*
X192857142Y-106678571D01*
X192571428Y-106678571D01*
X192428571Y-106750000D01*
X191714285Y-107678571D02*
X191714285Y-106178571D01*
X191071428Y-107678571D02*
X191071428Y-106892857D01*
X191142857Y-106750000D01*
X191285714Y-106678571D01*
X191500000Y-106678571D01*
X191642857Y-106750000D01*
X191714285Y-106821428D01*
X190571428Y-106678571D02*
X190000000Y-106678571D01*
X190357142Y-106178571D02*
X190357142Y-107464285D01*
X190285714Y-107607142D01*
X190142857Y-107678571D01*
X190000000Y-107678571D01*
X189500000Y-107107142D02*
X188357142Y-107107142D01*
X187000000Y-107607142D02*
X187142857Y-107678571D01*
X187428571Y-107678571D01*
X187571428Y-107607142D01*
X187642857Y-107535714D01*
X187714285Y-107392857D01*
X187714285Y-106964285D01*
X187642857Y-106821428D01*
X187571428Y-106750000D01*
X187428571Y-106678571D01*
X187142857Y-106678571D01*
X187000000Y-106750000D01*
X186571428Y-106678571D02*
X186000000Y-106678571D01*
X186357142Y-106178571D02*
X186357142Y-107464285D01*
X186285714Y-107607142D01*
X186142857Y-107678571D01*
X186000000Y-107678571D01*
X185285714Y-107678571D02*
X185428571Y-107607142D01*
X185500000Y-107464285D01*
X185500000Y-106178571D01*
X178071428Y-107678571D02*
X178571428Y-106964285D01*
X178928571Y-107678571D02*
X178928571Y-106178571D01*
X178357142Y-106178571D01*
X178214285Y-106250000D01*
X178142857Y-106321428D01*
X178071428Y-106464285D01*
X178071428Y-106678571D01*
X178142857Y-106821428D01*
X178214285Y-106892857D01*
X178357142Y-106964285D01*
X178928571Y-106964285D01*
X177428571Y-106892857D02*
X176928571Y-106892857D01*
X176714285Y-107678571D02*
X177428571Y-107678571D01*
X177428571Y-106178571D01*
X176714285Y-106178571D01*
X176285714Y-106178571D02*
X175785714Y-107678571D01*
X175285714Y-106178571D01*
X173714285Y-107250000D02*
X173000000Y-107250000D01*
X173857142Y-107678571D02*
X173357142Y-106178571D01*
X172857142Y-107678571D01*
X167928571Y-114832142D02*
X166785714Y-114832142D01*
X167357142Y-115403571D02*
X167357142Y-114260714D01*
X165357142Y-113903571D02*
X166071428Y-113903571D01*
X166142857Y-114617857D01*
X166071428Y-114546428D01*
X165928571Y-114475000D01*
X165571428Y-114475000D01*
X165428571Y-114546428D01*
X165357142Y-114617857D01*
X165285714Y-114760714D01*
X165285714Y-115117857D01*
X165357142Y-115260714D01*
X165428571Y-115332142D01*
X165571428Y-115403571D01*
X165928571Y-115403571D01*
X166071428Y-115332142D01*
X166142857Y-115260714D01*
X164857142Y-113903571D02*
X164357142Y-115403571D01*
X163857142Y-113903571D01*
X167142857Y-116525000D02*
X167285714Y-116453571D01*
X167500000Y-116453571D01*
X167714285Y-116525000D01*
X167857142Y-116667857D01*
X167928571Y-116810714D01*
X168000000Y-117096428D01*
X168000000Y-117310714D01*
X167928571Y-117596428D01*
X167857142Y-117739285D01*
X167714285Y-117882142D01*
X167500000Y-117953571D01*
X167357142Y-117953571D01*
X167142857Y-117882142D01*
X167071428Y-117810714D01*
X167071428Y-117310714D01*
X167357142Y-117310714D01*
X166428571Y-117953571D02*
X166428571Y-116453571D01*
X165571428Y-117953571D01*
X165571428Y-116453571D01*
X164857142Y-117953571D02*
X164857142Y-116453571D01*
X164500000Y-116453571D01*
X164285714Y-116525000D01*
X164142857Y-116667857D01*
X164071428Y-116810714D01*
X164000000Y-117096428D01*
X164000000Y-117310714D01*
X164071428Y-117596428D01*
X164142857Y-117739285D01*
X164285714Y-117882142D01*
X164500000Y-117953571D01*
X164857142Y-117953571D01*
X182266428Y-113128571D02*
X182266428Y-111628571D01*
X181766428Y-112700000D01*
X181266428Y-111628571D01*
X181266428Y-113128571D01*
X180552142Y-113128571D02*
X180552142Y-111628571D01*
X179909285Y-113057142D02*
X179695000Y-113128571D01*
X179337857Y-113128571D01*
X179195000Y-113057142D01*
X179123571Y-112985714D01*
X179052142Y-112842857D01*
X179052142Y-112700000D01*
X179123571Y-112557142D01*
X179195000Y-112485714D01*
X179337857Y-112414285D01*
X179623571Y-112342857D01*
X179766428Y-112271428D01*
X179837857Y-112200000D01*
X179909285Y-112057142D01*
X179909285Y-111914285D01*
X179837857Y-111771428D01*
X179766428Y-111700000D01*
X179623571Y-111628571D01*
X179266428Y-111628571D01*
X179052142Y-111700000D01*
X178123571Y-111628571D02*
X177837857Y-111628571D01*
X177695000Y-111700000D01*
X177552142Y-111842857D01*
X177480714Y-112128571D01*
X177480714Y-112628571D01*
X177552142Y-112914285D01*
X177695000Y-113057142D01*
X177837857Y-113128571D01*
X178123571Y-113128571D01*
X178266428Y-113057142D01*
X178409285Y-112914285D01*
X178480714Y-112628571D01*
X178480714Y-112128571D01*
X178409285Y-111842857D01*
X178266428Y-111700000D01*
X178123571Y-111628571D01*
X181337857Y-115607142D02*
X181123571Y-115678571D01*
X180766428Y-115678571D01*
X180623571Y-115607142D01*
X180552142Y-115535714D01*
X180480714Y-115392857D01*
X180480714Y-115250000D01*
X180552142Y-115107142D01*
X180623571Y-115035714D01*
X180766428Y-114964285D01*
X181052142Y-114892857D01*
X181195000Y-114821428D01*
X181266428Y-114750000D01*
X181337857Y-114607142D01*
X181337857Y-114464285D01*
X181266428Y-114321428D01*
X181195000Y-114250000D01*
X181052142Y-114178571D01*
X180695000Y-114178571D01*
X180480714Y-114250000D01*
X178980714Y-115535714D02*
X179052142Y-115607142D01*
X179266428Y-115678571D01*
X179409285Y-115678571D01*
X179623571Y-115607142D01*
X179766428Y-115464285D01*
X179837857Y-115321428D01*
X179909285Y-115035714D01*
X179909285Y-114821428D01*
X179837857Y-114535714D01*
X179766428Y-114392857D01*
X179623571Y-114250000D01*
X179409285Y-114178571D01*
X179266428Y-114178571D01*
X179052142Y-114250000D01*
X178980714Y-114321428D01*
X178337857Y-115678571D02*
X178337857Y-114178571D01*
X177480714Y-115678571D02*
X178123571Y-114821428D01*
X177480714Y-114178571D02*
X178337857Y-115035714D01*
X180266428Y-118228571D02*
X180766428Y-117514285D01*
X181123571Y-118228571D02*
X181123571Y-116728571D01*
X180552142Y-116728571D01*
X180409285Y-116800000D01*
X180337857Y-116871428D01*
X180266428Y-117014285D01*
X180266428Y-117228571D01*
X180337857Y-117371428D01*
X180409285Y-117442857D01*
X180552142Y-117514285D01*
X181123571Y-117514285D01*
X179623571Y-117442857D02*
X179123571Y-117442857D01*
X178909285Y-118228571D02*
X179623571Y-118228571D01*
X179623571Y-116728571D01*
X178909285Y-116728571D01*
X178337857Y-118157142D02*
X178123571Y-118228571D01*
X177766428Y-118228571D01*
X177623571Y-118157142D01*
X177552142Y-118085714D01*
X177480714Y-117942857D01*
X177480714Y-117800000D01*
X177552142Y-117657142D01*
X177623571Y-117585714D01*
X177766428Y-117514285D01*
X178052142Y-117442857D01*
X178195000Y-117371428D01*
X178266428Y-117300000D01*
X178337857Y-117157142D01*
X178337857Y-117014285D01*
X178266428Y-116871428D01*
X178195000Y-116800000D01*
X178052142Y-116728571D01*
X177695000Y-116728571D01*
X177480714Y-116800000D01*
X175447857Y-112557142D02*
X174305000Y-112557142D01*
X174876428Y-113128571D02*
X174876428Y-111985714D01*
X172876428Y-111628571D02*
X173590714Y-111628571D01*
X173662142Y-112342857D01*
X173590714Y-112271428D01*
X173447857Y-112200000D01*
X173090714Y-112200000D01*
X172947857Y-112271428D01*
X172876428Y-112342857D01*
X172805000Y-112485714D01*
X172805000Y-112842857D01*
X172876428Y-112985714D01*
X172947857Y-113057142D01*
X173090714Y-113128571D01*
X173447857Y-113128571D01*
X173590714Y-113057142D01*
X173662142Y-112985714D01*
X172376428Y-111628571D02*
X171876428Y-113128571D01*
X171376428Y-111628571D01*
X175447857Y-115678571D02*
X175447857Y-114178571D01*
X174947857Y-115250000D01*
X174447857Y-114178571D01*
X174447857Y-115678571D01*
X173447857Y-114178571D02*
X173162142Y-114178571D01*
X173019285Y-114250000D01*
X172876428Y-114392857D01*
X172805000Y-114678571D01*
X172805000Y-115178571D01*
X172876428Y-115464285D01*
X173019285Y-115607142D01*
X173162142Y-115678571D01*
X173447857Y-115678571D01*
X173590714Y-115607142D01*
X173733571Y-115464285D01*
X173805000Y-115178571D01*
X173805000Y-114678571D01*
X173733571Y-114392857D01*
X173590714Y-114250000D01*
X173447857Y-114178571D01*
X172233571Y-115607142D02*
X172019285Y-115678571D01*
X171662142Y-115678571D01*
X171519285Y-115607142D01*
X171447857Y-115535714D01*
X171376428Y-115392857D01*
X171376428Y-115250000D01*
X171447857Y-115107142D01*
X171519285Y-115035714D01*
X171662142Y-114964285D01*
X171947857Y-114892857D01*
X172090714Y-114821428D01*
X172162142Y-114750000D01*
X172233571Y-114607142D01*
X172233571Y-114464285D01*
X172162142Y-114321428D01*
X172090714Y-114250000D01*
X171947857Y-114178571D01*
X171590714Y-114178571D01*
X171376428Y-114250000D01*
X170733571Y-115678571D02*
X170733571Y-114178571D01*
X174662142Y-116800000D02*
X174805000Y-116728571D01*
X175019285Y-116728571D01*
X175233571Y-116800000D01*
X175376428Y-116942857D01*
X175447857Y-117085714D01*
X175519285Y-117371428D01*
X175519285Y-117585714D01*
X175447857Y-117871428D01*
X175376428Y-118014285D01*
X175233571Y-118157142D01*
X175019285Y-118228571D01*
X174876428Y-118228571D01*
X174662142Y-118157142D01*
X174590714Y-118085714D01*
X174590714Y-117585714D01*
X174876428Y-117585714D01*
X173947857Y-118228571D02*
X173947857Y-116728571D01*
X173090714Y-118228571D01*
X173090714Y-116728571D01*
X172376428Y-118228571D02*
X172376428Y-116728571D01*
X172019285Y-116728571D01*
X171805000Y-116800000D01*
X171662142Y-116942857D01*
X171590714Y-117085714D01*
X171519285Y-117371428D01*
X171519285Y-117585714D01*
X171590714Y-117871428D01*
X171662142Y-118014285D01*
X171805000Y-118157142D01*
X172019285Y-118228571D01*
X172376428Y-118228571D01*
X121992857Y-111947857D02*
X121992857Y-110805000D01*
X121421428Y-111376428D02*
X122564285Y-111376428D01*
X122921428Y-109376428D02*
X122921428Y-110090714D01*
X122207142Y-110162142D01*
X122278571Y-110090714D01*
X122350000Y-109947857D01*
X122350000Y-109590714D01*
X122278571Y-109447857D01*
X122207142Y-109376428D01*
X122064285Y-109305000D01*
X121707142Y-109305000D01*
X121564285Y-109376428D01*
X121492857Y-109447857D01*
X121421428Y-109590714D01*
X121421428Y-109947857D01*
X121492857Y-110090714D01*
X121564285Y-110162142D01*
X122921428Y-108876428D02*
X121421428Y-108376428D01*
X122921428Y-107876428D01*
X120300000Y-111162142D02*
X120371428Y-111305000D01*
X120371428Y-111519285D01*
X120300000Y-111733571D01*
X120157142Y-111876428D01*
X120014285Y-111947857D01*
X119728571Y-112019285D01*
X119514285Y-112019285D01*
X119228571Y-111947857D01*
X119085714Y-111876428D01*
X118942857Y-111733571D01*
X118871428Y-111519285D01*
X118871428Y-111376428D01*
X118942857Y-111162142D01*
X119014285Y-111090714D01*
X119514285Y-111090714D01*
X119514285Y-111376428D01*
X118871428Y-110447857D02*
X120371428Y-110447857D01*
X118871428Y-109590714D01*
X120371428Y-109590714D01*
X118871428Y-108876428D02*
X120371428Y-108876428D01*
X120371428Y-108519285D01*
X120300000Y-108305000D01*
X120157142Y-108162142D01*
X120014285Y-108090714D01*
X119728571Y-108019285D01*
X119514285Y-108019285D01*
X119228571Y-108090714D01*
X119085714Y-108162142D01*
X118942857Y-108305000D01*
X118871428Y-108519285D01*
X118871428Y-108876428D01*
X116392857Y-112019285D02*
X116321428Y-111805000D01*
X116321428Y-111447857D01*
X116392857Y-111305000D01*
X116464285Y-111233571D01*
X116607142Y-111162142D01*
X116750000Y-111162142D01*
X116892857Y-111233571D01*
X116964285Y-111305000D01*
X117035714Y-111447857D01*
X117107142Y-111733571D01*
X117178571Y-111876428D01*
X117250000Y-111947857D01*
X117392857Y-112019285D01*
X117535714Y-112019285D01*
X117678571Y-111947857D01*
X117750000Y-111876428D01*
X117821428Y-111733571D01*
X117821428Y-111376428D01*
X117750000Y-111162142D01*
X116321428Y-110519285D02*
X117821428Y-110519285D01*
X117821428Y-110162142D01*
X117750000Y-109947857D01*
X117607142Y-109805000D01*
X117464285Y-109733571D01*
X117178571Y-109662142D01*
X116964285Y-109662142D01*
X116678571Y-109733571D01*
X116535714Y-109805000D01*
X116392857Y-109947857D01*
X116321428Y-110162142D01*
X116321428Y-110519285D01*
X116750000Y-109090714D02*
X116750000Y-108376428D01*
X116321428Y-109233571D02*
X117821428Y-108733571D01*
X116321428Y-108233571D01*
X115200000Y-111162142D02*
X115271428Y-111305000D01*
X115271428Y-111519285D01*
X115200000Y-111733571D01*
X115057142Y-111876428D01*
X114914285Y-111947857D01*
X114628571Y-112019285D01*
X114414285Y-112019285D01*
X114128571Y-111947857D01*
X113985714Y-111876428D01*
X113842857Y-111733571D01*
X113771428Y-111519285D01*
X113771428Y-111376428D01*
X113842857Y-111162142D01*
X113914285Y-111090714D01*
X114414285Y-111090714D01*
X114414285Y-111376428D01*
X113771428Y-110447857D02*
X115271428Y-110447857D01*
X113771428Y-109590714D01*
X115271428Y-109590714D01*
X113771428Y-108876428D02*
X115271428Y-108876428D01*
X115271428Y-108519285D01*
X115200000Y-108305000D01*
X115057142Y-108162142D01*
X114914285Y-108090714D01*
X114628571Y-108019285D01*
X114414285Y-108019285D01*
X114128571Y-108090714D01*
X113985714Y-108162142D01*
X113842857Y-108305000D01*
X113771428Y-108519285D01*
X113771428Y-108876428D01*
X111292857Y-112019285D02*
X111221428Y-111805000D01*
X111221428Y-111447857D01*
X111292857Y-111305000D01*
X111364285Y-111233571D01*
X111507142Y-111162142D01*
X111650000Y-111162142D01*
X111792857Y-111233571D01*
X111864285Y-111305000D01*
X111935714Y-111447857D01*
X112007142Y-111733571D01*
X112078571Y-111876428D01*
X112150000Y-111947857D01*
X112292857Y-112019285D01*
X112435714Y-112019285D01*
X112578571Y-111947857D01*
X112650000Y-111876428D01*
X112721428Y-111733571D01*
X112721428Y-111376428D01*
X112650000Y-111162142D01*
X111364285Y-109662142D02*
X111292857Y-109733571D01*
X111221428Y-109947857D01*
X111221428Y-110090714D01*
X111292857Y-110305000D01*
X111435714Y-110447857D01*
X111578571Y-110519285D01*
X111864285Y-110590714D01*
X112078571Y-110590714D01*
X112364285Y-110519285D01*
X112507142Y-110447857D01*
X112650000Y-110305000D01*
X112721428Y-110090714D01*
X112721428Y-109947857D01*
X112650000Y-109733571D01*
X112578571Y-109662142D01*
X111221428Y-108305000D02*
X111221428Y-109019285D01*
X112721428Y-109019285D01*
X142871428Y-114590714D02*
X143585714Y-115090714D01*
X142871428Y-115447857D02*
X144371428Y-115447857D01*
X144371428Y-114876428D01*
X144300000Y-114733571D01*
X144228571Y-114662142D01*
X144085714Y-114590714D01*
X143871428Y-114590714D01*
X143728571Y-114662142D01*
X143657142Y-114733571D01*
X143585714Y-114876428D01*
X143585714Y-115447857D01*
X144371428Y-114090714D02*
X142871428Y-113090714D01*
X144371428Y-113090714D02*
X142871428Y-114090714D01*
X141821428Y-115662142D02*
X141821428Y-114805000D01*
X140321428Y-115233571D02*
X141821428Y-115233571D01*
X141821428Y-114447857D02*
X140321428Y-113447857D01*
X141821428Y-113447857D02*
X140321428Y-114447857D01*
X139200000Y-114662142D02*
X139271428Y-114805000D01*
X139271428Y-115019285D01*
X139200000Y-115233571D01*
X139057142Y-115376428D01*
X138914285Y-115447857D01*
X138628571Y-115519285D01*
X138414285Y-115519285D01*
X138128571Y-115447857D01*
X137985714Y-115376428D01*
X137842857Y-115233571D01*
X137771428Y-115019285D01*
X137771428Y-114876428D01*
X137842857Y-114662142D01*
X137914285Y-114590714D01*
X138414285Y-114590714D01*
X138414285Y-114876428D01*
X137771428Y-113947857D02*
X139271428Y-113947857D01*
X137771428Y-113090714D01*
X139271428Y-113090714D01*
X137771428Y-112376428D02*
X139271428Y-112376428D01*
X139271428Y-112019285D01*
X139200000Y-111805000D01*
X139057142Y-111662142D01*
X138914285Y-111590714D01*
X138628571Y-111519285D01*
X138414285Y-111519285D01*
X138128571Y-111590714D01*
X137985714Y-111662142D01*
X137842857Y-111805000D01*
X137771428Y-112019285D01*
X137771428Y-112376428D01*
D11*
X110510000Y-104330000D02*
X110510000Y-101670000D01*
X120730000Y-104330000D02*
X110510000Y-104330000D01*
X120730000Y-101670000D02*
X110510000Y-101670000D01*
X120730000Y-104330000D02*
X120730000Y-101670000D01*
X122000000Y-104330000D02*
X123330000Y-104330000D01*
X123330000Y-104330000D02*
X123330000Y-103000000D01*
X195330000Y-104330000D02*
X195330000Y-103000000D01*
X194000000Y-104330000D02*
X195330000Y-104330000D01*
X192730000Y-104330000D02*
X192730000Y-101670000D01*
X192730000Y-101670000D02*
X182510000Y-101670000D01*
X192730000Y-104330000D02*
X182510000Y-104330000D01*
X182510000Y-104330000D02*
X182510000Y-101670000D01*
X123330000Y-120330000D02*
X123330000Y-119000000D01*
X122000000Y-120330000D02*
X123330000Y-120330000D01*
X123330000Y-117730000D02*
X123330000Y-115130000D01*
X120730000Y-117730000D02*
X123330000Y-117730000D01*
X120730000Y-120330000D02*
X120730000Y-117730000D01*
X123330000Y-115130000D02*
X110510000Y-115130000D01*
X120730000Y-120330000D02*
X110510000Y-120330000D01*
X110510000Y-120330000D02*
X110510000Y-115130000D01*
X137090000Y-120330000D02*
X137090000Y-117670000D01*
X142230000Y-120330000D02*
X137090000Y-120330000D01*
X142230000Y-117670000D02*
X137090000Y-117670000D01*
X142230000Y-120330000D02*
X142230000Y-117670000D01*
X143500000Y-120330000D02*
X144830000Y-120330000D01*
X144830000Y-120330000D02*
X144830000Y-119000000D01*
X191330000Y-118410000D02*
X186130000Y-118410000D01*
X191330000Y-113270000D02*
X191330000Y-118410000D01*
X186130000Y-110670000D02*
X186130000Y-118410000D01*
X191330000Y-113270000D02*
X188730000Y-113270000D01*
X188730000Y-113270000D02*
X188730000Y-110670000D01*
X188730000Y-110670000D02*
X186130000Y-110670000D01*
X191330000Y-112000000D02*
X191330000Y-110670000D01*
X191330000Y-110670000D02*
X190000000Y-110670000D01*
X196330000Y-118870000D02*
X193670000Y-118870000D01*
X196330000Y-116270000D02*
X196330000Y-118870000D01*
X193670000Y-116270000D02*
X193670000Y-118870000D01*
X196330000Y-116270000D02*
X193670000Y-116270000D01*
X196330000Y-115000000D02*
X196330000Y-113670000D01*
X196330000Y-113670000D02*
X195000000Y-113670000D01*
D10*
X123782380Y-102666666D02*
X124496666Y-102666666D01*
X124639523Y-102619047D01*
X124734761Y-102523809D01*
X124782380Y-102380952D01*
X124782380Y-102285714D01*
X124782380Y-103666666D02*
X124782380Y-103095238D01*
X124782380Y-103380952D02*
X123782380Y-103380952D01*
X123925238Y-103285714D01*
X124020476Y-103190476D01*
X124068095Y-103095238D01*
X195782380Y-102666666D02*
X196496666Y-102666666D01*
X196639523Y-102619047D01*
X196734761Y-102523809D01*
X196782380Y-102380952D01*
X196782380Y-102285714D01*
X195782380Y-103047619D02*
X195782380Y-103666666D01*
X196163333Y-103333333D01*
X196163333Y-103476190D01*
X196210952Y-103571428D01*
X196258571Y-103619047D01*
X196353809Y-103666666D01*
X196591904Y-103666666D01*
X196687142Y-103619047D01*
X196734761Y-103571428D01*
X196782380Y-103476190D01*
X196782380Y-103190476D01*
X196734761Y-103095238D01*
X196687142Y-103047619D01*
X123782380Y-115896666D02*
X124496666Y-115896666D01*
X124639523Y-115849047D01*
X124734761Y-115753809D01*
X124782380Y-115610952D01*
X124782380Y-115515714D01*
X124258571Y-116706190D02*
X124306190Y-116849047D01*
X124353809Y-116896666D01*
X124449047Y-116944285D01*
X124591904Y-116944285D01*
X124687142Y-116896666D01*
X124734761Y-116849047D01*
X124782380Y-116753809D01*
X124782380Y-116372857D01*
X123782380Y-116372857D01*
X123782380Y-116706190D01*
X123830000Y-116801428D01*
X123877619Y-116849047D01*
X123972857Y-116896666D01*
X124068095Y-116896666D01*
X124163333Y-116849047D01*
X124210952Y-116801428D01*
X124258571Y-116706190D01*
X124258571Y-116372857D01*
X123782380Y-117372857D02*
X124591904Y-117372857D01*
X124687142Y-117420476D01*
X124734761Y-117468095D01*
X124782380Y-117563333D01*
X124782380Y-117753809D01*
X124734761Y-117849047D01*
X124687142Y-117896666D01*
X124591904Y-117944285D01*
X123782380Y-117944285D01*
X124734761Y-118372857D02*
X124782380Y-118515714D01*
X124782380Y-118753809D01*
X124734761Y-118849047D01*
X124687142Y-118896666D01*
X124591904Y-118944285D01*
X124496666Y-118944285D01*
X124401428Y-118896666D01*
X124353809Y-118849047D01*
X124306190Y-118753809D01*
X124258571Y-118563333D01*
X124210952Y-118468095D01*
X124163333Y-118420476D01*
X124068095Y-118372857D01*
X123972857Y-118372857D01*
X123877619Y-118420476D01*
X123830000Y-118468095D01*
X123782380Y-118563333D01*
X123782380Y-118801428D01*
X123830000Y-118944285D01*
X124782380Y-119896666D02*
X124782380Y-119325238D01*
X124782380Y-119610952D02*
X123782380Y-119610952D01*
X123925238Y-119515714D01*
X124020476Y-119420476D01*
X124068095Y-119325238D01*
X145282380Y-117166666D02*
X145996666Y-117166666D01*
X146139523Y-117119047D01*
X146234761Y-117023809D01*
X146282380Y-116880952D01*
X146282380Y-116785714D01*
X146282380Y-117642857D02*
X145282380Y-117642857D01*
X145282380Y-117880952D01*
X145330000Y-118023809D01*
X145425238Y-118119047D01*
X145520476Y-118166666D01*
X145710952Y-118214285D01*
X145853809Y-118214285D01*
X146044285Y-118166666D01*
X146139523Y-118119047D01*
X146234761Y-118023809D01*
X146282380Y-117880952D01*
X146282380Y-117642857D01*
X145758571Y-118976190D02*
X145806190Y-119119047D01*
X145853809Y-119166666D01*
X145949047Y-119214285D01*
X146091904Y-119214285D01*
X146187142Y-119166666D01*
X146234761Y-119119047D01*
X146282380Y-119023809D01*
X146282380Y-118642857D01*
X145282380Y-118642857D01*
X145282380Y-118976190D01*
X145330000Y-119071428D01*
X145377619Y-119119047D01*
X145472857Y-119166666D01*
X145568095Y-119166666D01*
X145663333Y-119119047D01*
X145710952Y-119071428D01*
X145758571Y-118976190D01*
X145758571Y-118642857D01*
X145330000Y-120166666D02*
X145282380Y-120071428D01*
X145282380Y-119928571D01*
X145330000Y-119785714D01*
X145425238Y-119690476D01*
X145520476Y-119642857D01*
X145710952Y-119595238D01*
X145853809Y-119595238D01*
X146044285Y-119642857D01*
X146139523Y-119690476D01*
X146234761Y-119785714D01*
X146282380Y-119928571D01*
X146282380Y-120023809D01*
X146234761Y-120166666D01*
X146187142Y-120214285D01*
X145853809Y-120214285D01*
X145853809Y-120023809D01*
X146282380Y-121166666D02*
X146282380Y-120595238D01*
X146282380Y-120880952D02*
X145282380Y-120880952D01*
X145425238Y-120785714D01*
X145520476Y-120690476D01*
X145568095Y-120595238D01*
X190277619Y-109122380D02*
X190277619Y-109836666D01*
X190325238Y-109979523D01*
X190420476Y-110074761D01*
X190563333Y-110122380D01*
X190658571Y-110122380D01*
X189801428Y-110122380D02*
X189801428Y-109122380D01*
X189372857Y-110074761D02*
X189230000Y-110122380D01*
X188991904Y-110122380D01*
X188896666Y-110074761D01*
X188849047Y-110027142D01*
X188801428Y-109931904D01*
X188801428Y-109836666D01*
X188849047Y-109741428D01*
X188896666Y-109693809D01*
X188991904Y-109646190D01*
X189182380Y-109598571D01*
X189277619Y-109550952D01*
X189325238Y-109503333D01*
X189372857Y-109408095D01*
X189372857Y-109312857D01*
X189325238Y-109217619D01*
X189277619Y-109170000D01*
X189182380Y-109122380D01*
X188944285Y-109122380D01*
X188801428Y-109170000D01*
X188372857Y-110122380D02*
X188372857Y-109122380D01*
X187991904Y-109122380D01*
X187896666Y-109170000D01*
X187849047Y-109217619D01*
X187801428Y-109312857D01*
X187801428Y-109455714D01*
X187849047Y-109550952D01*
X187896666Y-109598571D01*
X187991904Y-109646190D01*
X188372857Y-109646190D01*
X186849047Y-110122380D02*
X187420476Y-110122380D01*
X187134761Y-110122380D02*
X187134761Y-109122380D01*
X187230000Y-109265238D01*
X187325238Y-109360476D01*
X187420476Y-109408095D01*
X196904761Y-112122380D02*
X196904761Y-112836666D01*
X196952380Y-112979523D01*
X197047619Y-113074761D01*
X197190476Y-113122380D01*
X197285714Y-113122380D01*
X196428571Y-113122380D02*
X196428571Y-112122380D01*
X196047619Y-112122380D01*
X195952380Y-112170000D01*
X195904761Y-112217619D01*
X195857142Y-112312857D01*
X195857142Y-112455714D01*
X195904761Y-112550952D01*
X195952380Y-112598571D01*
X196047619Y-112646190D01*
X196428571Y-112646190D01*
X195523809Y-112122380D02*
X195285714Y-113122380D01*
X195095238Y-112408095D01*
X194904761Y-113122380D01*
X194666666Y-112122380D01*
X193714285Y-113122380D02*
X194047619Y-112646190D01*
X194285714Y-113122380D02*
X194285714Y-112122380D01*
X193904761Y-112122380D01*
X193809523Y-112170000D01*
X193761904Y-112217619D01*
X193714285Y-112312857D01*
X193714285Y-112455714D01*
X193761904Y-112550952D01*
X193809523Y-112598571D01*
X193904761Y-112646190D01*
X194285714Y-112646190D01*
X192761904Y-113122380D02*
X193333333Y-113122380D01*
X193047619Y-113122380D02*
X193047619Y-112122380D01*
X193142857Y-112265238D01*
X193238095Y-112360476D01*
X193333333Y-112408095D01*
M02*
