G04 #@! TF.GenerationSoftware,KiCad,Pcbnew,(5.1.6)-1*
G04 #@! TF.CreationDate,2020-10-30T20:32:16+01:00*
G04 #@! TF.ProjectId,light-ctl,6c696768-742d-4637-946c-2e6b69636164,rev?*
G04 #@! TF.SameCoordinates,Original*
G04 #@! TF.FileFunction,Legend,Top*
G04 #@! TF.FilePolarity,Positive*
%FSLAX46Y46*%
G04 Gerber Fmt 4.6, Leading zero omitted, Abs format (unit mm)*
G04 Created by KiCad (PCBNEW (5.1.6)-1) date 2020-10-30 20:32:16*
%MOMM*%
%LPD*%
G01*
G04 APERTURE LIST*
%ADD10C,0.120000*%
%ADD11C,0.150000*%
G04 APERTURE END LIST*
D10*
X140000000Y-109350000D02*
X141000000Y-109350000D01*
X141000000Y-107650000D02*
X140000000Y-107650000D01*
X183850000Y-118500000D02*
X183850000Y-117500000D01*
X182150000Y-117500000D02*
X182150000Y-118500000D01*
X165500000Y-115150000D02*
X164500000Y-115150000D01*
X164500000Y-116850000D02*
X165500000Y-116850000D01*
X178590000Y-104330000D02*
X178590000Y-101670000D01*
X130270000Y-104330000D02*
X178590000Y-104330000D01*
X130270000Y-101670000D02*
X178590000Y-101670000D01*
X130270000Y-104330000D02*
X130270000Y-101670000D01*
X129000000Y-104330000D02*
X127670000Y-104330000D01*
X127670000Y-104330000D02*
X127670000Y-103000000D01*
X179120000Y-118600000D02*
X179120000Y-117400000D01*
X180880000Y-117400000D02*
X180880000Y-118600000D01*
X129400000Y-118120000D02*
X130600000Y-118120000D01*
X130600000Y-119880000D02*
X129400000Y-119880000D01*
X130600000Y-116880000D02*
X129400000Y-116880000D01*
X129400000Y-115120000D02*
X130600000Y-115120000D01*
D11*
X153000000Y-118126524D02*
X153159099Y-117967425D01*
X147873476Y-113000000D02*
X148085608Y-112787868D01*
X153000000Y-107873476D02*
X152787868Y-108085608D01*
X158126524Y-113000000D02*
X157914392Y-113212132D01*
X153000000Y-118126524D02*
X152787868Y-117914392D01*
X158126524Y-113000000D02*
X157914392Y-112787868D01*
X153000000Y-107873476D02*
X153212132Y-108085608D01*
X147873476Y-113000000D02*
X148085608Y-113212132D01*
X153159099Y-117967425D02*
X154025305Y-118833631D01*
D10*
X118050000Y-111650000D02*
X112250000Y-111650000D01*
X118050000Y-108350000D02*
X112250000Y-108350000D01*
X118050000Y-111650000D02*
X118050000Y-108350000D01*
D11*
X140333333Y-110607142D02*
X140285714Y-110654761D01*
X140142857Y-110702380D01*
X140047619Y-110702380D01*
X139904761Y-110654761D01*
X139809523Y-110559523D01*
X139761904Y-110464285D01*
X139714285Y-110273809D01*
X139714285Y-110130952D01*
X139761904Y-109940476D01*
X139809523Y-109845238D01*
X139904761Y-109750000D01*
X140047619Y-109702380D01*
X140142857Y-109702380D01*
X140285714Y-109750000D01*
X140333333Y-109797619D01*
X141285714Y-110702380D02*
X140714285Y-110702380D01*
X141000000Y-110702380D02*
X141000000Y-109702380D01*
X140904761Y-109845238D01*
X140809523Y-109940476D01*
X140714285Y-109988095D01*
X183357142Y-114166666D02*
X183404761Y-114214285D01*
X183452380Y-114357142D01*
X183452380Y-114452380D01*
X183404761Y-114595238D01*
X183309523Y-114690476D01*
X183214285Y-114738095D01*
X183023809Y-114785714D01*
X182880952Y-114785714D01*
X182690476Y-114738095D01*
X182595238Y-114690476D01*
X182500000Y-114595238D01*
X182452380Y-114452380D01*
X182452380Y-114357142D01*
X182500000Y-114214285D01*
X182547619Y-114166666D01*
X182547619Y-113785714D02*
X182500000Y-113738095D01*
X182452380Y-113642857D01*
X182452380Y-113404761D01*
X182500000Y-113309523D01*
X182547619Y-113261904D01*
X182642857Y-113214285D01*
X182738095Y-113214285D01*
X182880952Y-113261904D01*
X183452380Y-113833333D01*
X183452380Y-113214285D01*
X164833333Y-114607142D02*
X164785714Y-114654761D01*
X164642857Y-114702380D01*
X164547619Y-114702380D01*
X164404761Y-114654761D01*
X164309523Y-114559523D01*
X164261904Y-114464285D01*
X164214285Y-114273809D01*
X164214285Y-114130952D01*
X164261904Y-113940476D01*
X164309523Y-113845238D01*
X164404761Y-113750000D01*
X164547619Y-113702380D01*
X164642857Y-113702380D01*
X164785714Y-113750000D01*
X164833333Y-113797619D01*
X165166666Y-113702380D02*
X165785714Y-113702380D01*
X165452380Y-114083333D01*
X165595238Y-114083333D01*
X165690476Y-114130952D01*
X165738095Y-114178571D01*
X165785714Y-114273809D01*
X165785714Y-114511904D01*
X165738095Y-114607142D01*
X165690476Y-114654761D01*
X165595238Y-114702380D01*
X165309523Y-114702380D01*
X165214285Y-114654761D01*
X165166666Y-114607142D01*
X126122380Y-103333333D02*
X126836666Y-103333333D01*
X126979523Y-103380952D01*
X127074761Y-103476190D01*
X127122380Y-103619047D01*
X127122380Y-103714285D01*
X126217619Y-102904761D02*
X126170000Y-102857142D01*
X126122380Y-102761904D01*
X126122380Y-102523809D01*
X126170000Y-102428571D01*
X126217619Y-102380952D01*
X126312857Y-102333333D01*
X126408095Y-102333333D01*
X126550952Y-102380952D01*
X127122380Y-102952380D01*
X127122380Y-102333333D01*
X180452380Y-114166666D02*
X179976190Y-114500000D01*
X180452380Y-114738095D02*
X179452380Y-114738095D01*
X179452380Y-114357142D01*
X179500000Y-114261904D01*
X179547619Y-114214285D01*
X179642857Y-114166666D01*
X179785714Y-114166666D01*
X179880952Y-114214285D01*
X179928571Y-114261904D01*
X179976190Y-114357142D01*
X179976190Y-114738095D01*
X180452380Y-113214285D02*
X180452380Y-113785714D01*
X180452380Y-113500000D02*
X179452380Y-113500000D01*
X179595238Y-113595238D01*
X179690476Y-113690476D01*
X179738095Y-113785714D01*
X133833333Y-119452380D02*
X133500000Y-118976190D01*
X133261904Y-119452380D02*
X133261904Y-118452380D01*
X133642857Y-118452380D01*
X133738095Y-118500000D01*
X133785714Y-118547619D01*
X133833333Y-118642857D01*
X133833333Y-118785714D01*
X133785714Y-118880952D01*
X133738095Y-118928571D01*
X133642857Y-118976190D01*
X133261904Y-118976190D01*
X134214285Y-118547619D02*
X134261904Y-118500000D01*
X134357142Y-118452380D01*
X134595238Y-118452380D01*
X134690476Y-118500000D01*
X134738095Y-118547619D01*
X134785714Y-118642857D01*
X134785714Y-118738095D01*
X134738095Y-118880952D01*
X134166666Y-119452380D01*
X134785714Y-119452380D01*
X133833333Y-116452380D02*
X133500000Y-115976190D01*
X133261904Y-116452380D02*
X133261904Y-115452380D01*
X133642857Y-115452380D01*
X133738095Y-115500000D01*
X133785714Y-115547619D01*
X133833333Y-115642857D01*
X133833333Y-115785714D01*
X133785714Y-115880952D01*
X133738095Y-115928571D01*
X133642857Y-115976190D01*
X133261904Y-115976190D01*
X134166666Y-115452380D02*
X134785714Y-115452380D01*
X134452380Y-115833333D01*
X134595238Y-115833333D01*
X134690476Y-115880952D01*
X134738095Y-115928571D01*
X134785714Y-116023809D01*
X134785714Y-116261904D01*
X134738095Y-116357142D01*
X134690476Y-116404761D01*
X134595238Y-116452380D01*
X134309523Y-116452380D01*
X134214285Y-116404761D01*
X134166666Y-116357142D01*
X148711902Y-116210601D02*
X148139482Y-116783021D01*
X148105810Y-116884036D01*
X148105810Y-116951380D01*
X148139482Y-117052395D01*
X148274169Y-117187082D01*
X148375184Y-117220754D01*
X148442528Y-117220754D01*
X148543543Y-117187082D01*
X149115963Y-116614662D01*
X149115963Y-118028876D02*
X148711902Y-117624815D01*
X148913932Y-117826845D02*
X149621039Y-117119739D01*
X149452680Y-117153410D01*
X149317993Y-117153410D01*
X149216978Y-117119739D01*
X113833333Y-113507142D02*
X113785714Y-113554761D01*
X113642857Y-113602380D01*
X113547619Y-113602380D01*
X113404761Y-113554761D01*
X113309523Y-113459523D01*
X113261904Y-113364285D01*
X113214285Y-113173809D01*
X113214285Y-113030952D01*
X113261904Y-112840476D01*
X113309523Y-112745238D01*
X113404761Y-112650000D01*
X113547619Y-112602380D01*
X113642857Y-112602380D01*
X113785714Y-112650000D01*
X113833333Y-112697619D01*
X114690476Y-112935714D02*
X114690476Y-113602380D01*
X114452380Y-112554761D02*
X114214285Y-113269047D01*
X114833333Y-113269047D01*
M02*
