G04 #@! TF.GenerationSoftware,KiCad,Pcbnew,(5.1.6)-1*
G04 #@! TF.CreationDate,2020-10-30T20:32:16+01:00*
G04 #@! TF.ProjectId,light-ctl,6c696768-742d-4637-946c-2e6b69636164,rev?*
G04 #@! TF.SameCoordinates,Original*
G04 #@! TF.FileFunction,Soldermask,Bot*
G04 #@! TF.FilePolarity,Negative*
%FSLAX46Y46*%
G04 Gerber Fmt 4.6, Leading zero omitted, Abs format (unit mm)*
G04 Created by KiCad (PCBNEW (5.1.6)-1) date 2020-10-30 20:32:16*
%MOMM*%
%LPD*%
G01*
G04 APERTURE LIST*
%ADD10C,3.300000*%
%ADD11O,1.800000X1.800000*%
%ADD12R,1.800000X1.800000*%
G04 APERTURE END LIST*
D10*
X104000000Y-105000000D03*
X202000000Y-105000000D03*
X202000000Y-117000000D03*
X104000000Y-117000000D03*
D11*
X112000000Y-103000000D03*
X114500000Y-103000000D03*
X117000000Y-103000000D03*
X119500000Y-103000000D03*
D12*
X122000000Y-103000000D03*
D11*
X177260000Y-103000000D03*
X174720000Y-103000000D03*
X172180000Y-103000000D03*
X169640000Y-103000000D03*
X167100000Y-103000000D03*
X164560000Y-103000000D03*
X162020000Y-103000000D03*
X159480000Y-103000000D03*
X156940000Y-103000000D03*
X154400000Y-103000000D03*
X151860000Y-103000000D03*
X149320000Y-103000000D03*
X146780000Y-103000000D03*
X144240000Y-103000000D03*
X141700000Y-103000000D03*
X139160000Y-103000000D03*
X136620000Y-103000000D03*
X134080000Y-103000000D03*
X131540000Y-103000000D03*
D12*
X129000000Y-103000000D03*
X193840000Y-103000000D03*
D11*
X191340000Y-103000000D03*
X188840000Y-103000000D03*
X186340000Y-103000000D03*
X183840000Y-103000000D03*
D12*
X122000000Y-119000000D03*
D11*
X122000000Y-116460000D03*
X119460000Y-119000000D03*
X119460000Y-116460000D03*
X116920000Y-119000000D03*
X116920000Y-116460000D03*
X114380000Y-119000000D03*
X114380000Y-116460000D03*
X111840000Y-119000000D03*
X111840000Y-116460000D03*
X138420000Y-119000000D03*
X140960000Y-119000000D03*
D12*
X143500000Y-119000000D03*
D11*
X187460000Y-117080000D03*
X190000000Y-117080000D03*
X187460000Y-114540000D03*
X190000000Y-114540000D03*
X187460000Y-112000000D03*
D12*
X190000000Y-112000000D03*
D11*
X195000000Y-117540000D03*
D12*
X195000000Y-115000000D03*
M02*
