G04 #@! TF.GenerationSoftware,KiCad,Pcbnew,(5.1.6)-1*
G04 #@! TF.CreationDate,2020-10-30T20:32:16+01:00*
G04 #@! TF.ProjectId,light-ctl,6c696768-742d-4637-946c-2e6b69636164,rev?*
G04 #@! TF.SameCoordinates,Original*
G04 #@! TF.FileFunction,Soldermask,Top*
G04 #@! TF.FilePolarity,Negative*
%FSLAX46Y46*%
G04 Gerber Fmt 4.6, Leading zero omitted, Abs format (unit mm)*
G04 Created by KiCad (PCBNEW (5.1.6)-1) date 2020-10-30 20:32:16*
%MOMM*%
%LPD*%
G01*
G04 APERTURE LIST*
%ADD10R,1.600000X1.350000*%
%ADD11R,1.350000X1.600000*%
%ADD12C,3.300000*%
%ADD13O,1.800000X1.800000*%
%ADD14R,1.800000X1.800000*%
%ADD15R,1.400000X1.600000*%
%ADD16R,1.600000X1.400000*%
%ADD17C,0.100000*%
%ADD18R,3.300000X2.600000*%
G04 APERTURE END LIST*
D10*
X139250000Y-108500000D03*
X141750000Y-108500000D03*
D11*
X183000000Y-119250000D03*
X183000000Y-116750000D03*
D10*
X166250000Y-116000000D03*
X163750000Y-116000000D03*
D12*
X104000000Y-105000000D03*
X202000000Y-105000000D03*
X202000000Y-117000000D03*
X104000000Y-117000000D03*
D13*
X112000000Y-103000000D03*
X114500000Y-103000000D03*
X117000000Y-103000000D03*
X119500000Y-103000000D03*
D14*
X122000000Y-103000000D03*
D13*
X177260000Y-103000000D03*
X174720000Y-103000000D03*
X172180000Y-103000000D03*
X169640000Y-103000000D03*
X167100000Y-103000000D03*
X164560000Y-103000000D03*
X162020000Y-103000000D03*
X159480000Y-103000000D03*
X156940000Y-103000000D03*
X154400000Y-103000000D03*
X151860000Y-103000000D03*
X149320000Y-103000000D03*
X146780000Y-103000000D03*
X144240000Y-103000000D03*
X141700000Y-103000000D03*
X139160000Y-103000000D03*
X136620000Y-103000000D03*
X134080000Y-103000000D03*
X131540000Y-103000000D03*
D14*
X129000000Y-103000000D03*
X193840000Y-103000000D03*
D13*
X191340000Y-103000000D03*
X188840000Y-103000000D03*
X186340000Y-103000000D03*
X183840000Y-103000000D03*
D14*
X122000000Y-119000000D03*
D13*
X122000000Y-116460000D03*
X119460000Y-119000000D03*
X119460000Y-116460000D03*
X116920000Y-119000000D03*
X116920000Y-116460000D03*
X114380000Y-119000000D03*
X114380000Y-116460000D03*
X111840000Y-119000000D03*
X111840000Y-116460000D03*
X138420000Y-119000000D03*
X140960000Y-119000000D03*
D14*
X143500000Y-119000000D03*
D13*
X187460000Y-117080000D03*
X190000000Y-117080000D03*
X187460000Y-114540000D03*
X190000000Y-114540000D03*
X187460000Y-112000000D03*
D14*
X190000000Y-112000000D03*
D13*
X195000000Y-117540000D03*
D14*
X195000000Y-115000000D03*
D15*
X180000000Y-119350000D03*
X180000000Y-116650000D03*
D16*
X128650000Y-119000000D03*
X131350000Y-119000000D03*
X131350000Y-116000000D03*
X128650000Y-116000000D03*
D17*
G36*
X152186827Y-117277996D02*
G01*
X152681802Y-117772971D01*
X151762563Y-118692210D01*
X151267588Y-118197235D01*
X152186827Y-117277996D01*
G37*
G36*
X151621142Y-116712310D02*
G01*
X152116117Y-117207285D01*
X151196878Y-118126524D01*
X150701903Y-117631549D01*
X151621142Y-116712310D01*
G37*
G36*
X151055456Y-116146625D02*
G01*
X151550431Y-116641600D01*
X150631192Y-117560839D01*
X150136217Y-117065864D01*
X151055456Y-116146625D01*
G37*
G36*
X150489771Y-115580940D02*
G01*
X150984746Y-116075915D01*
X150065507Y-116995154D01*
X149570532Y-116500179D01*
X150489771Y-115580940D01*
G37*
G36*
X149924085Y-115015254D02*
G01*
X150419060Y-115510229D01*
X149499821Y-116429468D01*
X149004846Y-115934493D01*
X149924085Y-115015254D01*
G37*
G36*
X149358400Y-114449569D02*
G01*
X149853375Y-114944544D01*
X148934136Y-115863783D01*
X148439161Y-115368808D01*
X149358400Y-114449569D01*
G37*
G36*
X148792715Y-113883883D02*
G01*
X149287690Y-114378858D01*
X148368451Y-115298097D01*
X147873476Y-114803122D01*
X148792715Y-113883883D01*
G37*
G36*
X148227029Y-113318198D02*
G01*
X148722004Y-113813173D01*
X147802765Y-114732412D01*
X147307790Y-114237437D01*
X148227029Y-113318198D01*
G37*
G36*
X148722004Y-112186827D02*
G01*
X148227029Y-112681802D01*
X147307790Y-111762563D01*
X147802765Y-111267588D01*
X148722004Y-112186827D01*
G37*
G36*
X149287690Y-111621142D02*
G01*
X148792715Y-112116117D01*
X147873476Y-111196878D01*
X148368451Y-110701903D01*
X149287690Y-111621142D01*
G37*
G36*
X149853375Y-111055456D02*
G01*
X149358400Y-111550431D01*
X148439161Y-110631192D01*
X148934136Y-110136217D01*
X149853375Y-111055456D01*
G37*
G36*
X150419060Y-110489771D02*
G01*
X149924085Y-110984746D01*
X149004846Y-110065507D01*
X149499821Y-109570532D01*
X150419060Y-110489771D01*
G37*
G36*
X150984746Y-109924085D02*
G01*
X150489771Y-110419060D01*
X149570532Y-109499821D01*
X150065507Y-109004846D01*
X150984746Y-109924085D01*
G37*
G36*
X151550431Y-109358400D02*
G01*
X151055456Y-109853375D01*
X150136217Y-108934136D01*
X150631192Y-108439161D01*
X151550431Y-109358400D01*
G37*
G36*
X152116117Y-108792715D02*
G01*
X151621142Y-109287690D01*
X150701903Y-108368451D01*
X151196878Y-107873476D01*
X152116117Y-108792715D01*
G37*
G36*
X152681802Y-108227029D02*
G01*
X152186827Y-108722004D01*
X151267588Y-107802765D01*
X151762563Y-107307790D01*
X152681802Y-108227029D01*
G37*
G36*
X154237437Y-107307790D02*
G01*
X154732412Y-107802765D01*
X153813173Y-108722004D01*
X153318198Y-108227029D01*
X154237437Y-107307790D01*
G37*
G36*
X154803122Y-107873476D02*
G01*
X155298097Y-108368451D01*
X154378858Y-109287690D01*
X153883883Y-108792715D01*
X154803122Y-107873476D01*
G37*
G36*
X155368808Y-108439161D02*
G01*
X155863783Y-108934136D01*
X154944544Y-109853375D01*
X154449569Y-109358400D01*
X155368808Y-108439161D01*
G37*
G36*
X155934493Y-109004846D02*
G01*
X156429468Y-109499821D01*
X155510229Y-110419060D01*
X155015254Y-109924085D01*
X155934493Y-109004846D01*
G37*
G36*
X156500179Y-109570532D02*
G01*
X156995154Y-110065507D01*
X156075915Y-110984746D01*
X155580940Y-110489771D01*
X156500179Y-109570532D01*
G37*
G36*
X157065864Y-110136217D02*
G01*
X157560839Y-110631192D01*
X156641600Y-111550431D01*
X156146625Y-111055456D01*
X157065864Y-110136217D01*
G37*
G36*
X157631549Y-110701903D02*
G01*
X158126524Y-111196878D01*
X157207285Y-112116117D01*
X156712310Y-111621142D01*
X157631549Y-110701903D01*
G37*
G36*
X158197235Y-111267588D02*
G01*
X158692210Y-111762563D01*
X157772971Y-112681802D01*
X157277996Y-112186827D01*
X158197235Y-111267588D01*
G37*
G36*
X158692210Y-114237437D02*
G01*
X158197235Y-114732412D01*
X157277996Y-113813173D01*
X157772971Y-113318198D01*
X158692210Y-114237437D01*
G37*
G36*
X158126524Y-114803122D02*
G01*
X157631549Y-115298097D01*
X156712310Y-114378858D01*
X157207285Y-113883883D01*
X158126524Y-114803122D01*
G37*
G36*
X157560839Y-115368808D02*
G01*
X157065864Y-115863783D01*
X156146625Y-114944544D01*
X156641600Y-114449569D01*
X157560839Y-115368808D01*
G37*
G36*
X156995154Y-115934493D02*
G01*
X156500179Y-116429468D01*
X155580940Y-115510229D01*
X156075915Y-115015254D01*
X156995154Y-115934493D01*
G37*
G36*
X156429468Y-116500179D02*
G01*
X155934493Y-116995154D01*
X155015254Y-116075915D01*
X155510229Y-115580940D01*
X156429468Y-116500179D01*
G37*
G36*
X155863783Y-117065864D02*
G01*
X155368808Y-117560839D01*
X154449569Y-116641600D01*
X154944544Y-116146625D01*
X155863783Y-117065864D01*
G37*
G36*
X155298097Y-117631549D02*
G01*
X154803122Y-118126524D01*
X153883883Y-117207285D01*
X154378858Y-116712310D01*
X155298097Y-117631549D01*
G37*
G36*
X154732412Y-118197235D02*
G01*
X154237437Y-118692210D01*
X153318198Y-117772971D01*
X153813173Y-117277996D01*
X154732412Y-118197235D01*
G37*
D18*
X111850000Y-110000000D03*
X116150000Y-110000000D03*
M02*
