M48
; DRILL file {KiCad (5.1.6)-1} date 10/30/20 20:32:18
; FORMAT={-:-/ absolute / inch / decimal}
; #@! TF.CreationDate,2020-10-30T20:32:18+01:00
; #@! TF.GenerationSoftware,Kicad,Pcbnew,(5.1.6)-1
; #@! TF.FileFunction,Plated,1,2,PTH
FMAT,2
INCH
T1C0.0157
T2C0.0394
%
G90
G05
T1
X5.7874Y-4.626
X5.9449Y-4.4488
X6.0236Y-4.4882
X6.1024Y-4.4488
X6.5748Y-4.4882
T2
X5.4496Y-4.685
X5.5496Y-4.685
X5.6496Y-4.685
X4.4031Y-4.585
X4.4031Y-4.685
X4.5031Y-4.585
X4.5031Y-4.685
X4.6031Y-4.585
X4.6031Y-4.685
X4.7031Y-4.585
X4.7031Y-4.685
X4.8031Y-4.585
X4.8031Y-4.685
X4.4094Y-4.0551
X4.5079Y-4.0551
X4.6063Y-4.0551
X4.7047Y-4.0551
X4.8031Y-4.0551
X7.6772Y-4.5276
X7.6772Y-4.6276
X7.2378Y-4.0551
X7.3362Y-4.0551
X7.4346Y-4.0551
X7.5331Y-4.0551
X7.6315Y-4.0551
X7.3803Y-4.4094
X7.3803Y-4.5094
X7.3803Y-4.6094
X7.4803Y-4.4094
X7.4803Y-4.5094
X7.4803Y-4.6094
X5.0787Y-4.0551
X5.1787Y-4.0551
X5.2787Y-4.0551
X5.3787Y-4.0551
X5.4787Y-4.0551
X5.5787Y-4.0551
X5.6787Y-4.0551
X5.7787Y-4.0551
X5.8787Y-4.0551
X5.9787Y-4.0551
X6.0787Y-4.0551
X6.1787Y-4.0551
X6.2787Y-4.0551
X6.3787Y-4.0551
X6.4787Y-4.0551
X6.5787Y-4.0551
X6.6787Y-4.0551
X6.7787Y-4.0551
X6.8787Y-4.0551
X6.9787Y-4.0551
T0
M30
