G04 #@! TF.GenerationSoftware,KiCad,Pcbnew,(5.1.6)-1*
G04 #@! TF.CreationDate,2020-10-30T20:32:16+01:00*
G04 #@! TF.ProjectId,light-ctl,6c696768-742d-4637-946c-2e6b69636164,rev?*
G04 #@! TF.SameCoordinates,Original*
G04 #@! TF.FileFunction,Copper,L2,Bot*
G04 #@! TF.FilePolarity,Positive*
%FSLAX46Y46*%
G04 Gerber Fmt 4.6, Leading zero omitted, Abs format (unit mm)*
G04 Created by KiCad (PCBNEW (5.1.6)-1) date 2020-10-30 20:32:16*
%MOMM*%
%LPD*%
G01*
G04 APERTURE LIST*
G04 #@! TA.AperFunction,ComponentPad*
%ADD10O,1.700000X1.700000*%
G04 #@! TD*
G04 #@! TA.AperFunction,ComponentPad*
%ADD11R,1.700000X1.700000*%
G04 #@! TD*
G04 #@! TA.AperFunction,ViaPad*
%ADD12C,0.800000*%
G04 #@! TD*
G04 #@! TA.AperFunction,Conductor*
%ADD13C,0.250000*%
G04 #@! TD*
G04 #@! TA.AperFunction,Conductor*
%ADD14C,0.500000*%
G04 #@! TD*
G04 #@! TA.AperFunction,Conductor*
%ADD15C,0.254000*%
G04 #@! TD*
G04 APERTURE END LIST*
D10*
X112000000Y-103000000D03*
X114500000Y-103000000D03*
X117000000Y-103000000D03*
X119500000Y-103000000D03*
D11*
X122000000Y-103000000D03*
D10*
X177260000Y-103000000D03*
X174720000Y-103000000D03*
X172180000Y-103000000D03*
X169640000Y-103000000D03*
X167100000Y-103000000D03*
X164560000Y-103000000D03*
X162020000Y-103000000D03*
X159480000Y-103000000D03*
X156940000Y-103000000D03*
X154400000Y-103000000D03*
X151860000Y-103000000D03*
X149320000Y-103000000D03*
X146780000Y-103000000D03*
X144240000Y-103000000D03*
X141700000Y-103000000D03*
X139160000Y-103000000D03*
X136620000Y-103000000D03*
X134080000Y-103000000D03*
X131540000Y-103000000D03*
D11*
X129000000Y-103000000D03*
X193840000Y-103000000D03*
D10*
X191340000Y-103000000D03*
X188840000Y-103000000D03*
X186340000Y-103000000D03*
X183840000Y-103000000D03*
D11*
X122000000Y-119000000D03*
D10*
X122000000Y-116460000D03*
X119460000Y-119000000D03*
X119460000Y-116460000D03*
X116920000Y-119000000D03*
X116920000Y-116460000D03*
X114380000Y-119000000D03*
X114380000Y-116460000D03*
X111840000Y-119000000D03*
X111840000Y-116460000D03*
X138420000Y-119000000D03*
X140960000Y-119000000D03*
D11*
X143500000Y-119000000D03*
D10*
X187460000Y-117080000D03*
X190000000Y-117080000D03*
X187460000Y-114540000D03*
X190000000Y-114540000D03*
X187460000Y-112000000D03*
D11*
X190000000Y-112000000D03*
D10*
X195000000Y-117540000D03*
D11*
X195000000Y-115000000D03*
D12*
X151000000Y-113000000D03*
X167000000Y-114000000D03*
X155000000Y-113000000D03*
X147000000Y-117500000D03*
X153000000Y-114000000D03*
D13*
X148205012Y-118705012D02*
X147000000Y-117500000D01*
X149500000Y-120000000D02*
X148205012Y-118705012D01*
X189000000Y-120000000D02*
X149500000Y-120000000D01*
X190000000Y-117080000D02*
X190000000Y-119000000D01*
X190000000Y-119000000D02*
X189000000Y-120000000D01*
D14*
X122000000Y-119000000D02*
X122000000Y-116460000D01*
X122000000Y-116460000D02*
X122000000Y-103000000D01*
X122000000Y-103000000D02*
X129000000Y-103000000D01*
X122000000Y-119000000D02*
X122000000Y-117650000D01*
X151577336Y-114000000D02*
X153000000Y-114000000D01*
X122000000Y-116460000D02*
X124460000Y-114000000D01*
X124460000Y-114000000D02*
X151577336Y-114000000D01*
X129000000Y-102000000D02*
X129000000Y-103000000D01*
X193000000Y-101000000D02*
X130000000Y-101000000D01*
X194000000Y-103000000D02*
X194000000Y-102000000D01*
X130000000Y-101000000D02*
X129000000Y-102000000D01*
X194000000Y-102000000D02*
X193000000Y-101000000D01*
X187460000Y-112000000D02*
X187460000Y-111460000D01*
X195000000Y-104160000D02*
X193840000Y-103000000D01*
X187460000Y-112000000D02*
X187460000Y-110540000D01*
X187460000Y-110540000D02*
X189000000Y-109000000D01*
X194000000Y-109000000D02*
X195000000Y-108000000D01*
X189000000Y-109000000D02*
X194000000Y-109000000D01*
X195000000Y-115000000D02*
X195000000Y-108000000D01*
X195000000Y-108000000D02*
X195000000Y-104160000D01*
D13*
X179350000Y-112150000D02*
X150850000Y-112150000D01*
X188700000Y-116640998D02*
X188700000Y-118800000D01*
X188700000Y-118800000D02*
X188500000Y-119000000D01*
X186200000Y-119000000D02*
X179350000Y-112150000D01*
X150850000Y-112150000D02*
X141700000Y-103000000D01*
X188500000Y-119000000D02*
X186200000Y-119000000D01*
X188700000Y-116640998D02*
X188700000Y-116300000D01*
X190000000Y-115000000D02*
X190000000Y-114540000D01*
X188700000Y-116300000D02*
X190000000Y-115000000D01*
X152620000Y-111380000D02*
X144240000Y-103000000D01*
X190000000Y-112000000D02*
X188715001Y-113284999D01*
X181780000Y-111380000D02*
X152620000Y-111380000D01*
X188715001Y-113284999D02*
X188715001Y-115484999D01*
X188400000Y-115800000D02*
X186200000Y-115800000D01*
X188715001Y-115484999D02*
X188400000Y-115800000D01*
X186200000Y-115800000D02*
X181780000Y-111380000D01*
X146780000Y-103000000D02*
X154476639Y-110696639D01*
X183616639Y-110696639D02*
X187460000Y-114540000D01*
X154476639Y-110696639D02*
X183616639Y-110696639D01*
D15*
G36*
X128404956Y-101343466D02*
G01*
X128371183Y-101371183D01*
X128260589Y-101505942D01*
X128257389Y-101511928D01*
X128150000Y-101511928D01*
X128025518Y-101524188D01*
X127905820Y-101560498D01*
X127795506Y-101619463D01*
X127698815Y-101698815D01*
X127619463Y-101795506D01*
X127560498Y-101905820D01*
X127524188Y-102025518D01*
X127515375Y-102115000D01*
X123484625Y-102115000D01*
X123475812Y-102025518D01*
X123439502Y-101905820D01*
X123380537Y-101795506D01*
X123301185Y-101698815D01*
X123204494Y-101619463D01*
X123094180Y-101560498D01*
X122974482Y-101524188D01*
X122850000Y-101511928D01*
X121150000Y-101511928D01*
X121025518Y-101524188D01*
X120905820Y-101560498D01*
X120795506Y-101619463D01*
X120698815Y-101698815D01*
X120619463Y-101795506D01*
X120560498Y-101905820D01*
X120547797Y-101947690D01*
X120446632Y-101846525D01*
X120203411Y-101684010D01*
X119933158Y-101572068D01*
X119646260Y-101515000D01*
X119353740Y-101515000D01*
X119066842Y-101572068D01*
X118796589Y-101684010D01*
X118553368Y-101846525D01*
X118346525Y-102053368D01*
X118245953Y-102203885D01*
X118195178Y-102118645D01*
X118000269Y-101902412D01*
X117766920Y-101728359D01*
X117504099Y-101603175D01*
X117356890Y-101558524D01*
X117127000Y-101679845D01*
X117127000Y-102873000D01*
X117147000Y-102873000D01*
X117147000Y-103127000D01*
X117127000Y-103127000D01*
X117127000Y-104320155D01*
X117356890Y-104441476D01*
X117504099Y-104396825D01*
X117766920Y-104271641D01*
X118000269Y-104097588D01*
X118195178Y-103881355D01*
X118245953Y-103796115D01*
X118346525Y-103946632D01*
X118553368Y-104153475D01*
X118796589Y-104315990D01*
X119066842Y-104427932D01*
X119353740Y-104485000D01*
X119646260Y-104485000D01*
X119933158Y-104427932D01*
X120203411Y-104315990D01*
X120446632Y-104153475D01*
X120547797Y-104052310D01*
X120560498Y-104094180D01*
X120619463Y-104204494D01*
X120698815Y-104301185D01*
X120795506Y-104380537D01*
X120905820Y-104439502D01*
X121025518Y-104475812D01*
X121115001Y-104484625D01*
X121115000Y-115265344D01*
X121053368Y-115306525D01*
X120846525Y-115513368D01*
X120724805Y-115695534D01*
X120655178Y-115578645D01*
X120460269Y-115362412D01*
X120226920Y-115188359D01*
X119964099Y-115063175D01*
X119816890Y-115018524D01*
X119587000Y-115139845D01*
X119587000Y-116333000D01*
X119607000Y-116333000D01*
X119607000Y-116587000D01*
X119587000Y-116587000D01*
X119587000Y-118873000D01*
X119607000Y-118873000D01*
X119607000Y-119127000D01*
X119587000Y-119127000D01*
X119587000Y-120320155D01*
X119816890Y-120441476D01*
X119964099Y-120396825D01*
X120226920Y-120271641D01*
X120460269Y-120097588D01*
X120536034Y-120013534D01*
X120560498Y-120094180D01*
X120619463Y-120204494D01*
X120698815Y-120301185D01*
X120795506Y-120380537D01*
X120905820Y-120439502D01*
X121025518Y-120475812D01*
X121150000Y-120488072D01*
X122850000Y-120488072D01*
X122974482Y-120475812D01*
X123094180Y-120439502D01*
X123204494Y-120380537D01*
X123301185Y-120301185D01*
X123380537Y-120204494D01*
X123439502Y-120094180D01*
X123475812Y-119974482D01*
X123488072Y-119850000D01*
X123488072Y-119356891D01*
X136978519Y-119356891D01*
X137075843Y-119631252D01*
X137224822Y-119881355D01*
X137419731Y-120097588D01*
X137653080Y-120271641D01*
X137915901Y-120396825D01*
X138063110Y-120441476D01*
X138293000Y-120320155D01*
X138293000Y-119127000D01*
X137099186Y-119127000D01*
X136978519Y-119356891D01*
X123488072Y-119356891D01*
X123488072Y-118643109D01*
X136978519Y-118643109D01*
X137099186Y-118873000D01*
X138293000Y-118873000D01*
X138293000Y-117679845D01*
X138547000Y-117679845D01*
X138547000Y-118873000D01*
X138567000Y-118873000D01*
X138567000Y-119127000D01*
X138547000Y-119127000D01*
X138547000Y-120320155D01*
X138776890Y-120441476D01*
X138924099Y-120396825D01*
X139186920Y-120271641D01*
X139420269Y-120097588D01*
X139615178Y-119881355D01*
X139684805Y-119764466D01*
X139806525Y-119946632D01*
X140013368Y-120153475D01*
X140256589Y-120315990D01*
X140526842Y-120427932D01*
X140813740Y-120485000D01*
X141106260Y-120485000D01*
X141393158Y-120427932D01*
X141663411Y-120315990D01*
X141906632Y-120153475D01*
X142038487Y-120021620D01*
X142060498Y-120094180D01*
X142119463Y-120204494D01*
X142198815Y-120301185D01*
X142295506Y-120380537D01*
X142405820Y-120439502D01*
X142525518Y-120475812D01*
X142650000Y-120488072D01*
X144350000Y-120488072D01*
X144474482Y-120475812D01*
X144594180Y-120439502D01*
X144704494Y-120380537D01*
X144801185Y-120301185D01*
X144880537Y-120204494D01*
X144939502Y-120094180D01*
X144975812Y-119974482D01*
X144988072Y-119850000D01*
X144988072Y-118150000D01*
X144975812Y-118025518D01*
X144939502Y-117905820D01*
X144880537Y-117795506D01*
X144801185Y-117698815D01*
X144704494Y-117619463D01*
X144594180Y-117560498D01*
X144474482Y-117524188D01*
X144350000Y-117511928D01*
X142650000Y-117511928D01*
X142525518Y-117524188D01*
X142405820Y-117560498D01*
X142295506Y-117619463D01*
X142198815Y-117698815D01*
X142119463Y-117795506D01*
X142060498Y-117905820D01*
X142038487Y-117978380D01*
X141906632Y-117846525D01*
X141663411Y-117684010D01*
X141393158Y-117572068D01*
X141106260Y-117515000D01*
X140813740Y-117515000D01*
X140526842Y-117572068D01*
X140256589Y-117684010D01*
X140013368Y-117846525D01*
X139806525Y-118053368D01*
X139684805Y-118235534D01*
X139615178Y-118118645D01*
X139420269Y-117902412D01*
X139186920Y-117728359D01*
X138924099Y-117603175D01*
X138776890Y-117558524D01*
X138547000Y-117679845D01*
X138293000Y-117679845D01*
X138063110Y-117558524D01*
X137915901Y-117603175D01*
X137653080Y-117728359D01*
X137419731Y-117902412D01*
X137224822Y-118118645D01*
X137075843Y-118368748D01*
X136978519Y-118643109D01*
X123488072Y-118643109D01*
X123488072Y-118150000D01*
X123475812Y-118025518D01*
X123439502Y-117905820D01*
X123380537Y-117795506D01*
X123301185Y-117698815D01*
X123204494Y-117619463D01*
X123094180Y-117560498D01*
X123021620Y-117538487D01*
X123153475Y-117406632D01*
X123315990Y-117163411D01*
X123427932Y-116893158D01*
X123485000Y-116606260D01*
X123485000Y-116313740D01*
X123470539Y-116241039D01*
X124826579Y-114885000D01*
X152461546Y-114885000D01*
X152509744Y-114917205D01*
X152698102Y-114995226D01*
X152898061Y-115035000D01*
X153101939Y-115035000D01*
X153301898Y-114995226D01*
X153490256Y-114917205D01*
X153659774Y-114803937D01*
X153803937Y-114659774D01*
X153917205Y-114490256D01*
X153995226Y-114301898D01*
X154035000Y-114101939D01*
X154035000Y-113898061D01*
X153995226Y-113698102D01*
X153917205Y-113509744D01*
X153803937Y-113340226D01*
X153659774Y-113196063D01*
X153490256Y-113082795D01*
X153301898Y-113004774D01*
X153101939Y-112965000D01*
X152898061Y-112965000D01*
X152698102Y-113004774D01*
X152509744Y-113082795D01*
X152461546Y-113115000D01*
X124503465Y-113115000D01*
X124459999Y-113110719D01*
X124416533Y-113115000D01*
X124416523Y-113115000D01*
X124286510Y-113127805D01*
X124119687Y-113178411D01*
X123965941Y-113260589D01*
X123965939Y-113260590D01*
X123965940Y-113260590D01*
X123864953Y-113343468D01*
X123864951Y-113343470D01*
X123831183Y-113371183D01*
X123803470Y-113404951D01*
X122885000Y-114323421D01*
X122885000Y-104484625D01*
X122974482Y-104475812D01*
X123094180Y-104439502D01*
X123204494Y-104380537D01*
X123301185Y-104301185D01*
X123380537Y-104204494D01*
X123439502Y-104094180D01*
X123475812Y-103974482D01*
X123484625Y-103885000D01*
X127515375Y-103885000D01*
X127524188Y-103974482D01*
X127560498Y-104094180D01*
X127619463Y-104204494D01*
X127698815Y-104301185D01*
X127795506Y-104380537D01*
X127905820Y-104439502D01*
X128025518Y-104475812D01*
X128150000Y-104488072D01*
X129850000Y-104488072D01*
X129974482Y-104475812D01*
X130094180Y-104439502D01*
X130204494Y-104380537D01*
X130301185Y-104301185D01*
X130380537Y-104204494D01*
X130439502Y-104094180D01*
X130461513Y-104021620D01*
X130593368Y-104153475D01*
X130836589Y-104315990D01*
X131106842Y-104427932D01*
X131393740Y-104485000D01*
X131686260Y-104485000D01*
X131973158Y-104427932D01*
X132243411Y-104315990D01*
X132486632Y-104153475D01*
X132693475Y-103946632D01*
X132810000Y-103772240D01*
X132926525Y-103946632D01*
X133133368Y-104153475D01*
X133376589Y-104315990D01*
X133646842Y-104427932D01*
X133933740Y-104485000D01*
X134226260Y-104485000D01*
X134513158Y-104427932D01*
X134783411Y-104315990D01*
X135026632Y-104153475D01*
X135233475Y-103946632D01*
X135350000Y-103772240D01*
X135466525Y-103946632D01*
X135673368Y-104153475D01*
X135916589Y-104315990D01*
X136186842Y-104427932D01*
X136473740Y-104485000D01*
X136766260Y-104485000D01*
X137053158Y-104427932D01*
X137323411Y-104315990D01*
X137566632Y-104153475D01*
X137773475Y-103946632D01*
X137890000Y-103772240D01*
X138006525Y-103946632D01*
X138213368Y-104153475D01*
X138456589Y-104315990D01*
X138726842Y-104427932D01*
X139013740Y-104485000D01*
X139306260Y-104485000D01*
X139593158Y-104427932D01*
X139863411Y-104315990D01*
X140106632Y-104153475D01*
X140313475Y-103946632D01*
X140430000Y-103772240D01*
X140546525Y-103946632D01*
X140753368Y-104153475D01*
X140996589Y-104315990D01*
X141266842Y-104427932D01*
X141553740Y-104485000D01*
X141846260Y-104485000D01*
X142066408Y-104441209D01*
X150286200Y-112661002D01*
X150309999Y-112690001D01*
X150338997Y-112713799D01*
X150425723Y-112784974D01*
X150547377Y-112850000D01*
X150557753Y-112855546D01*
X150701014Y-112899003D01*
X150812667Y-112910000D01*
X150812676Y-112910000D01*
X150849999Y-112913676D01*
X150887322Y-112910000D01*
X179035199Y-112910000D01*
X185365198Y-119240000D01*
X149814802Y-119240000D01*
X148768815Y-118194014D01*
X148768811Y-118194009D01*
X148035000Y-117460199D01*
X148035000Y-117398061D01*
X147995226Y-117198102D01*
X147917205Y-117009744D01*
X147803937Y-116840226D01*
X147659774Y-116696063D01*
X147490256Y-116582795D01*
X147301898Y-116504774D01*
X147101939Y-116465000D01*
X146898061Y-116465000D01*
X146698102Y-116504774D01*
X146509744Y-116582795D01*
X146340226Y-116696063D01*
X146196063Y-116840226D01*
X146082795Y-117009744D01*
X146004774Y-117198102D01*
X145965000Y-117398061D01*
X145965000Y-117601939D01*
X146004774Y-117801898D01*
X146082795Y-117990256D01*
X146196063Y-118159774D01*
X146340226Y-118303937D01*
X146509744Y-118417205D01*
X146698102Y-118495226D01*
X146898061Y-118535000D01*
X146960199Y-118535000D01*
X147694009Y-119268811D01*
X147694014Y-119268815D01*
X148936201Y-120511003D01*
X148959999Y-120540001D01*
X148988997Y-120563799D01*
X149075724Y-120634974D01*
X149207753Y-120705546D01*
X149351014Y-120749003D01*
X149500000Y-120763677D01*
X149537333Y-120760000D01*
X188962678Y-120760000D01*
X189000000Y-120763676D01*
X189037322Y-120760000D01*
X189037333Y-120760000D01*
X189148986Y-120749003D01*
X189292247Y-120705546D01*
X189424276Y-120634974D01*
X189540001Y-120540001D01*
X189563804Y-120510998D01*
X190511003Y-119563799D01*
X190540001Y-119540001D01*
X190634974Y-119424276D01*
X190705546Y-119292247D01*
X190749003Y-119148986D01*
X190760000Y-119037333D01*
X190763677Y-119000000D01*
X190760000Y-118962667D01*
X190760000Y-118358178D01*
X190946632Y-118233475D01*
X191153475Y-118026632D01*
X191240165Y-117896890D01*
X193558524Y-117896890D01*
X193603175Y-118044099D01*
X193728359Y-118306920D01*
X193902412Y-118540269D01*
X194118645Y-118735178D01*
X194368748Y-118884157D01*
X194643109Y-118981481D01*
X194873000Y-118860814D01*
X194873000Y-117667000D01*
X195127000Y-117667000D01*
X195127000Y-118860814D01*
X195356891Y-118981481D01*
X195631252Y-118884157D01*
X195881355Y-118735178D01*
X196097588Y-118540269D01*
X196271641Y-118306920D01*
X196396825Y-118044099D01*
X196441476Y-117896890D01*
X196320155Y-117667000D01*
X195127000Y-117667000D01*
X194873000Y-117667000D01*
X193679845Y-117667000D01*
X193558524Y-117896890D01*
X191240165Y-117896890D01*
X191315990Y-117783411D01*
X191427932Y-117513158D01*
X191485000Y-117226260D01*
X191485000Y-116933740D01*
X191427932Y-116646842D01*
X191315990Y-116376589D01*
X191153475Y-116133368D01*
X190946632Y-115926525D01*
X190772240Y-115810000D01*
X190946632Y-115693475D01*
X191153475Y-115486632D01*
X191315990Y-115243411D01*
X191427932Y-114973158D01*
X191485000Y-114686260D01*
X191485000Y-114393740D01*
X191427932Y-114106842D01*
X191315990Y-113836589D01*
X191153475Y-113593368D01*
X191021620Y-113461513D01*
X191094180Y-113439502D01*
X191204494Y-113380537D01*
X191301185Y-113301185D01*
X191380537Y-113204494D01*
X191439502Y-113094180D01*
X191475812Y-112974482D01*
X191488072Y-112850000D01*
X191488072Y-111150000D01*
X191475812Y-111025518D01*
X191439502Y-110905820D01*
X191380537Y-110795506D01*
X191301185Y-110698815D01*
X191204494Y-110619463D01*
X191094180Y-110560498D01*
X190974482Y-110524188D01*
X190850000Y-110511928D01*
X189150000Y-110511928D01*
X189025518Y-110524188D01*
X188905820Y-110560498D01*
X188795506Y-110619463D01*
X188698815Y-110698815D01*
X188619463Y-110795506D01*
X188560498Y-110905820D01*
X188538487Y-110978380D01*
X188406632Y-110846525D01*
X188405686Y-110845893D01*
X189366579Y-109885000D01*
X193956531Y-109885000D01*
X194000000Y-109889281D01*
X194043469Y-109885000D01*
X194043477Y-109885000D01*
X194115001Y-109877956D01*
X194115000Y-113515375D01*
X194025518Y-113524188D01*
X193905820Y-113560498D01*
X193795506Y-113619463D01*
X193698815Y-113698815D01*
X193619463Y-113795506D01*
X193560498Y-113905820D01*
X193524188Y-114025518D01*
X193511928Y-114150000D01*
X193511928Y-115850000D01*
X193524188Y-115974482D01*
X193560498Y-116094180D01*
X193619463Y-116204494D01*
X193698815Y-116301185D01*
X193795506Y-116380537D01*
X193905820Y-116439502D01*
X193986466Y-116463966D01*
X193902412Y-116539731D01*
X193728359Y-116773080D01*
X193603175Y-117035901D01*
X193558524Y-117183110D01*
X193679845Y-117413000D01*
X194873000Y-117413000D01*
X194873000Y-117393000D01*
X195127000Y-117393000D01*
X195127000Y-117413000D01*
X196320155Y-117413000D01*
X196441476Y-117183110D01*
X196396825Y-117035901D01*
X196274877Y-116779872D01*
X199765000Y-116779872D01*
X199765000Y-117220128D01*
X199850890Y-117651925D01*
X200019369Y-118058669D01*
X200263962Y-118424729D01*
X200575271Y-118736038D01*
X200941331Y-118980631D01*
X201348075Y-119149110D01*
X201779872Y-119235000D01*
X202220128Y-119235000D01*
X202651925Y-119149110D01*
X203058669Y-118980631D01*
X203424729Y-118736038D01*
X203736038Y-118424729D01*
X203980631Y-118058669D01*
X204149110Y-117651925D01*
X204235000Y-117220128D01*
X204235000Y-116779872D01*
X204149110Y-116348075D01*
X203980631Y-115941331D01*
X203736038Y-115575271D01*
X203424729Y-115263962D01*
X203058669Y-115019369D01*
X202651925Y-114850890D01*
X202220128Y-114765000D01*
X201779872Y-114765000D01*
X201348075Y-114850890D01*
X200941331Y-115019369D01*
X200575271Y-115263962D01*
X200263962Y-115575271D01*
X200019369Y-115941331D01*
X199850890Y-116348075D01*
X199765000Y-116779872D01*
X196274877Y-116779872D01*
X196271641Y-116773080D01*
X196097588Y-116539731D01*
X196013534Y-116463966D01*
X196094180Y-116439502D01*
X196204494Y-116380537D01*
X196301185Y-116301185D01*
X196380537Y-116204494D01*
X196439502Y-116094180D01*
X196475812Y-115974482D01*
X196488072Y-115850000D01*
X196488072Y-114150000D01*
X196475812Y-114025518D01*
X196439502Y-113905820D01*
X196380537Y-113795506D01*
X196301185Y-113698815D01*
X196204494Y-113619463D01*
X196094180Y-113560498D01*
X195974482Y-113524188D01*
X195885000Y-113515375D01*
X195885000Y-108043469D01*
X195889281Y-108000000D01*
X195885000Y-107956531D01*
X195885000Y-104779872D01*
X199765000Y-104779872D01*
X199765000Y-105220128D01*
X199850890Y-105651925D01*
X200019369Y-106058669D01*
X200263962Y-106424729D01*
X200575271Y-106736038D01*
X200941331Y-106980631D01*
X201348075Y-107149110D01*
X201779872Y-107235000D01*
X202220128Y-107235000D01*
X202651925Y-107149110D01*
X203058669Y-106980631D01*
X203424729Y-106736038D01*
X203736038Y-106424729D01*
X203980631Y-106058669D01*
X204149110Y-105651925D01*
X204235000Y-105220128D01*
X204235000Y-104779872D01*
X204149110Y-104348075D01*
X203980631Y-103941331D01*
X203736038Y-103575271D01*
X203424729Y-103263962D01*
X203058669Y-103019369D01*
X202651925Y-102850890D01*
X202220128Y-102765000D01*
X201779872Y-102765000D01*
X201348075Y-102850890D01*
X200941331Y-103019369D01*
X200575271Y-103263962D01*
X200263962Y-103575271D01*
X200019369Y-103941331D01*
X199850890Y-104348075D01*
X199765000Y-104779872D01*
X195885000Y-104779872D01*
X195885000Y-104203469D01*
X195889281Y-104160000D01*
X195885000Y-104116531D01*
X195885000Y-104116523D01*
X195872195Y-103986510D01*
X195821589Y-103819687D01*
X195739411Y-103665941D01*
X195708944Y-103628817D01*
X195656532Y-103564953D01*
X195656530Y-103564951D01*
X195628817Y-103531183D01*
X195595049Y-103503470D01*
X195328072Y-103236493D01*
X195328072Y-102150000D01*
X195315812Y-102025518D01*
X195279502Y-101905820D01*
X195220537Y-101795506D01*
X195141185Y-101698815D01*
X195044494Y-101619463D01*
X194934180Y-101560498D01*
X194814482Y-101524188D01*
X194745535Y-101517397D01*
X194739411Y-101505941D01*
X194656532Y-101404953D01*
X194656530Y-101404951D01*
X194628817Y-101371183D01*
X194595049Y-101343470D01*
X193911578Y-100660000D01*
X205340001Y-100660000D01*
X205340000Y-121340000D01*
X100660000Y-121340000D01*
X100660000Y-116779872D01*
X101765000Y-116779872D01*
X101765000Y-117220128D01*
X101850890Y-117651925D01*
X102019369Y-118058669D01*
X102263962Y-118424729D01*
X102575271Y-118736038D01*
X102941331Y-118980631D01*
X103348075Y-119149110D01*
X103779872Y-119235000D01*
X104220128Y-119235000D01*
X104651925Y-119149110D01*
X105058669Y-118980631D01*
X105424729Y-118736038D01*
X105736038Y-118424729D01*
X105980631Y-118058669D01*
X106149110Y-117651925D01*
X106235000Y-117220128D01*
X106235000Y-116779872D01*
X106149110Y-116348075D01*
X106134888Y-116313740D01*
X110355000Y-116313740D01*
X110355000Y-116606260D01*
X110412068Y-116893158D01*
X110524010Y-117163411D01*
X110686525Y-117406632D01*
X110893368Y-117613475D01*
X111067760Y-117730000D01*
X110893368Y-117846525D01*
X110686525Y-118053368D01*
X110524010Y-118296589D01*
X110412068Y-118566842D01*
X110355000Y-118853740D01*
X110355000Y-119146260D01*
X110412068Y-119433158D01*
X110524010Y-119703411D01*
X110686525Y-119946632D01*
X110893368Y-120153475D01*
X111136589Y-120315990D01*
X111406842Y-120427932D01*
X111693740Y-120485000D01*
X111986260Y-120485000D01*
X112273158Y-120427932D01*
X112543411Y-120315990D01*
X112786632Y-120153475D01*
X112993475Y-119946632D01*
X113115195Y-119764466D01*
X113184822Y-119881355D01*
X113379731Y-120097588D01*
X113613080Y-120271641D01*
X113875901Y-120396825D01*
X114023110Y-120441476D01*
X114253000Y-120320155D01*
X114253000Y-119127000D01*
X114233000Y-119127000D01*
X114233000Y-118873000D01*
X114253000Y-118873000D01*
X114253000Y-116587000D01*
X114233000Y-116587000D01*
X114233000Y-116333000D01*
X114253000Y-116333000D01*
X114253000Y-115139845D01*
X114507000Y-115139845D01*
X114507000Y-116333000D01*
X114527000Y-116333000D01*
X114527000Y-116587000D01*
X114507000Y-116587000D01*
X114507000Y-118873000D01*
X114527000Y-118873000D01*
X114527000Y-119127000D01*
X114507000Y-119127000D01*
X114507000Y-120320155D01*
X114736890Y-120441476D01*
X114884099Y-120396825D01*
X115146920Y-120271641D01*
X115380269Y-120097588D01*
X115575178Y-119881355D01*
X115644805Y-119764466D01*
X115766525Y-119946632D01*
X115973368Y-120153475D01*
X116216589Y-120315990D01*
X116486842Y-120427932D01*
X116773740Y-120485000D01*
X117066260Y-120485000D01*
X117353158Y-120427932D01*
X117623411Y-120315990D01*
X117866632Y-120153475D01*
X118073475Y-119946632D01*
X118195195Y-119764466D01*
X118264822Y-119881355D01*
X118459731Y-120097588D01*
X118693080Y-120271641D01*
X118955901Y-120396825D01*
X119103110Y-120441476D01*
X119333000Y-120320155D01*
X119333000Y-119127000D01*
X119313000Y-119127000D01*
X119313000Y-118873000D01*
X119333000Y-118873000D01*
X119333000Y-116587000D01*
X119313000Y-116587000D01*
X119313000Y-116333000D01*
X119333000Y-116333000D01*
X119333000Y-115139845D01*
X119103110Y-115018524D01*
X118955901Y-115063175D01*
X118693080Y-115188359D01*
X118459731Y-115362412D01*
X118264822Y-115578645D01*
X118195195Y-115695534D01*
X118073475Y-115513368D01*
X117866632Y-115306525D01*
X117623411Y-115144010D01*
X117353158Y-115032068D01*
X117066260Y-114975000D01*
X116773740Y-114975000D01*
X116486842Y-115032068D01*
X116216589Y-115144010D01*
X115973368Y-115306525D01*
X115766525Y-115513368D01*
X115644805Y-115695534D01*
X115575178Y-115578645D01*
X115380269Y-115362412D01*
X115146920Y-115188359D01*
X114884099Y-115063175D01*
X114736890Y-115018524D01*
X114507000Y-115139845D01*
X114253000Y-115139845D01*
X114023110Y-115018524D01*
X113875901Y-115063175D01*
X113613080Y-115188359D01*
X113379731Y-115362412D01*
X113184822Y-115578645D01*
X113115195Y-115695534D01*
X112993475Y-115513368D01*
X112786632Y-115306525D01*
X112543411Y-115144010D01*
X112273158Y-115032068D01*
X111986260Y-114975000D01*
X111693740Y-114975000D01*
X111406842Y-115032068D01*
X111136589Y-115144010D01*
X110893368Y-115306525D01*
X110686525Y-115513368D01*
X110524010Y-115756589D01*
X110412068Y-116026842D01*
X110355000Y-116313740D01*
X106134888Y-116313740D01*
X105980631Y-115941331D01*
X105736038Y-115575271D01*
X105424729Y-115263962D01*
X105058669Y-115019369D01*
X104651925Y-114850890D01*
X104220128Y-114765000D01*
X103779872Y-114765000D01*
X103348075Y-114850890D01*
X102941331Y-115019369D01*
X102575271Y-115263962D01*
X102263962Y-115575271D01*
X102019369Y-115941331D01*
X101850890Y-116348075D01*
X101765000Y-116779872D01*
X100660000Y-116779872D01*
X100660000Y-104779872D01*
X101765000Y-104779872D01*
X101765000Y-105220128D01*
X101850890Y-105651925D01*
X102019369Y-106058669D01*
X102263962Y-106424729D01*
X102575271Y-106736038D01*
X102941331Y-106980631D01*
X103348075Y-107149110D01*
X103779872Y-107235000D01*
X104220128Y-107235000D01*
X104651925Y-107149110D01*
X105058669Y-106980631D01*
X105424729Y-106736038D01*
X105736038Y-106424729D01*
X105980631Y-106058669D01*
X106149110Y-105651925D01*
X106235000Y-105220128D01*
X106235000Y-104779872D01*
X106149110Y-104348075D01*
X105980631Y-103941331D01*
X105736038Y-103575271D01*
X105517658Y-103356891D01*
X110558519Y-103356891D01*
X110655843Y-103631252D01*
X110804822Y-103881355D01*
X110999731Y-104097588D01*
X111233080Y-104271641D01*
X111495901Y-104396825D01*
X111643110Y-104441476D01*
X111873000Y-104320155D01*
X111873000Y-103127000D01*
X110679186Y-103127000D01*
X110558519Y-103356891D01*
X105517658Y-103356891D01*
X105424729Y-103263962D01*
X105058669Y-103019369D01*
X104651925Y-102850890D01*
X104220128Y-102765000D01*
X103779872Y-102765000D01*
X103348075Y-102850890D01*
X102941331Y-103019369D01*
X102575271Y-103263962D01*
X102263962Y-103575271D01*
X102019369Y-103941331D01*
X101850890Y-104348075D01*
X101765000Y-104779872D01*
X100660000Y-104779872D01*
X100660000Y-102643109D01*
X110558519Y-102643109D01*
X110679186Y-102873000D01*
X111873000Y-102873000D01*
X111873000Y-101679845D01*
X112127000Y-101679845D01*
X112127000Y-102873000D01*
X112147000Y-102873000D01*
X112147000Y-103127000D01*
X112127000Y-103127000D01*
X112127000Y-104320155D01*
X112356890Y-104441476D01*
X112504099Y-104396825D01*
X112766920Y-104271641D01*
X113000269Y-104097588D01*
X113195178Y-103881355D01*
X113245953Y-103796115D01*
X113346525Y-103946632D01*
X113553368Y-104153475D01*
X113796589Y-104315990D01*
X114066842Y-104427932D01*
X114353740Y-104485000D01*
X114646260Y-104485000D01*
X114933158Y-104427932D01*
X115203411Y-104315990D01*
X115446632Y-104153475D01*
X115653475Y-103946632D01*
X115754047Y-103796115D01*
X115804822Y-103881355D01*
X115999731Y-104097588D01*
X116233080Y-104271641D01*
X116495901Y-104396825D01*
X116643110Y-104441476D01*
X116873000Y-104320155D01*
X116873000Y-103127000D01*
X116853000Y-103127000D01*
X116853000Y-102873000D01*
X116873000Y-102873000D01*
X116873000Y-101679845D01*
X116643110Y-101558524D01*
X116495901Y-101603175D01*
X116233080Y-101728359D01*
X115999731Y-101902412D01*
X115804822Y-102118645D01*
X115754047Y-102203885D01*
X115653475Y-102053368D01*
X115446632Y-101846525D01*
X115203411Y-101684010D01*
X114933158Y-101572068D01*
X114646260Y-101515000D01*
X114353740Y-101515000D01*
X114066842Y-101572068D01*
X113796589Y-101684010D01*
X113553368Y-101846525D01*
X113346525Y-102053368D01*
X113245953Y-102203885D01*
X113195178Y-102118645D01*
X113000269Y-101902412D01*
X112766920Y-101728359D01*
X112504099Y-101603175D01*
X112356890Y-101558524D01*
X112127000Y-101679845D01*
X111873000Y-101679845D01*
X111643110Y-101558524D01*
X111495901Y-101603175D01*
X111233080Y-101728359D01*
X110999731Y-101902412D01*
X110804822Y-102118645D01*
X110655843Y-102368748D01*
X110558519Y-102643109D01*
X100660000Y-102643109D01*
X100660000Y-100660000D01*
X129088421Y-100660000D01*
X128404956Y-101343466D01*
G37*
X128404956Y-101343466D02*
X128371183Y-101371183D01*
X128260589Y-101505942D01*
X128257389Y-101511928D01*
X128150000Y-101511928D01*
X128025518Y-101524188D01*
X127905820Y-101560498D01*
X127795506Y-101619463D01*
X127698815Y-101698815D01*
X127619463Y-101795506D01*
X127560498Y-101905820D01*
X127524188Y-102025518D01*
X127515375Y-102115000D01*
X123484625Y-102115000D01*
X123475812Y-102025518D01*
X123439502Y-101905820D01*
X123380537Y-101795506D01*
X123301185Y-101698815D01*
X123204494Y-101619463D01*
X123094180Y-101560498D01*
X122974482Y-101524188D01*
X122850000Y-101511928D01*
X121150000Y-101511928D01*
X121025518Y-101524188D01*
X120905820Y-101560498D01*
X120795506Y-101619463D01*
X120698815Y-101698815D01*
X120619463Y-101795506D01*
X120560498Y-101905820D01*
X120547797Y-101947690D01*
X120446632Y-101846525D01*
X120203411Y-101684010D01*
X119933158Y-101572068D01*
X119646260Y-101515000D01*
X119353740Y-101515000D01*
X119066842Y-101572068D01*
X118796589Y-101684010D01*
X118553368Y-101846525D01*
X118346525Y-102053368D01*
X118245953Y-102203885D01*
X118195178Y-102118645D01*
X118000269Y-101902412D01*
X117766920Y-101728359D01*
X117504099Y-101603175D01*
X117356890Y-101558524D01*
X117127000Y-101679845D01*
X117127000Y-102873000D01*
X117147000Y-102873000D01*
X117147000Y-103127000D01*
X117127000Y-103127000D01*
X117127000Y-104320155D01*
X117356890Y-104441476D01*
X117504099Y-104396825D01*
X117766920Y-104271641D01*
X118000269Y-104097588D01*
X118195178Y-103881355D01*
X118245953Y-103796115D01*
X118346525Y-103946632D01*
X118553368Y-104153475D01*
X118796589Y-104315990D01*
X119066842Y-104427932D01*
X119353740Y-104485000D01*
X119646260Y-104485000D01*
X119933158Y-104427932D01*
X120203411Y-104315990D01*
X120446632Y-104153475D01*
X120547797Y-104052310D01*
X120560498Y-104094180D01*
X120619463Y-104204494D01*
X120698815Y-104301185D01*
X120795506Y-104380537D01*
X120905820Y-104439502D01*
X121025518Y-104475812D01*
X121115001Y-104484625D01*
X121115000Y-115265344D01*
X121053368Y-115306525D01*
X120846525Y-115513368D01*
X120724805Y-115695534D01*
X120655178Y-115578645D01*
X120460269Y-115362412D01*
X120226920Y-115188359D01*
X119964099Y-115063175D01*
X119816890Y-115018524D01*
X119587000Y-115139845D01*
X119587000Y-116333000D01*
X119607000Y-116333000D01*
X119607000Y-116587000D01*
X119587000Y-116587000D01*
X119587000Y-118873000D01*
X119607000Y-118873000D01*
X119607000Y-119127000D01*
X119587000Y-119127000D01*
X119587000Y-120320155D01*
X119816890Y-120441476D01*
X119964099Y-120396825D01*
X120226920Y-120271641D01*
X120460269Y-120097588D01*
X120536034Y-120013534D01*
X120560498Y-120094180D01*
X120619463Y-120204494D01*
X120698815Y-120301185D01*
X120795506Y-120380537D01*
X120905820Y-120439502D01*
X121025518Y-120475812D01*
X121150000Y-120488072D01*
X122850000Y-120488072D01*
X122974482Y-120475812D01*
X123094180Y-120439502D01*
X123204494Y-120380537D01*
X123301185Y-120301185D01*
X123380537Y-120204494D01*
X123439502Y-120094180D01*
X123475812Y-119974482D01*
X123488072Y-119850000D01*
X123488072Y-119356891D01*
X136978519Y-119356891D01*
X137075843Y-119631252D01*
X137224822Y-119881355D01*
X137419731Y-120097588D01*
X137653080Y-120271641D01*
X137915901Y-120396825D01*
X138063110Y-120441476D01*
X138293000Y-120320155D01*
X138293000Y-119127000D01*
X137099186Y-119127000D01*
X136978519Y-119356891D01*
X123488072Y-119356891D01*
X123488072Y-118643109D01*
X136978519Y-118643109D01*
X137099186Y-118873000D01*
X138293000Y-118873000D01*
X138293000Y-117679845D01*
X138547000Y-117679845D01*
X138547000Y-118873000D01*
X138567000Y-118873000D01*
X138567000Y-119127000D01*
X138547000Y-119127000D01*
X138547000Y-120320155D01*
X138776890Y-120441476D01*
X138924099Y-120396825D01*
X139186920Y-120271641D01*
X139420269Y-120097588D01*
X139615178Y-119881355D01*
X139684805Y-119764466D01*
X139806525Y-119946632D01*
X140013368Y-120153475D01*
X140256589Y-120315990D01*
X140526842Y-120427932D01*
X140813740Y-120485000D01*
X141106260Y-120485000D01*
X141393158Y-120427932D01*
X141663411Y-120315990D01*
X141906632Y-120153475D01*
X142038487Y-120021620D01*
X142060498Y-120094180D01*
X142119463Y-120204494D01*
X142198815Y-120301185D01*
X142295506Y-120380537D01*
X142405820Y-120439502D01*
X142525518Y-120475812D01*
X142650000Y-120488072D01*
X144350000Y-120488072D01*
X144474482Y-120475812D01*
X144594180Y-120439502D01*
X144704494Y-120380537D01*
X144801185Y-120301185D01*
X144880537Y-120204494D01*
X144939502Y-120094180D01*
X144975812Y-119974482D01*
X144988072Y-119850000D01*
X144988072Y-118150000D01*
X144975812Y-118025518D01*
X144939502Y-117905820D01*
X144880537Y-117795506D01*
X144801185Y-117698815D01*
X144704494Y-117619463D01*
X144594180Y-117560498D01*
X144474482Y-117524188D01*
X144350000Y-117511928D01*
X142650000Y-117511928D01*
X142525518Y-117524188D01*
X142405820Y-117560498D01*
X142295506Y-117619463D01*
X142198815Y-117698815D01*
X142119463Y-117795506D01*
X142060498Y-117905820D01*
X142038487Y-117978380D01*
X141906632Y-117846525D01*
X141663411Y-117684010D01*
X141393158Y-117572068D01*
X141106260Y-117515000D01*
X140813740Y-117515000D01*
X140526842Y-117572068D01*
X140256589Y-117684010D01*
X140013368Y-117846525D01*
X139806525Y-118053368D01*
X139684805Y-118235534D01*
X139615178Y-118118645D01*
X139420269Y-117902412D01*
X139186920Y-117728359D01*
X138924099Y-117603175D01*
X138776890Y-117558524D01*
X138547000Y-117679845D01*
X138293000Y-117679845D01*
X138063110Y-117558524D01*
X137915901Y-117603175D01*
X137653080Y-117728359D01*
X137419731Y-117902412D01*
X137224822Y-118118645D01*
X137075843Y-118368748D01*
X136978519Y-118643109D01*
X123488072Y-118643109D01*
X123488072Y-118150000D01*
X123475812Y-118025518D01*
X123439502Y-117905820D01*
X123380537Y-117795506D01*
X123301185Y-117698815D01*
X123204494Y-117619463D01*
X123094180Y-117560498D01*
X123021620Y-117538487D01*
X123153475Y-117406632D01*
X123315990Y-117163411D01*
X123427932Y-116893158D01*
X123485000Y-116606260D01*
X123485000Y-116313740D01*
X123470539Y-116241039D01*
X124826579Y-114885000D01*
X152461546Y-114885000D01*
X152509744Y-114917205D01*
X152698102Y-114995226D01*
X152898061Y-115035000D01*
X153101939Y-115035000D01*
X153301898Y-114995226D01*
X153490256Y-114917205D01*
X153659774Y-114803937D01*
X153803937Y-114659774D01*
X153917205Y-114490256D01*
X153995226Y-114301898D01*
X154035000Y-114101939D01*
X154035000Y-113898061D01*
X153995226Y-113698102D01*
X153917205Y-113509744D01*
X153803937Y-113340226D01*
X153659774Y-113196063D01*
X153490256Y-113082795D01*
X153301898Y-113004774D01*
X153101939Y-112965000D01*
X152898061Y-112965000D01*
X152698102Y-113004774D01*
X152509744Y-113082795D01*
X152461546Y-113115000D01*
X124503465Y-113115000D01*
X124459999Y-113110719D01*
X124416533Y-113115000D01*
X124416523Y-113115000D01*
X124286510Y-113127805D01*
X124119687Y-113178411D01*
X123965941Y-113260589D01*
X123965939Y-113260590D01*
X123965940Y-113260590D01*
X123864953Y-113343468D01*
X123864951Y-113343470D01*
X123831183Y-113371183D01*
X123803470Y-113404951D01*
X122885000Y-114323421D01*
X122885000Y-104484625D01*
X122974482Y-104475812D01*
X123094180Y-104439502D01*
X123204494Y-104380537D01*
X123301185Y-104301185D01*
X123380537Y-104204494D01*
X123439502Y-104094180D01*
X123475812Y-103974482D01*
X123484625Y-103885000D01*
X127515375Y-103885000D01*
X127524188Y-103974482D01*
X127560498Y-104094180D01*
X127619463Y-104204494D01*
X127698815Y-104301185D01*
X127795506Y-104380537D01*
X127905820Y-104439502D01*
X128025518Y-104475812D01*
X128150000Y-104488072D01*
X129850000Y-104488072D01*
X129974482Y-104475812D01*
X130094180Y-104439502D01*
X130204494Y-104380537D01*
X130301185Y-104301185D01*
X130380537Y-104204494D01*
X130439502Y-104094180D01*
X130461513Y-104021620D01*
X130593368Y-104153475D01*
X130836589Y-104315990D01*
X131106842Y-104427932D01*
X131393740Y-104485000D01*
X131686260Y-104485000D01*
X131973158Y-104427932D01*
X132243411Y-104315990D01*
X132486632Y-104153475D01*
X132693475Y-103946632D01*
X132810000Y-103772240D01*
X132926525Y-103946632D01*
X133133368Y-104153475D01*
X133376589Y-104315990D01*
X133646842Y-104427932D01*
X133933740Y-104485000D01*
X134226260Y-104485000D01*
X134513158Y-104427932D01*
X134783411Y-104315990D01*
X135026632Y-104153475D01*
X135233475Y-103946632D01*
X135350000Y-103772240D01*
X135466525Y-103946632D01*
X135673368Y-104153475D01*
X135916589Y-104315990D01*
X136186842Y-104427932D01*
X136473740Y-104485000D01*
X136766260Y-104485000D01*
X137053158Y-104427932D01*
X137323411Y-104315990D01*
X137566632Y-104153475D01*
X137773475Y-103946632D01*
X137890000Y-103772240D01*
X138006525Y-103946632D01*
X138213368Y-104153475D01*
X138456589Y-104315990D01*
X138726842Y-104427932D01*
X139013740Y-104485000D01*
X139306260Y-104485000D01*
X139593158Y-104427932D01*
X139863411Y-104315990D01*
X140106632Y-104153475D01*
X140313475Y-103946632D01*
X140430000Y-103772240D01*
X140546525Y-103946632D01*
X140753368Y-104153475D01*
X140996589Y-104315990D01*
X141266842Y-104427932D01*
X141553740Y-104485000D01*
X141846260Y-104485000D01*
X142066408Y-104441209D01*
X150286200Y-112661002D01*
X150309999Y-112690001D01*
X150338997Y-112713799D01*
X150425723Y-112784974D01*
X150547377Y-112850000D01*
X150557753Y-112855546D01*
X150701014Y-112899003D01*
X150812667Y-112910000D01*
X150812676Y-112910000D01*
X150849999Y-112913676D01*
X150887322Y-112910000D01*
X179035199Y-112910000D01*
X185365198Y-119240000D01*
X149814802Y-119240000D01*
X148768815Y-118194014D01*
X148768811Y-118194009D01*
X148035000Y-117460199D01*
X148035000Y-117398061D01*
X147995226Y-117198102D01*
X147917205Y-117009744D01*
X147803937Y-116840226D01*
X147659774Y-116696063D01*
X147490256Y-116582795D01*
X147301898Y-116504774D01*
X147101939Y-116465000D01*
X146898061Y-116465000D01*
X146698102Y-116504774D01*
X146509744Y-116582795D01*
X146340226Y-116696063D01*
X146196063Y-116840226D01*
X146082795Y-117009744D01*
X146004774Y-117198102D01*
X145965000Y-117398061D01*
X145965000Y-117601939D01*
X146004774Y-117801898D01*
X146082795Y-117990256D01*
X146196063Y-118159774D01*
X146340226Y-118303937D01*
X146509744Y-118417205D01*
X146698102Y-118495226D01*
X146898061Y-118535000D01*
X146960199Y-118535000D01*
X147694009Y-119268811D01*
X147694014Y-119268815D01*
X148936201Y-120511003D01*
X148959999Y-120540001D01*
X148988997Y-120563799D01*
X149075724Y-120634974D01*
X149207753Y-120705546D01*
X149351014Y-120749003D01*
X149500000Y-120763677D01*
X149537333Y-120760000D01*
X188962678Y-120760000D01*
X189000000Y-120763676D01*
X189037322Y-120760000D01*
X189037333Y-120760000D01*
X189148986Y-120749003D01*
X189292247Y-120705546D01*
X189424276Y-120634974D01*
X189540001Y-120540001D01*
X189563804Y-120510998D01*
X190511003Y-119563799D01*
X190540001Y-119540001D01*
X190634974Y-119424276D01*
X190705546Y-119292247D01*
X190749003Y-119148986D01*
X190760000Y-119037333D01*
X190763677Y-119000000D01*
X190760000Y-118962667D01*
X190760000Y-118358178D01*
X190946632Y-118233475D01*
X191153475Y-118026632D01*
X191240165Y-117896890D01*
X193558524Y-117896890D01*
X193603175Y-118044099D01*
X193728359Y-118306920D01*
X193902412Y-118540269D01*
X194118645Y-118735178D01*
X194368748Y-118884157D01*
X194643109Y-118981481D01*
X194873000Y-118860814D01*
X194873000Y-117667000D01*
X195127000Y-117667000D01*
X195127000Y-118860814D01*
X195356891Y-118981481D01*
X195631252Y-118884157D01*
X195881355Y-118735178D01*
X196097588Y-118540269D01*
X196271641Y-118306920D01*
X196396825Y-118044099D01*
X196441476Y-117896890D01*
X196320155Y-117667000D01*
X195127000Y-117667000D01*
X194873000Y-117667000D01*
X193679845Y-117667000D01*
X193558524Y-117896890D01*
X191240165Y-117896890D01*
X191315990Y-117783411D01*
X191427932Y-117513158D01*
X191485000Y-117226260D01*
X191485000Y-116933740D01*
X191427932Y-116646842D01*
X191315990Y-116376589D01*
X191153475Y-116133368D01*
X190946632Y-115926525D01*
X190772240Y-115810000D01*
X190946632Y-115693475D01*
X191153475Y-115486632D01*
X191315990Y-115243411D01*
X191427932Y-114973158D01*
X191485000Y-114686260D01*
X191485000Y-114393740D01*
X191427932Y-114106842D01*
X191315990Y-113836589D01*
X191153475Y-113593368D01*
X191021620Y-113461513D01*
X191094180Y-113439502D01*
X191204494Y-113380537D01*
X191301185Y-113301185D01*
X191380537Y-113204494D01*
X191439502Y-113094180D01*
X191475812Y-112974482D01*
X191488072Y-112850000D01*
X191488072Y-111150000D01*
X191475812Y-111025518D01*
X191439502Y-110905820D01*
X191380537Y-110795506D01*
X191301185Y-110698815D01*
X191204494Y-110619463D01*
X191094180Y-110560498D01*
X190974482Y-110524188D01*
X190850000Y-110511928D01*
X189150000Y-110511928D01*
X189025518Y-110524188D01*
X188905820Y-110560498D01*
X188795506Y-110619463D01*
X188698815Y-110698815D01*
X188619463Y-110795506D01*
X188560498Y-110905820D01*
X188538487Y-110978380D01*
X188406632Y-110846525D01*
X188405686Y-110845893D01*
X189366579Y-109885000D01*
X193956531Y-109885000D01*
X194000000Y-109889281D01*
X194043469Y-109885000D01*
X194043477Y-109885000D01*
X194115001Y-109877956D01*
X194115000Y-113515375D01*
X194025518Y-113524188D01*
X193905820Y-113560498D01*
X193795506Y-113619463D01*
X193698815Y-113698815D01*
X193619463Y-113795506D01*
X193560498Y-113905820D01*
X193524188Y-114025518D01*
X193511928Y-114150000D01*
X193511928Y-115850000D01*
X193524188Y-115974482D01*
X193560498Y-116094180D01*
X193619463Y-116204494D01*
X193698815Y-116301185D01*
X193795506Y-116380537D01*
X193905820Y-116439502D01*
X193986466Y-116463966D01*
X193902412Y-116539731D01*
X193728359Y-116773080D01*
X193603175Y-117035901D01*
X193558524Y-117183110D01*
X193679845Y-117413000D01*
X194873000Y-117413000D01*
X194873000Y-117393000D01*
X195127000Y-117393000D01*
X195127000Y-117413000D01*
X196320155Y-117413000D01*
X196441476Y-117183110D01*
X196396825Y-117035901D01*
X196274877Y-116779872D01*
X199765000Y-116779872D01*
X199765000Y-117220128D01*
X199850890Y-117651925D01*
X200019369Y-118058669D01*
X200263962Y-118424729D01*
X200575271Y-118736038D01*
X200941331Y-118980631D01*
X201348075Y-119149110D01*
X201779872Y-119235000D01*
X202220128Y-119235000D01*
X202651925Y-119149110D01*
X203058669Y-118980631D01*
X203424729Y-118736038D01*
X203736038Y-118424729D01*
X203980631Y-118058669D01*
X204149110Y-117651925D01*
X204235000Y-117220128D01*
X204235000Y-116779872D01*
X204149110Y-116348075D01*
X203980631Y-115941331D01*
X203736038Y-115575271D01*
X203424729Y-115263962D01*
X203058669Y-115019369D01*
X202651925Y-114850890D01*
X202220128Y-114765000D01*
X201779872Y-114765000D01*
X201348075Y-114850890D01*
X200941331Y-115019369D01*
X200575271Y-115263962D01*
X200263962Y-115575271D01*
X200019369Y-115941331D01*
X199850890Y-116348075D01*
X199765000Y-116779872D01*
X196274877Y-116779872D01*
X196271641Y-116773080D01*
X196097588Y-116539731D01*
X196013534Y-116463966D01*
X196094180Y-116439502D01*
X196204494Y-116380537D01*
X196301185Y-116301185D01*
X196380537Y-116204494D01*
X196439502Y-116094180D01*
X196475812Y-115974482D01*
X196488072Y-115850000D01*
X196488072Y-114150000D01*
X196475812Y-114025518D01*
X196439502Y-113905820D01*
X196380537Y-113795506D01*
X196301185Y-113698815D01*
X196204494Y-113619463D01*
X196094180Y-113560498D01*
X195974482Y-113524188D01*
X195885000Y-113515375D01*
X195885000Y-108043469D01*
X195889281Y-108000000D01*
X195885000Y-107956531D01*
X195885000Y-104779872D01*
X199765000Y-104779872D01*
X199765000Y-105220128D01*
X199850890Y-105651925D01*
X200019369Y-106058669D01*
X200263962Y-106424729D01*
X200575271Y-106736038D01*
X200941331Y-106980631D01*
X201348075Y-107149110D01*
X201779872Y-107235000D01*
X202220128Y-107235000D01*
X202651925Y-107149110D01*
X203058669Y-106980631D01*
X203424729Y-106736038D01*
X203736038Y-106424729D01*
X203980631Y-106058669D01*
X204149110Y-105651925D01*
X204235000Y-105220128D01*
X204235000Y-104779872D01*
X204149110Y-104348075D01*
X203980631Y-103941331D01*
X203736038Y-103575271D01*
X203424729Y-103263962D01*
X203058669Y-103019369D01*
X202651925Y-102850890D01*
X202220128Y-102765000D01*
X201779872Y-102765000D01*
X201348075Y-102850890D01*
X200941331Y-103019369D01*
X200575271Y-103263962D01*
X200263962Y-103575271D01*
X200019369Y-103941331D01*
X199850890Y-104348075D01*
X199765000Y-104779872D01*
X195885000Y-104779872D01*
X195885000Y-104203469D01*
X195889281Y-104160000D01*
X195885000Y-104116531D01*
X195885000Y-104116523D01*
X195872195Y-103986510D01*
X195821589Y-103819687D01*
X195739411Y-103665941D01*
X195708944Y-103628817D01*
X195656532Y-103564953D01*
X195656530Y-103564951D01*
X195628817Y-103531183D01*
X195595049Y-103503470D01*
X195328072Y-103236493D01*
X195328072Y-102150000D01*
X195315812Y-102025518D01*
X195279502Y-101905820D01*
X195220537Y-101795506D01*
X195141185Y-101698815D01*
X195044494Y-101619463D01*
X194934180Y-101560498D01*
X194814482Y-101524188D01*
X194745535Y-101517397D01*
X194739411Y-101505941D01*
X194656532Y-101404953D01*
X194656530Y-101404951D01*
X194628817Y-101371183D01*
X194595049Y-101343470D01*
X193911578Y-100660000D01*
X205340001Y-100660000D01*
X205340000Y-121340000D01*
X100660000Y-121340000D01*
X100660000Y-116779872D01*
X101765000Y-116779872D01*
X101765000Y-117220128D01*
X101850890Y-117651925D01*
X102019369Y-118058669D01*
X102263962Y-118424729D01*
X102575271Y-118736038D01*
X102941331Y-118980631D01*
X103348075Y-119149110D01*
X103779872Y-119235000D01*
X104220128Y-119235000D01*
X104651925Y-119149110D01*
X105058669Y-118980631D01*
X105424729Y-118736038D01*
X105736038Y-118424729D01*
X105980631Y-118058669D01*
X106149110Y-117651925D01*
X106235000Y-117220128D01*
X106235000Y-116779872D01*
X106149110Y-116348075D01*
X106134888Y-116313740D01*
X110355000Y-116313740D01*
X110355000Y-116606260D01*
X110412068Y-116893158D01*
X110524010Y-117163411D01*
X110686525Y-117406632D01*
X110893368Y-117613475D01*
X111067760Y-117730000D01*
X110893368Y-117846525D01*
X110686525Y-118053368D01*
X110524010Y-118296589D01*
X110412068Y-118566842D01*
X110355000Y-118853740D01*
X110355000Y-119146260D01*
X110412068Y-119433158D01*
X110524010Y-119703411D01*
X110686525Y-119946632D01*
X110893368Y-120153475D01*
X111136589Y-120315990D01*
X111406842Y-120427932D01*
X111693740Y-120485000D01*
X111986260Y-120485000D01*
X112273158Y-120427932D01*
X112543411Y-120315990D01*
X112786632Y-120153475D01*
X112993475Y-119946632D01*
X113115195Y-119764466D01*
X113184822Y-119881355D01*
X113379731Y-120097588D01*
X113613080Y-120271641D01*
X113875901Y-120396825D01*
X114023110Y-120441476D01*
X114253000Y-120320155D01*
X114253000Y-119127000D01*
X114233000Y-119127000D01*
X114233000Y-118873000D01*
X114253000Y-118873000D01*
X114253000Y-116587000D01*
X114233000Y-116587000D01*
X114233000Y-116333000D01*
X114253000Y-116333000D01*
X114253000Y-115139845D01*
X114507000Y-115139845D01*
X114507000Y-116333000D01*
X114527000Y-116333000D01*
X114527000Y-116587000D01*
X114507000Y-116587000D01*
X114507000Y-118873000D01*
X114527000Y-118873000D01*
X114527000Y-119127000D01*
X114507000Y-119127000D01*
X114507000Y-120320155D01*
X114736890Y-120441476D01*
X114884099Y-120396825D01*
X115146920Y-120271641D01*
X115380269Y-120097588D01*
X115575178Y-119881355D01*
X115644805Y-119764466D01*
X115766525Y-119946632D01*
X115973368Y-120153475D01*
X116216589Y-120315990D01*
X116486842Y-120427932D01*
X116773740Y-120485000D01*
X117066260Y-120485000D01*
X117353158Y-120427932D01*
X117623411Y-120315990D01*
X117866632Y-120153475D01*
X118073475Y-119946632D01*
X118195195Y-119764466D01*
X118264822Y-119881355D01*
X118459731Y-120097588D01*
X118693080Y-120271641D01*
X118955901Y-120396825D01*
X119103110Y-120441476D01*
X119333000Y-120320155D01*
X119333000Y-119127000D01*
X119313000Y-119127000D01*
X119313000Y-118873000D01*
X119333000Y-118873000D01*
X119333000Y-116587000D01*
X119313000Y-116587000D01*
X119313000Y-116333000D01*
X119333000Y-116333000D01*
X119333000Y-115139845D01*
X119103110Y-115018524D01*
X118955901Y-115063175D01*
X118693080Y-115188359D01*
X118459731Y-115362412D01*
X118264822Y-115578645D01*
X118195195Y-115695534D01*
X118073475Y-115513368D01*
X117866632Y-115306525D01*
X117623411Y-115144010D01*
X117353158Y-115032068D01*
X117066260Y-114975000D01*
X116773740Y-114975000D01*
X116486842Y-115032068D01*
X116216589Y-115144010D01*
X115973368Y-115306525D01*
X115766525Y-115513368D01*
X115644805Y-115695534D01*
X115575178Y-115578645D01*
X115380269Y-115362412D01*
X115146920Y-115188359D01*
X114884099Y-115063175D01*
X114736890Y-115018524D01*
X114507000Y-115139845D01*
X114253000Y-115139845D01*
X114023110Y-115018524D01*
X113875901Y-115063175D01*
X113613080Y-115188359D01*
X113379731Y-115362412D01*
X113184822Y-115578645D01*
X113115195Y-115695534D01*
X112993475Y-115513368D01*
X112786632Y-115306525D01*
X112543411Y-115144010D01*
X112273158Y-115032068D01*
X111986260Y-114975000D01*
X111693740Y-114975000D01*
X111406842Y-115032068D01*
X111136589Y-115144010D01*
X110893368Y-115306525D01*
X110686525Y-115513368D01*
X110524010Y-115756589D01*
X110412068Y-116026842D01*
X110355000Y-116313740D01*
X106134888Y-116313740D01*
X105980631Y-115941331D01*
X105736038Y-115575271D01*
X105424729Y-115263962D01*
X105058669Y-115019369D01*
X104651925Y-114850890D01*
X104220128Y-114765000D01*
X103779872Y-114765000D01*
X103348075Y-114850890D01*
X102941331Y-115019369D01*
X102575271Y-115263962D01*
X102263962Y-115575271D01*
X102019369Y-115941331D01*
X101850890Y-116348075D01*
X101765000Y-116779872D01*
X100660000Y-116779872D01*
X100660000Y-104779872D01*
X101765000Y-104779872D01*
X101765000Y-105220128D01*
X101850890Y-105651925D01*
X102019369Y-106058669D01*
X102263962Y-106424729D01*
X102575271Y-106736038D01*
X102941331Y-106980631D01*
X103348075Y-107149110D01*
X103779872Y-107235000D01*
X104220128Y-107235000D01*
X104651925Y-107149110D01*
X105058669Y-106980631D01*
X105424729Y-106736038D01*
X105736038Y-106424729D01*
X105980631Y-106058669D01*
X106149110Y-105651925D01*
X106235000Y-105220128D01*
X106235000Y-104779872D01*
X106149110Y-104348075D01*
X105980631Y-103941331D01*
X105736038Y-103575271D01*
X105517658Y-103356891D01*
X110558519Y-103356891D01*
X110655843Y-103631252D01*
X110804822Y-103881355D01*
X110999731Y-104097588D01*
X111233080Y-104271641D01*
X111495901Y-104396825D01*
X111643110Y-104441476D01*
X111873000Y-104320155D01*
X111873000Y-103127000D01*
X110679186Y-103127000D01*
X110558519Y-103356891D01*
X105517658Y-103356891D01*
X105424729Y-103263962D01*
X105058669Y-103019369D01*
X104651925Y-102850890D01*
X104220128Y-102765000D01*
X103779872Y-102765000D01*
X103348075Y-102850890D01*
X102941331Y-103019369D01*
X102575271Y-103263962D01*
X102263962Y-103575271D01*
X102019369Y-103941331D01*
X101850890Y-104348075D01*
X101765000Y-104779872D01*
X100660000Y-104779872D01*
X100660000Y-102643109D01*
X110558519Y-102643109D01*
X110679186Y-102873000D01*
X111873000Y-102873000D01*
X111873000Y-101679845D01*
X112127000Y-101679845D01*
X112127000Y-102873000D01*
X112147000Y-102873000D01*
X112147000Y-103127000D01*
X112127000Y-103127000D01*
X112127000Y-104320155D01*
X112356890Y-104441476D01*
X112504099Y-104396825D01*
X112766920Y-104271641D01*
X113000269Y-104097588D01*
X113195178Y-103881355D01*
X113245953Y-103796115D01*
X113346525Y-103946632D01*
X113553368Y-104153475D01*
X113796589Y-104315990D01*
X114066842Y-104427932D01*
X114353740Y-104485000D01*
X114646260Y-104485000D01*
X114933158Y-104427932D01*
X115203411Y-104315990D01*
X115446632Y-104153475D01*
X115653475Y-103946632D01*
X115754047Y-103796115D01*
X115804822Y-103881355D01*
X115999731Y-104097588D01*
X116233080Y-104271641D01*
X116495901Y-104396825D01*
X116643110Y-104441476D01*
X116873000Y-104320155D01*
X116873000Y-103127000D01*
X116853000Y-103127000D01*
X116853000Y-102873000D01*
X116873000Y-102873000D01*
X116873000Y-101679845D01*
X116643110Y-101558524D01*
X116495901Y-101603175D01*
X116233080Y-101728359D01*
X115999731Y-101902412D01*
X115804822Y-102118645D01*
X115754047Y-102203885D01*
X115653475Y-102053368D01*
X115446632Y-101846525D01*
X115203411Y-101684010D01*
X114933158Y-101572068D01*
X114646260Y-101515000D01*
X114353740Y-101515000D01*
X114066842Y-101572068D01*
X113796589Y-101684010D01*
X113553368Y-101846525D01*
X113346525Y-102053368D01*
X113245953Y-102203885D01*
X113195178Y-102118645D01*
X113000269Y-101902412D01*
X112766920Y-101728359D01*
X112504099Y-101603175D01*
X112356890Y-101558524D01*
X112127000Y-101679845D01*
X111873000Y-101679845D01*
X111643110Y-101558524D01*
X111495901Y-101603175D01*
X111233080Y-101728359D01*
X110999731Y-101902412D01*
X110804822Y-102118645D01*
X110655843Y-102368748D01*
X110558519Y-102643109D01*
X100660000Y-102643109D01*
X100660000Y-100660000D01*
X129088421Y-100660000D01*
X128404956Y-101343466D01*
G36*
X185636201Y-116311003D02*
G01*
X185659999Y-116340001D01*
X185688997Y-116363799D01*
X185775723Y-116434974D01*
X185852125Y-116475812D01*
X185907753Y-116505546D01*
X186051014Y-116549003D01*
X186074868Y-116551352D01*
X186063175Y-116575901D01*
X186018524Y-116723110D01*
X186139845Y-116953000D01*
X187333000Y-116953000D01*
X187333000Y-116933000D01*
X187587000Y-116933000D01*
X187587000Y-116953000D01*
X187607000Y-116953000D01*
X187607000Y-117207000D01*
X187587000Y-117207000D01*
X187587000Y-117227000D01*
X187333000Y-117227000D01*
X187333000Y-117207000D01*
X186139845Y-117207000D01*
X186018524Y-117436890D01*
X186063175Y-117584099D01*
X186188359Y-117846920D01*
X186362412Y-118080269D01*
X186539618Y-118240000D01*
X186514802Y-118240000D01*
X180414801Y-112140000D01*
X181465199Y-112140000D01*
X185636201Y-116311003D01*
G37*
X185636201Y-116311003D02*
X185659999Y-116340001D01*
X185688997Y-116363799D01*
X185775723Y-116434974D01*
X185852125Y-116475812D01*
X185907753Y-116505546D01*
X186051014Y-116549003D01*
X186074868Y-116551352D01*
X186063175Y-116575901D01*
X186018524Y-116723110D01*
X186139845Y-116953000D01*
X187333000Y-116953000D01*
X187333000Y-116933000D01*
X187587000Y-116933000D01*
X187587000Y-116953000D01*
X187607000Y-116953000D01*
X187607000Y-117207000D01*
X187587000Y-117207000D01*
X187587000Y-117227000D01*
X187333000Y-117227000D01*
X187333000Y-117207000D01*
X186139845Y-117207000D01*
X186018524Y-117436890D01*
X186063175Y-117584099D01*
X186188359Y-117846920D01*
X186362412Y-118080269D01*
X186539618Y-118240000D01*
X186514802Y-118240000D01*
X180414801Y-112140000D01*
X181465199Y-112140000D01*
X185636201Y-116311003D01*
G36*
X182839731Y-101902412D02*
G01*
X182644822Y-102118645D01*
X182495843Y-102368748D01*
X182398519Y-102643109D01*
X182519186Y-102873000D01*
X183713000Y-102873000D01*
X183713000Y-102853000D01*
X183967000Y-102853000D01*
X183967000Y-102873000D01*
X183987000Y-102873000D01*
X183987000Y-103127000D01*
X183967000Y-103127000D01*
X183967000Y-104320155D01*
X184196890Y-104441476D01*
X184344099Y-104396825D01*
X184606920Y-104271641D01*
X184840269Y-104097588D01*
X185035178Y-103881355D01*
X185085953Y-103796115D01*
X185186525Y-103946632D01*
X185393368Y-104153475D01*
X185636589Y-104315990D01*
X185906842Y-104427932D01*
X186193740Y-104485000D01*
X186486260Y-104485000D01*
X186773158Y-104427932D01*
X187043411Y-104315990D01*
X187286632Y-104153475D01*
X187493475Y-103946632D01*
X187594047Y-103796115D01*
X187644822Y-103881355D01*
X187839731Y-104097588D01*
X188073080Y-104271641D01*
X188335901Y-104396825D01*
X188483110Y-104441476D01*
X188713000Y-104320155D01*
X188713000Y-103127000D01*
X188693000Y-103127000D01*
X188693000Y-102873000D01*
X188713000Y-102873000D01*
X188713000Y-102853000D01*
X188967000Y-102853000D01*
X188967000Y-102873000D01*
X188987000Y-102873000D01*
X188987000Y-103127000D01*
X188967000Y-103127000D01*
X188967000Y-104320155D01*
X189196890Y-104441476D01*
X189344099Y-104396825D01*
X189606920Y-104271641D01*
X189840269Y-104097588D01*
X190035178Y-103881355D01*
X190085953Y-103796115D01*
X190186525Y-103946632D01*
X190393368Y-104153475D01*
X190636589Y-104315990D01*
X190906842Y-104427932D01*
X191193740Y-104485000D01*
X191486260Y-104485000D01*
X191773158Y-104427932D01*
X192043411Y-104315990D01*
X192286632Y-104153475D01*
X192387797Y-104052310D01*
X192400498Y-104094180D01*
X192459463Y-104204494D01*
X192538815Y-104301185D01*
X192635506Y-104380537D01*
X192745820Y-104439502D01*
X192865518Y-104475812D01*
X192990000Y-104488072D01*
X194076493Y-104488072D01*
X194115001Y-104526580D01*
X194115000Y-107633421D01*
X193633422Y-108115000D01*
X189043469Y-108115000D01*
X189000000Y-108110719D01*
X188956531Y-108115000D01*
X188956523Y-108115000D01*
X188826510Y-108127805D01*
X188659687Y-108178411D01*
X188505941Y-108260589D01*
X188404953Y-108343468D01*
X188404951Y-108343470D01*
X188371183Y-108371183D01*
X188343470Y-108404951D01*
X186864951Y-109883471D01*
X186831184Y-109911183D01*
X186803471Y-109944951D01*
X186803468Y-109944954D01*
X186720590Y-110045941D01*
X186638412Y-110199687D01*
X186587805Y-110366510D01*
X186570719Y-110540000D01*
X186575001Y-110583479D01*
X186575001Y-110805343D01*
X186513368Y-110846525D01*
X186306525Y-111053368D01*
X186144010Y-111296589D01*
X186032068Y-111566842D01*
X185975000Y-111853740D01*
X185975000Y-111980199D01*
X184180443Y-110185642D01*
X184156640Y-110156638D01*
X184040915Y-110061665D01*
X183908886Y-109991093D01*
X183765625Y-109947636D01*
X183653972Y-109936639D01*
X183653961Y-109936639D01*
X183616639Y-109932963D01*
X183579317Y-109936639D01*
X154791441Y-109936639D01*
X149339801Y-104485000D01*
X149466260Y-104485000D01*
X149753158Y-104427932D01*
X150023411Y-104315990D01*
X150266632Y-104153475D01*
X150473475Y-103946632D01*
X150590000Y-103772240D01*
X150706525Y-103946632D01*
X150913368Y-104153475D01*
X151156589Y-104315990D01*
X151426842Y-104427932D01*
X151713740Y-104485000D01*
X152006260Y-104485000D01*
X152293158Y-104427932D01*
X152563411Y-104315990D01*
X152806632Y-104153475D01*
X153013475Y-103946632D01*
X153130000Y-103772240D01*
X153246525Y-103946632D01*
X153453368Y-104153475D01*
X153696589Y-104315990D01*
X153966842Y-104427932D01*
X154253740Y-104485000D01*
X154546260Y-104485000D01*
X154833158Y-104427932D01*
X155103411Y-104315990D01*
X155346632Y-104153475D01*
X155553475Y-103946632D01*
X155670000Y-103772240D01*
X155786525Y-103946632D01*
X155993368Y-104153475D01*
X156236589Y-104315990D01*
X156506842Y-104427932D01*
X156793740Y-104485000D01*
X157086260Y-104485000D01*
X157373158Y-104427932D01*
X157643411Y-104315990D01*
X157886632Y-104153475D01*
X158093475Y-103946632D01*
X158210000Y-103772240D01*
X158326525Y-103946632D01*
X158533368Y-104153475D01*
X158776589Y-104315990D01*
X159046842Y-104427932D01*
X159333740Y-104485000D01*
X159626260Y-104485000D01*
X159913158Y-104427932D01*
X160183411Y-104315990D01*
X160426632Y-104153475D01*
X160633475Y-103946632D01*
X160750000Y-103772240D01*
X160866525Y-103946632D01*
X161073368Y-104153475D01*
X161316589Y-104315990D01*
X161586842Y-104427932D01*
X161873740Y-104485000D01*
X162166260Y-104485000D01*
X162453158Y-104427932D01*
X162723411Y-104315990D01*
X162966632Y-104153475D01*
X163173475Y-103946632D01*
X163290000Y-103772240D01*
X163406525Y-103946632D01*
X163613368Y-104153475D01*
X163856589Y-104315990D01*
X164126842Y-104427932D01*
X164413740Y-104485000D01*
X164706260Y-104485000D01*
X164993158Y-104427932D01*
X165263411Y-104315990D01*
X165506632Y-104153475D01*
X165713475Y-103946632D01*
X165830000Y-103772240D01*
X165946525Y-103946632D01*
X166153368Y-104153475D01*
X166396589Y-104315990D01*
X166666842Y-104427932D01*
X166953740Y-104485000D01*
X167246260Y-104485000D01*
X167533158Y-104427932D01*
X167803411Y-104315990D01*
X168046632Y-104153475D01*
X168253475Y-103946632D01*
X168370000Y-103772240D01*
X168486525Y-103946632D01*
X168693368Y-104153475D01*
X168936589Y-104315990D01*
X169206842Y-104427932D01*
X169493740Y-104485000D01*
X169786260Y-104485000D01*
X170073158Y-104427932D01*
X170343411Y-104315990D01*
X170586632Y-104153475D01*
X170793475Y-103946632D01*
X170910000Y-103772240D01*
X171026525Y-103946632D01*
X171233368Y-104153475D01*
X171476589Y-104315990D01*
X171746842Y-104427932D01*
X172033740Y-104485000D01*
X172326260Y-104485000D01*
X172613158Y-104427932D01*
X172883411Y-104315990D01*
X173126632Y-104153475D01*
X173333475Y-103946632D01*
X173450000Y-103772240D01*
X173566525Y-103946632D01*
X173773368Y-104153475D01*
X174016589Y-104315990D01*
X174286842Y-104427932D01*
X174573740Y-104485000D01*
X174866260Y-104485000D01*
X175153158Y-104427932D01*
X175423411Y-104315990D01*
X175666632Y-104153475D01*
X175873475Y-103946632D01*
X175995195Y-103764466D01*
X176064822Y-103881355D01*
X176259731Y-104097588D01*
X176493080Y-104271641D01*
X176755901Y-104396825D01*
X176903110Y-104441476D01*
X177133000Y-104320155D01*
X177133000Y-103127000D01*
X177387000Y-103127000D01*
X177387000Y-104320155D01*
X177616890Y-104441476D01*
X177764099Y-104396825D01*
X178026920Y-104271641D01*
X178260269Y-104097588D01*
X178455178Y-103881355D01*
X178604157Y-103631252D01*
X178701481Y-103356891D01*
X182398519Y-103356891D01*
X182495843Y-103631252D01*
X182644822Y-103881355D01*
X182839731Y-104097588D01*
X183073080Y-104271641D01*
X183335901Y-104396825D01*
X183483110Y-104441476D01*
X183713000Y-104320155D01*
X183713000Y-103127000D01*
X182519186Y-103127000D01*
X182398519Y-103356891D01*
X178701481Y-103356891D01*
X178580814Y-103127000D01*
X177387000Y-103127000D01*
X177133000Y-103127000D01*
X177113000Y-103127000D01*
X177113000Y-102873000D01*
X177133000Y-102873000D01*
X177133000Y-102853000D01*
X177387000Y-102853000D01*
X177387000Y-102873000D01*
X178580814Y-102873000D01*
X178701481Y-102643109D01*
X178604157Y-102368748D01*
X178455178Y-102118645D01*
X178260269Y-101902412D01*
X178236925Y-101885000D01*
X182863075Y-101885000D01*
X182839731Y-101902412D01*
G37*
X182839731Y-101902412D02*
X182644822Y-102118645D01*
X182495843Y-102368748D01*
X182398519Y-102643109D01*
X182519186Y-102873000D01*
X183713000Y-102873000D01*
X183713000Y-102853000D01*
X183967000Y-102853000D01*
X183967000Y-102873000D01*
X183987000Y-102873000D01*
X183987000Y-103127000D01*
X183967000Y-103127000D01*
X183967000Y-104320155D01*
X184196890Y-104441476D01*
X184344099Y-104396825D01*
X184606920Y-104271641D01*
X184840269Y-104097588D01*
X185035178Y-103881355D01*
X185085953Y-103796115D01*
X185186525Y-103946632D01*
X185393368Y-104153475D01*
X185636589Y-104315990D01*
X185906842Y-104427932D01*
X186193740Y-104485000D01*
X186486260Y-104485000D01*
X186773158Y-104427932D01*
X187043411Y-104315990D01*
X187286632Y-104153475D01*
X187493475Y-103946632D01*
X187594047Y-103796115D01*
X187644822Y-103881355D01*
X187839731Y-104097588D01*
X188073080Y-104271641D01*
X188335901Y-104396825D01*
X188483110Y-104441476D01*
X188713000Y-104320155D01*
X188713000Y-103127000D01*
X188693000Y-103127000D01*
X188693000Y-102873000D01*
X188713000Y-102873000D01*
X188713000Y-102853000D01*
X188967000Y-102853000D01*
X188967000Y-102873000D01*
X188987000Y-102873000D01*
X188987000Y-103127000D01*
X188967000Y-103127000D01*
X188967000Y-104320155D01*
X189196890Y-104441476D01*
X189344099Y-104396825D01*
X189606920Y-104271641D01*
X189840269Y-104097588D01*
X190035178Y-103881355D01*
X190085953Y-103796115D01*
X190186525Y-103946632D01*
X190393368Y-104153475D01*
X190636589Y-104315990D01*
X190906842Y-104427932D01*
X191193740Y-104485000D01*
X191486260Y-104485000D01*
X191773158Y-104427932D01*
X192043411Y-104315990D01*
X192286632Y-104153475D01*
X192387797Y-104052310D01*
X192400498Y-104094180D01*
X192459463Y-104204494D01*
X192538815Y-104301185D01*
X192635506Y-104380537D01*
X192745820Y-104439502D01*
X192865518Y-104475812D01*
X192990000Y-104488072D01*
X194076493Y-104488072D01*
X194115001Y-104526580D01*
X194115000Y-107633421D01*
X193633422Y-108115000D01*
X189043469Y-108115000D01*
X189000000Y-108110719D01*
X188956531Y-108115000D01*
X188956523Y-108115000D01*
X188826510Y-108127805D01*
X188659687Y-108178411D01*
X188505941Y-108260589D01*
X188404953Y-108343468D01*
X188404951Y-108343470D01*
X188371183Y-108371183D01*
X188343470Y-108404951D01*
X186864951Y-109883471D01*
X186831184Y-109911183D01*
X186803471Y-109944951D01*
X186803468Y-109944954D01*
X186720590Y-110045941D01*
X186638412Y-110199687D01*
X186587805Y-110366510D01*
X186570719Y-110540000D01*
X186575001Y-110583479D01*
X186575001Y-110805343D01*
X186513368Y-110846525D01*
X186306525Y-111053368D01*
X186144010Y-111296589D01*
X186032068Y-111566842D01*
X185975000Y-111853740D01*
X185975000Y-111980199D01*
X184180443Y-110185642D01*
X184156640Y-110156638D01*
X184040915Y-110061665D01*
X183908886Y-109991093D01*
X183765625Y-109947636D01*
X183653972Y-109936639D01*
X183653961Y-109936639D01*
X183616639Y-109932963D01*
X183579317Y-109936639D01*
X154791441Y-109936639D01*
X149339801Y-104485000D01*
X149466260Y-104485000D01*
X149753158Y-104427932D01*
X150023411Y-104315990D01*
X150266632Y-104153475D01*
X150473475Y-103946632D01*
X150590000Y-103772240D01*
X150706525Y-103946632D01*
X150913368Y-104153475D01*
X151156589Y-104315990D01*
X151426842Y-104427932D01*
X151713740Y-104485000D01*
X152006260Y-104485000D01*
X152293158Y-104427932D01*
X152563411Y-104315990D01*
X152806632Y-104153475D01*
X153013475Y-103946632D01*
X153130000Y-103772240D01*
X153246525Y-103946632D01*
X153453368Y-104153475D01*
X153696589Y-104315990D01*
X153966842Y-104427932D01*
X154253740Y-104485000D01*
X154546260Y-104485000D01*
X154833158Y-104427932D01*
X155103411Y-104315990D01*
X155346632Y-104153475D01*
X155553475Y-103946632D01*
X155670000Y-103772240D01*
X155786525Y-103946632D01*
X155993368Y-104153475D01*
X156236589Y-104315990D01*
X156506842Y-104427932D01*
X156793740Y-104485000D01*
X157086260Y-104485000D01*
X157373158Y-104427932D01*
X157643411Y-104315990D01*
X157886632Y-104153475D01*
X158093475Y-103946632D01*
X158210000Y-103772240D01*
X158326525Y-103946632D01*
X158533368Y-104153475D01*
X158776589Y-104315990D01*
X159046842Y-104427932D01*
X159333740Y-104485000D01*
X159626260Y-104485000D01*
X159913158Y-104427932D01*
X160183411Y-104315990D01*
X160426632Y-104153475D01*
X160633475Y-103946632D01*
X160750000Y-103772240D01*
X160866525Y-103946632D01*
X161073368Y-104153475D01*
X161316589Y-104315990D01*
X161586842Y-104427932D01*
X161873740Y-104485000D01*
X162166260Y-104485000D01*
X162453158Y-104427932D01*
X162723411Y-104315990D01*
X162966632Y-104153475D01*
X163173475Y-103946632D01*
X163290000Y-103772240D01*
X163406525Y-103946632D01*
X163613368Y-104153475D01*
X163856589Y-104315990D01*
X164126842Y-104427932D01*
X164413740Y-104485000D01*
X164706260Y-104485000D01*
X164993158Y-104427932D01*
X165263411Y-104315990D01*
X165506632Y-104153475D01*
X165713475Y-103946632D01*
X165830000Y-103772240D01*
X165946525Y-103946632D01*
X166153368Y-104153475D01*
X166396589Y-104315990D01*
X166666842Y-104427932D01*
X166953740Y-104485000D01*
X167246260Y-104485000D01*
X167533158Y-104427932D01*
X167803411Y-104315990D01*
X168046632Y-104153475D01*
X168253475Y-103946632D01*
X168370000Y-103772240D01*
X168486525Y-103946632D01*
X168693368Y-104153475D01*
X168936589Y-104315990D01*
X169206842Y-104427932D01*
X169493740Y-104485000D01*
X169786260Y-104485000D01*
X170073158Y-104427932D01*
X170343411Y-104315990D01*
X170586632Y-104153475D01*
X170793475Y-103946632D01*
X170910000Y-103772240D01*
X171026525Y-103946632D01*
X171233368Y-104153475D01*
X171476589Y-104315990D01*
X171746842Y-104427932D01*
X172033740Y-104485000D01*
X172326260Y-104485000D01*
X172613158Y-104427932D01*
X172883411Y-104315990D01*
X173126632Y-104153475D01*
X173333475Y-103946632D01*
X173450000Y-103772240D01*
X173566525Y-103946632D01*
X173773368Y-104153475D01*
X174016589Y-104315990D01*
X174286842Y-104427932D01*
X174573740Y-104485000D01*
X174866260Y-104485000D01*
X175153158Y-104427932D01*
X175423411Y-104315990D01*
X175666632Y-104153475D01*
X175873475Y-103946632D01*
X175995195Y-103764466D01*
X176064822Y-103881355D01*
X176259731Y-104097588D01*
X176493080Y-104271641D01*
X176755901Y-104396825D01*
X176903110Y-104441476D01*
X177133000Y-104320155D01*
X177133000Y-103127000D01*
X177387000Y-103127000D01*
X177387000Y-104320155D01*
X177616890Y-104441476D01*
X177764099Y-104396825D01*
X178026920Y-104271641D01*
X178260269Y-104097588D01*
X178455178Y-103881355D01*
X178604157Y-103631252D01*
X178701481Y-103356891D01*
X182398519Y-103356891D01*
X182495843Y-103631252D01*
X182644822Y-103881355D01*
X182839731Y-104097588D01*
X183073080Y-104271641D01*
X183335901Y-104396825D01*
X183483110Y-104441476D01*
X183713000Y-104320155D01*
X183713000Y-103127000D01*
X182519186Y-103127000D01*
X182398519Y-103356891D01*
X178701481Y-103356891D01*
X178580814Y-103127000D01*
X177387000Y-103127000D01*
X177133000Y-103127000D01*
X177113000Y-103127000D01*
X177113000Y-102873000D01*
X177133000Y-102873000D01*
X177133000Y-102853000D01*
X177387000Y-102853000D01*
X177387000Y-102873000D01*
X178580814Y-102873000D01*
X178701481Y-102643109D01*
X178604157Y-102368748D01*
X178455178Y-102118645D01*
X178260269Y-101902412D01*
X178236925Y-101885000D01*
X182863075Y-101885000D01*
X182839731Y-101902412D01*
M02*
