G04 #@! TF.GenerationSoftware,KiCad,Pcbnew,(5.1.8)-1*
G04 #@! TF.CreationDate,2020-11-20T19:23:25+01:00*
G04 #@! TF.ProjectId,light-box,6c696768-742d-4626-9f78-2e6b69636164,rev?*
G04 #@! TF.SameCoordinates,Original*
G04 #@! TF.FileFunction,Copper,L1,Top*
G04 #@! TF.FilePolarity,Positive*
%FSLAX46Y46*%
G04 Gerber Fmt 4.6, Leading zero omitted, Abs format (unit mm)*
G04 Created by KiCad (PCBNEW (5.1.8)-1) date 2020-11-20 19:23:25*
%MOMM*%
%LPD*%
G01*
G04 APERTURE LIST*
G04 #@! TA.AperFunction,SMDPad,CuDef*
%ADD10R,1.250000X1.500000*%
G04 #@! TD*
G04 #@! TA.AperFunction,SMDPad,CuDef*
%ADD11R,1.500000X1.300000*%
G04 #@! TD*
G04 #@! TA.AperFunction,ComponentPad*
%ADD12R,3.000000X3.000000*%
G04 #@! TD*
G04 #@! TA.AperFunction,ComponentPad*
%ADD13C,3.000000*%
G04 #@! TD*
G04 #@! TA.AperFunction,ComponentPad*
%ADD14O,1.700000X1.700000*%
G04 #@! TD*
G04 #@! TA.AperFunction,ComponentPad*
%ADD15R,1.700000X1.700000*%
G04 #@! TD*
G04 #@! TA.AperFunction,SMDPad,CuDef*
%ADD16R,1.300000X1.500000*%
G04 #@! TD*
G04 #@! TA.AperFunction,ComponentPad*
%ADD17C,4.000000*%
G04 #@! TD*
G04 #@! TA.AperFunction,ViaPad*
%ADD18C,0.800000*%
G04 #@! TD*
G04 #@! TA.AperFunction,Conductor*
%ADD19C,2.000000*%
G04 #@! TD*
G04 #@! TA.AperFunction,Conductor*
%ADD20C,0.500000*%
G04 #@! TD*
G04 #@! TA.AperFunction,Conductor*
%ADD21C,3.000000*%
G04 #@! TD*
G04 #@! TA.AperFunction,Conductor*
%ADD22C,0.254000*%
G04 #@! TD*
G04 #@! TA.AperFunction,Conductor*
%ADD23C,0.100000*%
G04 #@! TD*
G04 APERTURE END LIST*
D10*
G04 #@! TO.P,C2,1*
G04 #@! TO.N,ISP_RES*
X208000000Y-70250000D03*
G04 #@! TO.P,C2,2*
G04 #@! TO.N,GND*
X208000000Y-67750000D03*
G04 #@! TD*
D11*
G04 #@! TO.P,D1,2*
G04 #@! TO.N,+5V*
X109650000Y-89000000D03*
G04 #@! TO.P,D1,1*
G04 #@! TO.N,Net-(D1-Pad1)*
X112350000Y-89000000D03*
G04 #@! TD*
G04 #@! TO.P,D2,1*
G04 #@! TO.N,Net-(D2-Pad1)*
X131850000Y-89000000D03*
G04 #@! TO.P,D2,2*
G04 #@! TO.N,+5V*
X129150000Y-89000000D03*
G04 #@! TD*
G04 #@! TO.P,D3,1*
G04 #@! TO.N,Net-(D3-Pad1)*
X151850000Y-89000000D03*
G04 #@! TO.P,D3,2*
G04 #@! TO.N,+5V*
X149150000Y-89000000D03*
G04 #@! TD*
G04 #@! TO.P,D4,2*
G04 #@! TO.N,+5V*
X169150000Y-89000000D03*
G04 #@! TO.P,D4,1*
G04 #@! TO.N,Net-(D4-Pad1)*
X171850000Y-89000000D03*
G04 #@! TD*
G04 #@! TO.P,D5,2*
G04 #@! TO.N,+5V*
X201650000Y-89000000D03*
G04 #@! TO.P,D5,1*
G04 #@! TO.N,Net-(D5-Pad1)*
X204350000Y-89000000D03*
G04 #@! TD*
D12*
G04 #@! TO.P,J230V1,1*
G04 #@! TO.N,NEUT*
X78000000Y-130000000D03*
D13*
G04 #@! TO.P,J230V1,2*
G04 #@! TO.N,Earth*
X83080000Y-130000000D03*
G04 #@! TO.P,J230V1,3*
G04 #@! TO.N,LINE*
X88160000Y-130000000D03*
G04 #@! TD*
D14*
G04 #@! TO.P,JBUS1,10*
G04 #@! TO.N,TWI_SCL*
X213160000Y-49460000D03*
G04 #@! TO.P,JBUS1,9*
X213160000Y-52000000D03*
G04 #@! TO.P,JBUS1,8*
G04 #@! TO.N,GND*
X210620000Y-49460000D03*
G04 #@! TO.P,JBUS1,7*
X210620000Y-52000000D03*
G04 #@! TO.P,JBUS1,6*
G04 #@! TO.N,TWI_SDA*
X208080000Y-49460000D03*
G04 #@! TO.P,JBUS1,5*
X208080000Y-52000000D03*
G04 #@! TO.P,JBUS1,4*
G04 #@! TO.N,GND*
X205540000Y-49460000D03*
G04 #@! TO.P,JBUS1,3*
X205540000Y-52000000D03*
G04 #@! TO.P,JBUS1,2*
G04 #@! TO.N,+5V*
X203000000Y-49460000D03*
D15*
G04 #@! TO.P,JBUS1,1*
X203000000Y-52000000D03*
G04 #@! TD*
D14*
G04 #@! TO.P,JDBG1,3*
G04 #@! TO.N,GND*
X191000000Y-74080000D03*
G04 #@! TO.P,JDBG1,2*
G04 #@! TO.N,DBG_TX*
X191000000Y-71540000D03*
D15*
G04 #@! TO.P,JDBG1,1*
G04 #@! TO.N,DBG_RX*
X191000000Y-69000000D03*
G04 #@! TD*
D14*
G04 #@! TO.P,JISP1,6*
G04 #@! TO.N,GND*
X210080000Y-78460000D03*
G04 #@! TO.P,JISP1,5*
G04 #@! TO.N,ISP_RES*
X210080000Y-81000000D03*
G04 #@! TO.P,JISP1,4*
G04 #@! TO.N,ISP_MISO*
X207540000Y-78460000D03*
G04 #@! TO.P,JISP1,3*
G04 #@! TO.N,ISP_SCK*
X207540000Y-81000000D03*
G04 #@! TO.P,JISP1,2*
G04 #@! TO.N,+5V*
X205000000Y-78460000D03*
D15*
G04 #@! TO.P,JISP1,1*
G04 #@! TO.N,ISP_MOSI*
X205000000Y-81000000D03*
G04 #@! TD*
D14*
G04 #@! TO.P,JPWR1,2*
G04 #@! TO.N,GND*
X191000000Y-60540000D03*
D15*
G04 #@! TO.P,JPWR1,1*
G04 #@! TO.N,+5V*
X191000000Y-58000000D03*
G04 #@! TD*
D12*
G04 #@! TO.P,JRL1,1*
G04 #@! TO.N,RL01_NEUT*
X110000000Y-130000000D03*
D13*
G04 #@! TO.P,JRL1,2*
G04 #@! TO.N,Earth*
X115080000Y-130000000D03*
G04 #@! TO.P,JRL1,3*
G04 #@! TO.N,RL01_LINE*
X120160000Y-130000000D03*
G04 #@! TD*
G04 #@! TO.P,JRL2,3*
G04 #@! TO.N,RL02_LINE*
X140080000Y-130000000D03*
G04 #@! TO.P,JRL2,2*
G04 #@! TO.N,Earth*
X135000000Y-130000000D03*
D12*
G04 #@! TO.P,JRL2,1*
G04 #@! TO.N,RL02_NEUT*
X129920000Y-130000000D03*
G04 #@! TD*
D13*
G04 #@! TO.P,JRL3,3*
G04 #@! TO.N,RL03_LINE*
X160160000Y-130000000D03*
G04 #@! TO.P,JRL3,2*
G04 #@! TO.N,Earth*
X155080000Y-130000000D03*
D12*
G04 #@! TO.P,JRL3,1*
G04 #@! TO.N,RL03_NEUT*
X150000000Y-130000000D03*
G04 #@! TD*
D13*
G04 #@! TO.P,JRL4,3*
G04 #@! TO.N,RL04_LINE*
X180160000Y-130000000D03*
G04 #@! TO.P,JRL4,2*
G04 #@! TO.N,Earth*
X175080000Y-130000000D03*
D12*
G04 #@! TO.P,JRL4,1*
G04 #@! TO.N,RL04_NEUT*
X170000000Y-130000000D03*
G04 #@! TD*
D13*
G04 #@! TO.P,JRL5,4*
G04 #@! TO.N,RL05_GND*
X214240000Y-130000000D03*
D12*
G04 #@! TO.P,JRL5,1*
G04 #@! TO.N,RL05_VCC*
X199000000Y-130000000D03*
D13*
G04 #@! TO.P,JRL5,3*
G04 #@! TO.N,ISP_SCK*
X209160000Y-130000000D03*
G04 #@! TO.P,JRL5,2*
G04 #@! TO.N,ISP_MOSI*
X204080000Y-130000000D03*
G04 #@! TD*
D11*
G04 #@! TO.P,R1,1*
G04 #@! TO.N,Net-(D1-Pad1)*
X118150000Y-89000000D03*
G04 #@! TO.P,R1,2*
G04 #@! TO.N,RL01_COIL*
X120850000Y-89000000D03*
G04 #@! TD*
G04 #@! TO.P,R2,1*
G04 #@! TO.N,Net-(D2-Pad1)*
X137650000Y-89000000D03*
G04 #@! TO.P,R2,2*
G04 #@! TO.N,RL02_COIL*
X140350000Y-89000000D03*
G04 #@! TD*
G04 #@! TO.P,R3,1*
G04 #@! TO.N,Net-(D3-Pad1)*
X157650000Y-89000000D03*
G04 #@! TO.P,R3,2*
G04 #@! TO.N,RL03_COIL*
X160350000Y-89000000D03*
G04 #@! TD*
G04 #@! TO.P,R4,1*
G04 #@! TO.N,Net-(D4-Pad1)*
X177650000Y-89000000D03*
G04 #@! TO.P,R4,2*
G04 #@! TO.N,RL04_COIL*
X180350000Y-89000000D03*
G04 #@! TD*
G04 #@! TO.P,R5,2*
G04 #@! TO.N,RL05_COIL*
X212350000Y-89000000D03*
G04 #@! TO.P,R5,1*
G04 #@! TO.N,Net-(D5-Pad1)*
X209650000Y-89000000D03*
G04 #@! TD*
D16*
G04 #@! TO.P,R6,2*
G04 #@! TO.N,ISP_RES*
X213000000Y-70350000D03*
G04 #@! TO.P,R6,1*
G04 #@! TO.N,+5V*
X213000000Y-67650000D03*
G04 #@! TD*
G04 #@! TO.P,R7,2*
G04 #@! TO.N,TWI_SCL*
X213000000Y-61650000D03*
G04 #@! TO.P,R7,1*
G04 #@! TO.N,+5V*
X213000000Y-64350000D03*
G04 #@! TD*
G04 #@! TO.P,R8,2*
G04 #@! TO.N,TWI_SDA*
X208000000Y-61650000D03*
G04 #@! TO.P,R8,1*
G04 #@! TO.N,+5V*
X208000000Y-64350000D03*
G04 #@! TD*
D13*
G04 #@! TO.P,PS1,2*
G04 #@! TO.N,LINE*
X114000000Y-49000000D03*
D17*
G04 #@! TO.P,PS1,3*
G04 #@! TO.N,GND*
X175500000Y-49000000D03*
D13*
G04 #@! TO.P,PS1,1*
G04 #@! TO.N,NEUT*
X114000000Y-54500000D03*
D17*
G04 #@! TO.P,PS1,4*
G04 #@! TO.N,+5V*
X175500000Y-57500000D03*
G04 #@! TD*
D13*
G04 #@! TO.P,RL1,7*
G04 #@! TO.N,N/C*
X119000000Y-110000000D03*
G04 #@! TO.P,RL1,5*
G04 #@! TO.N,RL01_LINE*
X119000000Y-120000000D03*
G04 #@! TO.P,RL1,6*
G04 #@! TO.N,LINE*
X119000000Y-115000000D03*
G04 #@! TO.P,RL1,2*
G04 #@! TO.N,N/C*
X111500000Y-110000000D03*
G04 #@! TO.P,RL1,4*
G04 #@! TO.N,RL01_NEUT*
X111500000Y-120000000D03*
G04 #@! TO.P,RL1,3*
G04 #@! TO.N,NEUT*
X111500000Y-115000000D03*
G04 #@! TO.P,RL1,8*
G04 #@! TO.N,RL01_COIL*
X119000000Y-95000000D03*
D12*
G04 #@! TO.P,RL1,1*
G04 #@! TO.N,+5V*
X111500000Y-95000000D03*
G04 #@! TD*
G04 #@! TO.P,RL2,1*
G04 #@! TO.N,+5V*
X131000000Y-95000000D03*
D13*
G04 #@! TO.P,RL2,8*
G04 #@! TO.N,RL02_COIL*
X138500000Y-95000000D03*
G04 #@! TO.P,RL2,3*
G04 #@! TO.N,NEUT*
X131000000Y-115000000D03*
G04 #@! TO.P,RL2,4*
G04 #@! TO.N,RL02_NEUT*
X131000000Y-120000000D03*
G04 #@! TO.P,RL2,2*
G04 #@! TO.N,N/C*
X131000000Y-110000000D03*
G04 #@! TO.P,RL2,6*
G04 #@! TO.N,LINE*
X138500000Y-115000000D03*
G04 #@! TO.P,RL2,5*
G04 #@! TO.N,RL02_LINE*
X138500000Y-120000000D03*
G04 #@! TO.P,RL2,7*
G04 #@! TO.N,N/C*
X138500000Y-110000000D03*
G04 #@! TD*
G04 #@! TO.P,RL3,7*
G04 #@! TO.N,N/C*
X158500000Y-110000000D03*
G04 #@! TO.P,RL3,5*
G04 #@! TO.N,RL03_LINE*
X158500000Y-120000000D03*
G04 #@! TO.P,RL3,6*
G04 #@! TO.N,LINE*
X158500000Y-115000000D03*
G04 #@! TO.P,RL3,2*
G04 #@! TO.N,N/C*
X151000000Y-110000000D03*
G04 #@! TO.P,RL3,4*
G04 #@! TO.N,RL03_NEUT*
X151000000Y-120000000D03*
G04 #@! TO.P,RL3,3*
G04 #@! TO.N,NEUT*
X151000000Y-115000000D03*
G04 #@! TO.P,RL3,8*
G04 #@! TO.N,RL03_COIL*
X158500000Y-95000000D03*
D12*
G04 #@! TO.P,RL3,1*
G04 #@! TO.N,+5V*
X151000000Y-95000000D03*
G04 #@! TD*
G04 #@! TO.P,RL4,1*
G04 #@! TO.N,+5V*
X171000000Y-95000000D03*
D13*
G04 #@! TO.P,RL4,8*
G04 #@! TO.N,RL04_COIL*
X178500000Y-95000000D03*
G04 #@! TO.P,RL4,3*
G04 #@! TO.N,NEUT*
X171000000Y-115000000D03*
G04 #@! TO.P,RL4,4*
G04 #@! TO.N,RL04_NEUT*
X171000000Y-120000000D03*
G04 #@! TO.P,RL4,2*
G04 #@! TO.N,N/C*
X171000000Y-110000000D03*
G04 #@! TO.P,RL4,6*
G04 #@! TO.N,LINE*
X178500000Y-115000000D03*
G04 #@! TO.P,RL4,5*
G04 #@! TO.N,RL04_LINE*
X178500000Y-120000000D03*
G04 #@! TO.P,RL4,7*
G04 #@! TO.N,N/C*
X178500000Y-110000000D03*
G04 #@! TD*
G04 #@! TO.P,RL5,7*
G04 #@! TO.N,N/C*
X210500000Y-110000000D03*
G04 #@! TO.P,RL5,5*
G04 #@! TO.N,RL05_GND*
X210500000Y-120000000D03*
G04 #@! TO.P,RL5,6*
G04 #@! TO.N,GND*
X210500000Y-115000000D03*
G04 #@! TO.P,RL5,2*
G04 #@! TO.N,N/C*
X203000000Y-110000000D03*
G04 #@! TO.P,RL5,4*
G04 #@! TO.N,RL05_VCC*
X203000000Y-120000000D03*
G04 #@! TO.P,RL5,3*
G04 #@! TO.N,+5V*
X203000000Y-115000000D03*
G04 #@! TO.P,RL5,8*
G04 #@! TO.N,RL05_COIL*
X210500000Y-95000000D03*
D12*
G04 #@! TO.P,RL5,1*
G04 #@! TO.N,+5V*
X203000000Y-95000000D03*
G04 #@! TD*
D18*
G04 #@! TO.N,GND*
X158000000Y-66000000D03*
X160000000Y-64000000D03*
G04 #@! TO.N,ISP_MISO*
X183000000Y-76000000D03*
X150000000Y-61000000D03*
G04 #@! TO.N,ISP_SCK*
X155000000Y-56000000D03*
X173000000Y-65000000D03*
G04 #@! TO.N,ISP_MOSI*
X183000000Y-79000000D03*
X150000000Y-64000000D03*
G04 #@! TO.N,RL05_COIL*
X202000000Y-85000000D03*
G04 #@! TD*
D19*
G04 #@! TO.N,GND*
X205540000Y-49460000D02*
X205540000Y-52000000D01*
X210620000Y-52000000D02*
X210620000Y-49460000D01*
X216000000Y-76000000D02*
X216000000Y-109500000D01*
X216000000Y-66000000D02*
X216000000Y-76000000D01*
D20*
X158000000Y-66000000D02*
X160000000Y-64000000D01*
D19*
X216000000Y-47000000D02*
X216000000Y-49000000D01*
X216000000Y-49000000D02*
X216000000Y-66000000D01*
X214000000Y-45000000D02*
X216000000Y-47000000D01*
X175500000Y-49000000D02*
X179500000Y-45000000D01*
X205540000Y-46540000D02*
X204000000Y-45000000D01*
X205540000Y-49460000D02*
X205540000Y-46540000D01*
X179500000Y-45000000D02*
X204000000Y-45000000D01*
X210620000Y-46620000D02*
X209000000Y-45000000D01*
X204000000Y-45000000D02*
X209000000Y-45000000D01*
X210620000Y-49460000D02*
X210620000Y-46620000D01*
X209000000Y-45000000D02*
X214000000Y-45000000D01*
X210500000Y-115000000D02*
X214000000Y-115000000D01*
X216000000Y-113000000D02*
X216000000Y-109500000D01*
X214000000Y-115000000D02*
X216000000Y-113000000D01*
D20*
X192920000Y-74080000D02*
X191000000Y-74080000D01*
X194000000Y-73000000D02*
X192920000Y-74080000D01*
X194000000Y-62000000D02*
X194000000Y-73000000D01*
X191000000Y-60540000D02*
X192540000Y-60540000D01*
X192540000Y-60540000D02*
X194000000Y-62000000D01*
X210080000Y-76080000D02*
X210080000Y-78460000D01*
X205500000Y-71500000D02*
X210080000Y-76080000D01*
X205500000Y-68500000D02*
X205500000Y-71500000D01*
X206250000Y-67750000D02*
X205500000Y-68500000D01*
X208000000Y-67750000D02*
X206250000Y-67750000D01*
G04 #@! TO.N,ISP_RES*
X213000000Y-70250000D02*
X213000000Y-80000000D01*
X212000000Y-81000000D02*
X210080000Y-81000000D01*
X213000000Y-80000000D02*
X212000000Y-81000000D01*
X208100000Y-70350000D02*
X208000000Y-70250000D01*
X213000000Y-70350000D02*
X208100000Y-70350000D01*
D19*
G04 #@! TO.N,+5V*
X203000000Y-52000000D02*
X203000000Y-49460000D01*
X203000000Y-52000000D02*
X203000000Y-55000000D01*
X203000000Y-55000000D02*
X200000000Y-58000000D01*
D20*
X109650000Y-93150000D02*
X111500000Y-95000000D01*
X109650000Y-89000000D02*
X109650000Y-93150000D01*
X129150000Y-93150000D02*
X131000000Y-95000000D01*
X129150000Y-89000000D02*
X129150000Y-93150000D01*
X149150000Y-93150000D02*
X151000000Y-95000000D01*
X149150000Y-89000000D02*
X149150000Y-93150000D01*
X169150000Y-93150000D02*
X171000000Y-95000000D01*
X169150000Y-89000000D02*
X169150000Y-93150000D01*
X201650000Y-93650000D02*
X203000000Y-95000000D01*
X201650000Y-89000000D02*
X201650000Y-93650000D01*
X109650000Y-89000000D02*
X112575000Y-86075000D01*
X172075000Y-86075000D02*
X169150000Y-89000000D01*
X129150000Y-87850000D02*
X130925000Y-86075000D01*
X129150000Y-89000000D02*
X129150000Y-87850000D01*
X112575000Y-86075000D02*
X130925000Y-86075000D01*
X149150000Y-89000000D02*
X149150000Y-87850000D01*
X149150000Y-87850000D02*
X150925000Y-86075000D01*
X130925000Y-86075000D02*
X150925000Y-86075000D01*
X150925000Y-86075000D02*
X172075000Y-86075000D01*
X213000000Y-64350000D02*
X208000000Y-64350000D01*
X200000000Y-89000000D02*
X198000000Y-87000000D01*
X201650000Y-89000000D02*
X200000000Y-89000000D01*
D19*
X198000000Y-110000000D02*
X198000000Y-87000000D01*
X198000000Y-87000000D02*
X198000000Y-83599998D01*
X176000000Y-58000000D02*
X175500000Y-57500000D01*
X191000000Y-58000000D02*
X176000000Y-58000000D01*
D20*
X208000000Y-64350000D02*
X205350000Y-64350000D01*
D19*
X203000000Y-115000000D02*
X200000000Y-115000000D01*
X198000000Y-113000000D02*
X198000000Y-110000000D01*
X200000000Y-115000000D02*
X198000000Y-113000000D01*
X198000000Y-61000000D02*
X195000000Y-58000000D01*
X195000000Y-58000000D02*
X191000000Y-58000000D01*
X200000000Y-58000000D02*
X195000000Y-58000000D01*
D20*
X201350000Y-64350000D02*
X198000000Y-61000000D01*
X205350000Y-64350000D02*
X201350000Y-64350000D01*
X201460000Y-78460000D02*
X198000000Y-75000000D01*
X205000000Y-78460000D02*
X201460000Y-78460000D01*
D19*
X198000000Y-83599998D02*
X198000000Y-75000000D01*
X198000000Y-75000000D02*
X198000000Y-61000000D01*
D20*
X213000000Y-64350000D02*
X213000000Y-67650000D01*
X195524998Y-86075000D02*
X198000000Y-83599998D01*
X172075000Y-86075000D02*
X195524998Y-86075000D01*
G04 #@! TO.N,Net-(D1-Pad1)*
X118150000Y-89000000D02*
X112350000Y-89000000D01*
G04 #@! TO.N,Net-(D2-Pad1)*
X137650000Y-89000000D02*
X131850000Y-89000000D01*
G04 #@! TO.N,Net-(D3-Pad1)*
X157650000Y-89000000D02*
X151850000Y-89000000D01*
G04 #@! TO.N,Net-(D4-Pad1)*
X177650000Y-89000000D02*
X171850000Y-89000000D01*
G04 #@! TO.N,Net-(D5-Pad1)*
X204350000Y-89000000D02*
X209650000Y-89000000D01*
D21*
G04 #@! TO.N,LINE*
X88160000Y-130000000D02*
X88160000Y-109840000D01*
X88160000Y-109840000D02*
X93000000Y-105000000D01*
X121400001Y-104999999D02*
X140999999Y-104999999D01*
X140999999Y-104999999D02*
X160160001Y-104999999D01*
X101000000Y-67000000D02*
X107000000Y-61000000D01*
X107000000Y-53878680D02*
X107000000Y-61000000D01*
X111878680Y-49000000D02*
X107000000Y-53878680D01*
X114000000Y-49000000D02*
X111878680Y-49000000D01*
X88160000Y-79840000D02*
X101000000Y-67000000D01*
X88160000Y-109840000D02*
X88160000Y-79840000D01*
X138500000Y-115000000D02*
X144000000Y-115000000D01*
X144000000Y-115000000D02*
X145000000Y-114000000D01*
X145000000Y-109000000D02*
X140999999Y-104999999D01*
X145000000Y-114000000D02*
X145000000Y-109000000D01*
X119000000Y-115000000D02*
X124000000Y-115000000D01*
X124000000Y-115000000D02*
X125000000Y-114000000D01*
X120660002Y-105000000D02*
X120000000Y-105000000D01*
X125000000Y-109339998D02*
X120660002Y-105000000D01*
X125000000Y-114000000D02*
X125000000Y-109339998D01*
X93000000Y-105000000D02*
X120000000Y-105000000D01*
X120000000Y-105000000D02*
X121400001Y-104999999D01*
X178500000Y-115000000D02*
X183000000Y-115000000D01*
X183000000Y-115000000D02*
X184000000Y-114000000D01*
X180160001Y-104999999D02*
X160160001Y-104999999D01*
X184000000Y-108839998D02*
X180160001Y-104999999D01*
X184000000Y-114000000D02*
X184000000Y-108839998D01*
X158500000Y-115000000D02*
X164000000Y-115000000D01*
X164000000Y-115000000D02*
X165000000Y-114000000D01*
X165000000Y-109839998D02*
X160160001Y-104999999D01*
X165000000Y-114000000D02*
X165000000Y-109839998D01*
D20*
G04 #@! TO.N,TWI_SCL*
X213160000Y-61490000D02*
X213000000Y-61650000D01*
X213160000Y-52000000D02*
X213160000Y-61490000D01*
X213160000Y-52000000D02*
X213160000Y-49460000D01*
G04 #@! TO.N,TWI_SDA*
X208080000Y-61570000D02*
X208000000Y-61650000D01*
X208080000Y-52000000D02*
X208080000Y-61570000D01*
X208080000Y-52000000D02*
X208080000Y-49460000D01*
G04 #@! TO.N,ISP_MISO*
X150000000Y-61000000D02*
X165000000Y-76000000D01*
X165000000Y-76000000D02*
X173000000Y-76000000D01*
X173000000Y-76000000D02*
X183000000Y-76000000D01*
G04 #@! TO.N,ISP_SCK*
X164000000Y-56000000D02*
X173000000Y-65000000D01*
X155000000Y-56000000D02*
X164000000Y-56000000D01*
G04 #@! TO.N,ISP_MOSI*
X150000000Y-64000000D02*
X165000000Y-79000000D01*
X165000000Y-79000000D02*
X173000000Y-79000000D01*
X173000000Y-79000000D02*
X183000000Y-79000000D01*
D21*
G04 #@! TO.N,RL01_NEUT*
X110000000Y-121500000D02*
X111500000Y-120000000D01*
X110000000Y-130000000D02*
X110000000Y-121500000D01*
G04 #@! TO.N,RL01_LINE*
X120160000Y-121160000D02*
X119000000Y-120000000D01*
X120160000Y-130000000D02*
X120160000Y-121160000D01*
G04 #@! TO.N,RL02_LINE*
X140080000Y-121580000D02*
X138500000Y-120000000D01*
X140080000Y-130000000D02*
X140080000Y-121580000D01*
G04 #@! TO.N,RL02_NEUT*
X129920000Y-121080000D02*
X131000000Y-120000000D01*
X129920000Y-130000000D02*
X129920000Y-121080000D01*
G04 #@! TO.N,RL03_LINE*
X160160000Y-121660000D02*
X158500000Y-120000000D01*
X160160000Y-130000000D02*
X160160000Y-121660000D01*
G04 #@! TO.N,RL03_NEUT*
X150000000Y-121000000D02*
X151000000Y-120000000D01*
X150000000Y-130000000D02*
X150000000Y-121000000D01*
G04 #@! TO.N,RL04_LINE*
X180160000Y-121660000D02*
X178500000Y-120000000D01*
X180160000Y-130000000D02*
X180160000Y-121660000D01*
G04 #@! TO.N,RL04_NEUT*
X170000000Y-121000000D02*
X171000000Y-120000000D01*
X170000000Y-130000000D02*
X170000000Y-121000000D01*
D19*
G04 #@! TO.N,RL05_GND*
X214240000Y-123740000D02*
X210500000Y-120000000D01*
X214240000Y-130000000D02*
X214240000Y-123740000D01*
G04 #@! TO.N,RL05_VCC*
X199000000Y-124000000D02*
X203000000Y-120000000D01*
X199000000Y-130000000D02*
X199000000Y-124000000D01*
D20*
G04 #@! TO.N,RL01_COIL*
X120850000Y-93150000D02*
X119000000Y-95000000D01*
X120850000Y-89000000D02*
X120850000Y-93150000D01*
G04 #@! TO.N,RL02_COIL*
X140350000Y-93150000D02*
X138500000Y-95000000D01*
X140350000Y-89000000D02*
X140350000Y-93150000D01*
G04 #@! TO.N,RL03_COIL*
X160350000Y-93150000D02*
X158500000Y-95000000D01*
X160350000Y-89000000D02*
X160350000Y-93150000D01*
G04 #@! TO.N,RL04_COIL*
X180350000Y-93150000D02*
X178500000Y-95000000D01*
X180350000Y-89000000D02*
X180350000Y-93150000D01*
G04 #@! TO.N,RL05_COIL*
X212350000Y-93150000D02*
X210500000Y-95000000D01*
X212350000Y-89000000D02*
X212350000Y-93150000D01*
X208350000Y-85000000D02*
X202000000Y-85000000D01*
X212350000Y-89000000D02*
X212350000Y-87350000D01*
X210000000Y-85000000D02*
X208350000Y-85000000D01*
X212350000Y-87350000D02*
X210000000Y-85000000D01*
G04 #@! TD*
D22*
G04 #@! TO.N,+5V*
X217202670Y-41976437D02*
X217397620Y-42035296D01*
X217577426Y-42130900D01*
X217735240Y-42259610D01*
X217865046Y-42416519D01*
X217961904Y-42595654D01*
X218022122Y-42790187D01*
X218048001Y-43036407D01*
X218048000Y-136953443D01*
X218023563Y-137202672D01*
X217964705Y-137397619D01*
X217869098Y-137577429D01*
X217740390Y-137735240D01*
X217583480Y-137865047D01*
X217404346Y-137961904D01*
X217209813Y-138022122D01*
X216963602Y-138048000D01*
X191127000Y-138048000D01*
X191127000Y-134127000D01*
X195000000Y-134127000D01*
X195024776Y-134124560D01*
X195048601Y-134117333D01*
X195070557Y-134105597D01*
X195089803Y-134089803D01*
X195105597Y-134070557D01*
X195117333Y-134048601D01*
X195124560Y-134024776D01*
X195127000Y-134000000D01*
X195127000Y-128500000D01*
X196568515Y-128500000D01*
X196568515Y-131500000D01*
X196586413Y-131681724D01*
X196639420Y-131856464D01*
X196725499Y-132017505D01*
X196841341Y-132158659D01*
X196982495Y-132274501D01*
X197143536Y-132360580D01*
X197318276Y-132413587D01*
X197500000Y-132431485D01*
X200500000Y-132431485D01*
X200681724Y-132413587D01*
X200856464Y-132360580D01*
X201017505Y-132274501D01*
X201158659Y-132158659D01*
X201274501Y-132017505D01*
X201360580Y-131856464D01*
X201413587Y-131681724D01*
X201431485Y-131500000D01*
X201431485Y-129760961D01*
X201653000Y-129760961D01*
X201653000Y-130239039D01*
X201746268Y-130707930D01*
X201929221Y-131149615D01*
X202194826Y-131547122D01*
X202532878Y-131885174D01*
X202930385Y-132150779D01*
X203372070Y-132333732D01*
X203840961Y-132427000D01*
X204319039Y-132427000D01*
X204787930Y-132333732D01*
X205229615Y-132150779D01*
X205627122Y-131885174D01*
X205965174Y-131547122D01*
X206230779Y-131149615D01*
X206413732Y-130707930D01*
X206507000Y-130239039D01*
X206507000Y-129760961D01*
X206733000Y-129760961D01*
X206733000Y-130239039D01*
X206826268Y-130707930D01*
X207009221Y-131149615D01*
X207274826Y-131547122D01*
X207612878Y-131885174D01*
X208010385Y-132150779D01*
X208452070Y-132333732D01*
X208920961Y-132427000D01*
X209399039Y-132427000D01*
X209867930Y-132333732D01*
X210309615Y-132150779D01*
X210707122Y-131885174D01*
X211045174Y-131547122D01*
X211310779Y-131149615D01*
X211493732Y-130707930D01*
X211587000Y-130239039D01*
X211587000Y-129760961D01*
X211493732Y-129292070D01*
X211310779Y-128850385D01*
X211045174Y-128452878D01*
X210707122Y-128114826D01*
X210309615Y-127849221D01*
X209867930Y-127666268D01*
X209399039Y-127573000D01*
X208920961Y-127573000D01*
X208452070Y-127666268D01*
X208010385Y-127849221D01*
X207612878Y-128114826D01*
X207274826Y-128452878D01*
X207009221Y-128850385D01*
X206826268Y-129292070D01*
X206733000Y-129760961D01*
X206507000Y-129760961D01*
X206413732Y-129292070D01*
X206230779Y-128850385D01*
X205965174Y-128452878D01*
X205627122Y-128114826D01*
X205229615Y-127849221D01*
X204787930Y-127666268D01*
X204319039Y-127573000D01*
X203840961Y-127573000D01*
X203372070Y-127666268D01*
X202930385Y-127849221D01*
X202532878Y-128114826D01*
X202194826Y-128452878D01*
X201929221Y-128850385D01*
X201746268Y-129292070D01*
X201653000Y-129760961D01*
X201431485Y-129760961D01*
X201431485Y-128500000D01*
X201413587Y-128318276D01*
X201360580Y-128143536D01*
X201274501Y-127982495D01*
X201158659Y-127841341D01*
X201017505Y-127725499D01*
X200927000Y-127677123D01*
X200927000Y-124798189D01*
X203312876Y-122412313D01*
X203707930Y-122333732D01*
X204149615Y-122150779D01*
X204547122Y-121885174D01*
X204885174Y-121547122D01*
X205150779Y-121149615D01*
X205333732Y-120707930D01*
X205427000Y-120239039D01*
X205427000Y-119760961D01*
X208073000Y-119760961D01*
X208073000Y-120239039D01*
X208166268Y-120707930D01*
X208349221Y-121149615D01*
X208614826Y-121547122D01*
X208952878Y-121885174D01*
X209350385Y-122150779D01*
X209792070Y-122333732D01*
X210187124Y-122412313D01*
X212313001Y-124538191D01*
X212313000Y-128515475D01*
X212089221Y-128850385D01*
X211906268Y-129292070D01*
X211813000Y-129760961D01*
X211813000Y-130239039D01*
X211906268Y-130707930D01*
X212089221Y-131149615D01*
X212354826Y-131547122D01*
X212692878Y-131885174D01*
X213090385Y-132150779D01*
X213532070Y-132333732D01*
X214000961Y-132427000D01*
X214479039Y-132427000D01*
X214947930Y-132333732D01*
X215389615Y-132150779D01*
X215787122Y-131885174D01*
X216125174Y-131547122D01*
X216390779Y-131149615D01*
X216573732Y-130707930D01*
X216667000Y-130239039D01*
X216667000Y-129760961D01*
X216573732Y-129292070D01*
X216390779Y-128850385D01*
X216167000Y-128515475D01*
X216167000Y-123834658D01*
X216176323Y-123740000D01*
X216139117Y-123362241D01*
X216028929Y-122999001D01*
X215849993Y-122664236D01*
X215669528Y-122444338D01*
X215669525Y-122444335D01*
X215609187Y-122370813D01*
X215535665Y-122310475D01*
X212912313Y-119687124D01*
X212833732Y-119292070D01*
X212650779Y-118850385D01*
X212385174Y-118452878D01*
X212047122Y-118114826D01*
X211649615Y-117849221D01*
X211207930Y-117666268D01*
X210739039Y-117573000D01*
X210260961Y-117573000D01*
X209792070Y-117666268D01*
X209350385Y-117849221D01*
X208952878Y-118114826D01*
X208614826Y-118452878D01*
X208349221Y-118850385D01*
X208166268Y-119292070D01*
X208073000Y-119760961D01*
X205427000Y-119760961D01*
X205333732Y-119292070D01*
X205150779Y-118850385D01*
X204885174Y-118452878D01*
X204547122Y-118114826D01*
X204149615Y-117849221D01*
X203707930Y-117666268D01*
X203239039Y-117573000D01*
X202760961Y-117573000D01*
X202292070Y-117666268D01*
X201850385Y-117849221D01*
X201452878Y-118114826D01*
X201114826Y-118452878D01*
X200849221Y-118850385D01*
X200666268Y-119292070D01*
X200587687Y-119687124D01*
X197704336Y-122570475D01*
X197630814Y-122630813D01*
X197570476Y-122704335D01*
X197570472Y-122704339D01*
X197390007Y-122924237D01*
X197211071Y-123259002D01*
X197100884Y-123622242D01*
X197063678Y-124000000D01*
X197073001Y-124094657D01*
X197073000Y-127677122D01*
X196982495Y-127725499D01*
X196841341Y-127841341D01*
X196725499Y-127982495D01*
X196639420Y-128143536D01*
X196586413Y-128318276D01*
X196568515Y-128500000D01*
X195127000Y-128500000D01*
X195127000Y-126000000D01*
X195124560Y-125975224D01*
X195117333Y-125951399D01*
X195105597Y-125929443D01*
X195089803Y-125910197D01*
X195070557Y-125894403D01*
X195048601Y-125882667D01*
X195024776Y-125875440D01*
X195000000Y-125873000D01*
X191127000Y-125873000D01*
X191127000Y-116491653D01*
X201687952Y-116491653D01*
X201843962Y-116807214D01*
X202218745Y-116998020D01*
X202623551Y-117112044D01*
X203042824Y-117144902D01*
X203460451Y-117095334D01*
X203860383Y-116965243D01*
X204156038Y-116807214D01*
X204312048Y-116491653D01*
X203000000Y-115179605D01*
X201687952Y-116491653D01*
X191127000Y-116491653D01*
X191127000Y-115042824D01*
X200855098Y-115042824D01*
X200904666Y-115460451D01*
X201034757Y-115860383D01*
X201192786Y-116156038D01*
X201508347Y-116312048D01*
X202820395Y-115000000D01*
X203179605Y-115000000D01*
X204491653Y-116312048D01*
X204807214Y-116156038D01*
X204998020Y-115781255D01*
X205112044Y-115376449D01*
X205144902Y-114957176D01*
X205095334Y-114539549D01*
X204965243Y-114139617D01*
X204807214Y-113843962D01*
X204491653Y-113687952D01*
X203179605Y-115000000D01*
X202820395Y-115000000D01*
X201508347Y-113687952D01*
X201192786Y-113843962D01*
X201001980Y-114218745D01*
X200887956Y-114623551D01*
X200855098Y-115042824D01*
X191127000Y-115042824D01*
X191127000Y-113508347D01*
X201687952Y-113508347D01*
X203000000Y-114820395D01*
X204312048Y-113508347D01*
X204156038Y-113192786D01*
X203781255Y-113001980D01*
X203376449Y-112887956D01*
X202957176Y-112855098D01*
X202539549Y-112904666D01*
X202139617Y-113034757D01*
X201843962Y-113192786D01*
X201687952Y-113508347D01*
X191127000Y-113508347D01*
X191127000Y-109760961D01*
X200573000Y-109760961D01*
X200573000Y-110239039D01*
X200666268Y-110707930D01*
X200849221Y-111149615D01*
X201114826Y-111547122D01*
X201452878Y-111885174D01*
X201850385Y-112150779D01*
X202292070Y-112333732D01*
X202760961Y-112427000D01*
X203239039Y-112427000D01*
X203707930Y-112333732D01*
X204149615Y-112150779D01*
X204547122Y-111885174D01*
X204885174Y-111547122D01*
X205150779Y-111149615D01*
X205333732Y-110707930D01*
X205427000Y-110239039D01*
X205427000Y-109760961D01*
X208073000Y-109760961D01*
X208073000Y-110239039D01*
X208166268Y-110707930D01*
X208349221Y-111149615D01*
X208614826Y-111547122D01*
X208952878Y-111885174D01*
X209350385Y-112150779D01*
X209792070Y-112333732D01*
X210260961Y-112427000D01*
X210739039Y-112427000D01*
X211207930Y-112333732D01*
X211649615Y-112150779D01*
X212047122Y-111885174D01*
X212385174Y-111547122D01*
X212650779Y-111149615D01*
X212833732Y-110707930D01*
X212927000Y-110239039D01*
X212927000Y-109760961D01*
X212833732Y-109292070D01*
X212650779Y-108850385D01*
X212385174Y-108452878D01*
X212047122Y-108114826D01*
X211649615Y-107849221D01*
X211207930Y-107666268D01*
X210739039Y-107573000D01*
X210260961Y-107573000D01*
X209792070Y-107666268D01*
X209350385Y-107849221D01*
X208952878Y-108114826D01*
X208614826Y-108452878D01*
X208349221Y-108850385D01*
X208166268Y-109292070D01*
X208073000Y-109760961D01*
X205427000Y-109760961D01*
X205333732Y-109292070D01*
X205150779Y-108850385D01*
X204885174Y-108452878D01*
X204547122Y-108114826D01*
X204149615Y-107849221D01*
X203707930Y-107666268D01*
X203239039Y-107573000D01*
X202760961Y-107573000D01*
X202292070Y-107666268D01*
X201850385Y-107849221D01*
X201452878Y-108114826D01*
X201114826Y-108452878D01*
X200849221Y-108850385D01*
X200666268Y-109292070D01*
X200573000Y-109760961D01*
X191127000Y-109760961D01*
X191127000Y-98000000D01*
X191124560Y-97975224D01*
X191117333Y-97951399D01*
X191105597Y-97929443D01*
X191089803Y-97910197D01*
X191070557Y-97894403D01*
X191048601Y-97882667D01*
X191024776Y-97875440D01*
X191000000Y-97873000D01*
X107127000Y-97873000D01*
X107127000Y-96500000D01*
X109361928Y-96500000D01*
X109374188Y-96624482D01*
X109410498Y-96744180D01*
X109469463Y-96854494D01*
X109548815Y-96951185D01*
X109645506Y-97030537D01*
X109755820Y-97089502D01*
X109875518Y-97125812D01*
X110000000Y-97138072D01*
X111214250Y-97135000D01*
X111373000Y-96976250D01*
X111373000Y-95127000D01*
X111627000Y-95127000D01*
X111627000Y-96976250D01*
X111785750Y-97135000D01*
X113000000Y-97138072D01*
X113124482Y-97125812D01*
X113244180Y-97089502D01*
X113354494Y-97030537D01*
X113451185Y-96951185D01*
X113530537Y-96854494D01*
X113589502Y-96744180D01*
X113625812Y-96624482D01*
X113638072Y-96500000D01*
X113635000Y-95285750D01*
X113476250Y-95127000D01*
X111627000Y-95127000D01*
X111373000Y-95127000D01*
X109523750Y-95127000D01*
X109365000Y-95285750D01*
X109361928Y-96500000D01*
X107127000Y-96500000D01*
X107127000Y-93500000D01*
X109361928Y-93500000D01*
X109365000Y-94714250D01*
X109523750Y-94873000D01*
X111373000Y-94873000D01*
X111373000Y-93023750D01*
X111627000Y-93023750D01*
X111627000Y-94873000D01*
X113476250Y-94873000D01*
X113635000Y-94714250D01*
X113638072Y-93500000D01*
X113625812Y-93375518D01*
X113589502Y-93255820D01*
X113530537Y-93145506D01*
X113451185Y-93048815D01*
X113354494Y-92969463D01*
X113244180Y-92910498D01*
X113124482Y-92874188D01*
X113000000Y-92861928D01*
X111785750Y-92865000D01*
X111627000Y-93023750D01*
X111373000Y-93023750D01*
X111214250Y-92865000D01*
X110000000Y-92861928D01*
X109875518Y-92874188D01*
X109755820Y-92910498D01*
X109645506Y-92969463D01*
X109548815Y-93048815D01*
X109469463Y-93145506D01*
X109410498Y-93255820D01*
X109374188Y-93375518D01*
X109361928Y-93500000D01*
X107127000Y-93500000D01*
X107127000Y-89650000D01*
X108261928Y-89650000D01*
X108274188Y-89774482D01*
X108310498Y-89894180D01*
X108369463Y-90004494D01*
X108448815Y-90101185D01*
X108545506Y-90180537D01*
X108655820Y-90239502D01*
X108775518Y-90275812D01*
X108900000Y-90288072D01*
X109364250Y-90285000D01*
X109523000Y-90126250D01*
X109523000Y-89127000D01*
X108423750Y-89127000D01*
X108265000Y-89285750D01*
X108261928Y-89650000D01*
X107127000Y-89650000D01*
X107127000Y-88350000D01*
X108261928Y-88350000D01*
X108265000Y-88714250D01*
X108423750Y-88873000D01*
X109523000Y-88873000D01*
X109523000Y-87873750D01*
X109777000Y-87873750D01*
X109777000Y-88873000D01*
X109797000Y-88873000D01*
X109797000Y-89127000D01*
X109777000Y-89127000D01*
X109777000Y-90126250D01*
X109935750Y-90285000D01*
X110400000Y-90288072D01*
X110524482Y-90275812D01*
X110644180Y-90239502D01*
X110754494Y-90180537D01*
X110808691Y-90136059D01*
X110825499Y-90167505D01*
X110941341Y-90308659D01*
X111082495Y-90424501D01*
X111243536Y-90510580D01*
X111418276Y-90563587D01*
X111600000Y-90581485D01*
X113100000Y-90581485D01*
X113281724Y-90563587D01*
X113456464Y-90510580D01*
X113617505Y-90424501D01*
X113758659Y-90308659D01*
X113866709Y-90177000D01*
X116633291Y-90177000D01*
X116741341Y-90308659D01*
X116882495Y-90424501D01*
X117043536Y-90510580D01*
X117218276Y-90563587D01*
X117400000Y-90581485D01*
X118900000Y-90581485D01*
X119081724Y-90563587D01*
X119256464Y-90510580D01*
X119417505Y-90424501D01*
X119500000Y-90356799D01*
X119582495Y-90424501D01*
X119673000Y-90472878D01*
X119673001Y-92659320D01*
X119239039Y-92573000D01*
X118760961Y-92573000D01*
X118292070Y-92666268D01*
X117850385Y-92849221D01*
X117452878Y-93114826D01*
X117114826Y-93452878D01*
X116849221Y-93850385D01*
X116666268Y-94292070D01*
X116573000Y-94760961D01*
X116573000Y-95239039D01*
X116666268Y-95707930D01*
X116849221Y-96149615D01*
X117114826Y-96547122D01*
X117452878Y-96885174D01*
X117850385Y-97150779D01*
X118292070Y-97333732D01*
X118760961Y-97427000D01*
X119239039Y-97427000D01*
X119707930Y-97333732D01*
X120149615Y-97150779D01*
X120547122Y-96885174D01*
X120885174Y-96547122D01*
X120916659Y-96500000D01*
X128861928Y-96500000D01*
X128874188Y-96624482D01*
X128910498Y-96744180D01*
X128969463Y-96854494D01*
X129048815Y-96951185D01*
X129145506Y-97030537D01*
X129255820Y-97089502D01*
X129375518Y-97125812D01*
X129500000Y-97138072D01*
X130714250Y-97135000D01*
X130873000Y-96976250D01*
X130873000Y-95127000D01*
X131127000Y-95127000D01*
X131127000Y-96976250D01*
X131285750Y-97135000D01*
X132500000Y-97138072D01*
X132624482Y-97125812D01*
X132744180Y-97089502D01*
X132854494Y-97030537D01*
X132951185Y-96951185D01*
X133030537Y-96854494D01*
X133089502Y-96744180D01*
X133125812Y-96624482D01*
X133138072Y-96500000D01*
X133135000Y-95285750D01*
X132976250Y-95127000D01*
X131127000Y-95127000D01*
X130873000Y-95127000D01*
X129023750Y-95127000D01*
X128865000Y-95285750D01*
X128861928Y-96500000D01*
X120916659Y-96500000D01*
X121150779Y-96149615D01*
X121333732Y-95707930D01*
X121427000Y-95239039D01*
X121427000Y-94760961D01*
X121340157Y-94324372D01*
X121641382Y-94023147D01*
X121686291Y-93986291D01*
X121833374Y-93807070D01*
X121942667Y-93602597D01*
X121973789Y-93500000D01*
X128861928Y-93500000D01*
X128865000Y-94714250D01*
X129023750Y-94873000D01*
X130873000Y-94873000D01*
X130873000Y-93023750D01*
X131127000Y-93023750D01*
X131127000Y-94873000D01*
X132976250Y-94873000D01*
X133135000Y-94714250D01*
X133138072Y-93500000D01*
X133125812Y-93375518D01*
X133089502Y-93255820D01*
X133030537Y-93145506D01*
X132951185Y-93048815D01*
X132854494Y-92969463D01*
X132744180Y-92910498D01*
X132624482Y-92874188D01*
X132500000Y-92861928D01*
X131285750Y-92865000D01*
X131127000Y-93023750D01*
X130873000Y-93023750D01*
X130714250Y-92865000D01*
X129500000Y-92861928D01*
X129375518Y-92874188D01*
X129255820Y-92910498D01*
X129145506Y-92969463D01*
X129048815Y-93048815D01*
X128969463Y-93145506D01*
X128910498Y-93255820D01*
X128874188Y-93375518D01*
X128861928Y-93500000D01*
X121973789Y-93500000D01*
X122009969Y-93380732D01*
X122027000Y-93207812D01*
X122032694Y-93150001D01*
X122027000Y-93092189D01*
X122027000Y-90472877D01*
X122117505Y-90424501D01*
X122258659Y-90308659D01*
X122374501Y-90167505D01*
X122460580Y-90006464D01*
X122513587Y-89831724D01*
X122531485Y-89650000D01*
X127761928Y-89650000D01*
X127774188Y-89774482D01*
X127810498Y-89894180D01*
X127869463Y-90004494D01*
X127948815Y-90101185D01*
X128045506Y-90180537D01*
X128155820Y-90239502D01*
X128275518Y-90275812D01*
X128400000Y-90288072D01*
X128864250Y-90285000D01*
X129023000Y-90126250D01*
X129023000Y-89127000D01*
X127923750Y-89127000D01*
X127765000Y-89285750D01*
X127761928Y-89650000D01*
X122531485Y-89650000D01*
X122531485Y-88350000D01*
X127761928Y-88350000D01*
X127765000Y-88714250D01*
X127923750Y-88873000D01*
X129023000Y-88873000D01*
X129023000Y-87873750D01*
X129277000Y-87873750D01*
X129277000Y-88873000D01*
X129297000Y-88873000D01*
X129297000Y-89127000D01*
X129277000Y-89127000D01*
X129277000Y-90126250D01*
X129435750Y-90285000D01*
X129900000Y-90288072D01*
X130024482Y-90275812D01*
X130144180Y-90239502D01*
X130254494Y-90180537D01*
X130308691Y-90136059D01*
X130325499Y-90167505D01*
X130441341Y-90308659D01*
X130582495Y-90424501D01*
X130743536Y-90510580D01*
X130918276Y-90563587D01*
X131100000Y-90581485D01*
X132600000Y-90581485D01*
X132781724Y-90563587D01*
X132956464Y-90510580D01*
X133117505Y-90424501D01*
X133258659Y-90308659D01*
X133366709Y-90177000D01*
X136133291Y-90177000D01*
X136241341Y-90308659D01*
X136382495Y-90424501D01*
X136543536Y-90510580D01*
X136718276Y-90563587D01*
X136900000Y-90581485D01*
X138400000Y-90581485D01*
X138581724Y-90563587D01*
X138756464Y-90510580D01*
X138917505Y-90424501D01*
X139000000Y-90356799D01*
X139082495Y-90424501D01*
X139173000Y-90472878D01*
X139173001Y-92659320D01*
X138739039Y-92573000D01*
X138260961Y-92573000D01*
X137792070Y-92666268D01*
X137350385Y-92849221D01*
X136952878Y-93114826D01*
X136614826Y-93452878D01*
X136349221Y-93850385D01*
X136166268Y-94292070D01*
X136073000Y-94760961D01*
X136073000Y-95239039D01*
X136166268Y-95707930D01*
X136349221Y-96149615D01*
X136614826Y-96547122D01*
X136952878Y-96885174D01*
X137350385Y-97150779D01*
X137792070Y-97333732D01*
X138260961Y-97427000D01*
X138739039Y-97427000D01*
X139207930Y-97333732D01*
X139649615Y-97150779D01*
X140047122Y-96885174D01*
X140385174Y-96547122D01*
X140416659Y-96500000D01*
X148861928Y-96500000D01*
X148874188Y-96624482D01*
X148910498Y-96744180D01*
X148969463Y-96854494D01*
X149048815Y-96951185D01*
X149145506Y-97030537D01*
X149255820Y-97089502D01*
X149375518Y-97125812D01*
X149500000Y-97138072D01*
X150714250Y-97135000D01*
X150873000Y-96976250D01*
X150873000Y-95127000D01*
X151127000Y-95127000D01*
X151127000Y-96976250D01*
X151285750Y-97135000D01*
X152500000Y-97138072D01*
X152624482Y-97125812D01*
X152744180Y-97089502D01*
X152854494Y-97030537D01*
X152951185Y-96951185D01*
X153030537Y-96854494D01*
X153089502Y-96744180D01*
X153125812Y-96624482D01*
X153138072Y-96500000D01*
X153135000Y-95285750D01*
X152976250Y-95127000D01*
X151127000Y-95127000D01*
X150873000Y-95127000D01*
X149023750Y-95127000D01*
X148865000Y-95285750D01*
X148861928Y-96500000D01*
X140416659Y-96500000D01*
X140650779Y-96149615D01*
X140833732Y-95707930D01*
X140927000Y-95239039D01*
X140927000Y-94760961D01*
X140840157Y-94324372D01*
X141141382Y-94023147D01*
X141186291Y-93986291D01*
X141333374Y-93807070D01*
X141442667Y-93602597D01*
X141473789Y-93500000D01*
X148861928Y-93500000D01*
X148865000Y-94714250D01*
X149023750Y-94873000D01*
X150873000Y-94873000D01*
X150873000Y-93023750D01*
X151127000Y-93023750D01*
X151127000Y-94873000D01*
X152976250Y-94873000D01*
X153135000Y-94714250D01*
X153138072Y-93500000D01*
X153125812Y-93375518D01*
X153089502Y-93255820D01*
X153030537Y-93145506D01*
X152951185Y-93048815D01*
X152854494Y-92969463D01*
X152744180Y-92910498D01*
X152624482Y-92874188D01*
X152500000Y-92861928D01*
X151285750Y-92865000D01*
X151127000Y-93023750D01*
X150873000Y-93023750D01*
X150714250Y-92865000D01*
X149500000Y-92861928D01*
X149375518Y-92874188D01*
X149255820Y-92910498D01*
X149145506Y-92969463D01*
X149048815Y-93048815D01*
X148969463Y-93145506D01*
X148910498Y-93255820D01*
X148874188Y-93375518D01*
X148861928Y-93500000D01*
X141473789Y-93500000D01*
X141509969Y-93380732D01*
X141527000Y-93207812D01*
X141532694Y-93150001D01*
X141527000Y-93092189D01*
X141527000Y-90472877D01*
X141617505Y-90424501D01*
X141758659Y-90308659D01*
X141874501Y-90167505D01*
X141960580Y-90006464D01*
X142013587Y-89831724D01*
X142031485Y-89650000D01*
X147761928Y-89650000D01*
X147774188Y-89774482D01*
X147810498Y-89894180D01*
X147869463Y-90004494D01*
X147948815Y-90101185D01*
X148045506Y-90180537D01*
X148155820Y-90239502D01*
X148275518Y-90275812D01*
X148400000Y-90288072D01*
X148864250Y-90285000D01*
X149023000Y-90126250D01*
X149023000Y-89127000D01*
X147923750Y-89127000D01*
X147765000Y-89285750D01*
X147761928Y-89650000D01*
X142031485Y-89650000D01*
X142031485Y-88350000D01*
X147761928Y-88350000D01*
X147765000Y-88714250D01*
X147923750Y-88873000D01*
X149023000Y-88873000D01*
X149023000Y-87873750D01*
X149277000Y-87873750D01*
X149277000Y-88873000D01*
X149297000Y-88873000D01*
X149297000Y-89127000D01*
X149277000Y-89127000D01*
X149277000Y-90126250D01*
X149435750Y-90285000D01*
X149900000Y-90288072D01*
X150024482Y-90275812D01*
X150144180Y-90239502D01*
X150254494Y-90180537D01*
X150308691Y-90136059D01*
X150325499Y-90167505D01*
X150441341Y-90308659D01*
X150582495Y-90424501D01*
X150743536Y-90510580D01*
X150918276Y-90563587D01*
X151100000Y-90581485D01*
X152600000Y-90581485D01*
X152781724Y-90563587D01*
X152956464Y-90510580D01*
X153117505Y-90424501D01*
X153258659Y-90308659D01*
X153366709Y-90177000D01*
X156133291Y-90177000D01*
X156241341Y-90308659D01*
X156382495Y-90424501D01*
X156543536Y-90510580D01*
X156718276Y-90563587D01*
X156900000Y-90581485D01*
X158400000Y-90581485D01*
X158581724Y-90563587D01*
X158756464Y-90510580D01*
X158917505Y-90424501D01*
X159000000Y-90356799D01*
X159082495Y-90424501D01*
X159173000Y-90472878D01*
X159173001Y-92659320D01*
X158739039Y-92573000D01*
X158260961Y-92573000D01*
X157792070Y-92666268D01*
X157350385Y-92849221D01*
X156952878Y-93114826D01*
X156614826Y-93452878D01*
X156349221Y-93850385D01*
X156166268Y-94292070D01*
X156073000Y-94760961D01*
X156073000Y-95239039D01*
X156166268Y-95707930D01*
X156349221Y-96149615D01*
X156614826Y-96547122D01*
X156952878Y-96885174D01*
X157350385Y-97150779D01*
X157792070Y-97333732D01*
X158260961Y-97427000D01*
X158739039Y-97427000D01*
X159207930Y-97333732D01*
X159649615Y-97150779D01*
X160047122Y-96885174D01*
X160385174Y-96547122D01*
X160416659Y-96500000D01*
X168861928Y-96500000D01*
X168874188Y-96624482D01*
X168910498Y-96744180D01*
X168969463Y-96854494D01*
X169048815Y-96951185D01*
X169145506Y-97030537D01*
X169255820Y-97089502D01*
X169375518Y-97125812D01*
X169500000Y-97138072D01*
X170714250Y-97135000D01*
X170873000Y-96976250D01*
X170873000Y-95127000D01*
X171127000Y-95127000D01*
X171127000Y-96976250D01*
X171285750Y-97135000D01*
X172500000Y-97138072D01*
X172624482Y-97125812D01*
X172744180Y-97089502D01*
X172854494Y-97030537D01*
X172951185Y-96951185D01*
X173030537Y-96854494D01*
X173089502Y-96744180D01*
X173125812Y-96624482D01*
X173138072Y-96500000D01*
X173135000Y-95285750D01*
X172976250Y-95127000D01*
X171127000Y-95127000D01*
X170873000Y-95127000D01*
X169023750Y-95127000D01*
X168865000Y-95285750D01*
X168861928Y-96500000D01*
X160416659Y-96500000D01*
X160650779Y-96149615D01*
X160833732Y-95707930D01*
X160927000Y-95239039D01*
X160927000Y-94760961D01*
X160840157Y-94324372D01*
X161141382Y-94023147D01*
X161186291Y-93986291D01*
X161333374Y-93807070D01*
X161442667Y-93602597D01*
X161473789Y-93500000D01*
X168861928Y-93500000D01*
X168865000Y-94714250D01*
X169023750Y-94873000D01*
X170873000Y-94873000D01*
X170873000Y-93023750D01*
X171127000Y-93023750D01*
X171127000Y-94873000D01*
X172976250Y-94873000D01*
X173135000Y-94714250D01*
X173138072Y-93500000D01*
X173125812Y-93375518D01*
X173089502Y-93255820D01*
X173030537Y-93145506D01*
X172951185Y-93048815D01*
X172854494Y-92969463D01*
X172744180Y-92910498D01*
X172624482Y-92874188D01*
X172500000Y-92861928D01*
X171285750Y-92865000D01*
X171127000Y-93023750D01*
X170873000Y-93023750D01*
X170714250Y-92865000D01*
X169500000Y-92861928D01*
X169375518Y-92874188D01*
X169255820Y-92910498D01*
X169145506Y-92969463D01*
X169048815Y-93048815D01*
X168969463Y-93145506D01*
X168910498Y-93255820D01*
X168874188Y-93375518D01*
X168861928Y-93500000D01*
X161473789Y-93500000D01*
X161509969Y-93380732D01*
X161527000Y-93207812D01*
X161532694Y-93150001D01*
X161527000Y-93092189D01*
X161527000Y-90472877D01*
X161617505Y-90424501D01*
X161758659Y-90308659D01*
X161874501Y-90167505D01*
X161960580Y-90006464D01*
X162013587Y-89831724D01*
X162031485Y-89650000D01*
X167761928Y-89650000D01*
X167774188Y-89774482D01*
X167810498Y-89894180D01*
X167869463Y-90004494D01*
X167948815Y-90101185D01*
X168045506Y-90180537D01*
X168155820Y-90239502D01*
X168275518Y-90275812D01*
X168400000Y-90288072D01*
X168864250Y-90285000D01*
X169023000Y-90126250D01*
X169023000Y-89127000D01*
X167923750Y-89127000D01*
X167765000Y-89285750D01*
X167761928Y-89650000D01*
X162031485Y-89650000D01*
X162031485Y-88350000D01*
X167761928Y-88350000D01*
X167765000Y-88714250D01*
X167923750Y-88873000D01*
X169023000Y-88873000D01*
X169023000Y-87873750D01*
X169277000Y-87873750D01*
X169277000Y-88873000D01*
X169297000Y-88873000D01*
X169297000Y-89127000D01*
X169277000Y-89127000D01*
X169277000Y-90126250D01*
X169435750Y-90285000D01*
X169900000Y-90288072D01*
X170024482Y-90275812D01*
X170144180Y-90239502D01*
X170254494Y-90180537D01*
X170308691Y-90136059D01*
X170325499Y-90167505D01*
X170441341Y-90308659D01*
X170582495Y-90424501D01*
X170743536Y-90510580D01*
X170918276Y-90563587D01*
X171100000Y-90581485D01*
X172600000Y-90581485D01*
X172781724Y-90563587D01*
X172956464Y-90510580D01*
X173117505Y-90424501D01*
X173258659Y-90308659D01*
X173366709Y-90177000D01*
X176133291Y-90177000D01*
X176241341Y-90308659D01*
X176382495Y-90424501D01*
X176543536Y-90510580D01*
X176718276Y-90563587D01*
X176900000Y-90581485D01*
X178400000Y-90581485D01*
X178581724Y-90563587D01*
X178756464Y-90510580D01*
X178917505Y-90424501D01*
X179000000Y-90356799D01*
X179082495Y-90424501D01*
X179173000Y-90472878D01*
X179173001Y-92659320D01*
X178739039Y-92573000D01*
X178260961Y-92573000D01*
X177792070Y-92666268D01*
X177350385Y-92849221D01*
X176952878Y-93114826D01*
X176614826Y-93452878D01*
X176349221Y-93850385D01*
X176166268Y-94292070D01*
X176073000Y-94760961D01*
X176073000Y-95239039D01*
X176166268Y-95707930D01*
X176349221Y-96149615D01*
X176614826Y-96547122D01*
X176952878Y-96885174D01*
X177350385Y-97150779D01*
X177792070Y-97333732D01*
X178260961Y-97427000D01*
X178739039Y-97427000D01*
X179207930Y-97333732D01*
X179649615Y-97150779D01*
X180047122Y-96885174D01*
X180385174Y-96547122D01*
X180416659Y-96500000D01*
X200861928Y-96500000D01*
X200874188Y-96624482D01*
X200910498Y-96744180D01*
X200969463Y-96854494D01*
X201048815Y-96951185D01*
X201145506Y-97030537D01*
X201255820Y-97089502D01*
X201375518Y-97125812D01*
X201500000Y-97138072D01*
X202714250Y-97135000D01*
X202873000Y-96976250D01*
X202873000Y-95127000D01*
X203127000Y-95127000D01*
X203127000Y-96976250D01*
X203285750Y-97135000D01*
X204500000Y-97138072D01*
X204624482Y-97125812D01*
X204744180Y-97089502D01*
X204854494Y-97030537D01*
X204951185Y-96951185D01*
X205030537Y-96854494D01*
X205089502Y-96744180D01*
X205125812Y-96624482D01*
X205138072Y-96500000D01*
X205135000Y-95285750D01*
X204976250Y-95127000D01*
X203127000Y-95127000D01*
X202873000Y-95127000D01*
X201023750Y-95127000D01*
X200865000Y-95285750D01*
X200861928Y-96500000D01*
X180416659Y-96500000D01*
X180650779Y-96149615D01*
X180833732Y-95707930D01*
X180927000Y-95239039D01*
X180927000Y-94760961D01*
X180840157Y-94324372D01*
X181141382Y-94023147D01*
X181186291Y-93986291D01*
X181333374Y-93807070D01*
X181442667Y-93602597D01*
X181473789Y-93500000D01*
X200861928Y-93500000D01*
X200865000Y-94714250D01*
X201023750Y-94873000D01*
X202873000Y-94873000D01*
X202873000Y-93023750D01*
X203127000Y-93023750D01*
X203127000Y-94873000D01*
X204976250Y-94873000D01*
X205135000Y-94714250D01*
X205138072Y-93500000D01*
X205125812Y-93375518D01*
X205089502Y-93255820D01*
X205030537Y-93145506D01*
X204951185Y-93048815D01*
X204854494Y-92969463D01*
X204744180Y-92910498D01*
X204624482Y-92874188D01*
X204500000Y-92861928D01*
X203285750Y-92865000D01*
X203127000Y-93023750D01*
X202873000Y-93023750D01*
X202714250Y-92865000D01*
X201500000Y-92861928D01*
X201375518Y-92874188D01*
X201255820Y-92910498D01*
X201145506Y-92969463D01*
X201048815Y-93048815D01*
X200969463Y-93145506D01*
X200910498Y-93255820D01*
X200874188Y-93375518D01*
X200861928Y-93500000D01*
X181473789Y-93500000D01*
X181509969Y-93380732D01*
X181527000Y-93207812D01*
X181532694Y-93150001D01*
X181527000Y-93092189D01*
X181527000Y-90472877D01*
X181617505Y-90424501D01*
X181758659Y-90308659D01*
X181874501Y-90167505D01*
X181960580Y-90006464D01*
X182013587Y-89831724D01*
X182031485Y-89650000D01*
X200261928Y-89650000D01*
X200274188Y-89774482D01*
X200310498Y-89894180D01*
X200369463Y-90004494D01*
X200448815Y-90101185D01*
X200545506Y-90180537D01*
X200655820Y-90239502D01*
X200775518Y-90275812D01*
X200900000Y-90288072D01*
X201364250Y-90285000D01*
X201523000Y-90126250D01*
X201523000Y-89127000D01*
X200423750Y-89127000D01*
X200265000Y-89285750D01*
X200261928Y-89650000D01*
X182031485Y-89650000D01*
X182031485Y-88350000D01*
X200261928Y-88350000D01*
X200265000Y-88714250D01*
X200423750Y-88873000D01*
X201523000Y-88873000D01*
X201523000Y-87873750D01*
X201364250Y-87715000D01*
X200900000Y-87711928D01*
X200775518Y-87724188D01*
X200655820Y-87760498D01*
X200545506Y-87819463D01*
X200448815Y-87898815D01*
X200369463Y-87995506D01*
X200310498Y-88105820D01*
X200274188Y-88225518D01*
X200261928Y-88350000D01*
X182031485Y-88350000D01*
X182013587Y-88168276D01*
X181960580Y-87993536D01*
X181874501Y-87832495D01*
X181758659Y-87691341D01*
X181617505Y-87575499D01*
X181456464Y-87489420D01*
X181281724Y-87436413D01*
X181100000Y-87418515D01*
X179600000Y-87418515D01*
X179418276Y-87436413D01*
X179243536Y-87489420D01*
X179082495Y-87575499D01*
X179000000Y-87643201D01*
X178917505Y-87575499D01*
X178756464Y-87489420D01*
X178581724Y-87436413D01*
X178400000Y-87418515D01*
X176900000Y-87418515D01*
X176718276Y-87436413D01*
X176543536Y-87489420D01*
X176382495Y-87575499D01*
X176241341Y-87691341D01*
X176133291Y-87823000D01*
X173366709Y-87823000D01*
X173258659Y-87691341D01*
X173117505Y-87575499D01*
X172956464Y-87489420D01*
X172781724Y-87436413D01*
X172600000Y-87418515D01*
X171100000Y-87418515D01*
X170918276Y-87436413D01*
X170743536Y-87489420D01*
X170582495Y-87575499D01*
X170441341Y-87691341D01*
X170325499Y-87832495D01*
X170308691Y-87863941D01*
X170254494Y-87819463D01*
X170144180Y-87760498D01*
X170024482Y-87724188D01*
X169900000Y-87711928D01*
X169435750Y-87715000D01*
X169277000Y-87873750D01*
X169023000Y-87873750D01*
X168864250Y-87715000D01*
X168400000Y-87711928D01*
X168275518Y-87724188D01*
X168155820Y-87760498D01*
X168045506Y-87819463D01*
X167948815Y-87898815D01*
X167869463Y-87995506D01*
X167810498Y-88105820D01*
X167774188Y-88225518D01*
X167761928Y-88350000D01*
X162031485Y-88350000D01*
X162013587Y-88168276D01*
X161960580Y-87993536D01*
X161874501Y-87832495D01*
X161758659Y-87691341D01*
X161617505Y-87575499D01*
X161456464Y-87489420D01*
X161281724Y-87436413D01*
X161100000Y-87418515D01*
X159600000Y-87418515D01*
X159418276Y-87436413D01*
X159243536Y-87489420D01*
X159082495Y-87575499D01*
X159000000Y-87643201D01*
X158917505Y-87575499D01*
X158756464Y-87489420D01*
X158581724Y-87436413D01*
X158400000Y-87418515D01*
X156900000Y-87418515D01*
X156718276Y-87436413D01*
X156543536Y-87489420D01*
X156382495Y-87575499D01*
X156241341Y-87691341D01*
X156133291Y-87823000D01*
X153366709Y-87823000D01*
X153258659Y-87691341D01*
X153117505Y-87575499D01*
X152956464Y-87489420D01*
X152781724Y-87436413D01*
X152600000Y-87418515D01*
X151100000Y-87418515D01*
X150918276Y-87436413D01*
X150743536Y-87489420D01*
X150582495Y-87575499D01*
X150441341Y-87691341D01*
X150325499Y-87832495D01*
X150308691Y-87863941D01*
X150254494Y-87819463D01*
X150144180Y-87760498D01*
X150024482Y-87724188D01*
X149900000Y-87711928D01*
X149435750Y-87715000D01*
X149277000Y-87873750D01*
X149023000Y-87873750D01*
X148864250Y-87715000D01*
X148400000Y-87711928D01*
X148275518Y-87724188D01*
X148155820Y-87760498D01*
X148045506Y-87819463D01*
X147948815Y-87898815D01*
X147869463Y-87995506D01*
X147810498Y-88105820D01*
X147774188Y-88225518D01*
X147761928Y-88350000D01*
X142031485Y-88350000D01*
X142013587Y-88168276D01*
X141960580Y-87993536D01*
X141874501Y-87832495D01*
X141758659Y-87691341D01*
X141617505Y-87575499D01*
X141456464Y-87489420D01*
X141281724Y-87436413D01*
X141100000Y-87418515D01*
X139600000Y-87418515D01*
X139418276Y-87436413D01*
X139243536Y-87489420D01*
X139082495Y-87575499D01*
X139000000Y-87643201D01*
X138917505Y-87575499D01*
X138756464Y-87489420D01*
X138581724Y-87436413D01*
X138400000Y-87418515D01*
X136900000Y-87418515D01*
X136718276Y-87436413D01*
X136543536Y-87489420D01*
X136382495Y-87575499D01*
X136241341Y-87691341D01*
X136133291Y-87823000D01*
X133366709Y-87823000D01*
X133258659Y-87691341D01*
X133117505Y-87575499D01*
X132956464Y-87489420D01*
X132781724Y-87436413D01*
X132600000Y-87418515D01*
X131100000Y-87418515D01*
X130918276Y-87436413D01*
X130743536Y-87489420D01*
X130582495Y-87575499D01*
X130441341Y-87691341D01*
X130325499Y-87832495D01*
X130308691Y-87863941D01*
X130254494Y-87819463D01*
X130144180Y-87760498D01*
X130024482Y-87724188D01*
X129900000Y-87711928D01*
X129435750Y-87715000D01*
X129277000Y-87873750D01*
X129023000Y-87873750D01*
X128864250Y-87715000D01*
X128400000Y-87711928D01*
X128275518Y-87724188D01*
X128155820Y-87760498D01*
X128045506Y-87819463D01*
X127948815Y-87898815D01*
X127869463Y-87995506D01*
X127810498Y-88105820D01*
X127774188Y-88225518D01*
X127761928Y-88350000D01*
X122531485Y-88350000D01*
X122513587Y-88168276D01*
X122460580Y-87993536D01*
X122374501Y-87832495D01*
X122258659Y-87691341D01*
X122117505Y-87575499D01*
X121956464Y-87489420D01*
X121781724Y-87436413D01*
X121600000Y-87418515D01*
X120100000Y-87418515D01*
X119918276Y-87436413D01*
X119743536Y-87489420D01*
X119582495Y-87575499D01*
X119500000Y-87643201D01*
X119417505Y-87575499D01*
X119256464Y-87489420D01*
X119081724Y-87436413D01*
X118900000Y-87418515D01*
X117400000Y-87418515D01*
X117218276Y-87436413D01*
X117043536Y-87489420D01*
X116882495Y-87575499D01*
X116741341Y-87691341D01*
X116633291Y-87823000D01*
X113866709Y-87823000D01*
X113758659Y-87691341D01*
X113617505Y-87575499D01*
X113456464Y-87489420D01*
X113281724Y-87436413D01*
X113100000Y-87418515D01*
X111600000Y-87418515D01*
X111418276Y-87436413D01*
X111243536Y-87489420D01*
X111082495Y-87575499D01*
X110941341Y-87691341D01*
X110825499Y-87832495D01*
X110808691Y-87863941D01*
X110754494Y-87819463D01*
X110644180Y-87760498D01*
X110524482Y-87724188D01*
X110400000Y-87711928D01*
X109935750Y-87715000D01*
X109777000Y-87873750D01*
X109523000Y-87873750D01*
X109364250Y-87715000D01*
X108900000Y-87711928D01*
X108775518Y-87724188D01*
X108655820Y-87760498D01*
X108545506Y-87819463D01*
X108448815Y-87898815D01*
X108369463Y-87995506D01*
X108310498Y-88105820D01*
X108274188Y-88225518D01*
X108261928Y-88350000D01*
X107127000Y-88350000D01*
X107127000Y-84869302D01*
X200673000Y-84869302D01*
X200673000Y-85130698D01*
X200723996Y-85387072D01*
X200824028Y-85628570D01*
X200969252Y-85845913D01*
X201154087Y-86030748D01*
X201371430Y-86175972D01*
X201612928Y-86276004D01*
X201869302Y-86327000D01*
X202130698Y-86327000D01*
X202387072Y-86276004D01*
X202626088Y-86177000D01*
X209512472Y-86177000D01*
X210903465Y-87567994D01*
X210756464Y-87489420D01*
X210581724Y-87436413D01*
X210400000Y-87418515D01*
X208900000Y-87418515D01*
X208718276Y-87436413D01*
X208543536Y-87489420D01*
X208382495Y-87575499D01*
X208241341Y-87691341D01*
X208133291Y-87823000D01*
X205866709Y-87823000D01*
X205758659Y-87691341D01*
X205617505Y-87575499D01*
X205456464Y-87489420D01*
X205281724Y-87436413D01*
X205100000Y-87418515D01*
X203600000Y-87418515D01*
X203418276Y-87436413D01*
X203243536Y-87489420D01*
X203082495Y-87575499D01*
X202941341Y-87691341D01*
X202825499Y-87832495D01*
X202808691Y-87863941D01*
X202754494Y-87819463D01*
X202644180Y-87760498D01*
X202524482Y-87724188D01*
X202400000Y-87711928D01*
X201935750Y-87715000D01*
X201777000Y-87873750D01*
X201777000Y-88873000D01*
X201797000Y-88873000D01*
X201797000Y-89127000D01*
X201777000Y-89127000D01*
X201777000Y-90126250D01*
X201935750Y-90285000D01*
X202400000Y-90288072D01*
X202524482Y-90275812D01*
X202644180Y-90239502D01*
X202754494Y-90180537D01*
X202808691Y-90136059D01*
X202825499Y-90167505D01*
X202941341Y-90308659D01*
X203082495Y-90424501D01*
X203243536Y-90510580D01*
X203418276Y-90563587D01*
X203600000Y-90581485D01*
X205100000Y-90581485D01*
X205281724Y-90563587D01*
X205456464Y-90510580D01*
X205617505Y-90424501D01*
X205758659Y-90308659D01*
X205866709Y-90177000D01*
X208133291Y-90177000D01*
X208241341Y-90308659D01*
X208382495Y-90424501D01*
X208543536Y-90510580D01*
X208718276Y-90563587D01*
X208900000Y-90581485D01*
X210400000Y-90581485D01*
X210581724Y-90563587D01*
X210756464Y-90510580D01*
X210917505Y-90424501D01*
X211000000Y-90356799D01*
X211082495Y-90424501D01*
X211173000Y-90472878D01*
X211173001Y-92659320D01*
X210739039Y-92573000D01*
X210260961Y-92573000D01*
X209792070Y-92666268D01*
X209350385Y-92849221D01*
X208952878Y-93114826D01*
X208614826Y-93452878D01*
X208349221Y-93850385D01*
X208166268Y-94292070D01*
X208073000Y-94760961D01*
X208073000Y-95239039D01*
X208166268Y-95707930D01*
X208349221Y-96149615D01*
X208614826Y-96547122D01*
X208952878Y-96885174D01*
X209350385Y-97150779D01*
X209792070Y-97333732D01*
X210260961Y-97427000D01*
X210739039Y-97427000D01*
X211207930Y-97333732D01*
X211649615Y-97150779D01*
X212047122Y-96885174D01*
X212385174Y-96547122D01*
X212650779Y-96149615D01*
X212833732Y-95707930D01*
X212927000Y-95239039D01*
X212927000Y-94760961D01*
X212840157Y-94324372D01*
X213141382Y-94023147D01*
X213186291Y-93986291D01*
X213333374Y-93807070D01*
X213442667Y-93602597D01*
X213509969Y-93380732D01*
X213527000Y-93207812D01*
X213532694Y-93150001D01*
X213527000Y-93092189D01*
X213527000Y-90472877D01*
X213617505Y-90424501D01*
X213758659Y-90308659D01*
X213874501Y-90167505D01*
X213960580Y-90006464D01*
X214013587Y-89831724D01*
X214031485Y-89650000D01*
X214031485Y-88350000D01*
X214013587Y-88168276D01*
X213960580Y-87993536D01*
X213874501Y-87832495D01*
X213758659Y-87691341D01*
X213617505Y-87575499D01*
X213527000Y-87527123D01*
X213527000Y-87407812D01*
X213532694Y-87350000D01*
X213509969Y-87119268D01*
X213442667Y-86897403D01*
X213333374Y-86692930D01*
X213186291Y-86513709D01*
X213141388Y-86476858D01*
X210873151Y-84208623D01*
X210836291Y-84163709D01*
X210657070Y-84016626D01*
X210452597Y-83907333D01*
X210230732Y-83840031D01*
X210057812Y-83823000D01*
X210000000Y-83817306D01*
X209942188Y-83823000D01*
X202626088Y-83823000D01*
X202387072Y-83723996D01*
X202130698Y-83673000D01*
X201869302Y-83673000D01*
X201612928Y-83723996D01*
X201371430Y-83824028D01*
X201154087Y-83969252D01*
X200969252Y-84154087D01*
X200824028Y-84371430D01*
X200723996Y-84612928D01*
X200673000Y-84869302D01*
X107127000Y-84869302D01*
X107127000Y-76054627D01*
X123155954Y-60869302D01*
X148673000Y-60869302D01*
X148673000Y-61130698D01*
X148723996Y-61387072D01*
X148824028Y-61628570D01*
X148969252Y-61845913D01*
X149154087Y-62030748D01*
X149371430Y-62175972D01*
X149610449Y-62274977D01*
X150008472Y-62673000D01*
X149869302Y-62673000D01*
X149612928Y-62723996D01*
X149371430Y-62824028D01*
X149154087Y-62969252D01*
X148969252Y-63154087D01*
X148824028Y-63371430D01*
X148723996Y-63612928D01*
X148673000Y-63869302D01*
X148673000Y-64130698D01*
X148723996Y-64387072D01*
X148824028Y-64628570D01*
X148969252Y-64845913D01*
X149154087Y-65030748D01*
X149371430Y-65175972D01*
X149610449Y-65274977D01*
X164126854Y-79791383D01*
X164163709Y-79836291D01*
X164342930Y-79983374D01*
X164547403Y-80092667D01*
X164769268Y-80159969D01*
X164942188Y-80177000D01*
X164942197Y-80177000D01*
X164999999Y-80182693D01*
X165057801Y-80177000D01*
X182373912Y-80177000D01*
X182612928Y-80276004D01*
X182869302Y-80327000D01*
X183130698Y-80327000D01*
X183387072Y-80276004D01*
X183628570Y-80175972D01*
X183845913Y-80030748D01*
X184030748Y-79845913D01*
X184175972Y-79628570D01*
X184276004Y-79387072D01*
X184327000Y-79130698D01*
X184327000Y-78869302D01*
X184276004Y-78612928D01*
X184175972Y-78371430D01*
X184030748Y-78154087D01*
X183979770Y-78103109D01*
X203558519Y-78103109D01*
X203679186Y-78333000D01*
X204873000Y-78333000D01*
X204873000Y-77139845D01*
X204643110Y-77018524D01*
X204495901Y-77063175D01*
X204233080Y-77188359D01*
X203999731Y-77362412D01*
X203804822Y-77578645D01*
X203655843Y-77828748D01*
X203558519Y-78103109D01*
X183979770Y-78103109D01*
X183845913Y-77969252D01*
X183628570Y-77824028D01*
X183387072Y-77723996D01*
X183130698Y-77673000D01*
X182869302Y-77673000D01*
X182612928Y-77723996D01*
X182373912Y-77823000D01*
X165487529Y-77823000D01*
X164830532Y-77166003D01*
X164942188Y-77177000D01*
X164942197Y-77177000D01*
X164999999Y-77182693D01*
X165057801Y-77177000D01*
X182373912Y-77177000D01*
X182612928Y-77276004D01*
X182869302Y-77327000D01*
X183130698Y-77327000D01*
X183387072Y-77276004D01*
X183628570Y-77175972D01*
X183845913Y-77030748D01*
X184030748Y-76845913D01*
X184175972Y-76628570D01*
X184276004Y-76387072D01*
X184327000Y-76130698D01*
X184327000Y-75869302D01*
X184276004Y-75612928D01*
X184175972Y-75371430D01*
X184030748Y-75154087D01*
X183845913Y-74969252D01*
X183628570Y-74824028D01*
X183387072Y-74723996D01*
X183130698Y-74673000D01*
X182869302Y-74673000D01*
X182612928Y-74723996D01*
X182373912Y-74823000D01*
X165487529Y-74823000D01*
X158814529Y-68150000D01*
X189218515Y-68150000D01*
X189218515Y-69850000D01*
X189236413Y-70031724D01*
X189289420Y-70206464D01*
X189375499Y-70367505D01*
X189491341Y-70508659D01*
X189530479Y-70540779D01*
X189425243Y-70698275D01*
X189291289Y-71021668D01*
X189223000Y-71364981D01*
X189223000Y-71715019D01*
X189291289Y-72058332D01*
X189425243Y-72381725D01*
X189619714Y-72672771D01*
X189756943Y-72810000D01*
X189619714Y-72947229D01*
X189425243Y-73238275D01*
X189291289Y-73561668D01*
X189223000Y-73904981D01*
X189223000Y-74255019D01*
X189291289Y-74598332D01*
X189425243Y-74921725D01*
X189619714Y-75212771D01*
X189867229Y-75460286D01*
X190158275Y-75654757D01*
X190481668Y-75788711D01*
X190824981Y-75857000D01*
X191175019Y-75857000D01*
X191518332Y-75788711D01*
X191841725Y-75654757D01*
X192132771Y-75460286D01*
X192336057Y-75257000D01*
X192862188Y-75257000D01*
X192920000Y-75262694D01*
X192977812Y-75257000D01*
X193150732Y-75239969D01*
X193372597Y-75172667D01*
X193577070Y-75063374D01*
X193756291Y-74916291D01*
X193793150Y-74871378D01*
X194791387Y-73873142D01*
X194836291Y-73836291D01*
X194983374Y-73657070D01*
X195092667Y-73452597D01*
X195159969Y-73230732D01*
X195177000Y-73057812D01*
X195182694Y-73000000D01*
X195177000Y-72942188D01*
X195177000Y-65100000D01*
X206711928Y-65100000D01*
X206724188Y-65224482D01*
X206760498Y-65344180D01*
X206819463Y-65454494D01*
X206898815Y-65551185D01*
X206995506Y-65630537D01*
X207105820Y-65689502D01*
X207225518Y-65725812D01*
X207350000Y-65738072D01*
X207714250Y-65735000D01*
X207873000Y-65576250D01*
X207873000Y-64477000D01*
X208127000Y-64477000D01*
X208127000Y-65576250D01*
X208285750Y-65735000D01*
X208650000Y-65738072D01*
X208774482Y-65725812D01*
X208894180Y-65689502D01*
X209004494Y-65630537D01*
X209101185Y-65551185D01*
X209180537Y-65454494D01*
X209239502Y-65344180D01*
X209275812Y-65224482D01*
X209288072Y-65100000D01*
X211711928Y-65100000D01*
X211724188Y-65224482D01*
X211760498Y-65344180D01*
X211819463Y-65454494D01*
X211898815Y-65551185D01*
X211995506Y-65630537D01*
X212105820Y-65689502D01*
X212225518Y-65725812D01*
X212350000Y-65738072D01*
X212714250Y-65735000D01*
X212873000Y-65576250D01*
X212873000Y-64477000D01*
X211873750Y-64477000D01*
X211715000Y-64635750D01*
X211711928Y-65100000D01*
X209288072Y-65100000D01*
X209285000Y-64635750D01*
X209126250Y-64477000D01*
X208127000Y-64477000D01*
X207873000Y-64477000D01*
X206873750Y-64477000D01*
X206715000Y-64635750D01*
X206711928Y-65100000D01*
X195177000Y-65100000D01*
X195177000Y-62057812D01*
X195182694Y-62000000D01*
X195159969Y-61769268D01*
X195130697Y-61672771D01*
X195092667Y-61547403D01*
X194983374Y-61342930D01*
X194873144Y-61208614D01*
X194873142Y-61208612D01*
X194836291Y-61163709D01*
X194791389Y-61126859D01*
X193413151Y-59748622D01*
X193376291Y-59703709D01*
X193197070Y-59556626D01*
X192992597Y-59447333D01*
X192770732Y-59380031D01*
X192597812Y-59363000D01*
X192540000Y-59357306D01*
X192482188Y-59363000D01*
X192336057Y-59363000D01*
X192286387Y-59313330D01*
X192301185Y-59301185D01*
X192380537Y-59204494D01*
X192439502Y-59094180D01*
X192475812Y-58974482D01*
X192488072Y-58850000D01*
X192485000Y-58285750D01*
X192326250Y-58127000D01*
X191127000Y-58127000D01*
X191127000Y-58147000D01*
X190873000Y-58147000D01*
X190873000Y-58127000D01*
X189673750Y-58127000D01*
X189515000Y-58285750D01*
X189511928Y-58850000D01*
X189524188Y-58974482D01*
X189560498Y-59094180D01*
X189619463Y-59204494D01*
X189698815Y-59301185D01*
X189713613Y-59313330D01*
X189619714Y-59407229D01*
X189425243Y-59698275D01*
X189291289Y-60021668D01*
X189223000Y-60364981D01*
X189223000Y-60715019D01*
X189291289Y-61058332D01*
X189425243Y-61381725D01*
X189619714Y-61672771D01*
X189867229Y-61920286D01*
X190158275Y-62114757D01*
X190481668Y-62248711D01*
X190824981Y-62317000D01*
X191175019Y-62317000D01*
X191518332Y-62248711D01*
X191841725Y-62114757D01*
X192132771Y-61920286D01*
X192194264Y-61858793D01*
X192823000Y-62487530D01*
X192823001Y-72512470D01*
X192432471Y-72903000D01*
X192336057Y-72903000D01*
X192243057Y-72810000D01*
X192380286Y-72672771D01*
X192574757Y-72381725D01*
X192708711Y-72058332D01*
X192777000Y-71715019D01*
X192777000Y-71364981D01*
X192708711Y-71021668D01*
X192574757Y-70698275D01*
X192469521Y-70540779D01*
X192508659Y-70508659D01*
X192624501Y-70367505D01*
X192710580Y-70206464D01*
X192763587Y-70031724D01*
X192781485Y-69850000D01*
X192781485Y-68150000D01*
X192763587Y-67968276D01*
X192710580Y-67793536D01*
X192624501Y-67632495D01*
X192508659Y-67491341D01*
X192367505Y-67375499D01*
X192206464Y-67289420D01*
X192031724Y-67236413D01*
X191850000Y-67218515D01*
X190150000Y-67218515D01*
X189968276Y-67236413D01*
X189793536Y-67289420D01*
X189632495Y-67375499D01*
X189491341Y-67491341D01*
X189375499Y-67632495D01*
X189289420Y-67793536D01*
X189236413Y-67968276D01*
X189218515Y-68150000D01*
X158814529Y-68150000D01*
X157991528Y-67327000D01*
X158130698Y-67327000D01*
X158387072Y-67276004D01*
X158628570Y-67175972D01*
X158845913Y-67030748D01*
X159030748Y-66845913D01*
X159175972Y-66628570D01*
X159274977Y-66389551D01*
X160389552Y-65274977D01*
X160628570Y-65175972D01*
X160845913Y-65030748D01*
X161030748Y-64845913D01*
X161175972Y-64628570D01*
X161276004Y-64387072D01*
X161327000Y-64130698D01*
X161327000Y-63869302D01*
X161276004Y-63612928D01*
X161175972Y-63371430D01*
X161030748Y-63154087D01*
X160845913Y-62969252D01*
X160628570Y-62824028D01*
X160387072Y-62723996D01*
X160130698Y-62673000D01*
X159869302Y-62673000D01*
X159612928Y-62723996D01*
X159371430Y-62824028D01*
X159154087Y-62969252D01*
X158969252Y-63154087D01*
X158824028Y-63371430D01*
X158725023Y-63610448D01*
X157610449Y-64725023D01*
X157371430Y-64824028D01*
X157154087Y-64969252D01*
X156969252Y-65154087D01*
X156824028Y-65371430D01*
X156723996Y-65612928D01*
X156673000Y-65869302D01*
X156673000Y-66008472D01*
X151274977Y-60610449D01*
X151175972Y-60371430D01*
X151030748Y-60154087D01*
X150845913Y-59969252D01*
X150628570Y-59824028D01*
X150387072Y-59723996D01*
X150130698Y-59673000D01*
X149869302Y-59673000D01*
X149612928Y-59723996D01*
X149371430Y-59824028D01*
X149154087Y-59969252D01*
X148969252Y-60154087D01*
X148824028Y-60371430D01*
X148723996Y-60612928D01*
X148673000Y-60869302D01*
X123155954Y-60869302D01*
X126087344Y-58092196D01*
X126105597Y-58070557D01*
X126117333Y-58048601D01*
X126124560Y-58024776D01*
X126127000Y-58000000D01*
X126127000Y-55869302D01*
X153673000Y-55869302D01*
X153673000Y-56130698D01*
X153723996Y-56387072D01*
X153824028Y-56628570D01*
X153969252Y-56845913D01*
X154154087Y-57030748D01*
X154371430Y-57175972D01*
X154612928Y-57276004D01*
X154869302Y-57327000D01*
X155130698Y-57327000D01*
X155387072Y-57276004D01*
X155626088Y-57177000D01*
X163512472Y-57177000D01*
X171725023Y-65389552D01*
X171824028Y-65628570D01*
X171969252Y-65845913D01*
X172154087Y-66030748D01*
X172371430Y-66175972D01*
X172612928Y-66276004D01*
X172869302Y-66327000D01*
X173130698Y-66327000D01*
X173387072Y-66276004D01*
X173628570Y-66175972D01*
X173845913Y-66030748D01*
X174030748Y-65845913D01*
X174175972Y-65628570D01*
X174276004Y-65387072D01*
X174327000Y-65130698D01*
X174327000Y-64869302D01*
X174276004Y-64612928D01*
X174175972Y-64371430D01*
X174030748Y-64154087D01*
X173845913Y-63969252D01*
X173628570Y-63824028D01*
X173389552Y-63725023D01*
X169012028Y-59347499D01*
X173832106Y-59347499D01*
X174048228Y-59714258D01*
X174508105Y-59954938D01*
X175006098Y-60101275D01*
X175523071Y-60147648D01*
X176039159Y-60092273D01*
X176534526Y-59937279D01*
X176951772Y-59714258D01*
X177167894Y-59347499D01*
X175500000Y-57679605D01*
X173832106Y-59347499D01*
X169012028Y-59347499D01*
X167187600Y-57523071D01*
X172852352Y-57523071D01*
X172907727Y-58039159D01*
X173062721Y-58534526D01*
X173285742Y-58951772D01*
X173652501Y-59167894D01*
X175320395Y-57500000D01*
X175679605Y-57500000D01*
X177347499Y-59167894D01*
X177714258Y-58951772D01*
X177954938Y-58491895D01*
X178101275Y-57993902D01*
X178147648Y-57476929D01*
X178112570Y-57150000D01*
X189511928Y-57150000D01*
X189515000Y-57714250D01*
X189673750Y-57873000D01*
X190873000Y-57873000D01*
X190873000Y-56673750D01*
X191127000Y-56673750D01*
X191127000Y-57873000D01*
X192326250Y-57873000D01*
X192485000Y-57714250D01*
X192488072Y-57150000D01*
X192475812Y-57025518D01*
X192439502Y-56905820D01*
X192380537Y-56795506D01*
X192301185Y-56698815D01*
X192204494Y-56619463D01*
X192094180Y-56560498D01*
X191974482Y-56524188D01*
X191850000Y-56511928D01*
X191285750Y-56515000D01*
X191127000Y-56673750D01*
X190873000Y-56673750D01*
X190714250Y-56515000D01*
X190150000Y-56511928D01*
X190025518Y-56524188D01*
X189905820Y-56560498D01*
X189795506Y-56619463D01*
X189698815Y-56698815D01*
X189619463Y-56795506D01*
X189560498Y-56905820D01*
X189524188Y-57025518D01*
X189511928Y-57150000D01*
X178112570Y-57150000D01*
X178092273Y-56960841D01*
X177937279Y-56465474D01*
X177714258Y-56048228D01*
X177347499Y-55832106D01*
X175679605Y-57500000D01*
X175320395Y-57500000D01*
X173652501Y-55832106D01*
X173285742Y-56048228D01*
X173045062Y-56508105D01*
X172898725Y-57006098D01*
X172852352Y-57523071D01*
X167187600Y-57523071D01*
X165317030Y-55652501D01*
X173832106Y-55652501D01*
X175500000Y-57320395D01*
X177167894Y-55652501D01*
X176951772Y-55285742D01*
X176491895Y-55045062D01*
X175993902Y-54898725D01*
X175476929Y-54852352D01*
X174960841Y-54907727D01*
X174465474Y-55062721D01*
X174048228Y-55285742D01*
X173832106Y-55652501D01*
X165317030Y-55652501D01*
X164873151Y-55208623D01*
X164836291Y-55163709D01*
X164657070Y-55016626D01*
X164452597Y-54907333D01*
X164230732Y-54840031D01*
X164057812Y-54823000D01*
X164000000Y-54817306D01*
X163942188Y-54823000D01*
X155626088Y-54823000D01*
X155387072Y-54723996D01*
X155130698Y-54673000D01*
X154869302Y-54673000D01*
X154612928Y-54723996D01*
X154371430Y-54824028D01*
X154154087Y-54969252D01*
X153969252Y-55154087D01*
X153824028Y-55371430D01*
X153723996Y-55612928D01*
X153673000Y-55869302D01*
X126127000Y-55869302D01*
X126127000Y-52850000D01*
X201511928Y-52850000D01*
X201524188Y-52974482D01*
X201560498Y-53094180D01*
X201619463Y-53204494D01*
X201698815Y-53301185D01*
X201795506Y-53380537D01*
X201905820Y-53439502D01*
X202025518Y-53475812D01*
X202150000Y-53488072D01*
X202714250Y-53485000D01*
X202873000Y-53326250D01*
X202873000Y-52127000D01*
X201673750Y-52127000D01*
X201515000Y-52285750D01*
X201511928Y-52850000D01*
X126127000Y-52850000D01*
X126127000Y-48711716D01*
X172573000Y-48711716D01*
X172573000Y-49288284D01*
X172685482Y-49853775D01*
X172906126Y-50386455D01*
X173226450Y-50865854D01*
X173634146Y-51273550D01*
X174113545Y-51593874D01*
X174646225Y-51814518D01*
X175211716Y-51927000D01*
X175788284Y-51927000D01*
X176353775Y-51814518D01*
X176886455Y-51593874D01*
X177365854Y-51273550D01*
X177773550Y-50865854D01*
X178093874Y-50386455D01*
X178314518Y-49853775D01*
X178334938Y-49751112D01*
X188473000Y-49751112D01*
X188473000Y-50248888D01*
X188570111Y-50737099D01*
X188760602Y-51196983D01*
X189037151Y-51610869D01*
X189389131Y-51962849D01*
X189803017Y-52239398D01*
X190262901Y-52429889D01*
X190751112Y-52527000D01*
X191248888Y-52527000D01*
X191737099Y-52429889D01*
X192196983Y-52239398D01*
X192610869Y-51962849D01*
X192962849Y-51610869D01*
X193239398Y-51196983D01*
X193258859Y-51150000D01*
X201511928Y-51150000D01*
X201515000Y-51714250D01*
X201673750Y-51873000D01*
X202873000Y-51873000D01*
X202873000Y-49587000D01*
X201679186Y-49587000D01*
X201558519Y-49816891D01*
X201655843Y-50091252D01*
X201804822Y-50341355D01*
X201981626Y-50537502D01*
X201905820Y-50560498D01*
X201795506Y-50619463D01*
X201698815Y-50698815D01*
X201619463Y-50795506D01*
X201560498Y-50905820D01*
X201524188Y-51025518D01*
X201511928Y-51150000D01*
X193258859Y-51150000D01*
X193429889Y-50737099D01*
X193527000Y-50248888D01*
X193527000Y-49751112D01*
X193429889Y-49262901D01*
X193363701Y-49103109D01*
X201558519Y-49103109D01*
X201679186Y-49333000D01*
X202873000Y-49333000D01*
X202873000Y-48139845D01*
X202643110Y-48018524D01*
X202495901Y-48063175D01*
X202233080Y-48188359D01*
X201999731Y-48362412D01*
X201804822Y-48578645D01*
X201655843Y-48828748D01*
X201558519Y-49103109D01*
X193363701Y-49103109D01*
X193239398Y-48803017D01*
X192962849Y-48389131D01*
X192610869Y-48037151D01*
X192196983Y-47760602D01*
X191737099Y-47570111D01*
X191248888Y-47473000D01*
X190751112Y-47473000D01*
X190262901Y-47570111D01*
X189803017Y-47760602D01*
X189389131Y-48037151D01*
X189037151Y-48389131D01*
X188760602Y-48803017D01*
X188570111Y-49262901D01*
X188473000Y-49751112D01*
X178334938Y-49751112D01*
X178427000Y-49288284D01*
X178427000Y-48798189D01*
X180298189Y-46927000D01*
X203201811Y-46927000D01*
X203613001Y-47338190D01*
X203613000Y-48115046D01*
X203504099Y-48063175D01*
X203356890Y-48018524D01*
X203127000Y-48139845D01*
X203127000Y-49333000D01*
X203147000Y-49333000D01*
X203147000Y-49587000D01*
X203127000Y-49587000D01*
X203127000Y-51873000D01*
X203147000Y-51873000D01*
X203147000Y-52127000D01*
X203127000Y-52127000D01*
X203127000Y-53326250D01*
X203285750Y-53485000D01*
X203850000Y-53488072D01*
X203974482Y-53475812D01*
X204094180Y-53439502D01*
X204192473Y-53386962D01*
X204464238Y-53609994D01*
X204799002Y-53788929D01*
X205162243Y-53899117D01*
X205540000Y-53936323D01*
X205917758Y-53899117D01*
X206280999Y-53788929D01*
X206615763Y-53609994D01*
X206903000Y-53374264D01*
X206903001Y-60087812D01*
X206832495Y-60125499D01*
X206691341Y-60241341D01*
X206575499Y-60382495D01*
X206489420Y-60543536D01*
X206436413Y-60718276D01*
X206418515Y-60900000D01*
X206418515Y-62400000D01*
X206436413Y-62581724D01*
X206489420Y-62756464D01*
X206575499Y-62917505D01*
X206691341Y-63058659D01*
X206832495Y-63174501D01*
X206863941Y-63191309D01*
X206819463Y-63245506D01*
X206760498Y-63355820D01*
X206724188Y-63475518D01*
X206711928Y-63600000D01*
X206715000Y-64064250D01*
X206873750Y-64223000D01*
X207873000Y-64223000D01*
X207873000Y-64203000D01*
X208127000Y-64203000D01*
X208127000Y-64223000D01*
X209126250Y-64223000D01*
X209285000Y-64064250D01*
X209288072Y-63600000D01*
X209275812Y-63475518D01*
X209239502Y-63355820D01*
X209180537Y-63245506D01*
X209136059Y-63191309D01*
X209167505Y-63174501D01*
X209308659Y-63058659D01*
X209424501Y-62917505D01*
X209510580Y-62756464D01*
X209563587Y-62581724D01*
X209581485Y-62400000D01*
X209581485Y-60900000D01*
X209563587Y-60718276D01*
X209510580Y-60543536D01*
X209424501Y-60382495D01*
X209308659Y-60241341D01*
X209257000Y-60198946D01*
X209257000Y-53374265D01*
X209544237Y-53609994D01*
X209879001Y-53788929D01*
X210242242Y-53899117D01*
X210620000Y-53936323D01*
X210997757Y-53899117D01*
X211360998Y-53788929D01*
X211695763Y-53609994D01*
X211983000Y-53374264D01*
X211983001Y-60045051D01*
X211832495Y-60125499D01*
X211691341Y-60241341D01*
X211575499Y-60382495D01*
X211489420Y-60543536D01*
X211436413Y-60718276D01*
X211418515Y-60900000D01*
X211418515Y-62400000D01*
X211436413Y-62581724D01*
X211489420Y-62756464D01*
X211575499Y-62917505D01*
X211691341Y-63058659D01*
X211832495Y-63174501D01*
X211863941Y-63191309D01*
X211819463Y-63245506D01*
X211760498Y-63355820D01*
X211724188Y-63475518D01*
X211711928Y-63600000D01*
X211715000Y-64064250D01*
X211873750Y-64223000D01*
X212873000Y-64223000D01*
X212873000Y-64203000D01*
X213127000Y-64203000D01*
X213127000Y-64223000D01*
X213147000Y-64223000D01*
X213147000Y-64477000D01*
X213127000Y-64477000D01*
X213127000Y-65576250D01*
X213285750Y-65735000D01*
X213650000Y-65738072D01*
X213774482Y-65725812D01*
X213894180Y-65689502D01*
X214004494Y-65630537D01*
X214073001Y-65574315D01*
X214073001Y-65905333D01*
X214073000Y-65905343D01*
X214073000Y-66425684D01*
X214004494Y-66369463D01*
X213894180Y-66310498D01*
X213774482Y-66274188D01*
X213650000Y-66261928D01*
X213285750Y-66265000D01*
X213127000Y-66423750D01*
X213127000Y-67523000D01*
X213147000Y-67523000D01*
X213147000Y-67777000D01*
X213127000Y-67777000D01*
X213127000Y-67797000D01*
X212873000Y-67797000D01*
X212873000Y-67777000D01*
X211873750Y-67777000D01*
X211715000Y-67935750D01*
X211711928Y-68400000D01*
X211724188Y-68524482D01*
X211760498Y-68644180D01*
X211819463Y-68754494D01*
X211863941Y-68808691D01*
X211832495Y-68825499D01*
X211691341Y-68941341D01*
X211575499Y-69082495D01*
X211527123Y-69173000D01*
X209494518Y-69173000D01*
X209485580Y-69143536D01*
X209408858Y-69000000D01*
X209485580Y-68856464D01*
X209538587Y-68681724D01*
X209556485Y-68500000D01*
X209556485Y-67000000D01*
X209546636Y-66900000D01*
X211711928Y-66900000D01*
X211715000Y-67364250D01*
X211873750Y-67523000D01*
X212873000Y-67523000D01*
X212873000Y-66423750D01*
X212714250Y-66265000D01*
X212350000Y-66261928D01*
X212225518Y-66274188D01*
X212105820Y-66310498D01*
X211995506Y-66369463D01*
X211898815Y-66448815D01*
X211819463Y-66545506D01*
X211760498Y-66655820D01*
X211724188Y-66775518D01*
X211711928Y-66900000D01*
X209546636Y-66900000D01*
X209538587Y-66818276D01*
X209485580Y-66643536D01*
X209399501Y-66482495D01*
X209283659Y-66341341D01*
X209142505Y-66225499D01*
X208981464Y-66139420D01*
X208806724Y-66086413D01*
X208625000Y-66068515D01*
X207375000Y-66068515D01*
X207193276Y-66086413D01*
X207018536Y-66139420D01*
X206857495Y-66225499D01*
X206716341Y-66341341D01*
X206600499Y-66482495D01*
X206552123Y-66573000D01*
X206307801Y-66573000D01*
X206249999Y-66567307D01*
X206192197Y-66573000D01*
X206192188Y-66573000D01*
X206019268Y-66590031D01*
X205797403Y-66657333D01*
X205592930Y-66766626D01*
X205413709Y-66913709D01*
X205376849Y-66958623D01*
X204708623Y-67626849D01*
X204663709Y-67663709D01*
X204516626Y-67842931D01*
X204407333Y-68047404D01*
X204340031Y-68269268D01*
X204340031Y-68269269D01*
X204317306Y-68500000D01*
X204323000Y-68557813D01*
X204323001Y-71442178D01*
X204317306Y-71500000D01*
X204340031Y-71730731D01*
X204395500Y-71913587D01*
X204407334Y-71952597D01*
X204516627Y-72157070D01*
X204663710Y-72336291D01*
X204708618Y-72373146D01*
X208903000Y-76567529D01*
X208903000Y-77123943D01*
X208810000Y-77216943D01*
X208672771Y-77079714D01*
X208381725Y-76885243D01*
X208058332Y-76751289D01*
X207715019Y-76683000D01*
X207364981Y-76683000D01*
X207021668Y-76751289D01*
X206698275Y-76885243D01*
X206407229Y-77079714D01*
X206159714Y-77327229D01*
X206078336Y-77449020D01*
X206000269Y-77362412D01*
X205766920Y-77188359D01*
X205504099Y-77063175D01*
X205356890Y-77018524D01*
X205127000Y-77139845D01*
X205127000Y-78333000D01*
X205147000Y-78333000D01*
X205147000Y-78587000D01*
X205127000Y-78587000D01*
X205127000Y-78607000D01*
X204873000Y-78607000D01*
X204873000Y-78587000D01*
X203679186Y-78587000D01*
X203558519Y-78816891D01*
X203655843Y-79091252D01*
X203778631Y-79297387D01*
X203632495Y-79375499D01*
X203491341Y-79491341D01*
X203375499Y-79632495D01*
X203289420Y-79793536D01*
X203236413Y-79968276D01*
X203218515Y-80150000D01*
X203218515Y-81850000D01*
X203236413Y-82031724D01*
X203289420Y-82206464D01*
X203375499Y-82367505D01*
X203491341Y-82508659D01*
X203632495Y-82624501D01*
X203793536Y-82710580D01*
X203968276Y-82763587D01*
X204150000Y-82781485D01*
X205850000Y-82781485D01*
X206031724Y-82763587D01*
X206206464Y-82710580D01*
X206367505Y-82624501D01*
X206508659Y-82508659D01*
X206540779Y-82469521D01*
X206698275Y-82574757D01*
X207021668Y-82708711D01*
X207364981Y-82777000D01*
X207715019Y-82777000D01*
X208058332Y-82708711D01*
X208381725Y-82574757D01*
X208672771Y-82380286D01*
X208810000Y-82243057D01*
X208947229Y-82380286D01*
X209238275Y-82574757D01*
X209561668Y-82708711D01*
X209904981Y-82777000D01*
X210255019Y-82777000D01*
X210598332Y-82708711D01*
X210921725Y-82574757D01*
X211212771Y-82380286D01*
X211416057Y-82177000D01*
X211942188Y-82177000D01*
X212000000Y-82182694D01*
X212057812Y-82177000D01*
X212230732Y-82159969D01*
X212452597Y-82092667D01*
X212657070Y-81983374D01*
X212836291Y-81836291D01*
X212873150Y-81791378D01*
X213791387Y-80873143D01*
X213836291Y-80836291D01*
X213891296Y-80769268D01*
X213983374Y-80657070D01*
X214073000Y-80489390D01*
X214073001Y-109405342D01*
X214073000Y-112201811D01*
X213201811Y-113073000D01*
X211984525Y-113073000D01*
X211649615Y-112849221D01*
X211207930Y-112666268D01*
X210739039Y-112573000D01*
X210260961Y-112573000D01*
X209792070Y-112666268D01*
X209350385Y-112849221D01*
X208952878Y-113114826D01*
X208614826Y-113452878D01*
X208349221Y-113850385D01*
X208166268Y-114292070D01*
X208073000Y-114760961D01*
X208073000Y-115239039D01*
X208166268Y-115707930D01*
X208349221Y-116149615D01*
X208614826Y-116547122D01*
X208952878Y-116885174D01*
X209350385Y-117150779D01*
X209792070Y-117333732D01*
X210260961Y-117427000D01*
X210739039Y-117427000D01*
X211207930Y-117333732D01*
X211649615Y-117150779D01*
X211984525Y-116927000D01*
X213905352Y-116927000D01*
X214000000Y-116936322D01*
X214094648Y-116927000D01*
X214094658Y-116927000D01*
X214377758Y-116899117D01*
X214740999Y-116788929D01*
X215075763Y-116609994D01*
X215369187Y-116369187D01*
X215429529Y-116295660D01*
X217295660Y-114429529D01*
X217369187Y-114369187D01*
X217609994Y-114075763D01*
X217788929Y-113740999D01*
X217899117Y-113377758D01*
X217927000Y-113094658D01*
X217927000Y-113094649D01*
X217936322Y-113000001D01*
X217927000Y-112905353D01*
X217927000Y-47094647D01*
X217936322Y-46999999D01*
X217927000Y-46905351D01*
X217927000Y-46905342D01*
X217899117Y-46622242D01*
X217788929Y-46259001D01*
X217609994Y-45924237D01*
X217369187Y-45630813D01*
X217295660Y-45570471D01*
X215429529Y-43704340D01*
X215369187Y-43630813D01*
X215075763Y-43390006D01*
X214740999Y-43211071D01*
X214377758Y-43100883D01*
X214094658Y-43073000D01*
X214094648Y-43073000D01*
X214000000Y-43063678D01*
X213905352Y-43073000D01*
X209094648Y-43073000D01*
X209000000Y-43063678D01*
X208905352Y-43073000D01*
X204094648Y-43073000D01*
X204000000Y-43063678D01*
X203905352Y-43073000D01*
X179594647Y-43073000D01*
X179499999Y-43063678D01*
X179405351Y-43073000D01*
X179405342Y-43073000D01*
X179122242Y-43100883D01*
X178759001Y-43211071D01*
X178424237Y-43390006D01*
X178130813Y-43630813D01*
X178070471Y-43704340D01*
X175701811Y-46073000D01*
X175211716Y-46073000D01*
X174646225Y-46185482D01*
X174113545Y-46406126D01*
X173634146Y-46726450D01*
X173226450Y-47134146D01*
X172906126Y-47613545D01*
X172685482Y-48146225D01*
X172573000Y-48711716D01*
X126127000Y-48711716D01*
X126127000Y-41952000D01*
X216953443Y-41952000D01*
X217202670Y-41976437D01*
G04 #@! TA.AperFunction,Conductor*
D23*
G36*
X217202670Y-41976437D02*
G01*
X217397620Y-42035296D01*
X217577426Y-42130900D01*
X217735240Y-42259610D01*
X217865046Y-42416519D01*
X217961904Y-42595654D01*
X218022122Y-42790187D01*
X218048001Y-43036407D01*
X218048000Y-136953443D01*
X218023563Y-137202672D01*
X217964705Y-137397619D01*
X217869098Y-137577429D01*
X217740390Y-137735240D01*
X217583480Y-137865047D01*
X217404346Y-137961904D01*
X217209813Y-138022122D01*
X216963602Y-138048000D01*
X191127000Y-138048000D01*
X191127000Y-134127000D01*
X195000000Y-134127000D01*
X195024776Y-134124560D01*
X195048601Y-134117333D01*
X195070557Y-134105597D01*
X195089803Y-134089803D01*
X195105597Y-134070557D01*
X195117333Y-134048601D01*
X195124560Y-134024776D01*
X195127000Y-134000000D01*
X195127000Y-128500000D01*
X196568515Y-128500000D01*
X196568515Y-131500000D01*
X196586413Y-131681724D01*
X196639420Y-131856464D01*
X196725499Y-132017505D01*
X196841341Y-132158659D01*
X196982495Y-132274501D01*
X197143536Y-132360580D01*
X197318276Y-132413587D01*
X197500000Y-132431485D01*
X200500000Y-132431485D01*
X200681724Y-132413587D01*
X200856464Y-132360580D01*
X201017505Y-132274501D01*
X201158659Y-132158659D01*
X201274501Y-132017505D01*
X201360580Y-131856464D01*
X201413587Y-131681724D01*
X201431485Y-131500000D01*
X201431485Y-129760961D01*
X201653000Y-129760961D01*
X201653000Y-130239039D01*
X201746268Y-130707930D01*
X201929221Y-131149615D01*
X202194826Y-131547122D01*
X202532878Y-131885174D01*
X202930385Y-132150779D01*
X203372070Y-132333732D01*
X203840961Y-132427000D01*
X204319039Y-132427000D01*
X204787930Y-132333732D01*
X205229615Y-132150779D01*
X205627122Y-131885174D01*
X205965174Y-131547122D01*
X206230779Y-131149615D01*
X206413732Y-130707930D01*
X206507000Y-130239039D01*
X206507000Y-129760961D01*
X206733000Y-129760961D01*
X206733000Y-130239039D01*
X206826268Y-130707930D01*
X207009221Y-131149615D01*
X207274826Y-131547122D01*
X207612878Y-131885174D01*
X208010385Y-132150779D01*
X208452070Y-132333732D01*
X208920961Y-132427000D01*
X209399039Y-132427000D01*
X209867930Y-132333732D01*
X210309615Y-132150779D01*
X210707122Y-131885174D01*
X211045174Y-131547122D01*
X211310779Y-131149615D01*
X211493732Y-130707930D01*
X211587000Y-130239039D01*
X211587000Y-129760961D01*
X211493732Y-129292070D01*
X211310779Y-128850385D01*
X211045174Y-128452878D01*
X210707122Y-128114826D01*
X210309615Y-127849221D01*
X209867930Y-127666268D01*
X209399039Y-127573000D01*
X208920961Y-127573000D01*
X208452070Y-127666268D01*
X208010385Y-127849221D01*
X207612878Y-128114826D01*
X207274826Y-128452878D01*
X207009221Y-128850385D01*
X206826268Y-129292070D01*
X206733000Y-129760961D01*
X206507000Y-129760961D01*
X206413732Y-129292070D01*
X206230779Y-128850385D01*
X205965174Y-128452878D01*
X205627122Y-128114826D01*
X205229615Y-127849221D01*
X204787930Y-127666268D01*
X204319039Y-127573000D01*
X203840961Y-127573000D01*
X203372070Y-127666268D01*
X202930385Y-127849221D01*
X202532878Y-128114826D01*
X202194826Y-128452878D01*
X201929221Y-128850385D01*
X201746268Y-129292070D01*
X201653000Y-129760961D01*
X201431485Y-129760961D01*
X201431485Y-128500000D01*
X201413587Y-128318276D01*
X201360580Y-128143536D01*
X201274501Y-127982495D01*
X201158659Y-127841341D01*
X201017505Y-127725499D01*
X200927000Y-127677123D01*
X200927000Y-124798189D01*
X203312876Y-122412313D01*
X203707930Y-122333732D01*
X204149615Y-122150779D01*
X204547122Y-121885174D01*
X204885174Y-121547122D01*
X205150779Y-121149615D01*
X205333732Y-120707930D01*
X205427000Y-120239039D01*
X205427000Y-119760961D01*
X208073000Y-119760961D01*
X208073000Y-120239039D01*
X208166268Y-120707930D01*
X208349221Y-121149615D01*
X208614826Y-121547122D01*
X208952878Y-121885174D01*
X209350385Y-122150779D01*
X209792070Y-122333732D01*
X210187124Y-122412313D01*
X212313001Y-124538191D01*
X212313000Y-128515475D01*
X212089221Y-128850385D01*
X211906268Y-129292070D01*
X211813000Y-129760961D01*
X211813000Y-130239039D01*
X211906268Y-130707930D01*
X212089221Y-131149615D01*
X212354826Y-131547122D01*
X212692878Y-131885174D01*
X213090385Y-132150779D01*
X213532070Y-132333732D01*
X214000961Y-132427000D01*
X214479039Y-132427000D01*
X214947930Y-132333732D01*
X215389615Y-132150779D01*
X215787122Y-131885174D01*
X216125174Y-131547122D01*
X216390779Y-131149615D01*
X216573732Y-130707930D01*
X216667000Y-130239039D01*
X216667000Y-129760961D01*
X216573732Y-129292070D01*
X216390779Y-128850385D01*
X216167000Y-128515475D01*
X216167000Y-123834658D01*
X216176323Y-123740000D01*
X216139117Y-123362241D01*
X216028929Y-122999001D01*
X215849993Y-122664236D01*
X215669528Y-122444338D01*
X215669525Y-122444335D01*
X215609187Y-122370813D01*
X215535665Y-122310475D01*
X212912313Y-119687124D01*
X212833732Y-119292070D01*
X212650779Y-118850385D01*
X212385174Y-118452878D01*
X212047122Y-118114826D01*
X211649615Y-117849221D01*
X211207930Y-117666268D01*
X210739039Y-117573000D01*
X210260961Y-117573000D01*
X209792070Y-117666268D01*
X209350385Y-117849221D01*
X208952878Y-118114826D01*
X208614826Y-118452878D01*
X208349221Y-118850385D01*
X208166268Y-119292070D01*
X208073000Y-119760961D01*
X205427000Y-119760961D01*
X205333732Y-119292070D01*
X205150779Y-118850385D01*
X204885174Y-118452878D01*
X204547122Y-118114826D01*
X204149615Y-117849221D01*
X203707930Y-117666268D01*
X203239039Y-117573000D01*
X202760961Y-117573000D01*
X202292070Y-117666268D01*
X201850385Y-117849221D01*
X201452878Y-118114826D01*
X201114826Y-118452878D01*
X200849221Y-118850385D01*
X200666268Y-119292070D01*
X200587687Y-119687124D01*
X197704336Y-122570475D01*
X197630814Y-122630813D01*
X197570476Y-122704335D01*
X197570472Y-122704339D01*
X197390007Y-122924237D01*
X197211071Y-123259002D01*
X197100884Y-123622242D01*
X197063678Y-124000000D01*
X197073001Y-124094657D01*
X197073000Y-127677122D01*
X196982495Y-127725499D01*
X196841341Y-127841341D01*
X196725499Y-127982495D01*
X196639420Y-128143536D01*
X196586413Y-128318276D01*
X196568515Y-128500000D01*
X195127000Y-128500000D01*
X195127000Y-126000000D01*
X195124560Y-125975224D01*
X195117333Y-125951399D01*
X195105597Y-125929443D01*
X195089803Y-125910197D01*
X195070557Y-125894403D01*
X195048601Y-125882667D01*
X195024776Y-125875440D01*
X195000000Y-125873000D01*
X191127000Y-125873000D01*
X191127000Y-116491653D01*
X201687952Y-116491653D01*
X201843962Y-116807214D01*
X202218745Y-116998020D01*
X202623551Y-117112044D01*
X203042824Y-117144902D01*
X203460451Y-117095334D01*
X203860383Y-116965243D01*
X204156038Y-116807214D01*
X204312048Y-116491653D01*
X203000000Y-115179605D01*
X201687952Y-116491653D01*
X191127000Y-116491653D01*
X191127000Y-115042824D01*
X200855098Y-115042824D01*
X200904666Y-115460451D01*
X201034757Y-115860383D01*
X201192786Y-116156038D01*
X201508347Y-116312048D01*
X202820395Y-115000000D01*
X203179605Y-115000000D01*
X204491653Y-116312048D01*
X204807214Y-116156038D01*
X204998020Y-115781255D01*
X205112044Y-115376449D01*
X205144902Y-114957176D01*
X205095334Y-114539549D01*
X204965243Y-114139617D01*
X204807214Y-113843962D01*
X204491653Y-113687952D01*
X203179605Y-115000000D01*
X202820395Y-115000000D01*
X201508347Y-113687952D01*
X201192786Y-113843962D01*
X201001980Y-114218745D01*
X200887956Y-114623551D01*
X200855098Y-115042824D01*
X191127000Y-115042824D01*
X191127000Y-113508347D01*
X201687952Y-113508347D01*
X203000000Y-114820395D01*
X204312048Y-113508347D01*
X204156038Y-113192786D01*
X203781255Y-113001980D01*
X203376449Y-112887956D01*
X202957176Y-112855098D01*
X202539549Y-112904666D01*
X202139617Y-113034757D01*
X201843962Y-113192786D01*
X201687952Y-113508347D01*
X191127000Y-113508347D01*
X191127000Y-109760961D01*
X200573000Y-109760961D01*
X200573000Y-110239039D01*
X200666268Y-110707930D01*
X200849221Y-111149615D01*
X201114826Y-111547122D01*
X201452878Y-111885174D01*
X201850385Y-112150779D01*
X202292070Y-112333732D01*
X202760961Y-112427000D01*
X203239039Y-112427000D01*
X203707930Y-112333732D01*
X204149615Y-112150779D01*
X204547122Y-111885174D01*
X204885174Y-111547122D01*
X205150779Y-111149615D01*
X205333732Y-110707930D01*
X205427000Y-110239039D01*
X205427000Y-109760961D01*
X208073000Y-109760961D01*
X208073000Y-110239039D01*
X208166268Y-110707930D01*
X208349221Y-111149615D01*
X208614826Y-111547122D01*
X208952878Y-111885174D01*
X209350385Y-112150779D01*
X209792070Y-112333732D01*
X210260961Y-112427000D01*
X210739039Y-112427000D01*
X211207930Y-112333732D01*
X211649615Y-112150779D01*
X212047122Y-111885174D01*
X212385174Y-111547122D01*
X212650779Y-111149615D01*
X212833732Y-110707930D01*
X212927000Y-110239039D01*
X212927000Y-109760961D01*
X212833732Y-109292070D01*
X212650779Y-108850385D01*
X212385174Y-108452878D01*
X212047122Y-108114826D01*
X211649615Y-107849221D01*
X211207930Y-107666268D01*
X210739039Y-107573000D01*
X210260961Y-107573000D01*
X209792070Y-107666268D01*
X209350385Y-107849221D01*
X208952878Y-108114826D01*
X208614826Y-108452878D01*
X208349221Y-108850385D01*
X208166268Y-109292070D01*
X208073000Y-109760961D01*
X205427000Y-109760961D01*
X205333732Y-109292070D01*
X205150779Y-108850385D01*
X204885174Y-108452878D01*
X204547122Y-108114826D01*
X204149615Y-107849221D01*
X203707930Y-107666268D01*
X203239039Y-107573000D01*
X202760961Y-107573000D01*
X202292070Y-107666268D01*
X201850385Y-107849221D01*
X201452878Y-108114826D01*
X201114826Y-108452878D01*
X200849221Y-108850385D01*
X200666268Y-109292070D01*
X200573000Y-109760961D01*
X191127000Y-109760961D01*
X191127000Y-98000000D01*
X191124560Y-97975224D01*
X191117333Y-97951399D01*
X191105597Y-97929443D01*
X191089803Y-97910197D01*
X191070557Y-97894403D01*
X191048601Y-97882667D01*
X191024776Y-97875440D01*
X191000000Y-97873000D01*
X107127000Y-97873000D01*
X107127000Y-96500000D01*
X109361928Y-96500000D01*
X109374188Y-96624482D01*
X109410498Y-96744180D01*
X109469463Y-96854494D01*
X109548815Y-96951185D01*
X109645506Y-97030537D01*
X109755820Y-97089502D01*
X109875518Y-97125812D01*
X110000000Y-97138072D01*
X111214250Y-97135000D01*
X111373000Y-96976250D01*
X111373000Y-95127000D01*
X111627000Y-95127000D01*
X111627000Y-96976250D01*
X111785750Y-97135000D01*
X113000000Y-97138072D01*
X113124482Y-97125812D01*
X113244180Y-97089502D01*
X113354494Y-97030537D01*
X113451185Y-96951185D01*
X113530537Y-96854494D01*
X113589502Y-96744180D01*
X113625812Y-96624482D01*
X113638072Y-96500000D01*
X113635000Y-95285750D01*
X113476250Y-95127000D01*
X111627000Y-95127000D01*
X111373000Y-95127000D01*
X109523750Y-95127000D01*
X109365000Y-95285750D01*
X109361928Y-96500000D01*
X107127000Y-96500000D01*
X107127000Y-93500000D01*
X109361928Y-93500000D01*
X109365000Y-94714250D01*
X109523750Y-94873000D01*
X111373000Y-94873000D01*
X111373000Y-93023750D01*
X111627000Y-93023750D01*
X111627000Y-94873000D01*
X113476250Y-94873000D01*
X113635000Y-94714250D01*
X113638072Y-93500000D01*
X113625812Y-93375518D01*
X113589502Y-93255820D01*
X113530537Y-93145506D01*
X113451185Y-93048815D01*
X113354494Y-92969463D01*
X113244180Y-92910498D01*
X113124482Y-92874188D01*
X113000000Y-92861928D01*
X111785750Y-92865000D01*
X111627000Y-93023750D01*
X111373000Y-93023750D01*
X111214250Y-92865000D01*
X110000000Y-92861928D01*
X109875518Y-92874188D01*
X109755820Y-92910498D01*
X109645506Y-92969463D01*
X109548815Y-93048815D01*
X109469463Y-93145506D01*
X109410498Y-93255820D01*
X109374188Y-93375518D01*
X109361928Y-93500000D01*
X107127000Y-93500000D01*
X107127000Y-89650000D01*
X108261928Y-89650000D01*
X108274188Y-89774482D01*
X108310498Y-89894180D01*
X108369463Y-90004494D01*
X108448815Y-90101185D01*
X108545506Y-90180537D01*
X108655820Y-90239502D01*
X108775518Y-90275812D01*
X108900000Y-90288072D01*
X109364250Y-90285000D01*
X109523000Y-90126250D01*
X109523000Y-89127000D01*
X108423750Y-89127000D01*
X108265000Y-89285750D01*
X108261928Y-89650000D01*
X107127000Y-89650000D01*
X107127000Y-88350000D01*
X108261928Y-88350000D01*
X108265000Y-88714250D01*
X108423750Y-88873000D01*
X109523000Y-88873000D01*
X109523000Y-87873750D01*
X109777000Y-87873750D01*
X109777000Y-88873000D01*
X109797000Y-88873000D01*
X109797000Y-89127000D01*
X109777000Y-89127000D01*
X109777000Y-90126250D01*
X109935750Y-90285000D01*
X110400000Y-90288072D01*
X110524482Y-90275812D01*
X110644180Y-90239502D01*
X110754494Y-90180537D01*
X110808691Y-90136059D01*
X110825499Y-90167505D01*
X110941341Y-90308659D01*
X111082495Y-90424501D01*
X111243536Y-90510580D01*
X111418276Y-90563587D01*
X111600000Y-90581485D01*
X113100000Y-90581485D01*
X113281724Y-90563587D01*
X113456464Y-90510580D01*
X113617505Y-90424501D01*
X113758659Y-90308659D01*
X113866709Y-90177000D01*
X116633291Y-90177000D01*
X116741341Y-90308659D01*
X116882495Y-90424501D01*
X117043536Y-90510580D01*
X117218276Y-90563587D01*
X117400000Y-90581485D01*
X118900000Y-90581485D01*
X119081724Y-90563587D01*
X119256464Y-90510580D01*
X119417505Y-90424501D01*
X119500000Y-90356799D01*
X119582495Y-90424501D01*
X119673000Y-90472878D01*
X119673001Y-92659320D01*
X119239039Y-92573000D01*
X118760961Y-92573000D01*
X118292070Y-92666268D01*
X117850385Y-92849221D01*
X117452878Y-93114826D01*
X117114826Y-93452878D01*
X116849221Y-93850385D01*
X116666268Y-94292070D01*
X116573000Y-94760961D01*
X116573000Y-95239039D01*
X116666268Y-95707930D01*
X116849221Y-96149615D01*
X117114826Y-96547122D01*
X117452878Y-96885174D01*
X117850385Y-97150779D01*
X118292070Y-97333732D01*
X118760961Y-97427000D01*
X119239039Y-97427000D01*
X119707930Y-97333732D01*
X120149615Y-97150779D01*
X120547122Y-96885174D01*
X120885174Y-96547122D01*
X120916659Y-96500000D01*
X128861928Y-96500000D01*
X128874188Y-96624482D01*
X128910498Y-96744180D01*
X128969463Y-96854494D01*
X129048815Y-96951185D01*
X129145506Y-97030537D01*
X129255820Y-97089502D01*
X129375518Y-97125812D01*
X129500000Y-97138072D01*
X130714250Y-97135000D01*
X130873000Y-96976250D01*
X130873000Y-95127000D01*
X131127000Y-95127000D01*
X131127000Y-96976250D01*
X131285750Y-97135000D01*
X132500000Y-97138072D01*
X132624482Y-97125812D01*
X132744180Y-97089502D01*
X132854494Y-97030537D01*
X132951185Y-96951185D01*
X133030537Y-96854494D01*
X133089502Y-96744180D01*
X133125812Y-96624482D01*
X133138072Y-96500000D01*
X133135000Y-95285750D01*
X132976250Y-95127000D01*
X131127000Y-95127000D01*
X130873000Y-95127000D01*
X129023750Y-95127000D01*
X128865000Y-95285750D01*
X128861928Y-96500000D01*
X120916659Y-96500000D01*
X121150779Y-96149615D01*
X121333732Y-95707930D01*
X121427000Y-95239039D01*
X121427000Y-94760961D01*
X121340157Y-94324372D01*
X121641382Y-94023147D01*
X121686291Y-93986291D01*
X121833374Y-93807070D01*
X121942667Y-93602597D01*
X121973789Y-93500000D01*
X128861928Y-93500000D01*
X128865000Y-94714250D01*
X129023750Y-94873000D01*
X130873000Y-94873000D01*
X130873000Y-93023750D01*
X131127000Y-93023750D01*
X131127000Y-94873000D01*
X132976250Y-94873000D01*
X133135000Y-94714250D01*
X133138072Y-93500000D01*
X133125812Y-93375518D01*
X133089502Y-93255820D01*
X133030537Y-93145506D01*
X132951185Y-93048815D01*
X132854494Y-92969463D01*
X132744180Y-92910498D01*
X132624482Y-92874188D01*
X132500000Y-92861928D01*
X131285750Y-92865000D01*
X131127000Y-93023750D01*
X130873000Y-93023750D01*
X130714250Y-92865000D01*
X129500000Y-92861928D01*
X129375518Y-92874188D01*
X129255820Y-92910498D01*
X129145506Y-92969463D01*
X129048815Y-93048815D01*
X128969463Y-93145506D01*
X128910498Y-93255820D01*
X128874188Y-93375518D01*
X128861928Y-93500000D01*
X121973789Y-93500000D01*
X122009969Y-93380732D01*
X122027000Y-93207812D01*
X122032694Y-93150001D01*
X122027000Y-93092189D01*
X122027000Y-90472877D01*
X122117505Y-90424501D01*
X122258659Y-90308659D01*
X122374501Y-90167505D01*
X122460580Y-90006464D01*
X122513587Y-89831724D01*
X122531485Y-89650000D01*
X127761928Y-89650000D01*
X127774188Y-89774482D01*
X127810498Y-89894180D01*
X127869463Y-90004494D01*
X127948815Y-90101185D01*
X128045506Y-90180537D01*
X128155820Y-90239502D01*
X128275518Y-90275812D01*
X128400000Y-90288072D01*
X128864250Y-90285000D01*
X129023000Y-90126250D01*
X129023000Y-89127000D01*
X127923750Y-89127000D01*
X127765000Y-89285750D01*
X127761928Y-89650000D01*
X122531485Y-89650000D01*
X122531485Y-88350000D01*
X127761928Y-88350000D01*
X127765000Y-88714250D01*
X127923750Y-88873000D01*
X129023000Y-88873000D01*
X129023000Y-87873750D01*
X129277000Y-87873750D01*
X129277000Y-88873000D01*
X129297000Y-88873000D01*
X129297000Y-89127000D01*
X129277000Y-89127000D01*
X129277000Y-90126250D01*
X129435750Y-90285000D01*
X129900000Y-90288072D01*
X130024482Y-90275812D01*
X130144180Y-90239502D01*
X130254494Y-90180537D01*
X130308691Y-90136059D01*
X130325499Y-90167505D01*
X130441341Y-90308659D01*
X130582495Y-90424501D01*
X130743536Y-90510580D01*
X130918276Y-90563587D01*
X131100000Y-90581485D01*
X132600000Y-90581485D01*
X132781724Y-90563587D01*
X132956464Y-90510580D01*
X133117505Y-90424501D01*
X133258659Y-90308659D01*
X133366709Y-90177000D01*
X136133291Y-90177000D01*
X136241341Y-90308659D01*
X136382495Y-90424501D01*
X136543536Y-90510580D01*
X136718276Y-90563587D01*
X136900000Y-90581485D01*
X138400000Y-90581485D01*
X138581724Y-90563587D01*
X138756464Y-90510580D01*
X138917505Y-90424501D01*
X139000000Y-90356799D01*
X139082495Y-90424501D01*
X139173000Y-90472878D01*
X139173001Y-92659320D01*
X138739039Y-92573000D01*
X138260961Y-92573000D01*
X137792070Y-92666268D01*
X137350385Y-92849221D01*
X136952878Y-93114826D01*
X136614826Y-93452878D01*
X136349221Y-93850385D01*
X136166268Y-94292070D01*
X136073000Y-94760961D01*
X136073000Y-95239039D01*
X136166268Y-95707930D01*
X136349221Y-96149615D01*
X136614826Y-96547122D01*
X136952878Y-96885174D01*
X137350385Y-97150779D01*
X137792070Y-97333732D01*
X138260961Y-97427000D01*
X138739039Y-97427000D01*
X139207930Y-97333732D01*
X139649615Y-97150779D01*
X140047122Y-96885174D01*
X140385174Y-96547122D01*
X140416659Y-96500000D01*
X148861928Y-96500000D01*
X148874188Y-96624482D01*
X148910498Y-96744180D01*
X148969463Y-96854494D01*
X149048815Y-96951185D01*
X149145506Y-97030537D01*
X149255820Y-97089502D01*
X149375518Y-97125812D01*
X149500000Y-97138072D01*
X150714250Y-97135000D01*
X150873000Y-96976250D01*
X150873000Y-95127000D01*
X151127000Y-95127000D01*
X151127000Y-96976250D01*
X151285750Y-97135000D01*
X152500000Y-97138072D01*
X152624482Y-97125812D01*
X152744180Y-97089502D01*
X152854494Y-97030537D01*
X152951185Y-96951185D01*
X153030537Y-96854494D01*
X153089502Y-96744180D01*
X153125812Y-96624482D01*
X153138072Y-96500000D01*
X153135000Y-95285750D01*
X152976250Y-95127000D01*
X151127000Y-95127000D01*
X150873000Y-95127000D01*
X149023750Y-95127000D01*
X148865000Y-95285750D01*
X148861928Y-96500000D01*
X140416659Y-96500000D01*
X140650779Y-96149615D01*
X140833732Y-95707930D01*
X140927000Y-95239039D01*
X140927000Y-94760961D01*
X140840157Y-94324372D01*
X141141382Y-94023147D01*
X141186291Y-93986291D01*
X141333374Y-93807070D01*
X141442667Y-93602597D01*
X141473789Y-93500000D01*
X148861928Y-93500000D01*
X148865000Y-94714250D01*
X149023750Y-94873000D01*
X150873000Y-94873000D01*
X150873000Y-93023750D01*
X151127000Y-93023750D01*
X151127000Y-94873000D01*
X152976250Y-94873000D01*
X153135000Y-94714250D01*
X153138072Y-93500000D01*
X153125812Y-93375518D01*
X153089502Y-93255820D01*
X153030537Y-93145506D01*
X152951185Y-93048815D01*
X152854494Y-92969463D01*
X152744180Y-92910498D01*
X152624482Y-92874188D01*
X152500000Y-92861928D01*
X151285750Y-92865000D01*
X151127000Y-93023750D01*
X150873000Y-93023750D01*
X150714250Y-92865000D01*
X149500000Y-92861928D01*
X149375518Y-92874188D01*
X149255820Y-92910498D01*
X149145506Y-92969463D01*
X149048815Y-93048815D01*
X148969463Y-93145506D01*
X148910498Y-93255820D01*
X148874188Y-93375518D01*
X148861928Y-93500000D01*
X141473789Y-93500000D01*
X141509969Y-93380732D01*
X141527000Y-93207812D01*
X141532694Y-93150001D01*
X141527000Y-93092189D01*
X141527000Y-90472877D01*
X141617505Y-90424501D01*
X141758659Y-90308659D01*
X141874501Y-90167505D01*
X141960580Y-90006464D01*
X142013587Y-89831724D01*
X142031485Y-89650000D01*
X147761928Y-89650000D01*
X147774188Y-89774482D01*
X147810498Y-89894180D01*
X147869463Y-90004494D01*
X147948815Y-90101185D01*
X148045506Y-90180537D01*
X148155820Y-90239502D01*
X148275518Y-90275812D01*
X148400000Y-90288072D01*
X148864250Y-90285000D01*
X149023000Y-90126250D01*
X149023000Y-89127000D01*
X147923750Y-89127000D01*
X147765000Y-89285750D01*
X147761928Y-89650000D01*
X142031485Y-89650000D01*
X142031485Y-88350000D01*
X147761928Y-88350000D01*
X147765000Y-88714250D01*
X147923750Y-88873000D01*
X149023000Y-88873000D01*
X149023000Y-87873750D01*
X149277000Y-87873750D01*
X149277000Y-88873000D01*
X149297000Y-88873000D01*
X149297000Y-89127000D01*
X149277000Y-89127000D01*
X149277000Y-90126250D01*
X149435750Y-90285000D01*
X149900000Y-90288072D01*
X150024482Y-90275812D01*
X150144180Y-90239502D01*
X150254494Y-90180537D01*
X150308691Y-90136059D01*
X150325499Y-90167505D01*
X150441341Y-90308659D01*
X150582495Y-90424501D01*
X150743536Y-90510580D01*
X150918276Y-90563587D01*
X151100000Y-90581485D01*
X152600000Y-90581485D01*
X152781724Y-90563587D01*
X152956464Y-90510580D01*
X153117505Y-90424501D01*
X153258659Y-90308659D01*
X153366709Y-90177000D01*
X156133291Y-90177000D01*
X156241341Y-90308659D01*
X156382495Y-90424501D01*
X156543536Y-90510580D01*
X156718276Y-90563587D01*
X156900000Y-90581485D01*
X158400000Y-90581485D01*
X158581724Y-90563587D01*
X158756464Y-90510580D01*
X158917505Y-90424501D01*
X159000000Y-90356799D01*
X159082495Y-90424501D01*
X159173000Y-90472878D01*
X159173001Y-92659320D01*
X158739039Y-92573000D01*
X158260961Y-92573000D01*
X157792070Y-92666268D01*
X157350385Y-92849221D01*
X156952878Y-93114826D01*
X156614826Y-93452878D01*
X156349221Y-93850385D01*
X156166268Y-94292070D01*
X156073000Y-94760961D01*
X156073000Y-95239039D01*
X156166268Y-95707930D01*
X156349221Y-96149615D01*
X156614826Y-96547122D01*
X156952878Y-96885174D01*
X157350385Y-97150779D01*
X157792070Y-97333732D01*
X158260961Y-97427000D01*
X158739039Y-97427000D01*
X159207930Y-97333732D01*
X159649615Y-97150779D01*
X160047122Y-96885174D01*
X160385174Y-96547122D01*
X160416659Y-96500000D01*
X168861928Y-96500000D01*
X168874188Y-96624482D01*
X168910498Y-96744180D01*
X168969463Y-96854494D01*
X169048815Y-96951185D01*
X169145506Y-97030537D01*
X169255820Y-97089502D01*
X169375518Y-97125812D01*
X169500000Y-97138072D01*
X170714250Y-97135000D01*
X170873000Y-96976250D01*
X170873000Y-95127000D01*
X171127000Y-95127000D01*
X171127000Y-96976250D01*
X171285750Y-97135000D01*
X172500000Y-97138072D01*
X172624482Y-97125812D01*
X172744180Y-97089502D01*
X172854494Y-97030537D01*
X172951185Y-96951185D01*
X173030537Y-96854494D01*
X173089502Y-96744180D01*
X173125812Y-96624482D01*
X173138072Y-96500000D01*
X173135000Y-95285750D01*
X172976250Y-95127000D01*
X171127000Y-95127000D01*
X170873000Y-95127000D01*
X169023750Y-95127000D01*
X168865000Y-95285750D01*
X168861928Y-96500000D01*
X160416659Y-96500000D01*
X160650779Y-96149615D01*
X160833732Y-95707930D01*
X160927000Y-95239039D01*
X160927000Y-94760961D01*
X160840157Y-94324372D01*
X161141382Y-94023147D01*
X161186291Y-93986291D01*
X161333374Y-93807070D01*
X161442667Y-93602597D01*
X161473789Y-93500000D01*
X168861928Y-93500000D01*
X168865000Y-94714250D01*
X169023750Y-94873000D01*
X170873000Y-94873000D01*
X170873000Y-93023750D01*
X171127000Y-93023750D01*
X171127000Y-94873000D01*
X172976250Y-94873000D01*
X173135000Y-94714250D01*
X173138072Y-93500000D01*
X173125812Y-93375518D01*
X173089502Y-93255820D01*
X173030537Y-93145506D01*
X172951185Y-93048815D01*
X172854494Y-92969463D01*
X172744180Y-92910498D01*
X172624482Y-92874188D01*
X172500000Y-92861928D01*
X171285750Y-92865000D01*
X171127000Y-93023750D01*
X170873000Y-93023750D01*
X170714250Y-92865000D01*
X169500000Y-92861928D01*
X169375518Y-92874188D01*
X169255820Y-92910498D01*
X169145506Y-92969463D01*
X169048815Y-93048815D01*
X168969463Y-93145506D01*
X168910498Y-93255820D01*
X168874188Y-93375518D01*
X168861928Y-93500000D01*
X161473789Y-93500000D01*
X161509969Y-93380732D01*
X161527000Y-93207812D01*
X161532694Y-93150001D01*
X161527000Y-93092189D01*
X161527000Y-90472877D01*
X161617505Y-90424501D01*
X161758659Y-90308659D01*
X161874501Y-90167505D01*
X161960580Y-90006464D01*
X162013587Y-89831724D01*
X162031485Y-89650000D01*
X167761928Y-89650000D01*
X167774188Y-89774482D01*
X167810498Y-89894180D01*
X167869463Y-90004494D01*
X167948815Y-90101185D01*
X168045506Y-90180537D01*
X168155820Y-90239502D01*
X168275518Y-90275812D01*
X168400000Y-90288072D01*
X168864250Y-90285000D01*
X169023000Y-90126250D01*
X169023000Y-89127000D01*
X167923750Y-89127000D01*
X167765000Y-89285750D01*
X167761928Y-89650000D01*
X162031485Y-89650000D01*
X162031485Y-88350000D01*
X167761928Y-88350000D01*
X167765000Y-88714250D01*
X167923750Y-88873000D01*
X169023000Y-88873000D01*
X169023000Y-87873750D01*
X169277000Y-87873750D01*
X169277000Y-88873000D01*
X169297000Y-88873000D01*
X169297000Y-89127000D01*
X169277000Y-89127000D01*
X169277000Y-90126250D01*
X169435750Y-90285000D01*
X169900000Y-90288072D01*
X170024482Y-90275812D01*
X170144180Y-90239502D01*
X170254494Y-90180537D01*
X170308691Y-90136059D01*
X170325499Y-90167505D01*
X170441341Y-90308659D01*
X170582495Y-90424501D01*
X170743536Y-90510580D01*
X170918276Y-90563587D01*
X171100000Y-90581485D01*
X172600000Y-90581485D01*
X172781724Y-90563587D01*
X172956464Y-90510580D01*
X173117505Y-90424501D01*
X173258659Y-90308659D01*
X173366709Y-90177000D01*
X176133291Y-90177000D01*
X176241341Y-90308659D01*
X176382495Y-90424501D01*
X176543536Y-90510580D01*
X176718276Y-90563587D01*
X176900000Y-90581485D01*
X178400000Y-90581485D01*
X178581724Y-90563587D01*
X178756464Y-90510580D01*
X178917505Y-90424501D01*
X179000000Y-90356799D01*
X179082495Y-90424501D01*
X179173000Y-90472878D01*
X179173001Y-92659320D01*
X178739039Y-92573000D01*
X178260961Y-92573000D01*
X177792070Y-92666268D01*
X177350385Y-92849221D01*
X176952878Y-93114826D01*
X176614826Y-93452878D01*
X176349221Y-93850385D01*
X176166268Y-94292070D01*
X176073000Y-94760961D01*
X176073000Y-95239039D01*
X176166268Y-95707930D01*
X176349221Y-96149615D01*
X176614826Y-96547122D01*
X176952878Y-96885174D01*
X177350385Y-97150779D01*
X177792070Y-97333732D01*
X178260961Y-97427000D01*
X178739039Y-97427000D01*
X179207930Y-97333732D01*
X179649615Y-97150779D01*
X180047122Y-96885174D01*
X180385174Y-96547122D01*
X180416659Y-96500000D01*
X200861928Y-96500000D01*
X200874188Y-96624482D01*
X200910498Y-96744180D01*
X200969463Y-96854494D01*
X201048815Y-96951185D01*
X201145506Y-97030537D01*
X201255820Y-97089502D01*
X201375518Y-97125812D01*
X201500000Y-97138072D01*
X202714250Y-97135000D01*
X202873000Y-96976250D01*
X202873000Y-95127000D01*
X203127000Y-95127000D01*
X203127000Y-96976250D01*
X203285750Y-97135000D01*
X204500000Y-97138072D01*
X204624482Y-97125812D01*
X204744180Y-97089502D01*
X204854494Y-97030537D01*
X204951185Y-96951185D01*
X205030537Y-96854494D01*
X205089502Y-96744180D01*
X205125812Y-96624482D01*
X205138072Y-96500000D01*
X205135000Y-95285750D01*
X204976250Y-95127000D01*
X203127000Y-95127000D01*
X202873000Y-95127000D01*
X201023750Y-95127000D01*
X200865000Y-95285750D01*
X200861928Y-96500000D01*
X180416659Y-96500000D01*
X180650779Y-96149615D01*
X180833732Y-95707930D01*
X180927000Y-95239039D01*
X180927000Y-94760961D01*
X180840157Y-94324372D01*
X181141382Y-94023147D01*
X181186291Y-93986291D01*
X181333374Y-93807070D01*
X181442667Y-93602597D01*
X181473789Y-93500000D01*
X200861928Y-93500000D01*
X200865000Y-94714250D01*
X201023750Y-94873000D01*
X202873000Y-94873000D01*
X202873000Y-93023750D01*
X203127000Y-93023750D01*
X203127000Y-94873000D01*
X204976250Y-94873000D01*
X205135000Y-94714250D01*
X205138072Y-93500000D01*
X205125812Y-93375518D01*
X205089502Y-93255820D01*
X205030537Y-93145506D01*
X204951185Y-93048815D01*
X204854494Y-92969463D01*
X204744180Y-92910498D01*
X204624482Y-92874188D01*
X204500000Y-92861928D01*
X203285750Y-92865000D01*
X203127000Y-93023750D01*
X202873000Y-93023750D01*
X202714250Y-92865000D01*
X201500000Y-92861928D01*
X201375518Y-92874188D01*
X201255820Y-92910498D01*
X201145506Y-92969463D01*
X201048815Y-93048815D01*
X200969463Y-93145506D01*
X200910498Y-93255820D01*
X200874188Y-93375518D01*
X200861928Y-93500000D01*
X181473789Y-93500000D01*
X181509969Y-93380732D01*
X181527000Y-93207812D01*
X181532694Y-93150001D01*
X181527000Y-93092189D01*
X181527000Y-90472877D01*
X181617505Y-90424501D01*
X181758659Y-90308659D01*
X181874501Y-90167505D01*
X181960580Y-90006464D01*
X182013587Y-89831724D01*
X182031485Y-89650000D01*
X200261928Y-89650000D01*
X200274188Y-89774482D01*
X200310498Y-89894180D01*
X200369463Y-90004494D01*
X200448815Y-90101185D01*
X200545506Y-90180537D01*
X200655820Y-90239502D01*
X200775518Y-90275812D01*
X200900000Y-90288072D01*
X201364250Y-90285000D01*
X201523000Y-90126250D01*
X201523000Y-89127000D01*
X200423750Y-89127000D01*
X200265000Y-89285750D01*
X200261928Y-89650000D01*
X182031485Y-89650000D01*
X182031485Y-88350000D01*
X200261928Y-88350000D01*
X200265000Y-88714250D01*
X200423750Y-88873000D01*
X201523000Y-88873000D01*
X201523000Y-87873750D01*
X201364250Y-87715000D01*
X200900000Y-87711928D01*
X200775518Y-87724188D01*
X200655820Y-87760498D01*
X200545506Y-87819463D01*
X200448815Y-87898815D01*
X200369463Y-87995506D01*
X200310498Y-88105820D01*
X200274188Y-88225518D01*
X200261928Y-88350000D01*
X182031485Y-88350000D01*
X182013587Y-88168276D01*
X181960580Y-87993536D01*
X181874501Y-87832495D01*
X181758659Y-87691341D01*
X181617505Y-87575499D01*
X181456464Y-87489420D01*
X181281724Y-87436413D01*
X181100000Y-87418515D01*
X179600000Y-87418515D01*
X179418276Y-87436413D01*
X179243536Y-87489420D01*
X179082495Y-87575499D01*
X179000000Y-87643201D01*
X178917505Y-87575499D01*
X178756464Y-87489420D01*
X178581724Y-87436413D01*
X178400000Y-87418515D01*
X176900000Y-87418515D01*
X176718276Y-87436413D01*
X176543536Y-87489420D01*
X176382495Y-87575499D01*
X176241341Y-87691341D01*
X176133291Y-87823000D01*
X173366709Y-87823000D01*
X173258659Y-87691341D01*
X173117505Y-87575499D01*
X172956464Y-87489420D01*
X172781724Y-87436413D01*
X172600000Y-87418515D01*
X171100000Y-87418515D01*
X170918276Y-87436413D01*
X170743536Y-87489420D01*
X170582495Y-87575499D01*
X170441341Y-87691341D01*
X170325499Y-87832495D01*
X170308691Y-87863941D01*
X170254494Y-87819463D01*
X170144180Y-87760498D01*
X170024482Y-87724188D01*
X169900000Y-87711928D01*
X169435750Y-87715000D01*
X169277000Y-87873750D01*
X169023000Y-87873750D01*
X168864250Y-87715000D01*
X168400000Y-87711928D01*
X168275518Y-87724188D01*
X168155820Y-87760498D01*
X168045506Y-87819463D01*
X167948815Y-87898815D01*
X167869463Y-87995506D01*
X167810498Y-88105820D01*
X167774188Y-88225518D01*
X167761928Y-88350000D01*
X162031485Y-88350000D01*
X162013587Y-88168276D01*
X161960580Y-87993536D01*
X161874501Y-87832495D01*
X161758659Y-87691341D01*
X161617505Y-87575499D01*
X161456464Y-87489420D01*
X161281724Y-87436413D01*
X161100000Y-87418515D01*
X159600000Y-87418515D01*
X159418276Y-87436413D01*
X159243536Y-87489420D01*
X159082495Y-87575499D01*
X159000000Y-87643201D01*
X158917505Y-87575499D01*
X158756464Y-87489420D01*
X158581724Y-87436413D01*
X158400000Y-87418515D01*
X156900000Y-87418515D01*
X156718276Y-87436413D01*
X156543536Y-87489420D01*
X156382495Y-87575499D01*
X156241341Y-87691341D01*
X156133291Y-87823000D01*
X153366709Y-87823000D01*
X153258659Y-87691341D01*
X153117505Y-87575499D01*
X152956464Y-87489420D01*
X152781724Y-87436413D01*
X152600000Y-87418515D01*
X151100000Y-87418515D01*
X150918276Y-87436413D01*
X150743536Y-87489420D01*
X150582495Y-87575499D01*
X150441341Y-87691341D01*
X150325499Y-87832495D01*
X150308691Y-87863941D01*
X150254494Y-87819463D01*
X150144180Y-87760498D01*
X150024482Y-87724188D01*
X149900000Y-87711928D01*
X149435750Y-87715000D01*
X149277000Y-87873750D01*
X149023000Y-87873750D01*
X148864250Y-87715000D01*
X148400000Y-87711928D01*
X148275518Y-87724188D01*
X148155820Y-87760498D01*
X148045506Y-87819463D01*
X147948815Y-87898815D01*
X147869463Y-87995506D01*
X147810498Y-88105820D01*
X147774188Y-88225518D01*
X147761928Y-88350000D01*
X142031485Y-88350000D01*
X142013587Y-88168276D01*
X141960580Y-87993536D01*
X141874501Y-87832495D01*
X141758659Y-87691341D01*
X141617505Y-87575499D01*
X141456464Y-87489420D01*
X141281724Y-87436413D01*
X141100000Y-87418515D01*
X139600000Y-87418515D01*
X139418276Y-87436413D01*
X139243536Y-87489420D01*
X139082495Y-87575499D01*
X139000000Y-87643201D01*
X138917505Y-87575499D01*
X138756464Y-87489420D01*
X138581724Y-87436413D01*
X138400000Y-87418515D01*
X136900000Y-87418515D01*
X136718276Y-87436413D01*
X136543536Y-87489420D01*
X136382495Y-87575499D01*
X136241341Y-87691341D01*
X136133291Y-87823000D01*
X133366709Y-87823000D01*
X133258659Y-87691341D01*
X133117505Y-87575499D01*
X132956464Y-87489420D01*
X132781724Y-87436413D01*
X132600000Y-87418515D01*
X131100000Y-87418515D01*
X130918276Y-87436413D01*
X130743536Y-87489420D01*
X130582495Y-87575499D01*
X130441341Y-87691341D01*
X130325499Y-87832495D01*
X130308691Y-87863941D01*
X130254494Y-87819463D01*
X130144180Y-87760498D01*
X130024482Y-87724188D01*
X129900000Y-87711928D01*
X129435750Y-87715000D01*
X129277000Y-87873750D01*
X129023000Y-87873750D01*
X128864250Y-87715000D01*
X128400000Y-87711928D01*
X128275518Y-87724188D01*
X128155820Y-87760498D01*
X128045506Y-87819463D01*
X127948815Y-87898815D01*
X127869463Y-87995506D01*
X127810498Y-88105820D01*
X127774188Y-88225518D01*
X127761928Y-88350000D01*
X122531485Y-88350000D01*
X122513587Y-88168276D01*
X122460580Y-87993536D01*
X122374501Y-87832495D01*
X122258659Y-87691341D01*
X122117505Y-87575499D01*
X121956464Y-87489420D01*
X121781724Y-87436413D01*
X121600000Y-87418515D01*
X120100000Y-87418515D01*
X119918276Y-87436413D01*
X119743536Y-87489420D01*
X119582495Y-87575499D01*
X119500000Y-87643201D01*
X119417505Y-87575499D01*
X119256464Y-87489420D01*
X119081724Y-87436413D01*
X118900000Y-87418515D01*
X117400000Y-87418515D01*
X117218276Y-87436413D01*
X117043536Y-87489420D01*
X116882495Y-87575499D01*
X116741341Y-87691341D01*
X116633291Y-87823000D01*
X113866709Y-87823000D01*
X113758659Y-87691341D01*
X113617505Y-87575499D01*
X113456464Y-87489420D01*
X113281724Y-87436413D01*
X113100000Y-87418515D01*
X111600000Y-87418515D01*
X111418276Y-87436413D01*
X111243536Y-87489420D01*
X111082495Y-87575499D01*
X110941341Y-87691341D01*
X110825499Y-87832495D01*
X110808691Y-87863941D01*
X110754494Y-87819463D01*
X110644180Y-87760498D01*
X110524482Y-87724188D01*
X110400000Y-87711928D01*
X109935750Y-87715000D01*
X109777000Y-87873750D01*
X109523000Y-87873750D01*
X109364250Y-87715000D01*
X108900000Y-87711928D01*
X108775518Y-87724188D01*
X108655820Y-87760498D01*
X108545506Y-87819463D01*
X108448815Y-87898815D01*
X108369463Y-87995506D01*
X108310498Y-88105820D01*
X108274188Y-88225518D01*
X108261928Y-88350000D01*
X107127000Y-88350000D01*
X107127000Y-84869302D01*
X200673000Y-84869302D01*
X200673000Y-85130698D01*
X200723996Y-85387072D01*
X200824028Y-85628570D01*
X200969252Y-85845913D01*
X201154087Y-86030748D01*
X201371430Y-86175972D01*
X201612928Y-86276004D01*
X201869302Y-86327000D01*
X202130698Y-86327000D01*
X202387072Y-86276004D01*
X202626088Y-86177000D01*
X209512472Y-86177000D01*
X210903465Y-87567994D01*
X210756464Y-87489420D01*
X210581724Y-87436413D01*
X210400000Y-87418515D01*
X208900000Y-87418515D01*
X208718276Y-87436413D01*
X208543536Y-87489420D01*
X208382495Y-87575499D01*
X208241341Y-87691341D01*
X208133291Y-87823000D01*
X205866709Y-87823000D01*
X205758659Y-87691341D01*
X205617505Y-87575499D01*
X205456464Y-87489420D01*
X205281724Y-87436413D01*
X205100000Y-87418515D01*
X203600000Y-87418515D01*
X203418276Y-87436413D01*
X203243536Y-87489420D01*
X203082495Y-87575499D01*
X202941341Y-87691341D01*
X202825499Y-87832495D01*
X202808691Y-87863941D01*
X202754494Y-87819463D01*
X202644180Y-87760498D01*
X202524482Y-87724188D01*
X202400000Y-87711928D01*
X201935750Y-87715000D01*
X201777000Y-87873750D01*
X201777000Y-88873000D01*
X201797000Y-88873000D01*
X201797000Y-89127000D01*
X201777000Y-89127000D01*
X201777000Y-90126250D01*
X201935750Y-90285000D01*
X202400000Y-90288072D01*
X202524482Y-90275812D01*
X202644180Y-90239502D01*
X202754494Y-90180537D01*
X202808691Y-90136059D01*
X202825499Y-90167505D01*
X202941341Y-90308659D01*
X203082495Y-90424501D01*
X203243536Y-90510580D01*
X203418276Y-90563587D01*
X203600000Y-90581485D01*
X205100000Y-90581485D01*
X205281724Y-90563587D01*
X205456464Y-90510580D01*
X205617505Y-90424501D01*
X205758659Y-90308659D01*
X205866709Y-90177000D01*
X208133291Y-90177000D01*
X208241341Y-90308659D01*
X208382495Y-90424501D01*
X208543536Y-90510580D01*
X208718276Y-90563587D01*
X208900000Y-90581485D01*
X210400000Y-90581485D01*
X210581724Y-90563587D01*
X210756464Y-90510580D01*
X210917505Y-90424501D01*
X211000000Y-90356799D01*
X211082495Y-90424501D01*
X211173000Y-90472878D01*
X211173001Y-92659320D01*
X210739039Y-92573000D01*
X210260961Y-92573000D01*
X209792070Y-92666268D01*
X209350385Y-92849221D01*
X208952878Y-93114826D01*
X208614826Y-93452878D01*
X208349221Y-93850385D01*
X208166268Y-94292070D01*
X208073000Y-94760961D01*
X208073000Y-95239039D01*
X208166268Y-95707930D01*
X208349221Y-96149615D01*
X208614826Y-96547122D01*
X208952878Y-96885174D01*
X209350385Y-97150779D01*
X209792070Y-97333732D01*
X210260961Y-97427000D01*
X210739039Y-97427000D01*
X211207930Y-97333732D01*
X211649615Y-97150779D01*
X212047122Y-96885174D01*
X212385174Y-96547122D01*
X212650779Y-96149615D01*
X212833732Y-95707930D01*
X212927000Y-95239039D01*
X212927000Y-94760961D01*
X212840157Y-94324372D01*
X213141382Y-94023147D01*
X213186291Y-93986291D01*
X213333374Y-93807070D01*
X213442667Y-93602597D01*
X213509969Y-93380732D01*
X213527000Y-93207812D01*
X213532694Y-93150001D01*
X213527000Y-93092189D01*
X213527000Y-90472877D01*
X213617505Y-90424501D01*
X213758659Y-90308659D01*
X213874501Y-90167505D01*
X213960580Y-90006464D01*
X214013587Y-89831724D01*
X214031485Y-89650000D01*
X214031485Y-88350000D01*
X214013587Y-88168276D01*
X213960580Y-87993536D01*
X213874501Y-87832495D01*
X213758659Y-87691341D01*
X213617505Y-87575499D01*
X213527000Y-87527123D01*
X213527000Y-87407812D01*
X213532694Y-87350000D01*
X213509969Y-87119268D01*
X213442667Y-86897403D01*
X213333374Y-86692930D01*
X213186291Y-86513709D01*
X213141388Y-86476858D01*
X210873151Y-84208623D01*
X210836291Y-84163709D01*
X210657070Y-84016626D01*
X210452597Y-83907333D01*
X210230732Y-83840031D01*
X210057812Y-83823000D01*
X210000000Y-83817306D01*
X209942188Y-83823000D01*
X202626088Y-83823000D01*
X202387072Y-83723996D01*
X202130698Y-83673000D01*
X201869302Y-83673000D01*
X201612928Y-83723996D01*
X201371430Y-83824028D01*
X201154087Y-83969252D01*
X200969252Y-84154087D01*
X200824028Y-84371430D01*
X200723996Y-84612928D01*
X200673000Y-84869302D01*
X107127000Y-84869302D01*
X107127000Y-76054627D01*
X123155954Y-60869302D01*
X148673000Y-60869302D01*
X148673000Y-61130698D01*
X148723996Y-61387072D01*
X148824028Y-61628570D01*
X148969252Y-61845913D01*
X149154087Y-62030748D01*
X149371430Y-62175972D01*
X149610449Y-62274977D01*
X150008472Y-62673000D01*
X149869302Y-62673000D01*
X149612928Y-62723996D01*
X149371430Y-62824028D01*
X149154087Y-62969252D01*
X148969252Y-63154087D01*
X148824028Y-63371430D01*
X148723996Y-63612928D01*
X148673000Y-63869302D01*
X148673000Y-64130698D01*
X148723996Y-64387072D01*
X148824028Y-64628570D01*
X148969252Y-64845913D01*
X149154087Y-65030748D01*
X149371430Y-65175972D01*
X149610449Y-65274977D01*
X164126854Y-79791383D01*
X164163709Y-79836291D01*
X164342930Y-79983374D01*
X164547403Y-80092667D01*
X164769268Y-80159969D01*
X164942188Y-80177000D01*
X164942197Y-80177000D01*
X164999999Y-80182693D01*
X165057801Y-80177000D01*
X182373912Y-80177000D01*
X182612928Y-80276004D01*
X182869302Y-80327000D01*
X183130698Y-80327000D01*
X183387072Y-80276004D01*
X183628570Y-80175972D01*
X183845913Y-80030748D01*
X184030748Y-79845913D01*
X184175972Y-79628570D01*
X184276004Y-79387072D01*
X184327000Y-79130698D01*
X184327000Y-78869302D01*
X184276004Y-78612928D01*
X184175972Y-78371430D01*
X184030748Y-78154087D01*
X183979770Y-78103109D01*
X203558519Y-78103109D01*
X203679186Y-78333000D01*
X204873000Y-78333000D01*
X204873000Y-77139845D01*
X204643110Y-77018524D01*
X204495901Y-77063175D01*
X204233080Y-77188359D01*
X203999731Y-77362412D01*
X203804822Y-77578645D01*
X203655843Y-77828748D01*
X203558519Y-78103109D01*
X183979770Y-78103109D01*
X183845913Y-77969252D01*
X183628570Y-77824028D01*
X183387072Y-77723996D01*
X183130698Y-77673000D01*
X182869302Y-77673000D01*
X182612928Y-77723996D01*
X182373912Y-77823000D01*
X165487529Y-77823000D01*
X164830532Y-77166003D01*
X164942188Y-77177000D01*
X164942197Y-77177000D01*
X164999999Y-77182693D01*
X165057801Y-77177000D01*
X182373912Y-77177000D01*
X182612928Y-77276004D01*
X182869302Y-77327000D01*
X183130698Y-77327000D01*
X183387072Y-77276004D01*
X183628570Y-77175972D01*
X183845913Y-77030748D01*
X184030748Y-76845913D01*
X184175972Y-76628570D01*
X184276004Y-76387072D01*
X184327000Y-76130698D01*
X184327000Y-75869302D01*
X184276004Y-75612928D01*
X184175972Y-75371430D01*
X184030748Y-75154087D01*
X183845913Y-74969252D01*
X183628570Y-74824028D01*
X183387072Y-74723996D01*
X183130698Y-74673000D01*
X182869302Y-74673000D01*
X182612928Y-74723996D01*
X182373912Y-74823000D01*
X165487529Y-74823000D01*
X158814529Y-68150000D01*
X189218515Y-68150000D01*
X189218515Y-69850000D01*
X189236413Y-70031724D01*
X189289420Y-70206464D01*
X189375499Y-70367505D01*
X189491341Y-70508659D01*
X189530479Y-70540779D01*
X189425243Y-70698275D01*
X189291289Y-71021668D01*
X189223000Y-71364981D01*
X189223000Y-71715019D01*
X189291289Y-72058332D01*
X189425243Y-72381725D01*
X189619714Y-72672771D01*
X189756943Y-72810000D01*
X189619714Y-72947229D01*
X189425243Y-73238275D01*
X189291289Y-73561668D01*
X189223000Y-73904981D01*
X189223000Y-74255019D01*
X189291289Y-74598332D01*
X189425243Y-74921725D01*
X189619714Y-75212771D01*
X189867229Y-75460286D01*
X190158275Y-75654757D01*
X190481668Y-75788711D01*
X190824981Y-75857000D01*
X191175019Y-75857000D01*
X191518332Y-75788711D01*
X191841725Y-75654757D01*
X192132771Y-75460286D01*
X192336057Y-75257000D01*
X192862188Y-75257000D01*
X192920000Y-75262694D01*
X192977812Y-75257000D01*
X193150732Y-75239969D01*
X193372597Y-75172667D01*
X193577070Y-75063374D01*
X193756291Y-74916291D01*
X193793150Y-74871378D01*
X194791387Y-73873142D01*
X194836291Y-73836291D01*
X194983374Y-73657070D01*
X195092667Y-73452597D01*
X195159969Y-73230732D01*
X195177000Y-73057812D01*
X195182694Y-73000000D01*
X195177000Y-72942188D01*
X195177000Y-65100000D01*
X206711928Y-65100000D01*
X206724188Y-65224482D01*
X206760498Y-65344180D01*
X206819463Y-65454494D01*
X206898815Y-65551185D01*
X206995506Y-65630537D01*
X207105820Y-65689502D01*
X207225518Y-65725812D01*
X207350000Y-65738072D01*
X207714250Y-65735000D01*
X207873000Y-65576250D01*
X207873000Y-64477000D01*
X208127000Y-64477000D01*
X208127000Y-65576250D01*
X208285750Y-65735000D01*
X208650000Y-65738072D01*
X208774482Y-65725812D01*
X208894180Y-65689502D01*
X209004494Y-65630537D01*
X209101185Y-65551185D01*
X209180537Y-65454494D01*
X209239502Y-65344180D01*
X209275812Y-65224482D01*
X209288072Y-65100000D01*
X211711928Y-65100000D01*
X211724188Y-65224482D01*
X211760498Y-65344180D01*
X211819463Y-65454494D01*
X211898815Y-65551185D01*
X211995506Y-65630537D01*
X212105820Y-65689502D01*
X212225518Y-65725812D01*
X212350000Y-65738072D01*
X212714250Y-65735000D01*
X212873000Y-65576250D01*
X212873000Y-64477000D01*
X211873750Y-64477000D01*
X211715000Y-64635750D01*
X211711928Y-65100000D01*
X209288072Y-65100000D01*
X209285000Y-64635750D01*
X209126250Y-64477000D01*
X208127000Y-64477000D01*
X207873000Y-64477000D01*
X206873750Y-64477000D01*
X206715000Y-64635750D01*
X206711928Y-65100000D01*
X195177000Y-65100000D01*
X195177000Y-62057812D01*
X195182694Y-62000000D01*
X195159969Y-61769268D01*
X195130697Y-61672771D01*
X195092667Y-61547403D01*
X194983374Y-61342930D01*
X194873144Y-61208614D01*
X194873142Y-61208612D01*
X194836291Y-61163709D01*
X194791389Y-61126859D01*
X193413151Y-59748622D01*
X193376291Y-59703709D01*
X193197070Y-59556626D01*
X192992597Y-59447333D01*
X192770732Y-59380031D01*
X192597812Y-59363000D01*
X192540000Y-59357306D01*
X192482188Y-59363000D01*
X192336057Y-59363000D01*
X192286387Y-59313330D01*
X192301185Y-59301185D01*
X192380537Y-59204494D01*
X192439502Y-59094180D01*
X192475812Y-58974482D01*
X192488072Y-58850000D01*
X192485000Y-58285750D01*
X192326250Y-58127000D01*
X191127000Y-58127000D01*
X191127000Y-58147000D01*
X190873000Y-58147000D01*
X190873000Y-58127000D01*
X189673750Y-58127000D01*
X189515000Y-58285750D01*
X189511928Y-58850000D01*
X189524188Y-58974482D01*
X189560498Y-59094180D01*
X189619463Y-59204494D01*
X189698815Y-59301185D01*
X189713613Y-59313330D01*
X189619714Y-59407229D01*
X189425243Y-59698275D01*
X189291289Y-60021668D01*
X189223000Y-60364981D01*
X189223000Y-60715019D01*
X189291289Y-61058332D01*
X189425243Y-61381725D01*
X189619714Y-61672771D01*
X189867229Y-61920286D01*
X190158275Y-62114757D01*
X190481668Y-62248711D01*
X190824981Y-62317000D01*
X191175019Y-62317000D01*
X191518332Y-62248711D01*
X191841725Y-62114757D01*
X192132771Y-61920286D01*
X192194264Y-61858793D01*
X192823000Y-62487530D01*
X192823001Y-72512470D01*
X192432471Y-72903000D01*
X192336057Y-72903000D01*
X192243057Y-72810000D01*
X192380286Y-72672771D01*
X192574757Y-72381725D01*
X192708711Y-72058332D01*
X192777000Y-71715019D01*
X192777000Y-71364981D01*
X192708711Y-71021668D01*
X192574757Y-70698275D01*
X192469521Y-70540779D01*
X192508659Y-70508659D01*
X192624501Y-70367505D01*
X192710580Y-70206464D01*
X192763587Y-70031724D01*
X192781485Y-69850000D01*
X192781485Y-68150000D01*
X192763587Y-67968276D01*
X192710580Y-67793536D01*
X192624501Y-67632495D01*
X192508659Y-67491341D01*
X192367505Y-67375499D01*
X192206464Y-67289420D01*
X192031724Y-67236413D01*
X191850000Y-67218515D01*
X190150000Y-67218515D01*
X189968276Y-67236413D01*
X189793536Y-67289420D01*
X189632495Y-67375499D01*
X189491341Y-67491341D01*
X189375499Y-67632495D01*
X189289420Y-67793536D01*
X189236413Y-67968276D01*
X189218515Y-68150000D01*
X158814529Y-68150000D01*
X157991528Y-67327000D01*
X158130698Y-67327000D01*
X158387072Y-67276004D01*
X158628570Y-67175972D01*
X158845913Y-67030748D01*
X159030748Y-66845913D01*
X159175972Y-66628570D01*
X159274977Y-66389551D01*
X160389552Y-65274977D01*
X160628570Y-65175972D01*
X160845913Y-65030748D01*
X161030748Y-64845913D01*
X161175972Y-64628570D01*
X161276004Y-64387072D01*
X161327000Y-64130698D01*
X161327000Y-63869302D01*
X161276004Y-63612928D01*
X161175972Y-63371430D01*
X161030748Y-63154087D01*
X160845913Y-62969252D01*
X160628570Y-62824028D01*
X160387072Y-62723996D01*
X160130698Y-62673000D01*
X159869302Y-62673000D01*
X159612928Y-62723996D01*
X159371430Y-62824028D01*
X159154087Y-62969252D01*
X158969252Y-63154087D01*
X158824028Y-63371430D01*
X158725023Y-63610448D01*
X157610449Y-64725023D01*
X157371430Y-64824028D01*
X157154087Y-64969252D01*
X156969252Y-65154087D01*
X156824028Y-65371430D01*
X156723996Y-65612928D01*
X156673000Y-65869302D01*
X156673000Y-66008472D01*
X151274977Y-60610449D01*
X151175972Y-60371430D01*
X151030748Y-60154087D01*
X150845913Y-59969252D01*
X150628570Y-59824028D01*
X150387072Y-59723996D01*
X150130698Y-59673000D01*
X149869302Y-59673000D01*
X149612928Y-59723996D01*
X149371430Y-59824028D01*
X149154087Y-59969252D01*
X148969252Y-60154087D01*
X148824028Y-60371430D01*
X148723996Y-60612928D01*
X148673000Y-60869302D01*
X123155954Y-60869302D01*
X126087344Y-58092196D01*
X126105597Y-58070557D01*
X126117333Y-58048601D01*
X126124560Y-58024776D01*
X126127000Y-58000000D01*
X126127000Y-55869302D01*
X153673000Y-55869302D01*
X153673000Y-56130698D01*
X153723996Y-56387072D01*
X153824028Y-56628570D01*
X153969252Y-56845913D01*
X154154087Y-57030748D01*
X154371430Y-57175972D01*
X154612928Y-57276004D01*
X154869302Y-57327000D01*
X155130698Y-57327000D01*
X155387072Y-57276004D01*
X155626088Y-57177000D01*
X163512472Y-57177000D01*
X171725023Y-65389552D01*
X171824028Y-65628570D01*
X171969252Y-65845913D01*
X172154087Y-66030748D01*
X172371430Y-66175972D01*
X172612928Y-66276004D01*
X172869302Y-66327000D01*
X173130698Y-66327000D01*
X173387072Y-66276004D01*
X173628570Y-66175972D01*
X173845913Y-66030748D01*
X174030748Y-65845913D01*
X174175972Y-65628570D01*
X174276004Y-65387072D01*
X174327000Y-65130698D01*
X174327000Y-64869302D01*
X174276004Y-64612928D01*
X174175972Y-64371430D01*
X174030748Y-64154087D01*
X173845913Y-63969252D01*
X173628570Y-63824028D01*
X173389552Y-63725023D01*
X169012028Y-59347499D01*
X173832106Y-59347499D01*
X174048228Y-59714258D01*
X174508105Y-59954938D01*
X175006098Y-60101275D01*
X175523071Y-60147648D01*
X176039159Y-60092273D01*
X176534526Y-59937279D01*
X176951772Y-59714258D01*
X177167894Y-59347499D01*
X175500000Y-57679605D01*
X173832106Y-59347499D01*
X169012028Y-59347499D01*
X167187600Y-57523071D01*
X172852352Y-57523071D01*
X172907727Y-58039159D01*
X173062721Y-58534526D01*
X173285742Y-58951772D01*
X173652501Y-59167894D01*
X175320395Y-57500000D01*
X175679605Y-57500000D01*
X177347499Y-59167894D01*
X177714258Y-58951772D01*
X177954938Y-58491895D01*
X178101275Y-57993902D01*
X178147648Y-57476929D01*
X178112570Y-57150000D01*
X189511928Y-57150000D01*
X189515000Y-57714250D01*
X189673750Y-57873000D01*
X190873000Y-57873000D01*
X190873000Y-56673750D01*
X191127000Y-56673750D01*
X191127000Y-57873000D01*
X192326250Y-57873000D01*
X192485000Y-57714250D01*
X192488072Y-57150000D01*
X192475812Y-57025518D01*
X192439502Y-56905820D01*
X192380537Y-56795506D01*
X192301185Y-56698815D01*
X192204494Y-56619463D01*
X192094180Y-56560498D01*
X191974482Y-56524188D01*
X191850000Y-56511928D01*
X191285750Y-56515000D01*
X191127000Y-56673750D01*
X190873000Y-56673750D01*
X190714250Y-56515000D01*
X190150000Y-56511928D01*
X190025518Y-56524188D01*
X189905820Y-56560498D01*
X189795506Y-56619463D01*
X189698815Y-56698815D01*
X189619463Y-56795506D01*
X189560498Y-56905820D01*
X189524188Y-57025518D01*
X189511928Y-57150000D01*
X178112570Y-57150000D01*
X178092273Y-56960841D01*
X177937279Y-56465474D01*
X177714258Y-56048228D01*
X177347499Y-55832106D01*
X175679605Y-57500000D01*
X175320395Y-57500000D01*
X173652501Y-55832106D01*
X173285742Y-56048228D01*
X173045062Y-56508105D01*
X172898725Y-57006098D01*
X172852352Y-57523071D01*
X167187600Y-57523071D01*
X165317030Y-55652501D01*
X173832106Y-55652501D01*
X175500000Y-57320395D01*
X177167894Y-55652501D01*
X176951772Y-55285742D01*
X176491895Y-55045062D01*
X175993902Y-54898725D01*
X175476929Y-54852352D01*
X174960841Y-54907727D01*
X174465474Y-55062721D01*
X174048228Y-55285742D01*
X173832106Y-55652501D01*
X165317030Y-55652501D01*
X164873151Y-55208623D01*
X164836291Y-55163709D01*
X164657070Y-55016626D01*
X164452597Y-54907333D01*
X164230732Y-54840031D01*
X164057812Y-54823000D01*
X164000000Y-54817306D01*
X163942188Y-54823000D01*
X155626088Y-54823000D01*
X155387072Y-54723996D01*
X155130698Y-54673000D01*
X154869302Y-54673000D01*
X154612928Y-54723996D01*
X154371430Y-54824028D01*
X154154087Y-54969252D01*
X153969252Y-55154087D01*
X153824028Y-55371430D01*
X153723996Y-55612928D01*
X153673000Y-55869302D01*
X126127000Y-55869302D01*
X126127000Y-52850000D01*
X201511928Y-52850000D01*
X201524188Y-52974482D01*
X201560498Y-53094180D01*
X201619463Y-53204494D01*
X201698815Y-53301185D01*
X201795506Y-53380537D01*
X201905820Y-53439502D01*
X202025518Y-53475812D01*
X202150000Y-53488072D01*
X202714250Y-53485000D01*
X202873000Y-53326250D01*
X202873000Y-52127000D01*
X201673750Y-52127000D01*
X201515000Y-52285750D01*
X201511928Y-52850000D01*
X126127000Y-52850000D01*
X126127000Y-48711716D01*
X172573000Y-48711716D01*
X172573000Y-49288284D01*
X172685482Y-49853775D01*
X172906126Y-50386455D01*
X173226450Y-50865854D01*
X173634146Y-51273550D01*
X174113545Y-51593874D01*
X174646225Y-51814518D01*
X175211716Y-51927000D01*
X175788284Y-51927000D01*
X176353775Y-51814518D01*
X176886455Y-51593874D01*
X177365854Y-51273550D01*
X177773550Y-50865854D01*
X178093874Y-50386455D01*
X178314518Y-49853775D01*
X178334938Y-49751112D01*
X188473000Y-49751112D01*
X188473000Y-50248888D01*
X188570111Y-50737099D01*
X188760602Y-51196983D01*
X189037151Y-51610869D01*
X189389131Y-51962849D01*
X189803017Y-52239398D01*
X190262901Y-52429889D01*
X190751112Y-52527000D01*
X191248888Y-52527000D01*
X191737099Y-52429889D01*
X192196983Y-52239398D01*
X192610869Y-51962849D01*
X192962849Y-51610869D01*
X193239398Y-51196983D01*
X193258859Y-51150000D01*
X201511928Y-51150000D01*
X201515000Y-51714250D01*
X201673750Y-51873000D01*
X202873000Y-51873000D01*
X202873000Y-49587000D01*
X201679186Y-49587000D01*
X201558519Y-49816891D01*
X201655843Y-50091252D01*
X201804822Y-50341355D01*
X201981626Y-50537502D01*
X201905820Y-50560498D01*
X201795506Y-50619463D01*
X201698815Y-50698815D01*
X201619463Y-50795506D01*
X201560498Y-50905820D01*
X201524188Y-51025518D01*
X201511928Y-51150000D01*
X193258859Y-51150000D01*
X193429889Y-50737099D01*
X193527000Y-50248888D01*
X193527000Y-49751112D01*
X193429889Y-49262901D01*
X193363701Y-49103109D01*
X201558519Y-49103109D01*
X201679186Y-49333000D01*
X202873000Y-49333000D01*
X202873000Y-48139845D01*
X202643110Y-48018524D01*
X202495901Y-48063175D01*
X202233080Y-48188359D01*
X201999731Y-48362412D01*
X201804822Y-48578645D01*
X201655843Y-48828748D01*
X201558519Y-49103109D01*
X193363701Y-49103109D01*
X193239398Y-48803017D01*
X192962849Y-48389131D01*
X192610869Y-48037151D01*
X192196983Y-47760602D01*
X191737099Y-47570111D01*
X191248888Y-47473000D01*
X190751112Y-47473000D01*
X190262901Y-47570111D01*
X189803017Y-47760602D01*
X189389131Y-48037151D01*
X189037151Y-48389131D01*
X188760602Y-48803017D01*
X188570111Y-49262901D01*
X188473000Y-49751112D01*
X178334938Y-49751112D01*
X178427000Y-49288284D01*
X178427000Y-48798189D01*
X180298189Y-46927000D01*
X203201811Y-46927000D01*
X203613001Y-47338190D01*
X203613000Y-48115046D01*
X203504099Y-48063175D01*
X203356890Y-48018524D01*
X203127000Y-48139845D01*
X203127000Y-49333000D01*
X203147000Y-49333000D01*
X203147000Y-49587000D01*
X203127000Y-49587000D01*
X203127000Y-51873000D01*
X203147000Y-51873000D01*
X203147000Y-52127000D01*
X203127000Y-52127000D01*
X203127000Y-53326250D01*
X203285750Y-53485000D01*
X203850000Y-53488072D01*
X203974482Y-53475812D01*
X204094180Y-53439502D01*
X204192473Y-53386962D01*
X204464238Y-53609994D01*
X204799002Y-53788929D01*
X205162243Y-53899117D01*
X205540000Y-53936323D01*
X205917758Y-53899117D01*
X206280999Y-53788929D01*
X206615763Y-53609994D01*
X206903000Y-53374264D01*
X206903001Y-60087812D01*
X206832495Y-60125499D01*
X206691341Y-60241341D01*
X206575499Y-60382495D01*
X206489420Y-60543536D01*
X206436413Y-60718276D01*
X206418515Y-60900000D01*
X206418515Y-62400000D01*
X206436413Y-62581724D01*
X206489420Y-62756464D01*
X206575499Y-62917505D01*
X206691341Y-63058659D01*
X206832495Y-63174501D01*
X206863941Y-63191309D01*
X206819463Y-63245506D01*
X206760498Y-63355820D01*
X206724188Y-63475518D01*
X206711928Y-63600000D01*
X206715000Y-64064250D01*
X206873750Y-64223000D01*
X207873000Y-64223000D01*
X207873000Y-64203000D01*
X208127000Y-64203000D01*
X208127000Y-64223000D01*
X209126250Y-64223000D01*
X209285000Y-64064250D01*
X209288072Y-63600000D01*
X209275812Y-63475518D01*
X209239502Y-63355820D01*
X209180537Y-63245506D01*
X209136059Y-63191309D01*
X209167505Y-63174501D01*
X209308659Y-63058659D01*
X209424501Y-62917505D01*
X209510580Y-62756464D01*
X209563587Y-62581724D01*
X209581485Y-62400000D01*
X209581485Y-60900000D01*
X209563587Y-60718276D01*
X209510580Y-60543536D01*
X209424501Y-60382495D01*
X209308659Y-60241341D01*
X209257000Y-60198946D01*
X209257000Y-53374265D01*
X209544237Y-53609994D01*
X209879001Y-53788929D01*
X210242242Y-53899117D01*
X210620000Y-53936323D01*
X210997757Y-53899117D01*
X211360998Y-53788929D01*
X211695763Y-53609994D01*
X211983000Y-53374264D01*
X211983001Y-60045051D01*
X211832495Y-60125499D01*
X211691341Y-60241341D01*
X211575499Y-60382495D01*
X211489420Y-60543536D01*
X211436413Y-60718276D01*
X211418515Y-60900000D01*
X211418515Y-62400000D01*
X211436413Y-62581724D01*
X211489420Y-62756464D01*
X211575499Y-62917505D01*
X211691341Y-63058659D01*
X211832495Y-63174501D01*
X211863941Y-63191309D01*
X211819463Y-63245506D01*
X211760498Y-63355820D01*
X211724188Y-63475518D01*
X211711928Y-63600000D01*
X211715000Y-64064250D01*
X211873750Y-64223000D01*
X212873000Y-64223000D01*
X212873000Y-64203000D01*
X213127000Y-64203000D01*
X213127000Y-64223000D01*
X213147000Y-64223000D01*
X213147000Y-64477000D01*
X213127000Y-64477000D01*
X213127000Y-65576250D01*
X213285750Y-65735000D01*
X213650000Y-65738072D01*
X213774482Y-65725812D01*
X213894180Y-65689502D01*
X214004494Y-65630537D01*
X214073001Y-65574315D01*
X214073001Y-65905333D01*
X214073000Y-65905343D01*
X214073000Y-66425684D01*
X214004494Y-66369463D01*
X213894180Y-66310498D01*
X213774482Y-66274188D01*
X213650000Y-66261928D01*
X213285750Y-66265000D01*
X213127000Y-66423750D01*
X213127000Y-67523000D01*
X213147000Y-67523000D01*
X213147000Y-67777000D01*
X213127000Y-67777000D01*
X213127000Y-67797000D01*
X212873000Y-67797000D01*
X212873000Y-67777000D01*
X211873750Y-67777000D01*
X211715000Y-67935750D01*
X211711928Y-68400000D01*
X211724188Y-68524482D01*
X211760498Y-68644180D01*
X211819463Y-68754494D01*
X211863941Y-68808691D01*
X211832495Y-68825499D01*
X211691341Y-68941341D01*
X211575499Y-69082495D01*
X211527123Y-69173000D01*
X209494518Y-69173000D01*
X209485580Y-69143536D01*
X209408858Y-69000000D01*
X209485580Y-68856464D01*
X209538587Y-68681724D01*
X209556485Y-68500000D01*
X209556485Y-67000000D01*
X209546636Y-66900000D01*
X211711928Y-66900000D01*
X211715000Y-67364250D01*
X211873750Y-67523000D01*
X212873000Y-67523000D01*
X212873000Y-66423750D01*
X212714250Y-66265000D01*
X212350000Y-66261928D01*
X212225518Y-66274188D01*
X212105820Y-66310498D01*
X211995506Y-66369463D01*
X211898815Y-66448815D01*
X211819463Y-66545506D01*
X211760498Y-66655820D01*
X211724188Y-66775518D01*
X211711928Y-66900000D01*
X209546636Y-66900000D01*
X209538587Y-66818276D01*
X209485580Y-66643536D01*
X209399501Y-66482495D01*
X209283659Y-66341341D01*
X209142505Y-66225499D01*
X208981464Y-66139420D01*
X208806724Y-66086413D01*
X208625000Y-66068515D01*
X207375000Y-66068515D01*
X207193276Y-66086413D01*
X207018536Y-66139420D01*
X206857495Y-66225499D01*
X206716341Y-66341341D01*
X206600499Y-66482495D01*
X206552123Y-66573000D01*
X206307801Y-66573000D01*
X206249999Y-66567307D01*
X206192197Y-66573000D01*
X206192188Y-66573000D01*
X206019268Y-66590031D01*
X205797403Y-66657333D01*
X205592930Y-66766626D01*
X205413709Y-66913709D01*
X205376849Y-66958623D01*
X204708623Y-67626849D01*
X204663709Y-67663709D01*
X204516626Y-67842931D01*
X204407333Y-68047404D01*
X204340031Y-68269268D01*
X204340031Y-68269269D01*
X204317306Y-68500000D01*
X204323000Y-68557813D01*
X204323001Y-71442178D01*
X204317306Y-71500000D01*
X204340031Y-71730731D01*
X204395500Y-71913587D01*
X204407334Y-71952597D01*
X204516627Y-72157070D01*
X204663710Y-72336291D01*
X204708618Y-72373146D01*
X208903000Y-76567529D01*
X208903000Y-77123943D01*
X208810000Y-77216943D01*
X208672771Y-77079714D01*
X208381725Y-76885243D01*
X208058332Y-76751289D01*
X207715019Y-76683000D01*
X207364981Y-76683000D01*
X207021668Y-76751289D01*
X206698275Y-76885243D01*
X206407229Y-77079714D01*
X206159714Y-77327229D01*
X206078336Y-77449020D01*
X206000269Y-77362412D01*
X205766920Y-77188359D01*
X205504099Y-77063175D01*
X205356890Y-77018524D01*
X205127000Y-77139845D01*
X205127000Y-78333000D01*
X205147000Y-78333000D01*
X205147000Y-78587000D01*
X205127000Y-78587000D01*
X205127000Y-78607000D01*
X204873000Y-78607000D01*
X204873000Y-78587000D01*
X203679186Y-78587000D01*
X203558519Y-78816891D01*
X203655843Y-79091252D01*
X203778631Y-79297387D01*
X203632495Y-79375499D01*
X203491341Y-79491341D01*
X203375499Y-79632495D01*
X203289420Y-79793536D01*
X203236413Y-79968276D01*
X203218515Y-80150000D01*
X203218515Y-81850000D01*
X203236413Y-82031724D01*
X203289420Y-82206464D01*
X203375499Y-82367505D01*
X203491341Y-82508659D01*
X203632495Y-82624501D01*
X203793536Y-82710580D01*
X203968276Y-82763587D01*
X204150000Y-82781485D01*
X205850000Y-82781485D01*
X206031724Y-82763587D01*
X206206464Y-82710580D01*
X206367505Y-82624501D01*
X206508659Y-82508659D01*
X206540779Y-82469521D01*
X206698275Y-82574757D01*
X207021668Y-82708711D01*
X207364981Y-82777000D01*
X207715019Y-82777000D01*
X208058332Y-82708711D01*
X208381725Y-82574757D01*
X208672771Y-82380286D01*
X208810000Y-82243057D01*
X208947229Y-82380286D01*
X209238275Y-82574757D01*
X209561668Y-82708711D01*
X209904981Y-82777000D01*
X210255019Y-82777000D01*
X210598332Y-82708711D01*
X210921725Y-82574757D01*
X211212771Y-82380286D01*
X211416057Y-82177000D01*
X211942188Y-82177000D01*
X212000000Y-82182694D01*
X212057812Y-82177000D01*
X212230732Y-82159969D01*
X212452597Y-82092667D01*
X212657070Y-81983374D01*
X212836291Y-81836291D01*
X212873150Y-81791378D01*
X213791387Y-80873143D01*
X213836291Y-80836291D01*
X213891296Y-80769268D01*
X213983374Y-80657070D01*
X214073000Y-80489390D01*
X214073001Y-109405342D01*
X214073000Y-112201811D01*
X213201811Y-113073000D01*
X211984525Y-113073000D01*
X211649615Y-112849221D01*
X211207930Y-112666268D01*
X210739039Y-112573000D01*
X210260961Y-112573000D01*
X209792070Y-112666268D01*
X209350385Y-112849221D01*
X208952878Y-113114826D01*
X208614826Y-113452878D01*
X208349221Y-113850385D01*
X208166268Y-114292070D01*
X208073000Y-114760961D01*
X208073000Y-115239039D01*
X208166268Y-115707930D01*
X208349221Y-116149615D01*
X208614826Y-116547122D01*
X208952878Y-116885174D01*
X209350385Y-117150779D01*
X209792070Y-117333732D01*
X210260961Y-117427000D01*
X210739039Y-117427000D01*
X211207930Y-117333732D01*
X211649615Y-117150779D01*
X211984525Y-116927000D01*
X213905352Y-116927000D01*
X214000000Y-116936322D01*
X214094648Y-116927000D01*
X214094658Y-116927000D01*
X214377758Y-116899117D01*
X214740999Y-116788929D01*
X215075763Y-116609994D01*
X215369187Y-116369187D01*
X215429529Y-116295660D01*
X217295660Y-114429529D01*
X217369187Y-114369187D01*
X217609994Y-114075763D01*
X217788929Y-113740999D01*
X217899117Y-113377758D01*
X217927000Y-113094658D01*
X217927000Y-113094649D01*
X217936322Y-113000001D01*
X217927000Y-112905353D01*
X217927000Y-47094647D01*
X217936322Y-46999999D01*
X217927000Y-46905351D01*
X217927000Y-46905342D01*
X217899117Y-46622242D01*
X217788929Y-46259001D01*
X217609994Y-45924237D01*
X217369187Y-45630813D01*
X217295660Y-45570471D01*
X215429529Y-43704340D01*
X215369187Y-43630813D01*
X215075763Y-43390006D01*
X214740999Y-43211071D01*
X214377758Y-43100883D01*
X214094658Y-43073000D01*
X214094648Y-43073000D01*
X214000000Y-43063678D01*
X213905352Y-43073000D01*
X209094648Y-43073000D01*
X209000000Y-43063678D01*
X208905352Y-43073000D01*
X204094648Y-43073000D01*
X204000000Y-43063678D01*
X203905352Y-43073000D01*
X179594647Y-43073000D01*
X179499999Y-43063678D01*
X179405351Y-43073000D01*
X179405342Y-43073000D01*
X179122242Y-43100883D01*
X178759001Y-43211071D01*
X178424237Y-43390006D01*
X178130813Y-43630813D01*
X178070471Y-43704340D01*
X175701811Y-46073000D01*
X175211716Y-46073000D01*
X174646225Y-46185482D01*
X174113545Y-46406126D01*
X173634146Y-46726450D01*
X173226450Y-47134146D01*
X172906126Y-47613545D01*
X172685482Y-48146225D01*
X172573000Y-48711716D01*
X126127000Y-48711716D01*
X126127000Y-41952000D01*
X216953443Y-41952000D01*
X217202670Y-41976437D01*
G37*
G04 #@! TD.AperFunction*
G04 #@! TD*
M02*
