G04 #@! TF.GenerationSoftware,KiCad,Pcbnew,(5.1.8)-1*
G04 #@! TF.CreationDate,2020-11-20T19:23:25+01:00*
G04 #@! TF.ProjectId,light-box,6c696768-742d-4626-9f78-2e6b69636164,rev?*
G04 #@! TF.SameCoordinates,Original*
G04 #@! TF.FileFunction,Legend,Top*
G04 #@! TF.FilePolarity,Positive*
%FSLAX46Y46*%
G04 Gerber Fmt 4.6, Leading zero omitted, Abs format (unit mm)*
G04 Created by KiCad (PCBNEW (5.1.8)-1) date 2020-11-20 19:23:25*
%MOMM*%
%LPD*%
G01*
G04 APERTURE LIST*
%ADD10C,0.120000*%
%ADD11C,0.300000*%
%ADD12C,0.250000*%
%ADD13C,1.000000*%
%ADD14C,0.400000*%
%ADD15C,0.500000*%
%ADD16C,2.500000*%
%ADD17C,0.150000*%
G04 APERTURE END LIST*
D10*
X90000000Y-135000000D02*
X76000000Y-135000000D01*
X90000000Y-138500000D02*
X90000000Y-135000000D01*
X76000000Y-138500000D02*
X90000000Y-138500000D01*
X76000000Y-135000000D02*
X76000000Y-138500000D01*
X122500000Y-135000000D02*
X108000000Y-135000000D01*
X122500000Y-138500000D02*
X122500000Y-135000000D01*
X108000000Y-138500000D02*
X122500000Y-138500000D01*
X108000000Y-135000000D02*
X108000000Y-138500000D01*
X142000000Y-135000000D02*
X128000000Y-135000000D01*
X142000000Y-138500000D02*
X142000000Y-135000000D01*
X128000000Y-138500000D02*
X142000000Y-138500000D01*
X128000000Y-135000000D02*
X128000000Y-138500000D01*
X182000000Y-138500000D02*
X168000000Y-138500000D01*
X182000000Y-135000000D02*
X182000000Y-138500000D01*
X168000000Y-135000000D02*
X182000000Y-135000000D01*
X168000000Y-138500000D02*
X168000000Y-135000000D01*
X218000000Y-135000000D02*
X195000000Y-135000000D01*
X218000000Y-138500000D02*
X218000000Y-135000000D01*
X195000000Y-138500000D02*
X218000000Y-138500000D01*
X195000000Y-135000000D02*
X195000000Y-138500000D01*
X162000000Y-138500000D02*
X148000000Y-138500000D01*
X162000000Y-135000000D02*
X162000000Y-138500000D01*
X148000000Y-135000000D02*
X162000000Y-135000000D01*
X148000000Y-138500000D02*
X148000000Y-135000000D01*
X194000000Y-80000000D02*
X200000000Y-80000000D01*
X194000000Y-84500000D02*
X194000000Y-75500000D01*
X200000000Y-84500000D02*
X194000000Y-84500000D01*
X200000000Y-75500000D02*
X200000000Y-84500000D01*
X194000000Y-75500000D02*
X200000000Y-75500000D01*
X201500000Y-55000000D02*
X201500000Y-60500000D01*
X214500000Y-55000000D02*
X201500000Y-55000000D01*
X214500000Y-60500000D02*
X214500000Y-55000000D01*
X201500000Y-60500000D02*
X214500000Y-60500000D01*
X182000000Y-61500000D02*
X182000000Y-56000000D01*
X187500000Y-61500000D02*
X182000000Y-61500000D01*
X187500000Y-56000000D02*
X187500000Y-61500000D01*
X182000000Y-56000000D02*
X187500000Y-56000000D01*
X182000000Y-75500000D02*
X182000000Y-67500000D01*
X187000000Y-75500000D02*
X182000000Y-75500000D01*
X187000000Y-67500000D02*
X187000000Y-75500000D01*
X182000000Y-67500000D02*
X187000000Y-67500000D01*
D11*
X103552142Y-45678571D02*
X103552142Y-44178571D01*
X103695000Y-45107142D02*
X104123571Y-45678571D01*
X104123571Y-44678571D02*
X103552142Y-45250000D01*
X104766428Y-45678571D02*
X104766428Y-44678571D01*
X104766428Y-44178571D02*
X104695000Y-44250000D01*
X104766428Y-44321428D01*
X104837857Y-44250000D01*
X104766428Y-44178571D01*
X104766428Y-44321428D01*
X106123571Y-44678571D02*
X106123571Y-45678571D01*
X105480714Y-44678571D02*
X105480714Y-45464285D01*
X105552142Y-45607142D01*
X105695000Y-45678571D01*
X105909285Y-45678571D01*
X106052142Y-45607142D01*
X106123571Y-45535714D01*
X89409285Y-45678571D02*
X88909285Y-44964285D01*
X88552142Y-45678571D02*
X88552142Y-44178571D01*
X89123571Y-44178571D01*
X89266428Y-44250000D01*
X89337857Y-44321428D01*
X89409285Y-44464285D01*
X89409285Y-44678571D01*
X89337857Y-44821428D01*
X89266428Y-44892857D01*
X89123571Y-44964285D01*
X88552142Y-44964285D01*
X90052142Y-44892857D02*
X90552142Y-44892857D01*
X90766428Y-45678571D02*
X90052142Y-45678571D01*
X90052142Y-44178571D01*
X90766428Y-44178571D01*
X91195000Y-44178571D02*
X91695000Y-45678571D01*
X92195000Y-44178571D01*
X93766428Y-45250000D02*
X94480714Y-45250000D01*
X93623571Y-45678571D02*
X94123571Y-44178571D01*
X94623571Y-45678571D01*
X74766428Y-45678571D02*
X74623571Y-45607142D01*
X74552142Y-45464285D01*
X74552142Y-44178571D01*
X75337857Y-45678571D02*
X75337857Y-44678571D01*
X75337857Y-44178571D02*
X75266428Y-44250000D01*
X75337857Y-44321428D01*
X75409285Y-44250000D01*
X75337857Y-44178571D01*
X75337857Y-44321428D01*
X76695000Y-44678571D02*
X76695000Y-45892857D01*
X76623571Y-46035714D01*
X76552142Y-46107142D01*
X76409285Y-46178571D01*
X76195000Y-46178571D01*
X76052142Y-46107142D01*
X76695000Y-45607142D02*
X76552142Y-45678571D01*
X76266428Y-45678571D01*
X76123571Y-45607142D01*
X76052142Y-45535714D01*
X75980714Y-45392857D01*
X75980714Y-44964285D01*
X76052142Y-44821428D01*
X76123571Y-44750000D01*
X76266428Y-44678571D01*
X76552142Y-44678571D01*
X76695000Y-44750000D01*
X77409285Y-45678571D02*
X77409285Y-44178571D01*
X78052142Y-45678571D02*
X78052142Y-44892857D01*
X77980714Y-44750000D01*
X77837857Y-44678571D01*
X77623571Y-44678571D01*
X77480714Y-44750000D01*
X77409285Y-44821428D01*
X78552142Y-44678571D02*
X79123571Y-44678571D01*
X78766428Y-44178571D02*
X78766428Y-45464285D01*
X78837857Y-45607142D01*
X78980714Y-45678571D01*
X79123571Y-45678571D01*
X79623571Y-45107142D02*
X80766428Y-45107142D01*
X81480714Y-45678571D02*
X81480714Y-44178571D01*
X81480714Y-44750000D02*
X81623571Y-44678571D01*
X81909285Y-44678571D01*
X82052142Y-44750000D01*
X82123571Y-44821428D01*
X82195000Y-44964285D01*
X82195000Y-45392857D01*
X82123571Y-45535714D01*
X82052142Y-45607142D01*
X81909285Y-45678571D01*
X81623571Y-45678571D01*
X81480714Y-45607142D01*
X83052142Y-45678571D02*
X82909285Y-45607142D01*
X82837857Y-45535714D01*
X82766428Y-45392857D01*
X82766428Y-44964285D01*
X82837857Y-44821428D01*
X82909285Y-44750000D01*
X83052142Y-44678571D01*
X83266428Y-44678571D01*
X83409285Y-44750000D01*
X83480714Y-44821428D01*
X83552142Y-44964285D01*
X83552142Y-45392857D01*
X83480714Y-45535714D01*
X83409285Y-45607142D01*
X83266428Y-45678571D01*
X83052142Y-45678571D01*
X84052142Y-45678571D02*
X84837857Y-44678571D01*
X84052142Y-44678571D02*
X84837857Y-45678571D01*
D12*
X195702380Y-83599404D02*
X194702380Y-83599404D01*
X195416666Y-83266071D01*
X194702380Y-82932738D01*
X195702380Y-82932738D01*
X194702380Y-82266071D02*
X194702380Y-82075595D01*
X194750000Y-81980357D01*
X194845238Y-81885119D01*
X195035714Y-81837500D01*
X195369047Y-81837500D01*
X195559523Y-81885119D01*
X195654761Y-81980357D01*
X195702380Y-82075595D01*
X195702380Y-82266071D01*
X195654761Y-82361309D01*
X195559523Y-82456547D01*
X195369047Y-82504166D01*
X195035714Y-82504166D01*
X194845238Y-82456547D01*
X194750000Y-82361309D01*
X194702380Y-82266071D01*
X195654761Y-81456547D02*
X195702380Y-81313690D01*
X195702380Y-81075595D01*
X195654761Y-80980357D01*
X195607142Y-80932738D01*
X195511904Y-80885119D01*
X195416666Y-80885119D01*
X195321428Y-80932738D01*
X195273809Y-80980357D01*
X195226190Y-81075595D01*
X195178571Y-81266071D01*
X195130952Y-81361309D01*
X195083333Y-81408928D01*
X194988095Y-81456547D01*
X194892857Y-81456547D01*
X194797619Y-81408928D01*
X194750000Y-81361309D01*
X194702380Y-81266071D01*
X194702380Y-81027976D01*
X194750000Y-80885119D01*
X195702380Y-80456547D02*
X194702380Y-80456547D01*
X197404761Y-83647023D02*
X197452380Y-83504166D01*
X197452380Y-83266071D01*
X197404761Y-83170833D01*
X197357142Y-83123214D01*
X197261904Y-83075595D01*
X197166666Y-83075595D01*
X197071428Y-83123214D01*
X197023809Y-83170833D01*
X196976190Y-83266071D01*
X196928571Y-83456547D01*
X196880952Y-83551785D01*
X196833333Y-83599404D01*
X196738095Y-83647023D01*
X196642857Y-83647023D01*
X196547619Y-83599404D01*
X196500000Y-83551785D01*
X196452380Y-83456547D01*
X196452380Y-83218452D01*
X196500000Y-83075595D01*
X197357142Y-82075595D02*
X197404761Y-82123214D01*
X197452380Y-82266071D01*
X197452380Y-82361309D01*
X197404761Y-82504166D01*
X197309523Y-82599404D01*
X197214285Y-82647023D01*
X197023809Y-82694642D01*
X196880952Y-82694642D01*
X196690476Y-82647023D01*
X196595238Y-82599404D01*
X196500000Y-82504166D01*
X196452380Y-82361309D01*
X196452380Y-82266071D01*
X196500000Y-82123214D01*
X196547619Y-82075595D01*
X197452380Y-81647023D02*
X196452380Y-81647023D01*
X197452380Y-81075595D02*
X196880952Y-81504166D01*
X196452380Y-81075595D02*
X197023809Y-81647023D01*
X199202380Y-83027976D02*
X198726190Y-83361309D01*
X199202380Y-83599404D02*
X198202380Y-83599404D01*
X198202380Y-83218452D01*
X198250000Y-83123214D01*
X198297619Y-83075595D01*
X198392857Y-83027976D01*
X198535714Y-83027976D01*
X198630952Y-83075595D01*
X198678571Y-83123214D01*
X198726190Y-83218452D01*
X198726190Y-83599404D01*
X198678571Y-82599404D02*
X198678571Y-82266071D01*
X199202380Y-82123214D02*
X199202380Y-82599404D01*
X198202380Y-82599404D01*
X198202380Y-82123214D01*
X199154761Y-81742261D02*
X199202380Y-81599404D01*
X199202380Y-81361309D01*
X199154761Y-81266071D01*
X199107142Y-81218452D01*
X199011904Y-81170833D01*
X198916666Y-81170833D01*
X198821428Y-81218452D01*
X198773809Y-81266071D01*
X198726190Y-81361309D01*
X198678571Y-81551785D01*
X198630952Y-81647023D01*
X198583333Y-81694642D01*
X198488095Y-81742261D01*
X198392857Y-81742261D01*
X198297619Y-81694642D01*
X198250000Y-81647023D01*
X198202380Y-81551785D01*
X198202380Y-81313690D01*
X198250000Y-81170833D01*
X195321428Y-78972023D02*
X195321428Y-78210119D01*
X195702380Y-78591071D02*
X194940476Y-78591071D01*
X194702380Y-77257738D02*
X194702380Y-77733928D01*
X195178571Y-77781547D01*
X195130952Y-77733928D01*
X195083333Y-77638690D01*
X195083333Y-77400595D01*
X195130952Y-77305357D01*
X195178571Y-77257738D01*
X195273809Y-77210119D01*
X195511904Y-77210119D01*
X195607142Y-77257738D01*
X195654761Y-77305357D01*
X195702380Y-77400595D01*
X195702380Y-77638690D01*
X195654761Y-77733928D01*
X195607142Y-77781547D01*
X194702380Y-76924404D02*
X195702380Y-76591071D01*
X194702380Y-76257738D01*
X197452380Y-79543452D02*
X196452380Y-79543452D01*
X197166666Y-79210119D01*
X196452380Y-78876785D01*
X197452380Y-78876785D01*
X197452380Y-78400595D02*
X196452380Y-78400595D01*
X197404761Y-77972023D02*
X197452380Y-77829166D01*
X197452380Y-77591071D01*
X197404761Y-77495833D01*
X197357142Y-77448214D01*
X197261904Y-77400595D01*
X197166666Y-77400595D01*
X197071428Y-77448214D01*
X197023809Y-77495833D01*
X196976190Y-77591071D01*
X196928571Y-77781547D01*
X196880952Y-77876785D01*
X196833333Y-77924404D01*
X196738095Y-77972023D01*
X196642857Y-77972023D01*
X196547619Y-77924404D01*
X196500000Y-77876785D01*
X196452380Y-77781547D01*
X196452380Y-77543452D01*
X196500000Y-77400595D01*
X196452380Y-76781547D02*
X196452380Y-76591071D01*
X196500000Y-76495833D01*
X196595238Y-76400595D01*
X196785714Y-76352976D01*
X197119047Y-76352976D01*
X197309523Y-76400595D01*
X197404761Y-76495833D01*
X197452380Y-76591071D01*
X197452380Y-76781547D01*
X197404761Y-76876785D01*
X197309523Y-76972023D01*
X197119047Y-77019642D01*
X196785714Y-77019642D01*
X196595238Y-76972023D01*
X196500000Y-76876785D01*
X196452380Y-76781547D01*
X198250000Y-78448214D02*
X198202380Y-78543452D01*
X198202380Y-78686309D01*
X198250000Y-78829166D01*
X198345238Y-78924404D01*
X198440476Y-78972023D01*
X198630952Y-79019642D01*
X198773809Y-79019642D01*
X198964285Y-78972023D01*
X199059523Y-78924404D01*
X199154761Y-78829166D01*
X199202380Y-78686309D01*
X199202380Y-78591071D01*
X199154761Y-78448214D01*
X199107142Y-78400595D01*
X198773809Y-78400595D01*
X198773809Y-78591071D01*
X199202380Y-77972023D02*
X198202380Y-77972023D01*
X199202380Y-77400595D01*
X198202380Y-77400595D01*
X199202380Y-76924404D02*
X198202380Y-76924404D01*
X198202380Y-76686309D01*
X198250000Y-76543452D01*
X198345238Y-76448214D01*
X198440476Y-76400595D01*
X198630952Y-76352976D01*
X198773809Y-76352976D01*
X198964285Y-76400595D01*
X199059523Y-76448214D01*
X199154761Y-76543452D01*
X199202380Y-76686309D01*
X199202380Y-76924404D01*
D11*
X203007142Y-59909285D02*
X203007142Y-58766428D01*
X203578571Y-59337857D02*
X202435714Y-59337857D01*
X202078571Y-57337857D02*
X202078571Y-58052142D01*
X202792857Y-58123571D01*
X202721428Y-58052142D01*
X202650000Y-57909285D01*
X202650000Y-57552142D01*
X202721428Y-57409285D01*
X202792857Y-57337857D01*
X202935714Y-57266428D01*
X203292857Y-57266428D01*
X203435714Y-57337857D01*
X203507142Y-57409285D01*
X203578571Y-57552142D01*
X203578571Y-57909285D01*
X203507142Y-58052142D01*
X203435714Y-58123571D01*
X202078571Y-56837857D02*
X203578571Y-56337857D01*
X202078571Y-55837857D01*
X204700000Y-59123571D02*
X204628571Y-59266428D01*
X204628571Y-59480714D01*
X204700000Y-59695000D01*
X204842857Y-59837857D01*
X204985714Y-59909285D01*
X205271428Y-59980714D01*
X205485714Y-59980714D01*
X205771428Y-59909285D01*
X205914285Y-59837857D01*
X206057142Y-59695000D01*
X206128571Y-59480714D01*
X206128571Y-59337857D01*
X206057142Y-59123571D01*
X205985714Y-59052142D01*
X205485714Y-59052142D01*
X205485714Y-59337857D01*
X206128571Y-58409285D02*
X204628571Y-58409285D01*
X206128571Y-57552142D01*
X204628571Y-57552142D01*
X206128571Y-56837857D02*
X204628571Y-56837857D01*
X204628571Y-56480714D01*
X204700000Y-56266428D01*
X204842857Y-56123571D01*
X204985714Y-56052142D01*
X205271428Y-55980714D01*
X205485714Y-55980714D01*
X205771428Y-56052142D01*
X205914285Y-56123571D01*
X206057142Y-56266428D01*
X206128571Y-56480714D01*
X206128571Y-56837857D01*
X208607142Y-59623571D02*
X208678571Y-59409285D01*
X208678571Y-59052142D01*
X208607142Y-58909285D01*
X208535714Y-58837857D01*
X208392857Y-58766428D01*
X208250000Y-58766428D01*
X208107142Y-58837857D01*
X208035714Y-58909285D01*
X207964285Y-59052142D01*
X207892857Y-59337857D01*
X207821428Y-59480714D01*
X207750000Y-59552142D01*
X207607142Y-59623571D01*
X207464285Y-59623571D01*
X207321428Y-59552142D01*
X207250000Y-59480714D01*
X207178571Y-59337857D01*
X207178571Y-58980714D01*
X207250000Y-58766428D01*
X208678571Y-58123571D02*
X207178571Y-58123571D01*
X207178571Y-57766428D01*
X207250000Y-57552142D01*
X207392857Y-57409285D01*
X207535714Y-57337857D01*
X207821428Y-57266428D01*
X208035714Y-57266428D01*
X208321428Y-57337857D01*
X208464285Y-57409285D01*
X208607142Y-57552142D01*
X208678571Y-57766428D01*
X208678571Y-58123571D01*
X208250000Y-56695000D02*
X208250000Y-55980714D01*
X208678571Y-56837857D02*
X207178571Y-56337857D01*
X208678571Y-55837857D01*
X209800000Y-59123571D02*
X209728571Y-59266428D01*
X209728571Y-59480714D01*
X209800000Y-59695000D01*
X209942857Y-59837857D01*
X210085714Y-59909285D01*
X210371428Y-59980714D01*
X210585714Y-59980714D01*
X210871428Y-59909285D01*
X211014285Y-59837857D01*
X211157142Y-59695000D01*
X211228571Y-59480714D01*
X211228571Y-59337857D01*
X211157142Y-59123571D01*
X211085714Y-59052142D01*
X210585714Y-59052142D01*
X210585714Y-59337857D01*
X211228571Y-58409285D02*
X209728571Y-58409285D01*
X211228571Y-57552142D01*
X209728571Y-57552142D01*
X211228571Y-56837857D02*
X209728571Y-56837857D01*
X209728571Y-56480714D01*
X209800000Y-56266428D01*
X209942857Y-56123571D01*
X210085714Y-56052142D01*
X210371428Y-55980714D01*
X210585714Y-55980714D01*
X210871428Y-56052142D01*
X211014285Y-56123571D01*
X211157142Y-56266428D01*
X211228571Y-56480714D01*
X211228571Y-56837857D01*
X213707142Y-59552142D02*
X213778571Y-59337857D01*
X213778571Y-58980714D01*
X213707142Y-58837857D01*
X213635714Y-58766428D01*
X213492857Y-58695000D01*
X213350000Y-58695000D01*
X213207142Y-58766428D01*
X213135714Y-58837857D01*
X213064285Y-58980714D01*
X212992857Y-59266428D01*
X212921428Y-59409285D01*
X212850000Y-59480714D01*
X212707142Y-59552142D01*
X212564285Y-59552142D01*
X212421428Y-59480714D01*
X212350000Y-59409285D01*
X212278571Y-59266428D01*
X212278571Y-58909285D01*
X212350000Y-58695000D01*
X213635714Y-57195000D02*
X213707142Y-57266428D01*
X213778571Y-57480714D01*
X213778571Y-57623571D01*
X213707142Y-57837857D01*
X213564285Y-57980714D01*
X213421428Y-58052142D01*
X213135714Y-58123571D01*
X212921428Y-58123571D01*
X212635714Y-58052142D01*
X212492857Y-57980714D01*
X212350000Y-57837857D01*
X212278571Y-57623571D01*
X212278571Y-57480714D01*
X212350000Y-57266428D01*
X212421428Y-57195000D01*
X213778571Y-55837857D02*
X213778571Y-56552142D01*
X212278571Y-56552142D01*
X185090714Y-69628571D02*
X184590714Y-68914285D01*
X184233571Y-69628571D02*
X184233571Y-68128571D01*
X184805000Y-68128571D01*
X184947857Y-68200000D01*
X185019285Y-68271428D01*
X185090714Y-68414285D01*
X185090714Y-68628571D01*
X185019285Y-68771428D01*
X184947857Y-68842857D01*
X184805000Y-68914285D01*
X184233571Y-68914285D01*
X185590714Y-68128571D02*
X186590714Y-69628571D01*
X186590714Y-68128571D02*
X185590714Y-69628571D01*
X184376428Y-70678571D02*
X185233571Y-70678571D01*
X184805000Y-72178571D02*
X184805000Y-70678571D01*
X185590714Y-70678571D02*
X186590714Y-72178571D01*
X186590714Y-70678571D02*
X185590714Y-72178571D01*
X183376428Y-73300000D02*
X183233571Y-73228571D01*
X183019285Y-73228571D01*
X182805000Y-73300000D01*
X182662142Y-73442857D01*
X182590714Y-73585714D01*
X182519285Y-73871428D01*
X182519285Y-74085714D01*
X182590714Y-74371428D01*
X182662142Y-74514285D01*
X182805000Y-74657142D01*
X183019285Y-74728571D01*
X183162142Y-74728571D01*
X183376428Y-74657142D01*
X183447857Y-74585714D01*
X183447857Y-74085714D01*
X183162142Y-74085714D01*
X184090714Y-74728571D02*
X184090714Y-73228571D01*
X184947857Y-74728571D01*
X184947857Y-73228571D01*
X185662142Y-74728571D02*
X185662142Y-73228571D01*
X186019285Y-73228571D01*
X186233571Y-73300000D01*
X186376428Y-73442857D01*
X186447857Y-73585714D01*
X186519285Y-73871428D01*
X186519285Y-74085714D01*
X186447857Y-74371428D01*
X186376428Y-74514285D01*
X186233571Y-74657142D01*
X186019285Y-74728571D01*
X185662142Y-74728571D01*
X182590714Y-57832142D02*
X183733571Y-57832142D01*
X183162142Y-58403571D02*
X183162142Y-57260714D01*
X185162142Y-56903571D02*
X184447857Y-56903571D01*
X184376428Y-57617857D01*
X184447857Y-57546428D01*
X184590714Y-57475000D01*
X184947857Y-57475000D01*
X185090714Y-57546428D01*
X185162142Y-57617857D01*
X185233571Y-57760714D01*
X185233571Y-58117857D01*
X185162142Y-58260714D01*
X185090714Y-58332142D01*
X184947857Y-58403571D01*
X184590714Y-58403571D01*
X184447857Y-58332142D01*
X184376428Y-58260714D01*
X185662142Y-56903571D02*
X186162142Y-58403571D01*
X186662142Y-56903571D01*
X183376428Y-59525000D02*
X183233571Y-59453571D01*
X183019285Y-59453571D01*
X182805000Y-59525000D01*
X182662142Y-59667857D01*
X182590714Y-59810714D01*
X182519285Y-60096428D01*
X182519285Y-60310714D01*
X182590714Y-60596428D01*
X182662142Y-60739285D01*
X182805000Y-60882142D01*
X183019285Y-60953571D01*
X183162142Y-60953571D01*
X183376428Y-60882142D01*
X183447857Y-60810714D01*
X183447857Y-60310714D01*
X183162142Y-60310714D01*
X184090714Y-60953571D02*
X184090714Y-59453571D01*
X184947857Y-60953571D01*
X184947857Y-59453571D01*
X185662142Y-60953571D02*
X185662142Y-59453571D01*
X186019285Y-59453571D01*
X186233571Y-59525000D01*
X186376428Y-59667857D01*
X186447857Y-59810714D01*
X186519285Y-60096428D01*
X186519285Y-60310714D01*
X186447857Y-60596428D01*
X186376428Y-60739285D01*
X186233571Y-60882142D01*
X186019285Y-60953571D01*
X185662142Y-60953571D01*
D13*
X107000000Y-76000000D02*
X126000000Y-58000000D01*
D14*
X196100000Y-137142857D02*
X197700000Y-137142857D01*
X196900000Y-137904761D02*
X196900000Y-136380952D01*
X199700000Y-135904761D02*
X198700000Y-135904761D01*
X198600000Y-136857142D01*
X198700000Y-136761904D01*
X198900000Y-136666666D01*
X199400000Y-136666666D01*
X199600000Y-136761904D01*
X199700000Y-136857142D01*
X199800000Y-137047619D01*
X199800000Y-137523809D01*
X199700000Y-137714285D01*
X199600000Y-137809523D01*
X199400000Y-137904761D01*
X198900000Y-137904761D01*
X198700000Y-137809523D01*
X198600000Y-137714285D01*
X200400000Y-135904761D02*
X201100000Y-137904761D01*
X201800000Y-135904761D01*
X204100000Y-137904761D02*
X204100000Y-135904761D01*
X204600000Y-135904761D01*
X204900000Y-136000000D01*
X205100000Y-136190476D01*
X205200000Y-136380952D01*
X205300000Y-136761904D01*
X205300000Y-137047619D01*
X205200000Y-137428571D01*
X205100000Y-137619047D01*
X204900000Y-137809523D01*
X204600000Y-137904761D01*
X204100000Y-137904761D01*
X209000000Y-137714285D02*
X208900000Y-137809523D01*
X208600000Y-137904761D01*
X208400000Y-137904761D01*
X208100000Y-137809523D01*
X207900000Y-137619047D01*
X207800000Y-137428571D01*
X207700000Y-137047619D01*
X207700000Y-136761904D01*
X207800000Y-136380952D01*
X207900000Y-136190476D01*
X208100000Y-136000000D01*
X208400000Y-135904761D01*
X208600000Y-135904761D01*
X208900000Y-136000000D01*
X209000000Y-136095238D01*
X212600000Y-136000000D02*
X212400000Y-135904761D01*
X212100000Y-135904761D01*
X211800000Y-136000000D01*
X211600000Y-136190476D01*
X211500000Y-136380952D01*
X211400000Y-136761904D01*
X211400000Y-137047619D01*
X211500000Y-137428571D01*
X211600000Y-137619047D01*
X211800000Y-137809523D01*
X212100000Y-137904761D01*
X212300000Y-137904761D01*
X212600000Y-137809523D01*
X212700000Y-137714285D01*
X212700000Y-137047619D01*
X212300000Y-137047619D01*
X213600000Y-137904761D02*
X213600000Y-135904761D01*
X214800000Y-137904761D01*
X214800000Y-135904761D01*
X215800000Y-137904761D02*
X215800000Y-135904761D01*
X216300000Y-135904761D01*
X216600000Y-136000000D01*
X216800000Y-136190476D01*
X216900000Y-136380952D01*
X217000000Y-136761904D01*
X217000000Y-137047619D01*
X216900000Y-137428571D01*
X216800000Y-137619047D01*
X216600000Y-137809523D01*
X216300000Y-137904761D01*
X215800000Y-137904761D01*
D13*
X191000000Y-98000000D02*
X191000000Y-139000000D01*
X126000000Y-58000000D02*
X126000000Y-41000000D01*
X107000000Y-98000000D02*
X107000000Y-76000000D01*
X191000000Y-98000000D02*
X107000000Y-98000000D01*
D15*
X169285714Y-137904761D02*
X169285714Y-135904761D01*
X171000000Y-137904761D01*
X171000000Y-135904761D01*
X174714285Y-136857142D02*
X175714285Y-136857142D01*
X176142857Y-137904761D02*
X174714285Y-137904761D01*
X174714285Y-135904761D01*
X176142857Y-135904761D01*
X181142857Y-137904761D02*
X179714285Y-137904761D01*
X179714285Y-135904761D01*
X149285714Y-137904761D02*
X149285714Y-135904761D01*
X151000000Y-137904761D01*
X151000000Y-135904761D01*
X154714285Y-136857142D02*
X155714285Y-136857142D01*
X156142857Y-137904761D02*
X154714285Y-137904761D01*
X154714285Y-135904761D01*
X156142857Y-135904761D01*
X161142857Y-137904761D02*
X159714285Y-137904761D01*
X159714285Y-135904761D01*
X129285714Y-137904761D02*
X129285714Y-135904761D01*
X131000000Y-137904761D01*
X131000000Y-135904761D01*
X134714285Y-136857142D02*
X135714285Y-136857142D01*
X136142857Y-137904761D02*
X134714285Y-137904761D01*
X134714285Y-135904761D01*
X136142857Y-135904761D01*
X141142857Y-137904761D02*
X139714285Y-137904761D01*
X139714285Y-135904761D01*
X109285714Y-137904761D02*
X109285714Y-135904761D01*
X111000000Y-137904761D01*
X111000000Y-135904761D01*
X114714285Y-136857142D02*
X115714285Y-136857142D01*
X116142857Y-137904761D02*
X114714285Y-137904761D01*
X114714285Y-135904761D01*
X116142857Y-135904761D01*
X121142857Y-137904761D02*
X119714285Y-137904761D01*
X119714285Y-135904761D01*
X77285714Y-137904761D02*
X77285714Y-135904761D01*
X79000000Y-137904761D01*
X79000000Y-135904761D01*
X82714285Y-136857142D02*
X83714285Y-136857142D01*
X84142857Y-137904761D02*
X82714285Y-137904761D01*
X82714285Y-135904761D01*
X84142857Y-135904761D01*
X89142857Y-137904761D02*
X87714285Y-137904761D01*
X87714285Y-135904761D01*
D16*
X92571428Y-118571428D02*
X93047619Y-118095238D01*
X93523809Y-118571428D01*
X93047619Y-119047619D01*
X92571428Y-118571428D01*
X93523809Y-118571428D01*
X89714285Y-118571428D02*
X84000000Y-119047619D01*
X83523809Y-118571428D01*
X84000000Y-118095238D01*
X89714285Y-118571428D01*
X83523809Y-118571428D01*
X84476190Y-106666666D02*
X84000000Y-106190476D01*
X83523809Y-105238095D01*
X83523809Y-102857142D01*
X84000000Y-101904761D01*
X84476190Y-101428571D01*
X85428571Y-100952380D01*
X86380952Y-100952380D01*
X87809523Y-101428571D01*
X93523809Y-107142857D01*
X93523809Y-100952380D01*
X83523809Y-97619047D02*
X83523809Y-91428571D01*
X87333333Y-94761904D01*
X87333333Y-93333333D01*
X87809523Y-92380952D01*
X88285714Y-91904761D01*
X89238095Y-91428571D01*
X91619047Y-91428571D01*
X92571428Y-91904761D01*
X93047619Y-92380952D01*
X93523809Y-93333333D01*
X93523809Y-96190476D01*
X93047619Y-97142857D01*
X92571428Y-97619047D01*
X83523809Y-85238095D02*
X83523809Y-84285714D01*
X84000000Y-83333333D01*
X84476190Y-82857142D01*
X85428571Y-82380952D01*
X87333333Y-81904761D01*
X89714285Y-81904761D01*
X91619047Y-82380952D01*
X92571428Y-82857142D01*
X93047619Y-83333333D01*
X93523809Y-84285714D01*
X93523809Y-85238095D01*
X93047619Y-86190476D01*
X92571428Y-86666666D01*
X91619047Y-87142857D01*
X89714285Y-87619047D01*
X87333333Y-87619047D01*
X85428571Y-87142857D01*
X84476190Y-86666666D01*
X84000000Y-86190476D01*
X83523809Y-85238095D01*
X83523809Y-79047619D02*
X93523809Y-75714285D01*
X83523809Y-72380952D01*
X92571428Y-61428571D02*
X93047619Y-60952380D01*
X93523809Y-61428571D01*
X93047619Y-61904761D01*
X92571428Y-61428571D01*
X93523809Y-61428571D01*
X89714285Y-61428571D02*
X84000000Y-61904761D01*
X83523809Y-61428571D01*
X84000000Y-60952380D01*
X89714285Y-61428571D01*
X83523809Y-61428571D01*
D10*
G04 #@! TO.C,C2*
X208850000Y-69500000D02*
X208850000Y-68500000D01*
X207150000Y-68500000D02*
X207150000Y-69500000D01*
G04 #@! TO.C,D1*
X110000000Y-88250000D02*
X113200000Y-88250000D01*
X113200000Y-89750000D02*
X110000000Y-89750000D01*
X113200000Y-89750000D02*
X113200000Y-88250000D01*
G04 #@! TO.C,D2*
X132700000Y-89750000D02*
X132700000Y-88250000D01*
X132700000Y-89750000D02*
X129500000Y-89750000D01*
X129500000Y-88250000D02*
X132700000Y-88250000D01*
G04 #@! TO.C,D3*
X152700000Y-89750000D02*
X152700000Y-88250000D01*
X152700000Y-89750000D02*
X149500000Y-89750000D01*
X149500000Y-88250000D02*
X152700000Y-88250000D01*
G04 #@! TO.C,D4*
X169500000Y-88250000D02*
X172700000Y-88250000D01*
X172700000Y-89750000D02*
X169500000Y-89750000D01*
X172700000Y-89750000D02*
X172700000Y-88250000D01*
G04 #@! TO.C,D5*
X202000000Y-88250000D02*
X205200000Y-88250000D01*
X205200000Y-89750000D02*
X202000000Y-89750000D01*
X205200000Y-89750000D02*
X205200000Y-88250000D01*
G04 #@! TO.C,J230V1*
X75460000Y-133810000D02*
X90700000Y-133810000D01*
X75460000Y-126190000D02*
X90700000Y-126190000D01*
X75460000Y-132540000D02*
X90700000Y-132540000D01*
X90700000Y-133810000D02*
X90700000Y-126190000D01*
X75460000Y-133810000D02*
X75460000Y-126190000D01*
G04 #@! TO.C,JBUS1*
X214490000Y-53330000D02*
X214490000Y-48130000D01*
X204270000Y-53330000D02*
X214490000Y-53330000D01*
X201670000Y-48130000D02*
X214490000Y-48130000D01*
X204270000Y-53330000D02*
X204270000Y-50730000D01*
X204270000Y-50730000D02*
X201670000Y-50730000D01*
X201670000Y-50730000D02*
X201670000Y-48130000D01*
X203000000Y-53330000D02*
X201670000Y-53330000D01*
X201670000Y-53330000D02*
X201670000Y-52000000D01*
G04 #@! TO.C,JDBG1*
X189670000Y-75410000D02*
X192330000Y-75410000D01*
X189670000Y-70270000D02*
X189670000Y-75410000D01*
X192330000Y-70270000D02*
X192330000Y-75410000D01*
X189670000Y-70270000D02*
X192330000Y-70270000D01*
X189670000Y-69000000D02*
X189670000Y-67670000D01*
X189670000Y-67670000D02*
X191000000Y-67670000D01*
G04 #@! TO.C,JISP1*
X211410000Y-82330000D02*
X211410000Y-77130000D01*
X206270000Y-82330000D02*
X211410000Y-82330000D01*
X203670000Y-77130000D02*
X211410000Y-77130000D01*
X206270000Y-82330000D02*
X206270000Y-79730000D01*
X206270000Y-79730000D02*
X203670000Y-79730000D01*
X203670000Y-79730000D02*
X203670000Y-77130000D01*
X205000000Y-82330000D02*
X203670000Y-82330000D01*
X203670000Y-82330000D02*
X203670000Y-81000000D01*
G04 #@! TO.C,JPWR1*
X189670000Y-61870000D02*
X192330000Y-61870000D01*
X189670000Y-59270000D02*
X189670000Y-61870000D01*
X192330000Y-59270000D02*
X192330000Y-61870000D01*
X189670000Y-59270000D02*
X192330000Y-59270000D01*
X189670000Y-58000000D02*
X189670000Y-56670000D01*
X189670000Y-56670000D02*
X191000000Y-56670000D01*
G04 #@! TO.C,JRL1*
X107460000Y-133810000D02*
X122700000Y-133810000D01*
X107460000Y-126190000D02*
X122700000Y-126190000D01*
X107460000Y-132540000D02*
X122700000Y-132540000D01*
X122700000Y-133810000D02*
X122700000Y-126190000D01*
X107460000Y-133810000D02*
X107460000Y-126190000D01*
G04 #@! TO.C,JRL2*
X127380000Y-133810000D02*
X127380000Y-126190000D01*
X142620000Y-133810000D02*
X142620000Y-126190000D01*
X127380000Y-132540000D02*
X142620000Y-132540000D01*
X127380000Y-126190000D02*
X142620000Y-126190000D01*
X127380000Y-133810000D02*
X142620000Y-133810000D01*
G04 #@! TO.C,JRL3*
X147460000Y-133810000D02*
X147460000Y-126190000D01*
X162700000Y-133810000D02*
X162700000Y-126190000D01*
X147460000Y-132540000D02*
X162700000Y-132540000D01*
X147460000Y-126190000D02*
X162700000Y-126190000D01*
X147460000Y-133810000D02*
X162700000Y-133810000D01*
G04 #@! TO.C,JRL4*
X167460000Y-133810000D02*
X167460000Y-126190000D01*
X182700000Y-133810000D02*
X182700000Y-126190000D01*
X167460000Y-132540000D02*
X182700000Y-132540000D01*
X167460000Y-126190000D02*
X182700000Y-126190000D01*
X167460000Y-133810000D02*
X182700000Y-133810000D01*
G04 #@! TO.C,JRL5*
X196460000Y-126190000D02*
X196460000Y-133810000D01*
X216780000Y-133810000D02*
X216780000Y-126190000D01*
X216780000Y-132540000D02*
X196460000Y-132540000D01*
X196460000Y-126190000D02*
X216780000Y-126190000D01*
X196460000Y-133810000D02*
X216780000Y-133810000D01*
G04 #@! TO.C,R1*
X118900000Y-88120000D02*
X120100000Y-88120000D01*
X120100000Y-89880000D02*
X118900000Y-89880000D01*
G04 #@! TO.C,R2*
X138400000Y-88120000D02*
X139600000Y-88120000D01*
X139600000Y-89880000D02*
X138400000Y-89880000D01*
G04 #@! TO.C,R3*
X158400000Y-88120000D02*
X159600000Y-88120000D01*
X159600000Y-89880000D02*
X158400000Y-89880000D01*
G04 #@! TO.C,R4*
X178400000Y-88120000D02*
X179600000Y-88120000D01*
X179600000Y-89880000D02*
X178400000Y-89880000D01*
G04 #@! TO.C,R5*
X211600000Y-89880000D02*
X210400000Y-89880000D01*
X210400000Y-88120000D02*
X211600000Y-88120000D01*
G04 #@! TO.C,R6*
X212120000Y-69600000D02*
X212120000Y-68400000D01*
X213880000Y-68400000D02*
X213880000Y-69600000D01*
G04 #@! TO.C,R7*
X213880000Y-62400000D02*
X213880000Y-63600000D01*
X212120000Y-63600000D02*
X212120000Y-62400000D01*
G04 #@! TO.C,R8*
X208880000Y-62400000D02*
X208880000Y-63600000D01*
X207120000Y-63600000D02*
X207120000Y-62400000D01*
G04 #@! TO.C,PS1*
X110000000Y-44500000D02*
X110000000Y-83500000D01*
X179500000Y-44500000D02*
X179500000Y-83500000D01*
D17*
X110000000Y-83500000D02*
X179500000Y-83500000D01*
X110000000Y-44500000D02*
X179500000Y-44500000D01*
D10*
G04 #@! TO.C,RL1*
X115670000Y-94760000D02*
X114970000Y-94760000D01*
X115670000Y-95960000D02*
X115670000Y-94760000D01*
X114970000Y-95960000D02*
X115670000Y-95960000D01*
X114970000Y-94760000D02*
X114970000Y-95960000D01*
X114970000Y-95560000D02*
X115670000Y-95160000D01*
X115670000Y-95390000D02*
X116770000Y-95390000D01*
X114970000Y-95390000D02*
X113870000Y-95390000D01*
X116800000Y-94610000D02*
X116800000Y-93550000D01*
X113800000Y-94610000D02*
X116800000Y-94610000D01*
X113800000Y-93550000D02*
X113800000Y-94590000D01*
X109000000Y-92700000D02*
X121500000Y-92700000D01*
X121500000Y-92700000D02*
X121500000Y-122300000D01*
X109000000Y-122300000D02*
X121500000Y-122300000D01*
X109000000Y-92700000D02*
X109000000Y-122300000D01*
X109990000Y-94700000D02*
X109990000Y-93400000D01*
X109990000Y-93400000D02*
X111200000Y-93400000D01*
G04 #@! TO.C,RL2*
X129490000Y-93400000D02*
X130700000Y-93400000D01*
X129490000Y-94700000D02*
X129490000Y-93400000D01*
X128500000Y-92700000D02*
X128500000Y-122300000D01*
X128500000Y-122300000D02*
X141000000Y-122300000D01*
X141000000Y-92700000D02*
X141000000Y-122300000D01*
X128500000Y-92700000D02*
X141000000Y-92700000D01*
X133300000Y-93550000D02*
X133300000Y-94590000D01*
X133300000Y-94610000D02*
X136300000Y-94610000D01*
X136300000Y-94610000D02*
X136300000Y-93550000D01*
X134470000Y-95390000D02*
X133370000Y-95390000D01*
X135170000Y-95390000D02*
X136270000Y-95390000D01*
X134470000Y-95560000D02*
X135170000Y-95160000D01*
X134470000Y-94760000D02*
X134470000Y-95960000D01*
X134470000Y-95960000D02*
X135170000Y-95960000D01*
X135170000Y-95960000D02*
X135170000Y-94760000D01*
X135170000Y-94760000D02*
X134470000Y-94760000D01*
G04 #@! TO.C,RL3*
X155170000Y-94760000D02*
X154470000Y-94760000D01*
X155170000Y-95960000D02*
X155170000Y-94760000D01*
X154470000Y-95960000D02*
X155170000Y-95960000D01*
X154470000Y-94760000D02*
X154470000Y-95960000D01*
X154470000Y-95560000D02*
X155170000Y-95160000D01*
X155170000Y-95390000D02*
X156270000Y-95390000D01*
X154470000Y-95390000D02*
X153370000Y-95390000D01*
X156300000Y-94610000D02*
X156300000Y-93550000D01*
X153300000Y-94610000D02*
X156300000Y-94610000D01*
X153300000Y-93550000D02*
X153300000Y-94590000D01*
X148500000Y-92700000D02*
X161000000Y-92700000D01*
X161000000Y-92700000D02*
X161000000Y-122300000D01*
X148500000Y-122300000D02*
X161000000Y-122300000D01*
X148500000Y-92700000D02*
X148500000Y-122300000D01*
X149490000Y-94700000D02*
X149490000Y-93400000D01*
X149490000Y-93400000D02*
X150700000Y-93400000D01*
G04 #@! TO.C,RL4*
X169490000Y-93400000D02*
X170700000Y-93400000D01*
X169490000Y-94700000D02*
X169490000Y-93400000D01*
X168500000Y-92700000D02*
X168500000Y-122300000D01*
X168500000Y-122300000D02*
X181000000Y-122300000D01*
X181000000Y-92700000D02*
X181000000Y-122300000D01*
X168500000Y-92700000D02*
X181000000Y-92700000D01*
X173300000Y-93550000D02*
X173300000Y-94590000D01*
X173300000Y-94610000D02*
X176300000Y-94610000D01*
X176300000Y-94610000D02*
X176300000Y-93550000D01*
X174470000Y-95390000D02*
X173370000Y-95390000D01*
X175170000Y-95390000D02*
X176270000Y-95390000D01*
X174470000Y-95560000D02*
X175170000Y-95160000D01*
X174470000Y-94760000D02*
X174470000Y-95960000D01*
X174470000Y-95960000D02*
X175170000Y-95960000D01*
X175170000Y-95960000D02*
X175170000Y-94760000D01*
X175170000Y-94760000D02*
X174470000Y-94760000D01*
G04 #@! TO.C,RL5*
X207170000Y-94760000D02*
X206470000Y-94760000D01*
X207170000Y-95960000D02*
X207170000Y-94760000D01*
X206470000Y-95960000D02*
X207170000Y-95960000D01*
X206470000Y-94760000D02*
X206470000Y-95960000D01*
X206470000Y-95560000D02*
X207170000Y-95160000D01*
X207170000Y-95390000D02*
X208270000Y-95390000D01*
X206470000Y-95390000D02*
X205370000Y-95390000D01*
X208300000Y-94610000D02*
X208300000Y-93550000D01*
X205300000Y-94610000D02*
X208300000Y-94610000D01*
X205300000Y-93550000D02*
X205300000Y-94590000D01*
X200500000Y-92700000D02*
X213000000Y-92700000D01*
X213000000Y-92700000D02*
X213000000Y-122300000D01*
X200500000Y-122300000D02*
X213000000Y-122300000D01*
X200500000Y-92700000D02*
X200500000Y-122300000D01*
X201490000Y-94700000D02*
X201490000Y-93400000D01*
X201490000Y-93400000D02*
X202700000Y-93400000D01*
G04 #@! TO.C,C2*
D17*
X206607142Y-69166666D02*
X206654761Y-69214285D01*
X206702380Y-69357142D01*
X206702380Y-69452380D01*
X206654761Y-69595238D01*
X206559523Y-69690476D01*
X206464285Y-69738095D01*
X206273809Y-69785714D01*
X206130952Y-69785714D01*
X205940476Y-69738095D01*
X205845238Y-69690476D01*
X205750000Y-69595238D01*
X205702380Y-69452380D01*
X205702380Y-69357142D01*
X205750000Y-69214285D01*
X205797619Y-69166666D01*
X205797619Y-68785714D02*
X205750000Y-68738095D01*
X205702380Y-68642857D01*
X205702380Y-68404761D01*
X205750000Y-68309523D01*
X205797619Y-68261904D01*
X205892857Y-68214285D01*
X205988095Y-68214285D01*
X206130952Y-68261904D01*
X206702380Y-68833333D01*
X206702380Y-68214285D01*
G04 #@! TO.C,D1*
X110261904Y-87452380D02*
X110261904Y-86452380D01*
X110500000Y-86452380D01*
X110642857Y-86500000D01*
X110738095Y-86595238D01*
X110785714Y-86690476D01*
X110833333Y-86880952D01*
X110833333Y-87023809D01*
X110785714Y-87214285D01*
X110738095Y-87309523D01*
X110642857Y-87404761D01*
X110500000Y-87452380D01*
X110261904Y-87452380D01*
X111785714Y-87452380D02*
X111214285Y-87452380D01*
X111500000Y-87452380D02*
X111500000Y-86452380D01*
X111404761Y-86595238D01*
X111309523Y-86690476D01*
X111214285Y-86738095D01*
G04 #@! TO.C,D2*
X129761904Y-87452380D02*
X129761904Y-86452380D01*
X130000000Y-86452380D01*
X130142857Y-86500000D01*
X130238095Y-86595238D01*
X130285714Y-86690476D01*
X130333333Y-86880952D01*
X130333333Y-87023809D01*
X130285714Y-87214285D01*
X130238095Y-87309523D01*
X130142857Y-87404761D01*
X130000000Y-87452380D01*
X129761904Y-87452380D01*
X130714285Y-86547619D02*
X130761904Y-86500000D01*
X130857142Y-86452380D01*
X131095238Y-86452380D01*
X131190476Y-86500000D01*
X131238095Y-86547619D01*
X131285714Y-86642857D01*
X131285714Y-86738095D01*
X131238095Y-86880952D01*
X130666666Y-87452380D01*
X131285714Y-87452380D01*
G04 #@! TO.C,D3*
X149761904Y-87452380D02*
X149761904Y-86452380D01*
X150000000Y-86452380D01*
X150142857Y-86500000D01*
X150238095Y-86595238D01*
X150285714Y-86690476D01*
X150333333Y-86880952D01*
X150333333Y-87023809D01*
X150285714Y-87214285D01*
X150238095Y-87309523D01*
X150142857Y-87404761D01*
X150000000Y-87452380D01*
X149761904Y-87452380D01*
X150666666Y-86452380D02*
X151285714Y-86452380D01*
X150952380Y-86833333D01*
X151095238Y-86833333D01*
X151190476Y-86880952D01*
X151238095Y-86928571D01*
X151285714Y-87023809D01*
X151285714Y-87261904D01*
X151238095Y-87357142D01*
X151190476Y-87404761D01*
X151095238Y-87452380D01*
X150809523Y-87452380D01*
X150714285Y-87404761D01*
X150666666Y-87357142D01*
G04 #@! TO.C,D4*
X169761904Y-87452380D02*
X169761904Y-86452380D01*
X170000000Y-86452380D01*
X170142857Y-86500000D01*
X170238095Y-86595238D01*
X170285714Y-86690476D01*
X170333333Y-86880952D01*
X170333333Y-87023809D01*
X170285714Y-87214285D01*
X170238095Y-87309523D01*
X170142857Y-87404761D01*
X170000000Y-87452380D01*
X169761904Y-87452380D01*
X171190476Y-86785714D02*
X171190476Y-87452380D01*
X170952380Y-86404761D02*
X170714285Y-87119047D01*
X171333333Y-87119047D01*
G04 #@! TO.C,D5*
X202261904Y-87452380D02*
X202261904Y-86452380D01*
X202500000Y-86452380D01*
X202642857Y-86500000D01*
X202738095Y-86595238D01*
X202785714Y-86690476D01*
X202833333Y-86880952D01*
X202833333Y-87023809D01*
X202785714Y-87214285D01*
X202738095Y-87309523D01*
X202642857Y-87404761D01*
X202500000Y-87452380D01*
X202261904Y-87452380D01*
X203738095Y-86452380D02*
X203261904Y-86452380D01*
X203214285Y-86928571D01*
X203261904Y-86880952D01*
X203357142Y-86833333D01*
X203595238Y-86833333D01*
X203690476Y-86880952D01*
X203738095Y-86928571D01*
X203785714Y-87023809D01*
X203785714Y-87261904D01*
X203738095Y-87357142D01*
X203690476Y-87404761D01*
X203595238Y-87452380D01*
X203357142Y-87452380D01*
X203261904Y-87404761D01*
X203214285Y-87357142D01*
G04 #@! TO.C,J230V1*
X80859523Y-124802380D02*
X80859523Y-125516666D01*
X80811904Y-125659523D01*
X80716666Y-125754761D01*
X80573809Y-125802380D01*
X80478571Y-125802380D01*
X81288095Y-124897619D02*
X81335714Y-124850000D01*
X81430952Y-124802380D01*
X81669047Y-124802380D01*
X81764285Y-124850000D01*
X81811904Y-124897619D01*
X81859523Y-124992857D01*
X81859523Y-125088095D01*
X81811904Y-125230952D01*
X81240476Y-125802380D01*
X81859523Y-125802380D01*
X82192857Y-124802380D02*
X82811904Y-124802380D01*
X82478571Y-125183333D01*
X82621428Y-125183333D01*
X82716666Y-125230952D01*
X82764285Y-125278571D01*
X82811904Y-125373809D01*
X82811904Y-125611904D01*
X82764285Y-125707142D01*
X82716666Y-125754761D01*
X82621428Y-125802380D01*
X82335714Y-125802380D01*
X82240476Y-125754761D01*
X82192857Y-125707142D01*
X83430952Y-124802380D02*
X83526190Y-124802380D01*
X83621428Y-124850000D01*
X83669047Y-124897619D01*
X83716666Y-124992857D01*
X83764285Y-125183333D01*
X83764285Y-125421428D01*
X83716666Y-125611904D01*
X83669047Y-125707142D01*
X83621428Y-125754761D01*
X83526190Y-125802380D01*
X83430952Y-125802380D01*
X83335714Y-125754761D01*
X83288095Y-125707142D01*
X83240476Y-125611904D01*
X83192857Y-125421428D01*
X83192857Y-125183333D01*
X83240476Y-124992857D01*
X83288095Y-124897619D01*
X83335714Y-124850000D01*
X83430952Y-124802380D01*
X84050000Y-124802380D02*
X84383333Y-125802380D01*
X84716666Y-124802380D01*
X85573809Y-125802380D02*
X85002380Y-125802380D01*
X85288095Y-125802380D02*
X85288095Y-124802380D01*
X85192857Y-124945238D01*
X85097619Y-125040476D01*
X85002380Y-125088095D01*
G04 #@! TO.C,JBUS1*
X200122380Y-52563333D02*
X200836666Y-52563333D01*
X200979523Y-52610952D01*
X201074761Y-52706190D01*
X201122380Y-52849047D01*
X201122380Y-52944285D01*
X200598571Y-51753809D02*
X200646190Y-51610952D01*
X200693809Y-51563333D01*
X200789047Y-51515714D01*
X200931904Y-51515714D01*
X201027142Y-51563333D01*
X201074761Y-51610952D01*
X201122380Y-51706190D01*
X201122380Y-52087142D01*
X200122380Y-52087142D01*
X200122380Y-51753809D01*
X200170000Y-51658571D01*
X200217619Y-51610952D01*
X200312857Y-51563333D01*
X200408095Y-51563333D01*
X200503333Y-51610952D01*
X200550952Y-51658571D01*
X200598571Y-51753809D01*
X200598571Y-52087142D01*
X200122380Y-51087142D02*
X200931904Y-51087142D01*
X201027142Y-51039523D01*
X201074761Y-50991904D01*
X201122380Y-50896666D01*
X201122380Y-50706190D01*
X201074761Y-50610952D01*
X201027142Y-50563333D01*
X200931904Y-50515714D01*
X200122380Y-50515714D01*
X201074761Y-50087142D02*
X201122380Y-49944285D01*
X201122380Y-49706190D01*
X201074761Y-49610952D01*
X201027142Y-49563333D01*
X200931904Y-49515714D01*
X200836666Y-49515714D01*
X200741428Y-49563333D01*
X200693809Y-49610952D01*
X200646190Y-49706190D01*
X200598571Y-49896666D01*
X200550952Y-49991904D01*
X200503333Y-50039523D01*
X200408095Y-50087142D01*
X200312857Y-50087142D01*
X200217619Y-50039523D01*
X200170000Y-49991904D01*
X200122380Y-49896666D01*
X200122380Y-49658571D01*
X200170000Y-49515714D01*
X201122380Y-48563333D02*
X201122380Y-49134761D01*
X201122380Y-48849047D02*
X200122380Y-48849047D01*
X200265238Y-48944285D01*
X200360476Y-49039523D01*
X200408095Y-49134761D01*
G04 #@! TO.C,JDBG1*
X189166666Y-66122380D02*
X189166666Y-66836666D01*
X189119047Y-66979523D01*
X189023809Y-67074761D01*
X188880952Y-67122380D01*
X188785714Y-67122380D01*
X189642857Y-67122380D02*
X189642857Y-66122380D01*
X189880952Y-66122380D01*
X190023809Y-66170000D01*
X190119047Y-66265238D01*
X190166666Y-66360476D01*
X190214285Y-66550952D01*
X190214285Y-66693809D01*
X190166666Y-66884285D01*
X190119047Y-66979523D01*
X190023809Y-67074761D01*
X189880952Y-67122380D01*
X189642857Y-67122380D01*
X190976190Y-66598571D02*
X191119047Y-66646190D01*
X191166666Y-66693809D01*
X191214285Y-66789047D01*
X191214285Y-66931904D01*
X191166666Y-67027142D01*
X191119047Y-67074761D01*
X191023809Y-67122380D01*
X190642857Y-67122380D01*
X190642857Y-66122380D01*
X190976190Y-66122380D01*
X191071428Y-66170000D01*
X191119047Y-66217619D01*
X191166666Y-66312857D01*
X191166666Y-66408095D01*
X191119047Y-66503333D01*
X191071428Y-66550952D01*
X190976190Y-66598571D01*
X190642857Y-66598571D01*
X192166666Y-66170000D02*
X192071428Y-66122380D01*
X191928571Y-66122380D01*
X191785714Y-66170000D01*
X191690476Y-66265238D01*
X191642857Y-66360476D01*
X191595238Y-66550952D01*
X191595238Y-66693809D01*
X191642857Y-66884285D01*
X191690476Y-66979523D01*
X191785714Y-67074761D01*
X191928571Y-67122380D01*
X192023809Y-67122380D01*
X192166666Y-67074761D01*
X192214285Y-67027142D01*
X192214285Y-66693809D01*
X192023809Y-66693809D01*
X193166666Y-67122380D02*
X192595238Y-67122380D01*
X192880952Y-67122380D02*
X192880952Y-66122380D01*
X192785714Y-66265238D01*
X192690476Y-66360476D01*
X192595238Y-66408095D01*
G04 #@! TO.C,JISP1*
X202122380Y-81277619D02*
X202836666Y-81277619D01*
X202979523Y-81325238D01*
X203074761Y-81420476D01*
X203122380Y-81563333D01*
X203122380Y-81658571D01*
X203122380Y-80801428D02*
X202122380Y-80801428D01*
X203074761Y-80372857D02*
X203122380Y-80230000D01*
X203122380Y-79991904D01*
X203074761Y-79896666D01*
X203027142Y-79849047D01*
X202931904Y-79801428D01*
X202836666Y-79801428D01*
X202741428Y-79849047D01*
X202693809Y-79896666D01*
X202646190Y-79991904D01*
X202598571Y-80182380D01*
X202550952Y-80277619D01*
X202503333Y-80325238D01*
X202408095Y-80372857D01*
X202312857Y-80372857D01*
X202217619Y-80325238D01*
X202170000Y-80277619D01*
X202122380Y-80182380D01*
X202122380Y-79944285D01*
X202170000Y-79801428D01*
X203122380Y-79372857D02*
X202122380Y-79372857D01*
X202122380Y-78991904D01*
X202170000Y-78896666D01*
X202217619Y-78849047D01*
X202312857Y-78801428D01*
X202455714Y-78801428D01*
X202550952Y-78849047D01*
X202598571Y-78896666D01*
X202646190Y-78991904D01*
X202646190Y-79372857D01*
X203122380Y-77849047D02*
X203122380Y-78420476D01*
X203122380Y-78134761D02*
X202122380Y-78134761D01*
X202265238Y-78230000D01*
X202360476Y-78325238D01*
X202408095Y-78420476D01*
G04 #@! TO.C,JPWR1*
X189095238Y-55122380D02*
X189095238Y-55836666D01*
X189047619Y-55979523D01*
X188952380Y-56074761D01*
X188809523Y-56122380D01*
X188714285Y-56122380D01*
X189571428Y-56122380D02*
X189571428Y-55122380D01*
X189952380Y-55122380D01*
X190047619Y-55170000D01*
X190095238Y-55217619D01*
X190142857Y-55312857D01*
X190142857Y-55455714D01*
X190095238Y-55550952D01*
X190047619Y-55598571D01*
X189952380Y-55646190D01*
X189571428Y-55646190D01*
X190476190Y-55122380D02*
X190714285Y-56122380D01*
X190904761Y-55408095D01*
X191095238Y-56122380D01*
X191333333Y-55122380D01*
X192285714Y-56122380D02*
X191952380Y-55646190D01*
X191714285Y-56122380D02*
X191714285Y-55122380D01*
X192095238Y-55122380D01*
X192190476Y-55170000D01*
X192238095Y-55217619D01*
X192285714Y-55312857D01*
X192285714Y-55455714D01*
X192238095Y-55550952D01*
X192190476Y-55598571D01*
X192095238Y-55646190D01*
X191714285Y-55646190D01*
X193238095Y-56122380D02*
X192666666Y-56122380D01*
X192952380Y-56122380D02*
X192952380Y-55122380D01*
X192857142Y-55265238D01*
X192761904Y-55360476D01*
X192666666Y-55408095D01*
G04 #@! TO.C,JRL1*
X113811904Y-124802380D02*
X113811904Y-125516666D01*
X113764285Y-125659523D01*
X113669047Y-125754761D01*
X113526190Y-125802380D01*
X113430952Y-125802380D01*
X114859523Y-125802380D02*
X114526190Y-125326190D01*
X114288095Y-125802380D02*
X114288095Y-124802380D01*
X114669047Y-124802380D01*
X114764285Y-124850000D01*
X114811904Y-124897619D01*
X114859523Y-124992857D01*
X114859523Y-125135714D01*
X114811904Y-125230952D01*
X114764285Y-125278571D01*
X114669047Y-125326190D01*
X114288095Y-125326190D01*
X115764285Y-125802380D02*
X115288095Y-125802380D01*
X115288095Y-124802380D01*
X116621428Y-125802380D02*
X116050000Y-125802380D01*
X116335714Y-125802380D02*
X116335714Y-124802380D01*
X116240476Y-124945238D01*
X116145238Y-125040476D01*
X116050000Y-125088095D01*
G04 #@! TO.C,JRL2*
X133731904Y-124802380D02*
X133731904Y-125516666D01*
X133684285Y-125659523D01*
X133589047Y-125754761D01*
X133446190Y-125802380D01*
X133350952Y-125802380D01*
X134779523Y-125802380D02*
X134446190Y-125326190D01*
X134208095Y-125802380D02*
X134208095Y-124802380D01*
X134589047Y-124802380D01*
X134684285Y-124850000D01*
X134731904Y-124897619D01*
X134779523Y-124992857D01*
X134779523Y-125135714D01*
X134731904Y-125230952D01*
X134684285Y-125278571D01*
X134589047Y-125326190D01*
X134208095Y-125326190D01*
X135684285Y-125802380D02*
X135208095Y-125802380D01*
X135208095Y-124802380D01*
X135970000Y-124897619D02*
X136017619Y-124850000D01*
X136112857Y-124802380D01*
X136350952Y-124802380D01*
X136446190Y-124850000D01*
X136493809Y-124897619D01*
X136541428Y-124992857D01*
X136541428Y-125088095D01*
X136493809Y-125230952D01*
X135922380Y-125802380D01*
X136541428Y-125802380D01*
G04 #@! TO.C,JRL3*
X153811904Y-124802380D02*
X153811904Y-125516666D01*
X153764285Y-125659523D01*
X153669047Y-125754761D01*
X153526190Y-125802380D01*
X153430952Y-125802380D01*
X154859523Y-125802380D02*
X154526190Y-125326190D01*
X154288095Y-125802380D02*
X154288095Y-124802380D01*
X154669047Y-124802380D01*
X154764285Y-124850000D01*
X154811904Y-124897619D01*
X154859523Y-124992857D01*
X154859523Y-125135714D01*
X154811904Y-125230952D01*
X154764285Y-125278571D01*
X154669047Y-125326190D01*
X154288095Y-125326190D01*
X155764285Y-125802380D02*
X155288095Y-125802380D01*
X155288095Y-124802380D01*
X156002380Y-124802380D02*
X156621428Y-124802380D01*
X156288095Y-125183333D01*
X156430952Y-125183333D01*
X156526190Y-125230952D01*
X156573809Y-125278571D01*
X156621428Y-125373809D01*
X156621428Y-125611904D01*
X156573809Y-125707142D01*
X156526190Y-125754761D01*
X156430952Y-125802380D01*
X156145238Y-125802380D01*
X156050000Y-125754761D01*
X156002380Y-125707142D01*
G04 #@! TO.C,JRL4*
X173811904Y-124802380D02*
X173811904Y-125516666D01*
X173764285Y-125659523D01*
X173669047Y-125754761D01*
X173526190Y-125802380D01*
X173430952Y-125802380D01*
X174859523Y-125802380D02*
X174526190Y-125326190D01*
X174288095Y-125802380D02*
X174288095Y-124802380D01*
X174669047Y-124802380D01*
X174764285Y-124850000D01*
X174811904Y-124897619D01*
X174859523Y-124992857D01*
X174859523Y-125135714D01*
X174811904Y-125230952D01*
X174764285Y-125278571D01*
X174669047Y-125326190D01*
X174288095Y-125326190D01*
X175764285Y-125802380D02*
X175288095Y-125802380D01*
X175288095Y-124802380D01*
X176526190Y-125135714D02*
X176526190Y-125802380D01*
X176288095Y-124754761D02*
X176050000Y-125469047D01*
X176669047Y-125469047D01*
G04 #@! TO.C,JRL5*
X205361904Y-124652380D02*
X205361904Y-125366666D01*
X205314285Y-125509523D01*
X205219047Y-125604761D01*
X205076190Y-125652380D01*
X204980952Y-125652380D01*
X206409523Y-125652380D02*
X206076190Y-125176190D01*
X205838095Y-125652380D02*
X205838095Y-124652380D01*
X206219047Y-124652380D01*
X206314285Y-124700000D01*
X206361904Y-124747619D01*
X206409523Y-124842857D01*
X206409523Y-124985714D01*
X206361904Y-125080952D01*
X206314285Y-125128571D01*
X206219047Y-125176190D01*
X205838095Y-125176190D01*
X207314285Y-125652380D02*
X206838095Y-125652380D01*
X206838095Y-124652380D01*
X208123809Y-124652380D02*
X207647619Y-124652380D01*
X207600000Y-125128571D01*
X207647619Y-125080952D01*
X207742857Y-125033333D01*
X207980952Y-125033333D01*
X208076190Y-125080952D01*
X208123809Y-125128571D01*
X208171428Y-125223809D01*
X208171428Y-125461904D01*
X208123809Y-125557142D01*
X208076190Y-125604761D01*
X207980952Y-125652380D01*
X207742857Y-125652380D01*
X207647619Y-125604761D01*
X207600000Y-125557142D01*
G04 #@! TO.C,R1*
X119333333Y-87752380D02*
X119000000Y-87276190D01*
X118761904Y-87752380D02*
X118761904Y-86752380D01*
X119142857Y-86752380D01*
X119238095Y-86800000D01*
X119285714Y-86847619D01*
X119333333Y-86942857D01*
X119333333Y-87085714D01*
X119285714Y-87180952D01*
X119238095Y-87228571D01*
X119142857Y-87276190D01*
X118761904Y-87276190D01*
X120285714Y-87752380D02*
X119714285Y-87752380D01*
X120000000Y-87752380D02*
X120000000Y-86752380D01*
X119904761Y-86895238D01*
X119809523Y-86990476D01*
X119714285Y-87038095D01*
G04 #@! TO.C,R2*
X138833333Y-87752380D02*
X138500000Y-87276190D01*
X138261904Y-87752380D02*
X138261904Y-86752380D01*
X138642857Y-86752380D01*
X138738095Y-86800000D01*
X138785714Y-86847619D01*
X138833333Y-86942857D01*
X138833333Y-87085714D01*
X138785714Y-87180952D01*
X138738095Y-87228571D01*
X138642857Y-87276190D01*
X138261904Y-87276190D01*
X139214285Y-86847619D02*
X139261904Y-86800000D01*
X139357142Y-86752380D01*
X139595238Y-86752380D01*
X139690476Y-86800000D01*
X139738095Y-86847619D01*
X139785714Y-86942857D01*
X139785714Y-87038095D01*
X139738095Y-87180952D01*
X139166666Y-87752380D01*
X139785714Y-87752380D01*
G04 #@! TO.C,R3*
X158833333Y-87752380D02*
X158500000Y-87276190D01*
X158261904Y-87752380D02*
X158261904Y-86752380D01*
X158642857Y-86752380D01*
X158738095Y-86800000D01*
X158785714Y-86847619D01*
X158833333Y-86942857D01*
X158833333Y-87085714D01*
X158785714Y-87180952D01*
X158738095Y-87228571D01*
X158642857Y-87276190D01*
X158261904Y-87276190D01*
X159166666Y-86752380D02*
X159785714Y-86752380D01*
X159452380Y-87133333D01*
X159595238Y-87133333D01*
X159690476Y-87180952D01*
X159738095Y-87228571D01*
X159785714Y-87323809D01*
X159785714Y-87561904D01*
X159738095Y-87657142D01*
X159690476Y-87704761D01*
X159595238Y-87752380D01*
X159309523Y-87752380D01*
X159214285Y-87704761D01*
X159166666Y-87657142D01*
G04 #@! TO.C,R4*
X178833333Y-87752380D02*
X178500000Y-87276190D01*
X178261904Y-87752380D02*
X178261904Y-86752380D01*
X178642857Y-86752380D01*
X178738095Y-86800000D01*
X178785714Y-86847619D01*
X178833333Y-86942857D01*
X178833333Y-87085714D01*
X178785714Y-87180952D01*
X178738095Y-87228571D01*
X178642857Y-87276190D01*
X178261904Y-87276190D01*
X179690476Y-87085714D02*
X179690476Y-87752380D01*
X179452380Y-86704761D02*
X179214285Y-87419047D01*
X179833333Y-87419047D01*
G04 #@! TO.C,R5*
X210833333Y-87752380D02*
X210500000Y-87276190D01*
X210261904Y-87752380D02*
X210261904Y-86752380D01*
X210642857Y-86752380D01*
X210738095Y-86800000D01*
X210785714Y-86847619D01*
X210833333Y-86942857D01*
X210833333Y-87085714D01*
X210785714Y-87180952D01*
X210738095Y-87228571D01*
X210642857Y-87276190D01*
X210261904Y-87276190D01*
X211738095Y-86752380D02*
X211261904Y-86752380D01*
X211214285Y-87228571D01*
X211261904Y-87180952D01*
X211357142Y-87133333D01*
X211595238Y-87133333D01*
X211690476Y-87180952D01*
X211738095Y-87228571D01*
X211785714Y-87323809D01*
X211785714Y-87561904D01*
X211738095Y-87657142D01*
X211690476Y-87704761D01*
X211595238Y-87752380D01*
X211357142Y-87752380D01*
X211261904Y-87704761D01*
X211214285Y-87657142D01*
G04 #@! TO.C,R6*
X211452380Y-69166666D02*
X210976190Y-69500000D01*
X211452380Y-69738095D02*
X210452380Y-69738095D01*
X210452380Y-69357142D01*
X210500000Y-69261904D01*
X210547619Y-69214285D01*
X210642857Y-69166666D01*
X210785714Y-69166666D01*
X210880952Y-69214285D01*
X210928571Y-69261904D01*
X210976190Y-69357142D01*
X210976190Y-69738095D01*
X210452380Y-68309523D02*
X210452380Y-68500000D01*
X210500000Y-68595238D01*
X210547619Y-68642857D01*
X210690476Y-68738095D01*
X210880952Y-68785714D01*
X211261904Y-68785714D01*
X211357142Y-68738095D01*
X211404761Y-68690476D01*
X211452380Y-68595238D01*
X211452380Y-68404761D01*
X211404761Y-68309523D01*
X211357142Y-68261904D01*
X211261904Y-68214285D01*
X211023809Y-68214285D01*
X210928571Y-68261904D01*
X210880952Y-68309523D01*
X210833333Y-68404761D01*
X210833333Y-68595238D01*
X210880952Y-68690476D01*
X210928571Y-68738095D01*
X211023809Y-68785714D01*
G04 #@! TO.C,R7*
X211752380Y-63166666D02*
X211276190Y-63500000D01*
X211752380Y-63738095D02*
X210752380Y-63738095D01*
X210752380Y-63357142D01*
X210800000Y-63261904D01*
X210847619Y-63214285D01*
X210942857Y-63166666D01*
X211085714Y-63166666D01*
X211180952Y-63214285D01*
X211228571Y-63261904D01*
X211276190Y-63357142D01*
X211276190Y-63738095D01*
X210752380Y-62833333D02*
X210752380Y-62166666D01*
X211752380Y-62595238D01*
G04 #@! TO.C,R8*
X206752380Y-63166666D02*
X206276190Y-63500000D01*
X206752380Y-63738095D02*
X205752380Y-63738095D01*
X205752380Y-63357142D01*
X205800000Y-63261904D01*
X205847619Y-63214285D01*
X205942857Y-63166666D01*
X206085714Y-63166666D01*
X206180952Y-63214285D01*
X206228571Y-63261904D01*
X206276190Y-63357142D01*
X206276190Y-63738095D01*
X206180952Y-62595238D02*
X206133333Y-62690476D01*
X206085714Y-62738095D01*
X205990476Y-62785714D01*
X205942857Y-62785714D01*
X205847619Y-62738095D01*
X205800000Y-62690476D01*
X205752380Y-62595238D01*
X205752380Y-62404761D01*
X205800000Y-62309523D01*
X205847619Y-62261904D01*
X205942857Y-62214285D01*
X205990476Y-62214285D01*
X206085714Y-62261904D01*
X206133333Y-62309523D01*
X206180952Y-62404761D01*
X206180952Y-62595238D01*
X206228571Y-62690476D01*
X206276190Y-62738095D01*
X206371428Y-62785714D01*
X206561904Y-62785714D01*
X206657142Y-62738095D01*
X206704761Y-62690476D01*
X206752380Y-62595238D01*
X206752380Y-62404761D01*
X206704761Y-62309523D01*
X206657142Y-62261904D01*
X206561904Y-62214285D01*
X206371428Y-62214285D01*
X206276190Y-62261904D01*
X206228571Y-62309523D01*
X206180952Y-62404761D01*
G04 #@! TO.C,PS1*
X143535714Y-43452380D02*
X143535714Y-42452380D01*
X143916666Y-42452380D01*
X144011904Y-42500000D01*
X144059523Y-42547619D01*
X144107142Y-42642857D01*
X144107142Y-42785714D01*
X144059523Y-42880952D01*
X144011904Y-42928571D01*
X143916666Y-42976190D01*
X143535714Y-42976190D01*
X144488095Y-43404761D02*
X144630952Y-43452380D01*
X144869047Y-43452380D01*
X144964285Y-43404761D01*
X145011904Y-43357142D01*
X145059523Y-43261904D01*
X145059523Y-43166666D01*
X145011904Y-43071428D01*
X144964285Y-43023809D01*
X144869047Y-42976190D01*
X144678571Y-42928571D01*
X144583333Y-42880952D01*
X144535714Y-42833333D01*
X144488095Y-42738095D01*
X144488095Y-42642857D01*
X144535714Y-42547619D01*
X144583333Y-42500000D01*
X144678571Y-42452380D01*
X144916666Y-42452380D01*
X145059523Y-42500000D01*
X146011904Y-43452380D02*
X145440476Y-43452380D01*
X145726190Y-43452380D02*
X145726190Y-42452380D01*
X145630952Y-42595238D01*
X145535714Y-42690476D01*
X145440476Y-42738095D01*
X117287976Y-54047619D02*
X117335595Y-54000000D01*
X117430833Y-53952380D01*
X117668928Y-53952380D01*
X117764166Y-54000000D01*
X117811785Y-54047619D01*
X117859404Y-54142857D01*
X117859404Y-54238095D01*
X117811785Y-54380952D01*
X117240357Y-54952380D01*
X117859404Y-54952380D01*
X118192738Y-53952380D02*
X118811785Y-53952380D01*
X118478452Y-54333333D01*
X118621309Y-54333333D01*
X118716547Y-54380952D01*
X118764166Y-54428571D01*
X118811785Y-54523809D01*
X118811785Y-54761904D01*
X118764166Y-54857142D01*
X118716547Y-54904761D01*
X118621309Y-54952380D01*
X118335595Y-54952380D01*
X118240357Y-54904761D01*
X118192738Y-54857142D01*
X119430833Y-53952380D02*
X119526071Y-53952380D01*
X119621309Y-54000000D01*
X119668928Y-54047619D01*
X119716547Y-54142857D01*
X119764166Y-54333333D01*
X119764166Y-54571428D01*
X119716547Y-54761904D01*
X119668928Y-54857142D01*
X119621309Y-54904761D01*
X119526071Y-54952380D01*
X119430833Y-54952380D01*
X119335595Y-54904761D01*
X119287976Y-54857142D01*
X119240357Y-54761904D01*
X119192738Y-54571428D01*
X119192738Y-54333333D01*
X119240357Y-54142857D01*
X119287976Y-54047619D01*
X119335595Y-54000000D01*
X119430833Y-53952380D01*
X120049880Y-53952380D02*
X120383214Y-54952380D01*
X120716547Y-53952380D01*
X121764166Y-53904761D02*
X120907023Y-55190476D01*
X122097500Y-54952380D02*
X122097500Y-53952380D01*
X122668928Y-54952380D01*
X122668928Y-53952380D01*
X117287976Y-48547619D02*
X117335595Y-48500000D01*
X117430833Y-48452380D01*
X117668928Y-48452380D01*
X117764166Y-48500000D01*
X117811785Y-48547619D01*
X117859404Y-48642857D01*
X117859404Y-48738095D01*
X117811785Y-48880952D01*
X117240357Y-49452380D01*
X117859404Y-49452380D01*
X118192738Y-48452380D02*
X118811785Y-48452380D01*
X118478452Y-48833333D01*
X118621309Y-48833333D01*
X118716547Y-48880952D01*
X118764166Y-48928571D01*
X118811785Y-49023809D01*
X118811785Y-49261904D01*
X118764166Y-49357142D01*
X118716547Y-49404761D01*
X118621309Y-49452380D01*
X118335595Y-49452380D01*
X118240357Y-49404761D01*
X118192738Y-49357142D01*
X119430833Y-48452380D02*
X119526071Y-48452380D01*
X119621309Y-48500000D01*
X119668928Y-48547619D01*
X119716547Y-48642857D01*
X119764166Y-48833333D01*
X119764166Y-49071428D01*
X119716547Y-49261904D01*
X119668928Y-49357142D01*
X119621309Y-49404761D01*
X119526071Y-49452380D01*
X119430833Y-49452380D01*
X119335595Y-49404761D01*
X119287976Y-49357142D01*
X119240357Y-49261904D01*
X119192738Y-49071428D01*
X119192738Y-48833333D01*
X119240357Y-48642857D01*
X119287976Y-48547619D01*
X119335595Y-48500000D01*
X119430833Y-48452380D01*
X120049880Y-48452380D02*
X120383214Y-49452380D01*
X120716547Y-48452380D01*
X121764166Y-48404761D02*
X120907023Y-49690476D01*
X122573690Y-49452380D02*
X122097500Y-49452380D01*
X122097500Y-48452380D01*
X169092976Y-57571428D02*
X169854880Y-57571428D01*
X169473928Y-57952380D02*
X169473928Y-57190476D01*
X170807261Y-56952380D02*
X170331071Y-56952380D01*
X170283452Y-57428571D01*
X170331071Y-57380952D01*
X170426309Y-57333333D01*
X170664404Y-57333333D01*
X170759642Y-57380952D01*
X170807261Y-57428571D01*
X170854880Y-57523809D01*
X170854880Y-57761904D01*
X170807261Y-57857142D01*
X170759642Y-57904761D01*
X170664404Y-57952380D01*
X170426309Y-57952380D01*
X170331071Y-57904761D01*
X170283452Y-57857142D01*
X171140595Y-56952380D02*
X171473928Y-57952380D01*
X171807261Y-56952380D01*
X169616785Y-48500000D02*
X169521547Y-48452380D01*
X169378690Y-48452380D01*
X169235833Y-48500000D01*
X169140595Y-48595238D01*
X169092976Y-48690476D01*
X169045357Y-48880952D01*
X169045357Y-49023809D01*
X169092976Y-49214285D01*
X169140595Y-49309523D01*
X169235833Y-49404761D01*
X169378690Y-49452380D01*
X169473928Y-49452380D01*
X169616785Y-49404761D01*
X169664404Y-49357142D01*
X169664404Y-49023809D01*
X169473928Y-49023809D01*
X170092976Y-49452380D02*
X170092976Y-48452380D01*
X170664404Y-49452380D01*
X170664404Y-48452380D01*
X171140595Y-49452380D02*
X171140595Y-48452380D01*
X171378690Y-48452380D01*
X171521547Y-48500000D01*
X171616785Y-48595238D01*
X171664404Y-48690476D01*
X171712023Y-48880952D01*
X171712023Y-49023809D01*
X171664404Y-49214285D01*
X171616785Y-49309523D01*
X171521547Y-49404761D01*
X171378690Y-49452380D01*
X171140595Y-49452380D01*
G04 #@! TO.C,RL1*
X114678571Y-92202380D02*
X114345238Y-91726190D01*
X114107142Y-92202380D02*
X114107142Y-91202380D01*
X114488095Y-91202380D01*
X114583333Y-91250000D01*
X114630952Y-91297619D01*
X114678571Y-91392857D01*
X114678571Y-91535714D01*
X114630952Y-91630952D01*
X114583333Y-91678571D01*
X114488095Y-91726190D01*
X114107142Y-91726190D01*
X115583333Y-92202380D02*
X115107142Y-92202380D01*
X115107142Y-91202380D01*
X116440476Y-92202380D02*
X115869047Y-92202380D01*
X116154761Y-92202380D02*
X116154761Y-91202380D01*
X116059523Y-91345238D01*
X115964285Y-91440476D01*
X115869047Y-91488095D01*
G04 #@! TO.C,RL2*
X134178571Y-92202380D02*
X133845238Y-91726190D01*
X133607142Y-92202380D02*
X133607142Y-91202380D01*
X133988095Y-91202380D01*
X134083333Y-91250000D01*
X134130952Y-91297619D01*
X134178571Y-91392857D01*
X134178571Y-91535714D01*
X134130952Y-91630952D01*
X134083333Y-91678571D01*
X133988095Y-91726190D01*
X133607142Y-91726190D01*
X135083333Y-92202380D02*
X134607142Y-92202380D01*
X134607142Y-91202380D01*
X135369047Y-91297619D02*
X135416666Y-91250000D01*
X135511904Y-91202380D01*
X135750000Y-91202380D01*
X135845238Y-91250000D01*
X135892857Y-91297619D01*
X135940476Y-91392857D01*
X135940476Y-91488095D01*
X135892857Y-91630952D01*
X135321428Y-92202380D01*
X135940476Y-92202380D01*
G04 #@! TO.C,RL3*
X154178571Y-92202380D02*
X153845238Y-91726190D01*
X153607142Y-92202380D02*
X153607142Y-91202380D01*
X153988095Y-91202380D01*
X154083333Y-91250000D01*
X154130952Y-91297619D01*
X154178571Y-91392857D01*
X154178571Y-91535714D01*
X154130952Y-91630952D01*
X154083333Y-91678571D01*
X153988095Y-91726190D01*
X153607142Y-91726190D01*
X155083333Y-92202380D02*
X154607142Y-92202380D01*
X154607142Y-91202380D01*
X155321428Y-91202380D02*
X155940476Y-91202380D01*
X155607142Y-91583333D01*
X155750000Y-91583333D01*
X155845238Y-91630952D01*
X155892857Y-91678571D01*
X155940476Y-91773809D01*
X155940476Y-92011904D01*
X155892857Y-92107142D01*
X155845238Y-92154761D01*
X155750000Y-92202380D01*
X155464285Y-92202380D01*
X155369047Y-92154761D01*
X155321428Y-92107142D01*
G04 #@! TO.C,RL4*
X174178571Y-92202380D02*
X173845238Y-91726190D01*
X173607142Y-92202380D02*
X173607142Y-91202380D01*
X173988095Y-91202380D01*
X174083333Y-91250000D01*
X174130952Y-91297619D01*
X174178571Y-91392857D01*
X174178571Y-91535714D01*
X174130952Y-91630952D01*
X174083333Y-91678571D01*
X173988095Y-91726190D01*
X173607142Y-91726190D01*
X175083333Y-92202380D02*
X174607142Y-92202380D01*
X174607142Y-91202380D01*
X175845238Y-91535714D02*
X175845238Y-92202380D01*
X175607142Y-91154761D02*
X175369047Y-91869047D01*
X175988095Y-91869047D01*
G04 #@! TO.C,RL5*
X206178571Y-92202380D02*
X205845238Y-91726190D01*
X205607142Y-92202380D02*
X205607142Y-91202380D01*
X205988095Y-91202380D01*
X206083333Y-91250000D01*
X206130952Y-91297619D01*
X206178571Y-91392857D01*
X206178571Y-91535714D01*
X206130952Y-91630952D01*
X206083333Y-91678571D01*
X205988095Y-91726190D01*
X205607142Y-91726190D01*
X207083333Y-92202380D02*
X206607142Y-92202380D01*
X206607142Y-91202380D01*
X207892857Y-91202380D02*
X207416666Y-91202380D01*
X207369047Y-91678571D01*
X207416666Y-91630952D01*
X207511904Y-91583333D01*
X207750000Y-91583333D01*
X207845238Y-91630952D01*
X207892857Y-91678571D01*
X207940476Y-91773809D01*
X207940476Y-92011904D01*
X207892857Y-92107142D01*
X207845238Y-92154761D01*
X207750000Y-92202380D01*
X207511904Y-92202380D01*
X207416666Y-92154761D01*
X207369047Y-92107142D01*
G04 #@! TD*
M02*
