M48
; DRILL file {KiCad (5.1.8)-1} date 11/20/20 19:23:43
; FORMAT={-:-/ absolute / inch / decimal}
; #@! TF.CreationDate,2020-11-20T19:23:43+01:00
; #@! TF.GenerationSoftware,Kicad,Pcbnew,(5.1.8)-1
; #@! TF.FileFunction,Plated,1,2,PTH
FMAT,2
INCH
T1C0.0157
T2C0.0394
T3C0.0591
T4C0.0598
%
G90
G05
T1
X5.9055Y-2.4016
X5.9055Y-2.5197
X6.1024Y-2.2047
X6.2205Y-2.5984
X6.2992Y-2.5197
X6.811Y-2.5591
X7.2047Y-2.9921
X7.2047Y-3.1102
X7.9528Y-3.3465
T2
X7.5197Y-2.7165
X7.5197Y-2.8165
X7.5197Y-2.9165
X7.9921Y-1.9472
X7.9921Y-2.0472
X8.0921Y-1.9472
X8.0921Y-2.0472
X8.1921Y-1.9472
X8.1921Y-2.0472
X8.2921Y-1.9472
X8.2921Y-2.0472
X8.3921Y-1.9472
X8.3921Y-2.0472
X8.0709Y-3.089
X8.0709Y-3.189
X8.1709Y-3.089
X8.1709Y-3.189
X8.2709Y-3.089
X8.2709Y-3.189
X7.5197Y-2.2835
X7.5197Y-2.3835
T3
X5.9449Y-3.7402
X5.9449Y-4.3307
X5.9449Y-4.5276
X5.9449Y-4.7244
X6.2402Y-3.7402
X6.2402Y-4.3307
X6.2402Y-4.5276
X6.2402Y-4.7244
X6.7323Y-3.7402
X6.7323Y-4.3307
X6.7323Y-4.5276
X6.7323Y-4.7244
X7.0276Y-3.7402
X7.0276Y-4.3307
X7.0276Y-4.5276
X7.0276Y-4.7244
X5.1575Y-3.7402
X5.1575Y-4.3307
X5.1575Y-4.5276
X5.1575Y-4.7244
X5.4528Y-3.7402
X5.4528Y-4.3307
X5.4528Y-4.5276
X5.4528Y-4.7244
X7.9921Y-3.7402
X7.9921Y-4.3307
X7.9921Y-4.5276
X7.9921Y-4.7244
X8.2874Y-3.7402
X8.2874Y-4.3307
X8.2874Y-4.5276
X8.2874Y-4.7244
X4.3898Y-3.7402
X4.3898Y-4.3307
X4.3898Y-4.5276
X4.3898Y-4.7244
X4.685Y-3.7402
X4.685Y-4.3307
X4.685Y-4.5276
X4.685Y-4.7244
X4.4882Y-1.9291
X4.4882Y-2.1457
X6.9094Y-1.9291
X6.9094Y-2.2638
T4
X6.6929Y-5.1181
X6.8929Y-5.1181
X7.0929Y-5.1181
X5.115Y-5.1181
X5.315Y-5.1181
X5.515Y-5.1181
X7.8346Y-5.1181
X8.0346Y-5.1181
X8.2346Y-5.1181
X8.4346Y-5.1181
X3.0709Y-5.1181
X3.2709Y-5.1181
X3.4709Y-5.1181
X4.3307Y-5.1181
X4.5307Y-5.1181
X4.7307Y-5.1181
X5.9055Y-5.1181
X6.1055Y-5.1181
X6.3055Y-5.1181
T0
M30
