G04 #@! TF.GenerationSoftware,KiCad,Pcbnew,(5.1.6)-1*
G04 #@! TF.CreationDate,2020-10-30T20:30:39+01:00*
G04 #@! TF.ProjectId,light-front,6c696768-742d-4667-926f-6e742e6b6963,rev?*
G04 #@! TF.SameCoordinates,Original*
G04 #@! TF.FileFunction,Legend,Top*
G04 #@! TF.FilePolarity,Positive*
%FSLAX46Y46*%
G04 Gerber Fmt 4.6, Leading zero omitted, Abs format (unit mm)*
G04 Created by KiCad (PCBNEW (5.1.6)-1) date 2020-10-30 20:30:39*
%MOMM*%
%LPD*%
G01*
G04 APERTURE LIST*
%ADD10C,0.300000*%
%ADD11C,0.200000*%
G04 APERTURE END LIST*
D10*
X90000000Y-87000000D02*
X116000000Y-87000000D01*
X63000000Y-82000000D02*
X61000000Y-82000000D01*
X90000000Y-98000000D02*
X90000000Y-87000000D01*
X103000000Y-99000000D02*
X115000000Y-99000000D01*
X116000000Y-98000000D02*
X116000000Y-87000000D01*
X91000000Y-99000000D02*
G75*
G02*
X90000000Y-98000000I0J1000000D01*
G01*
X116000000Y-98000000D02*
G75*
G02*
X115000000Y-99000000I-1000000J0D01*
G01*
X103000000Y-99000000D02*
X91000000Y-99000000D01*
X115000000Y-83000000D02*
G75*
G02*
X116000000Y-84000000I0J-1000000D01*
G01*
X116000000Y-87000000D02*
X116000000Y-84000000D01*
X90000000Y-84000000D02*
X90000000Y-87000000D01*
X115000000Y-83000000D02*
X91000000Y-83000000D01*
X90000000Y-84000000D02*
G75*
G02*
X91000000Y-83000000I1000000J0D01*
G01*
X147000000Y-83000000D02*
G75*
G02*
X148000000Y-84000000I0J-1000000D01*
G01*
X122000000Y-84000000D02*
G75*
G02*
X123000000Y-83000000I1000000J0D01*
G01*
X148000000Y-87000000D02*
X148000000Y-84000000D01*
X122000000Y-84000000D02*
X122000000Y-87000000D01*
X147000000Y-83000000D02*
X123000000Y-83000000D01*
X179000000Y-83000000D02*
G75*
G02*
X180000000Y-84000000I0J-1000000D01*
G01*
X154000000Y-84000000D02*
G75*
G02*
X155000000Y-83000000I1000000J0D01*
G01*
X154000000Y-98000000D02*
X154000000Y-87000000D01*
X167000000Y-99000000D02*
X179000000Y-99000000D01*
X180000000Y-98000000D02*
X180000000Y-87000000D01*
X155000000Y-99000000D02*
G75*
G02*
X154000000Y-98000000I0J1000000D01*
G01*
X180000000Y-98000000D02*
G75*
G02*
X179000000Y-99000000I-1000000J0D01*
G01*
X167000000Y-99000000D02*
X155000000Y-99000000D01*
X148000000Y-98000000D02*
G75*
G02*
X147000000Y-99000000I-1000000J0D01*
G01*
X123000000Y-99000000D02*
G75*
G02*
X122000000Y-98000000I0J1000000D01*
G01*
X209000000Y-100000000D02*
X207000000Y-100000000D01*
X207000000Y-82000000D02*
X207000000Y-100000000D01*
X209000000Y-100000000D02*
X209000000Y-82000000D01*
X209000000Y-82000000D02*
X207000000Y-82000000D01*
D11*
X207547619Y-87400000D02*
X208547619Y-87400000D01*
X207833333Y-87866666D01*
X208547619Y-88333333D01*
X207547619Y-88333333D01*
X207833333Y-88933333D02*
X207833333Y-89600000D01*
X207547619Y-88800000D02*
X208547619Y-89266666D01*
X207547619Y-89733333D01*
X207595238Y-90133333D02*
X207547619Y-90333333D01*
X207547619Y-90666666D01*
X207595238Y-90800000D01*
X207642857Y-90866666D01*
X207738095Y-90933333D01*
X207833333Y-90933333D01*
X207928571Y-90866666D01*
X207976190Y-90800000D01*
X208023809Y-90666666D01*
X208071428Y-90400000D01*
X208119047Y-90266666D01*
X208166666Y-90200000D01*
X208261904Y-90133333D01*
X208357142Y-90133333D01*
X208452380Y-90200000D01*
X208500000Y-90266666D01*
X208547619Y-90400000D01*
X208547619Y-90733333D01*
X208500000Y-90933333D01*
X208547619Y-91333333D02*
X208547619Y-92133333D01*
X207547619Y-91733333D02*
X208547619Y-91733333D01*
X208071428Y-92600000D02*
X208071428Y-93066666D01*
X207547619Y-93266666D02*
X207547619Y-92600000D01*
X208547619Y-92600000D01*
X208547619Y-93266666D01*
X207547619Y-94666666D02*
X208023809Y-94200000D01*
X207547619Y-93866666D02*
X208547619Y-93866666D01*
X208547619Y-94400000D01*
X208500000Y-94533333D01*
X208452380Y-94600000D01*
X208357142Y-94666666D01*
X208214285Y-94666666D01*
X208119047Y-94600000D01*
X208071428Y-94533333D01*
X208023809Y-94400000D01*
X208023809Y-93866666D01*
D10*
X63000000Y-100000000D02*
X63000000Y-82000000D01*
X61000000Y-82000000D02*
X61000000Y-100000000D01*
D11*
X62452380Y-94600000D02*
X61452380Y-94600000D01*
X62166666Y-94133333D01*
X61452380Y-93666666D01*
X62452380Y-93666666D01*
X62166666Y-93066666D02*
X62166666Y-92400000D01*
X62452380Y-93200000D02*
X61452380Y-92733333D01*
X62452380Y-92266666D01*
X62404761Y-91866666D02*
X62452380Y-91666666D01*
X62452380Y-91333333D01*
X62404761Y-91200000D01*
X62357142Y-91133333D01*
X62261904Y-91066666D01*
X62166666Y-91066666D01*
X62071428Y-91133333D01*
X62023809Y-91200000D01*
X61976190Y-91333333D01*
X61928571Y-91600000D01*
X61880952Y-91733333D01*
X61833333Y-91800000D01*
X61738095Y-91866666D01*
X61642857Y-91866666D01*
X61547619Y-91800000D01*
X61500000Y-91733333D01*
X61452380Y-91600000D01*
X61452380Y-91266666D01*
X61500000Y-91066666D01*
X61452380Y-90666666D02*
X61452380Y-89866666D01*
X62452380Y-90266666D02*
X61452380Y-90266666D01*
X61928571Y-89400000D02*
X61928571Y-88933333D01*
X62452380Y-88733333D02*
X62452380Y-89400000D01*
X61452380Y-89400000D01*
X61452380Y-88733333D01*
X62452380Y-87333333D02*
X61976190Y-87800000D01*
X62452380Y-88133333D02*
X61452380Y-88133333D01*
X61452380Y-87600000D01*
X61500000Y-87466666D01*
X61547619Y-87400000D01*
X61642857Y-87333333D01*
X61785714Y-87333333D01*
X61880952Y-87400000D01*
X61928571Y-87466666D01*
X61976190Y-87600000D01*
X61976190Y-88133333D01*
D10*
X63000000Y-100000000D02*
X61000000Y-100000000D01*
X122000000Y-85000000D02*
X148000000Y-85000000D01*
X167000000Y-85000000D02*
X167000000Y-99000000D01*
X180000000Y-87000000D02*
X180000000Y-84000000D01*
X135000000Y-99000000D02*
X147000000Y-99000000D01*
X148000000Y-98000000D02*
X148000000Y-87000000D01*
X154000000Y-87000000D02*
X180000000Y-87000000D01*
X154000000Y-84000000D02*
X154000000Y-87000000D01*
X179000000Y-83000000D02*
X155000000Y-83000000D01*
X122000000Y-87000000D02*
X148000000Y-87000000D01*
X135000000Y-99000000D02*
X123000000Y-99000000D01*
X135000000Y-85000000D02*
X135000000Y-99000000D01*
X154000000Y-85000000D02*
X180000000Y-85000000D01*
X122000000Y-98000000D02*
X122000000Y-87000000D01*
D11*
X124466666Y-85452380D02*
X124733333Y-85452380D01*
X124866666Y-85500000D01*
X125000000Y-85595238D01*
X125066666Y-85785714D01*
X125066666Y-86119047D01*
X125000000Y-86309523D01*
X124866666Y-86404761D01*
X124733333Y-86452380D01*
X124466666Y-86452380D01*
X124333333Y-86404761D01*
X124200000Y-86309523D01*
X124133333Y-86119047D01*
X124133333Y-85785714D01*
X124200000Y-85595238D01*
X124333333Y-85500000D01*
X124466666Y-85452380D01*
X125666666Y-86452380D02*
X125666666Y-85452380D01*
X126466666Y-86452380D01*
X126466666Y-85452380D01*
X128133333Y-85404761D02*
X126933333Y-86690476D01*
X128866666Y-85452380D02*
X129133333Y-85452380D01*
X129266666Y-85500000D01*
X129400000Y-85595238D01*
X129466666Y-85785714D01*
X129466666Y-86119047D01*
X129400000Y-86309523D01*
X129266666Y-86404761D01*
X129133333Y-86452380D01*
X128866666Y-86452380D01*
X128733333Y-86404761D01*
X128600000Y-86309523D01*
X128533333Y-86119047D01*
X128533333Y-85785714D01*
X128600000Y-85595238D01*
X128733333Y-85500000D01*
X128866666Y-85452380D01*
X130533333Y-85928571D02*
X130066666Y-85928571D01*
X130066666Y-86452380D02*
X130066666Y-85452380D01*
X130733333Y-85452380D01*
X131733333Y-85928571D02*
X131266666Y-85928571D01*
X131266666Y-86452380D02*
X131266666Y-85452380D01*
X131933333Y-85452380D01*
X132033333Y-83928571D02*
X132233333Y-83976190D01*
X132300000Y-84023809D01*
X132366666Y-84119047D01*
X132366666Y-84261904D01*
X132300000Y-84357142D01*
X132233333Y-84404761D01*
X132100000Y-84452380D01*
X131566666Y-84452380D01*
X131566666Y-83452380D01*
X132033333Y-83452380D01*
X132166666Y-83500000D01*
X132233333Y-83547619D01*
X132300000Y-83642857D01*
X132300000Y-83738095D01*
X132233333Y-83833333D01*
X132166666Y-83880952D01*
X132033333Y-83928571D01*
X131566666Y-83928571D01*
X133766666Y-84452380D02*
X133300000Y-83976190D01*
X132966666Y-84452380D02*
X132966666Y-83452380D01*
X133500000Y-83452380D01*
X133633333Y-83500000D01*
X133700000Y-83547619D01*
X133766666Y-83642857D01*
X133766666Y-83785714D01*
X133700000Y-83880952D01*
X133633333Y-83928571D01*
X133500000Y-83976190D01*
X132966666Y-83976190D01*
X134366666Y-84452380D02*
X134366666Y-83452380D01*
X135033333Y-84452380D02*
X135033333Y-83452380D01*
X135366666Y-83452380D01*
X135566666Y-83500000D01*
X135700000Y-83595238D01*
X135766666Y-83690476D01*
X135833333Y-83880952D01*
X135833333Y-84023809D01*
X135766666Y-84214285D01*
X135700000Y-84309523D01*
X135566666Y-84404761D01*
X135366666Y-84452380D01*
X135033333Y-84452380D01*
X137166666Y-83500000D02*
X137033333Y-83452380D01*
X136833333Y-83452380D01*
X136633333Y-83500000D01*
X136500000Y-83595238D01*
X136433333Y-83690476D01*
X136366666Y-83880952D01*
X136366666Y-84023809D01*
X136433333Y-84214285D01*
X136500000Y-84309523D01*
X136633333Y-84404761D01*
X136833333Y-84452380D01*
X136966666Y-84452380D01*
X137166666Y-84404761D01*
X137233333Y-84357142D01*
X137233333Y-84023809D01*
X136966666Y-84023809D01*
X137833333Y-83928571D02*
X138300000Y-83928571D01*
X138500000Y-84452380D02*
X137833333Y-84452380D01*
X137833333Y-83452380D01*
X138500000Y-83452380D01*
X139466666Y-86452380D02*
X139466666Y-85452380D01*
X139933333Y-86166666D01*
X140400000Y-85452380D01*
X140400000Y-86452380D01*
X141333333Y-85452380D02*
X141600000Y-85452380D01*
X141733333Y-85500000D01*
X141866666Y-85595238D01*
X141933333Y-85785714D01*
X141933333Y-86119047D01*
X141866666Y-86309523D01*
X141733333Y-86404761D01*
X141600000Y-86452380D01*
X141333333Y-86452380D01*
X141200000Y-86404761D01*
X141066666Y-86309523D01*
X141000000Y-86119047D01*
X141000000Y-85785714D01*
X141066666Y-85595238D01*
X141200000Y-85500000D01*
X141333333Y-85452380D01*
X142533333Y-86452380D02*
X142533333Y-85452380D01*
X142866666Y-85452380D01*
X143066666Y-85500000D01*
X143200000Y-85595238D01*
X143266666Y-85690476D01*
X143333333Y-85880952D01*
X143333333Y-86023809D01*
X143266666Y-86214285D01*
X143200000Y-86309523D01*
X143066666Y-86404761D01*
X142866666Y-86452380D01*
X142533333Y-86452380D01*
X143933333Y-85928571D02*
X144400000Y-85928571D01*
X144600000Y-86452380D02*
X143933333Y-86452380D01*
X143933333Y-85452380D01*
X144600000Y-85452380D01*
X172133333Y-86452380D02*
X171666666Y-85976190D01*
X171333333Y-86452380D02*
X171333333Y-85452380D01*
X171866666Y-85452380D01*
X172000000Y-85500000D01*
X172066666Y-85547619D01*
X172133333Y-85642857D01*
X172133333Y-85785714D01*
X172066666Y-85880952D01*
X172000000Y-85928571D01*
X171866666Y-85976190D01*
X171333333Y-85976190D01*
X172733333Y-86452380D02*
X172733333Y-85452380D01*
X174133333Y-85500000D02*
X174000000Y-85452380D01*
X173800000Y-85452380D01*
X173600000Y-85500000D01*
X173466666Y-85595238D01*
X173400000Y-85690476D01*
X173333333Y-85880952D01*
X173333333Y-86023809D01*
X173400000Y-86214285D01*
X173466666Y-86309523D01*
X173600000Y-86404761D01*
X173800000Y-86452380D01*
X173933333Y-86452380D01*
X174133333Y-86404761D01*
X174200000Y-86357142D01*
X174200000Y-86023809D01*
X173933333Y-86023809D01*
X174800000Y-86452380D02*
X174800000Y-85452380D01*
X174800000Y-85928571D02*
X175600000Y-85928571D01*
X175600000Y-86452380D02*
X175600000Y-85452380D01*
X176066666Y-85452380D02*
X176866666Y-85452380D01*
X176466666Y-86452380D02*
X176466666Y-85452380D01*
X158666666Y-86452380D02*
X158000000Y-86452380D01*
X158000000Y-85452380D01*
X159133333Y-85928571D02*
X159600000Y-85928571D01*
X159800000Y-86452380D02*
X159133333Y-86452380D01*
X159133333Y-85452380D01*
X159800000Y-85452380D01*
X160866666Y-85928571D02*
X160400000Y-85928571D01*
X160400000Y-86452380D02*
X160400000Y-85452380D01*
X161066666Y-85452380D01*
X161400000Y-85452380D02*
X162200000Y-85452380D01*
X161800000Y-86452380D02*
X161800000Y-85452380D01*
X164300000Y-83928571D02*
X164500000Y-83976190D01*
X164566666Y-84023809D01*
X164633333Y-84119047D01*
X164633333Y-84261904D01*
X164566666Y-84357142D01*
X164500000Y-84404761D01*
X164366666Y-84452380D01*
X163833333Y-84452380D01*
X163833333Y-83452380D01*
X164300000Y-83452380D01*
X164433333Y-83500000D01*
X164500000Y-83547619D01*
X164566666Y-83642857D01*
X164566666Y-83738095D01*
X164500000Y-83833333D01*
X164433333Y-83880952D01*
X164300000Y-83928571D01*
X163833333Y-83928571D01*
X165233333Y-83928571D02*
X165700000Y-83928571D01*
X165900000Y-84452380D02*
X165233333Y-84452380D01*
X165233333Y-83452380D01*
X165900000Y-83452380D01*
X166500000Y-84452380D02*
X166500000Y-83452380D01*
X167300000Y-84452380D01*
X167300000Y-83452380D01*
X168766666Y-84357142D02*
X168700000Y-84404761D01*
X168500000Y-84452380D01*
X168366666Y-84452380D01*
X168166666Y-84404761D01*
X168033333Y-84309523D01*
X167966666Y-84214285D01*
X167900000Y-84023809D01*
X167900000Y-83880952D01*
X167966666Y-83690476D01*
X168033333Y-83595238D01*
X168166666Y-83500000D01*
X168366666Y-83452380D01*
X168500000Y-83452380D01*
X168700000Y-83500000D01*
X168766666Y-83547619D01*
X169366666Y-84452380D02*
X169366666Y-83452380D01*
X169366666Y-83928571D02*
X170166666Y-83928571D01*
X170166666Y-84452380D02*
X170166666Y-83452380D01*
D10*
X90000000Y-85000000D02*
X116000000Y-85000000D01*
X103000000Y-85000000D02*
X103000000Y-99000000D01*
D11*
X94666666Y-86452380D02*
X94000000Y-86452380D01*
X94000000Y-85452380D01*
X95133333Y-85928571D02*
X95600000Y-85928571D01*
X95800000Y-86452380D02*
X95133333Y-86452380D01*
X95133333Y-85452380D01*
X95800000Y-85452380D01*
X96866666Y-85928571D02*
X96400000Y-85928571D01*
X96400000Y-86452380D02*
X96400000Y-85452380D01*
X97066666Y-85452380D01*
X97400000Y-85452380D02*
X98200000Y-85452380D01*
X97800000Y-86452380D02*
X97800000Y-85452380D01*
X99200000Y-84404761D02*
X99400000Y-84452380D01*
X99733333Y-84452380D01*
X99866666Y-84404761D01*
X99933333Y-84357142D01*
X100000000Y-84261904D01*
X100000000Y-84166666D01*
X99933333Y-84071428D01*
X99866666Y-84023809D01*
X99733333Y-83976190D01*
X99466666Y-83928571D01*
X99333333Y-83880952D01*
X99266666Y-83833333D01*
X99200000Y-83738095D01*
X99200000Y-83642857D01*
X99266666Y-83547619D01*
X99333333Y-83500000D01*
X99466666Y-83452380D01*
X99800000Y-83452380D01*
X100000000Y-83500000D01*
X101400000Y-84357142D02*
X101333333Y-84404761D01*
X101133333Y-84452380D01*
X101000000Y-84452380D01*
X100800000Y-84404761D01*
X100666666Y-84309523D01*
X100600000Y-84214285D01*
X100533333Y-84023809D01*
X100533333Y-83880952D01*
X100600000Y-83690476D01*
X100666666Y-83595238D01*
X100800000Y-83500000D01*
X101000000Y-83452380D01*
X101133333Y-83452380D01*
X101333333Y-83500000D01*
X101400000Y-83547619D01*
X102800000Y-84452380D02*
X102333333Y-83976190D01*
X102000000Y-84452380D02*
X102000000Y-83452380D01*
X102533333Y-83452380D01*
X102666666Y-83500000D01*
X102733333Y-83547619D01*
X102800000Y-83642857D01*
X102800000Y-83785714D01*
X102733333Y-83880952D01*
X102666666Y-83928571D01*
X102533333Y-83976190D01*
X102000000Y-83976190D01*
X103400000Y-83928571D02*
X103866666Y-83928571D01*
X104066666Y-84452380D02*
X103400000Y-84452380D01*
X103400000Y-83452380D01*
X104066666Y-83452380D01*
X104666666Y-83928571D02*
X105133333Y-83928571D01*
X105333333Y-84452380D02*
X104666666Y-84452380D01*
X104666666Y-83452380D01*
X105333333Y-83452380D01*
X105933333Y-84452380D02*
X105933333Y-83452380D01*
X106733333Y-84452380D01*
X106733333Y-83452380D01*
X108133333Y-86452380D02*
X107666666Y-85976190D01*
X107333333Y-86452380D02*
X107333333Y-85452380D01*
X107866666Y-85452380D01*
X108000000Y-85500000D01*
X108066666Y-85547619D01*
X108133333Y-85642857D01*
X108133333Y-85785714D01*
X108066666Y-85880952D01*
X108000000Y-85928571D01*
X107866666Y-85976190D01*
X107333333Y-85976190D01*
X108733333Y-86452380D02*
X108733333Y-85452380D01*
X110133333Y-85500000D02*
X110000000Y-85452380D01*
X109800000Y-85452380D01*
X109600000Y-85500000D01*
X109466666Y-85595238D01*
X109400000Y-85690476D01*
X109333333Y-85880952D01*
X109333333Y-86023809D01*
X109400000Y-86214285D01*
X109466666Y-86309523D01*
X109600000Y-86404761D01*
X109800000Y-86452380D01*
X109933333Y-86452380D01*
X110133333Y-86404761D01*
X110200000Y-86357142D01*
X110200000Y-86023809D01*
X109933333Y-86023809D01*
X110800000Y-86452380D02*
X110800000Y-85452380D01*
X110800000Y-85928571D02*
X111600000Y-85928571D01*
X111600000Y-86452380D02*
X111600000Y-85452380D01*
X112066666Y-85452380D02*
X112866666Y-85452380D01*
X112466666Y-86452380D02*
X112466666Y-85452380D01*
M02*
