G04 #@! TF.GenerationSoftware,KiCad,Pcbnew,(5.1.6)-1*
G04 #@! TF.CreationDate,2020-10-30T20:30:39+01:00*
G04 #@! TF.ProjectId,light-front,6c696768-742d-4667-926f-6e742e6b6963,rev?*
G04 #@! TF.SameCoordinates,Original*
G04 #@! TF.FileFunction,Legend,Bot*
G04 #@! TF.FilePolarity,Positive*
%FSLAX46Y46*%
G04 Gerber Fmt 4.6, Leading zero omitted, Abs format (unit mm)*
G04 Created by KiCad (PCBNEW (5.1.6)-1) date 2020-10-30 20:30:39*
%MOMM*%
%LPD*%
G01*
G04 APERTURE LIST*
%ADD10C,0.150000*%
%ADD11C,0.300000*%
G04 APERTURE END LIST*
D10*
X61452380Y-86380952D02*
X62166666Y-86380952D01*
X62309523Y-86333333D01*
X62404761Y-86238095D01*
X62452380Y-86095238D01*
X62452380Y-86000000D01*
X62452380Y-87333333D02*
X62452380Y-86857142D01*
X61452380Y-86857142D01*
X62357142Y-88238095D02*
X62404761Y-88190476D01*
X62452380Y-88047619D01*
X62452380Y-87952380D01*
X62404761Y-87809523D01*
X62309523Y-87714285D01*
X62214285Y-87666666D01*
X62023809Y-87619047D01*
X61880952Y-87619047D01*
X61690476Y-87666666D01*
X61595238Y-87714285D01*
X61500000Y-87809523D01*
X61452380Y-87952380D01*
X61452380Y-88047619D01*
X61500000Y-88190476D01*
X61547619Y-88238095D01*
X61452380Y-88952380D02*
X62166666Y-88952380D01*
X62309523Y-88904761D01*
X62404761Y-88809523D01*
X62452380Y-88666666D01*
X62452380Y-88571428D01*
X62452380Y-89904761D02*
X62452380Y-89428571D01*
X61452380Y-89428571D01*
X62357142Y-90809523D02*
X62404761Y-90761904D01*
X62452380Y-90619047D01*
X62452380Y-90523809D01*
X62404761Y-90380952D01*
X62309523Y-90285714D01*
X62214285Y-90238095D01*
X62023809Y-90190476D01*
X61880952Y-90190476D01*
X61690476Y-90238095D01*
X61595238Y-90285714D01*
X61500000Y-90380952D01*
X61452380Y-90523809D01*
X61452380Y-90619047D01*
X61500000Y-90761904D01*
X61547619Y-90809523D01*
X61452380Y-91523809D02*
X62166666Y-91523809D01*
X62309523Y-91476190D01*
X62404761Y-91380952D01*
X62452380Y-91238095D01*
X62452380Y-91142857D01*
X62452380Y-92476190D02*
X62452380Y-92000000D01*
X61452380Y-92000000D01*
X62357142Y-93380952D02*
X62404761Y-93333333D01*
X62452380Y-93190476D01*
X62452380Y-93095238D01*
X62404761Y-92952380D01*
X62309523Y-92857142D01*
X62214285Y-92809523D01*
X62023809Y-92761904D01*
X61880952Y-92761904D01*
X61690476Y-92809523D01*
X61595238Y-92857142D01*
X61500000Y-92952380D01*
X61452380Y-93095238D01*
X61452380Y-93190476D01*
X61500000Y-93333333D01*
X61547619Y-93380952D01*
X61452380Y-94095238D02*
X62166666Y-94095238D01*
X62309523Y-94047619D01*
X62404761Y-93952380D01*
X62452380Y-93809523D01*
X62452380Y-93714285D01*
X62452380Y-95047619D02*
X62452380Y-94571428D01*
X61452380Y-94571428D01*
X62357142Y-95952380D02*
X62404761Y-95904761D01*
X62452380Y-95761904D01*
X62452380Y-95666666D01*
X62404761Y-95523809D01*
X62309523Y-95428571D01*
X62214285Y-95380952D01*
X62023809Y-95333333D01*
X61880952Y-95333333D01*
X61690476Y-95380952D01*
X61595238Y-95428571D01*
X61500000Y-95523809D01*
X61452380Y-95666666D01*
X61452380Y-95761904D01*
X61500000Y-95904761D01*
X61547619Y-95952380D01*
D11*
X97285714Y-100678571D02*
X97285714Y-99178571D01*
X97142857Y-100107142D02*
X96714285Y-100678571D01*
X96714285Y-99678571D02*
X97285714Y-100250000D01*
X96071428Y-100678571D02*
X96071428Y-99678571D01*
X96071428Y-99178571D02*
X96142857Y-99250000D01*
X96071428Y-99321428D01*
X96000000Y-99250000D01*
X96071428Y-99178571D01*
X96071428Y-99321428D01*
X94714285Y-99678571D02*
X94714285Y-100678571D01*
X95357142Y-99678571D02*
X95357142Y-100464285D01*
X95285714Y-100607142D01*
X95142857Y-100678571D01*
X94928571Y-100678571D01*
X94785714Y-100607142D01*
X94714285Y-100535714D01*
X162071428Y-100678571D02*
X162571428Y-99964285D01*
X162928571Y-100678571D02*
X162928571Y-99178571D01*
X162357142Y-99178571D01*
X162214285Y-99250000D01*
X162142857Y-99321428D01*
X162071428Y-99464285D01*
X162071428Y-99678571D01*
X162142857Y-99821428D01*
X162214285Y-99892857D01*
X162357142Y-99964285D01*
X162928571Y-99964285D01*
X161428571Y-99892857D02*
X160928571Y-99892857D01*
X160714285Y-100678571D02*
X161428571Y-100678571D01*
X161428571Y-99178571D01*
X160714285Y-99178571D01*
X160285714Y-99178571D02*
X159785714Y-100678571D01*
X159285714Y-99178571D01*
X157714285Y-100250000D02*
X157000000Y-100250000D01*
X157857142Y-100678571D02*
X157357142Y-99178571D01*
X156857142Y-100678571D01*
X179571428Y-100678571D02*
X179714285Y-100607142D01*
X179785714Y-100464285D01*
X179785714Y-99178571D01*
X179000000Y-100678571D02*
X179000000Y-99678571D01*
X179000000Y-99178571D02*
X179071428Y-99250000D01*
X179000000Y-99321428D01*
X178928571Y-99250000D01*
X179000000Y-99178571D01*
X179000000Y-99321428D01*
X177642857Y-99678571D02*
X177642857Y-100892857D01*
X177714285Y-101035714D01*
X177785714Y-101107142D01*
X177928571Y-101178571D01*
X178142857Y-101178571D01*
X178285714Y-101107142D01*
X177642857Y-100607142D02*
X177785714Y-100678571D01*
X178071428Y-100678571D01*
X178214285Y-100607142D01*
X178285714Y-100535714D01*
X178357142Y-100392857D01*
X178357142Y-99964285D01*
X178285714Y-99821428D01*
X178214285Y-99750000D01*
X178071428Y-99678571D01*
X177785714Y-99678571D01*
X177642857Y-99750000D01*
X176928571Y-100678571D02*
X176928571Y-99178571D01*
X176285714Y-100678571D02*
X176285714Y-99892857D01*
X176357142Y-99750000D01*
X176500000Y-99678571D01*
X176714285Y-99678571D01*
X176857142Y-99750000D01*
X176928571Y-99821428D01*
X175785714Y-99678571D02*
X175214285Y-99678571D01*
X175571428Y-99178571D02*
X175571428Y-100464285D01*
X175500000Y-100607142D01*
X175357142Y-100678571D01*
X175214285Y-100678571D01*
X174714285Y-100107142D02*
X173571428Y-100107142D01*
X173071428Y-99678571D02*
X172500000Y-99678571D01*
X172857142Y-100678571D02*
X172857142Y-99392857D01*
X172785714Y-99250000D01*
X172642857Y-99178571D01*
X172500000Y-99178571D01*
X172000000Y-100678571D02*
X172000000Y-99678571D01*
X172000000Y-99964285D02*
X171928571Y-99821428D01*
X171857142Y-99750000D01*
X171714285Y-99678571D01*
X171571428Y-99678571D01*
X170857142Y-100678571D02*
X171000000Y-100607142D01*
X171071428Y-100535714D01*
X171142857Y-100392857D01*
X171142857Y-99964285D01*
X171071428Y-99821428D01*
X171000000Y-99750000D01*
X170857142Y-99678571D01*
X170642857Y-99678571D01*
X170500000Y-99750000D01*
X170428571Y-99821428D01*
X170357142Y-99964285D01*
X170357142Y-100392857D01*
X170428571Y-100535714D01*
X170500000Y-100607142D01*
X170642857Y-100678571D01*
X170857142Y-100678571D01*
X169714285Y-99678571D02*
X169714285Y-100678571D01*
X169714285Y-99821428D02*
X169642857Y-99750000D01*
X169500000Y-99678571D01*
X169285714Y-99678571D01*
X169142857Y-99750000D01*
X169071428Y-99892857D01*
X169071428Y-100678571D01*
X168571428Y-99678571D02*
X168000000Y-99678571D01*
X168357142Y-99178571D02*
X168357142Y-100464285D01*
X168285714Y-100607142D01*
X168142857Y-100678571D01*
X168000000Y-100678571D01*
M02*
