G04 #@! TF.GenerationSoftware,KiCad,Pcbnew,(5.1.6)-1*
G04 #@! TF.CreationDate,2020-10-30T20:33:45+01:00*
G04 #@! TF.ProjectId,light-btn,6c696768-742d-4627-946e-2e6b69636164,rev?*
G04 #@! TF.SameCoordinates,Original*
G04 #@! TF.FileFunction,Soldermask,Bot*
G04 #@! TF.FilePolarity,Negative*
%FSLAX46Y46*%
G04 Gerber Fmt 4.6, Leading zero omitted, Abs format (unit mm)*
G04 Created by KiCad (PCBNEW (5.1.6)-1) date 2020-10-30 20:33:45*
%MOMM*%
%LPD*%
G01*
G04 APERTURE LIST*
%ADD10C,3.300000*%
%ADD11O,1.800000X1.800000*%
%ADD12R,1.800000X1.800000*%
%ADD13C,1.900000*%
G04 APERTURE END LIST*
D10*
X66000000Y-45000000D03*
X164000000Y-45000000D03*
X164000000Y-57000000D03*
X66000000Y-57000000D03*
D11*
X139260000Y-43000000D03*
X136720000Y-43000000D03*
X134180000Y-43000000D03*
X131640000Y-43000000D03*
X129100000Y-43000000D03*
X126560000Y-43000000D03*
X124020000Y-43000000D03*
X121480000Y-43000000D03*
X118940000Y-43000000D03*
X116400000Y-43000000D03*
X113860000Y-43000000D03*
X111320000Y-43000000D03*
X108780000Y-43000000D03*
X106240000Y-43000000D03*
X103700000Y-43000000D03*
X101160000Y-43000000D03*
X98620000Y-43000000D03*
X96080000Y-43000000D03*
X93540000Y-43000000D03*
D12*
X91000000Y-43000000D03*
D13*
X79100000Y-53000000D03*
X72900000Y-53000000D03*
X73500000Y-50500000D03*
X78500000Y-50500000D03*
X73500000Y-55500000D03*
X78500000Y-55500000D03*
X92500000Y-55500000D03*
X87500000Y-55500000D03*
X92500000Y-50500000D03*
X87500000Y-50500000D03*
X86900000Y-53000000D03*
X93100000Y-53000000D03*
X111100000Y-53000000D03*
X104900000Y-53000000D03*
X105500000Y-50500000D03*
X110500000Y-50500000D03*
X105500000Y-55500000D03*
X110500000Y-55500000D03*
X124500000Y-55500000D03*
X119500000Y-55500000D03*
X124500000Y-50500000D03*
X119500000Y-50500000D03*
X118900000Y-53000000D03*
X125100000Y-53000000D03*
X142500000Y-55500000D03*
X137500000Y-55500000D03*
X142500000Y-50500000D03*
X137500000Y-50500000D03*
X136900000Y-53000000D03*
X143100000Y-53000000D03*
X157100000Y-53000000D03*
X150900000Y-53000000D03*
X151500000Y-50500000D03*
X156500000Y-50500000D03*
X151500000Y-55500000D03*
X156500000Y-55500000D03*
M02*
