G04 #@! TF.GenerationSoftware,KiCad,Pcbnew,(5.1.6)-1*
G04 #@! TF.CreationDate,2020-10-30T20:33:45+01:00*
G04 #@! TF.ProjectId,light-btn,6c696768-742d-4627-946e-2e6b69636164,rev?*
G04 #@! TF.SameCoordinates,Original*
G04 #@! TF.FileFunction,Copper,L2,Bot*
G04 #@! TF.FilePolarity,Positive*
%FSLAX46Y46*%
G04 Gerber Fmt 4.6, Leading zero omitted, Abs format (unit mm)*
G04 Created by KiCad (PCBNEW (5.1.6)-1) date 2020-10-30 20:33:45*
%MOMM*%
%LPD*%
G01*
G04 APERTURE LIST*
G04 #@! TA.AperFunction,ComponentPad*
%ADD10O,1.700000X1.700000*%
G04 #@! TD*
G04 #@! TA.AperFunction,ComponentPad*
%ADD11R,1.700000X1.700000*%
G04 #@! TD*
G04 #@! TA.AperFunction,ComponentPad*
%ADD12C,1.800000*%
G04 #@! TD*
G04 #@! TA.AperFunction,Conductor*
%ADD13C,0.254000*%
G04 #@! TD*
G04 APERTURE END LIST*
D10*
X139260000Y-43000000D03*
X136720000Y-43000000D03*
X134180000Y-43000000D03*
X131640000Y-43000000D03*
X129100000Y-43000000D03*
X126560000Y-43000000D03*
X124020000Y-43000000D03*
X121480000Y-43000000D03*
X118940000Y-43000000D03*
X116400000Y-43000000D03*
X113860000Y-43000000D03*
X111320000Y-43000000D03*
X108780000Y-43000000D03*
X106240000Y-43000000D03*
X103700000Y-43000000D03*
X101160000Y-43000000D03*
X98620000Y-43000000D03*
X96080000Y-43000000D03*
X93540000Y-43000000D03*
D11*
X91000000Y-43000000D03*
D12*
X79100000Y-53000000D03*
X72900000Y-53000000D03*
X73500000Y-50500000D03*
X78500000Y-50500000D03*
X73500000Y-55500000D03*
X78500000Y-55500000D03*
X92500000Y-55500000D03*
X87500000Y-55500000D03*
X92500000Y-50500000D03*
X87500000Y-50500000D03*
X86900000Y-53000000D03*
X93100000Y-53000000D03*
X111100000Y-53000000D03*
X104900000Y-53000000D03*
X105500000Y-50500000D03*
X110500000Y-50500000D03*
X105500000Y-55500000D03*
X110500000Y-55500000D03*
X124500000Y-55500000D03*
X119500000Y-55500000D03*
X124500000Y-50500000D03*
X119500000Y-50500000D03*
X118900000Y-53000000D03*
X125100000Y-53000000D03*
X142500000Y-55500000D03*
X137500000Y-55500000D03*
X142500000Y-50500000D03*
X137500000Y-50500000D03*
X136900000Y-53000000D03*
X143100000Y-53000000D03*
X157100000Y-53000000D03*
X150900000Y-53000000D03*
X151500000Y-50500000D03*
X156500000Y-50500000D03*
X151500000Y-55500000D03*
X156500000Y-55500000D03*
D13*
G36*
X167340000Y-61340000D02*
G01*
X62660000Y-61340000D01*
X62660000Y-56779872D01*
X63765000Y-56779872D01*
X63765000Y-57220128D01*
X63850890Y-57651925D01*
X64019369Y-58058669D01*
X64263962Y-58424729D01*
X64575271Y-58736038D01*
X64941331Y-58980631D01*
X65348075Y-59149110D01*
X65779872Y-59235000D01*
X66220128Y-59235000D01*
X66651925Y-59149110D01*
X67058669Y-58980631D01*
X67424729Y-58736038D01*
X67736038Y-58424729D01*
X67980631Y-58058669D01*
X68149110Y-57651925D01*
X68235000Y-57220128D01*
X68235000Y-56779872D01*
X68192077Y-56564080D01*
X72615525Y-56564080D01*
X72699208Y-56818261D01*
X72971775Y-56949158D01*
X73264642Y-57024365D01*
X73566553Y-57040991D01*
X73865907Y-56998397D01*
X74151199Y-56898222D01*
X74300792Y-56818261D01*
X74384475Y-56564080D01*
X77615525Y-56564080D01*
X77699208Y-56818261D01*
X77971775Y-56949158D01*
X78264642Y-57024365D01*
X78566553Y-57040991D01*
X78865907Y-56998397D01*
X79151199Y-56898222D01*
X79300792Y-56818261D01*
X79384475Y-56564080D01*
X86615525Y-56564080D01*
X86699208Y-56818261D01*
X86971775Y-56949158D01*
X87264642Y-57024365D01*
X87566553Y-57040991D01*
X87865907Y-56998397D01*
X88151199Y-56898222D01*
X88300792Y-56818261D01*
X88384475Y-56564080D01*
X91615525Y-56564080D01*
X91699208Y-56818261D01*
X91971775Y-56949158D01*
X92264642Y-57024365D01*
X92566553Y-57040991D01*
X92865907Y-56998397D01*
X93151199Y-56898222D01*
X93300792Y-56818261D01*
X93384475Y-56564080D01*
X104615525Y-56564080D01*
X104699208Y-56818261D01*
X104971775Y-56949158D01*
X105264642Y-57024365D01*
X105566553Y-57040991D01*
X105865907Y-56998397D01*
X106151199Y-56898222D01*
X106300792Y-56818261D01*
X106384475Y-56564080D01*
X109615525Y-56564080D01*
X109699208Y-56818261D01*
X109971775Y-56949158D01*
X110264642Y-57024365D01*
X110566553Y-57040991D01*
X110865907Y-56998397D01*
X111151199Y-56898222D01*
X111300792Y-56818261D01*
X111384475Y-56564080D01*
X118615525Y-56564080D01*
X118699208Y-56818261D01*
X118971775Y-56949158D01*
X119264642Y-57024365D01*
X119566553Y-57040991D01*
X119865907Y-56998397D01*
X120151199Y-56898222D01*
X120300792Y-56818261D01*
X120384475Y-56564080D01*
X123615525Y-56564080D01*
X123699208Y-56818261D01*
X123971775Y-56949158D01*
X124264642Y-57024365D01*
X124566553Y-57040991D01*
X124865907Y-56998397D01*
X125151199Y-56898222D01*
X125300792Y-56818261D01*
X125384475Y-56564080D01*
X136615525Y-56564080D01*
X136699208Y-56818261D01*
X136971775Y-56949158D01*
X137264642Y-57024365D01*
X137566553Y-57040991D01*
X137865907Y-56998397D01*
X138151199Y-56898222D01*
X138300792Y-56818261D01*
X138384475Y-56564080D01*
X141615525Y-56564080D01*
X141699208Y-56818261D01*
X141971775Y-56949158D01*
X142264642Y-57024365D01*
X142566553Y-57040991D01*
X142865907Y-56998397D01*
X143151199Y-56898222D01*
X143300792Y-56818261D01*
X143384475Y-56564080D01*
X150615525Y-56564080D01*
X150699208Y-56818261D01*
X150971775Y-56949158D01*
X151264642Y-57024365D01*
X151566553Y-57040991D01*
X151865907Y-56998397D01*
X152151199Y-56898222D01*
X152300792Y-56818261D01*
X152384475Y-56564080D01*
X155615525Y-56564080D01*
X155699208Y-56818261D01*
X155971775Y-56949158D01*
X156264642Y-57024365D01*
X156566553Y-57040991D01*
X156865907Y-56998397D01*
X157151199Y-56898222D01*
X157300792Y-56818261D01*
X157313430Y-56779872D01*
X161765000Y-56779872D01*
X161765000Y-57220128D01*
X161850890Y-57651925D01*
X162019369Y-58058669D01*
X162263962Y-58424729D01*
X162575271Y-58736038D01*
X162941331Y-58980631D01*
X163348075Y-59149110D01*
X163779872Y-59235000D01*
X164220128Y-59235000D01*
X164651925Y-59149110D01*
X165058669Y-58980631D01*
X165424729Y-58736038D01*
X165736038Y-58424729D01*
X165980631Y-58058669D01*
X166149110Y-57651925D01*
X166235000Y-57220128D01*
X166235000Y-56779872D01*
X166149110Y-56348075D01*
X165980631Y-55941331D01*
X165736038Y-55575271D01*
X165424729Y-55263962D01*
X165058669Y-55019369D01*
X164651925Y-54850890D01*
X164220128Y-54765000D01*
X163779872Y-54765000D01*
X163348075Y-54850890D01*
X162941331Y-55019369D01*
X162575271Y-55263962D01*
X162263962Y-55575271D01*
X162019369Y-55941331D01*
X161850890Y-56348075D01*
X161765000Y-56779872D01*
X157313430Y-56779872D01*
X157384475Y-56564080D01*
X156500000Y-55679605D01*
X155615525Y-56564080D01*
X152384475Y-56564080D01*
X151500000Y-55679605D01*
X150615525Y-56564080D01*
X143384475Y-56564080D01*
X142500000Y-55679605D01*
X141615525Y-56564080D01*
X138384475Y-56564080D01*
X137500000Y-55679605D01*
X136615525Y-56564080D01*
X125384475Y-56564080D01*
X124500000Y-55679605D01*
X123615525Y-56564080D01*
X120384475Y-56564080D01*
X119500000Y-55679605D01*
X118615525Y-56564080D01*
X111384475Y-56564080D01*
X110500000Y-55679605D01*
X109615525Y-56564080D01*
X106384475Y-56564080D01*
X105500000Y-55679605D01*
X104615525Y-56564080D01*
X93384475Y-56564080D01*
X92500000Y-55679605D01*
X91615525Y-56564080D01*
X88384475Y-56564080D01*
X87500000Y-55679605D01*
X86615525Y-56564080D01*
X79384475Y-56564080D01*
X78500000Y-55679605D01*
X77615525Y-56564080D01*
X74384475Y-56564080D01*
X73500000Y-55679605D01*
X72615525Y-56564080D01*
X68192077Y-56564080D01*
X68149110Y-56348075D01*
X67980631Y-55941331D01*
X67736038Y-55575271D01*
X67424729Y-55263962D01*
X67058669Y-55019369D01*
X66651925Y-54850890D01*
X66220128Y-54765000D01*
X65779872Y-54765000D01*
X65348075Y-54850890D01*
X64941331Y-55019369D01*
X64575271Y-55263962D01*
X64263962Y-55575271D01*
X64019369Y-55941331D01*
X63850890Y-56348075D01*
X63765000Y-56779872D01*
X62660000Y-56779872D01*
X62660000Y-52848816D01*
X71365000Y-52848816D01*
X71365000Y-53151184D01*
X71423989Y-53447743D01*
X71539701Y-53727095D01*
X71707688Y-53978505D01*
X71921495Y-54192312D01*
X72172905Y-54360299D01*
X72375380Y-54444168D01*
X72319970Y-54499578D01*
X72435918Y-54615526D01*
X72181739Y-54699208D01*
X72050842Y-54971775D01*
X71975635Y-55264642D01*
X71959009Y-55566553D01*
X72001603Y-55865907D01*
X72101778Y-56151199D01*
X72181739Y-56300792D01*
X72435920Y-56384475D01*
X73320395Y-55500000D01*
X73679605Y-55500000D01*
X74564080Y-56384475D01*
X74818261Y-56300792D01*
X74949158Y-56028225D01*
X75024365Y-55735358D01*
X75033660Y-55566553D01*
X76959009Y-55566553D01*
X77001603Y-55865907D01*
X77101778Y-56151199D01*
X77181739Y-56300792D01*
X77435920Y-56384475D01*
X78320395Y-55500000D01*
X77435920Y-54615525D01*
X77181739Y-54699208D01*
X77050842Y-54971775D01*
X76975635Y-55264642D01*
X76959009Y-55566553D01*
X75033660Y-55566553D01*
X75040991Y-55433447D01*
X74998397Y-55134093D01*
X74898222Y-54848801D01*
X74818261Y-54699208D01*
X74564080Y-54615525D01*
X73679605Y-55500000D01*
X73320395Y-55500000D01*
X73306253Y-55485858D01*
X73485858Y-55306253D01*
X73500000Y-55320395D01*
X74384475Y-54435920D01*
X74300792Y-54181739D01*
X74028225Y-54050842D01*
X74021661Y-54049156D01*
X74092312Y-53978505D01*
X74260299Y-53727095D01*
X74376011Y-53447743D01*
X74435000Y-53151184D01*
X74435000Y-52848816D01*
X74376011Y-52552257D01*
X74260299Y-52272905D01*
X74092312Y-52021495D01*
X74017807Y-51946990D01*
X74227095Y-51860299D01*
X74478505Y-51692312D01*
X74692312Y-51478505D01*
X74860299Y-51227095D01*
X74976011Y-50947743D01*
X75035000Y-50651184D01*
X75035000Y-50348816D01*
X76965000Y-50348816D01*
X76965000Y-50651184D01*
X77023989Y-50947743D01*
X77139701Y-51227095D01*
X77307688Y-51478505D01*
X77521495Y-51692312D01*
X77772905Y-51860299D01*
X77982193Y-51946990D01*
X77907688Y-52021495D01*
X77739701Y-52272905D01*
X77623989Y-52552257D01*
X77565000Y-52848816D01*
X77565000Y-53151184D01*
X77623989Y-53447743D01*
X77739701Y-53727095D01*
X77907688Y-53978505D01*
X77983621Y-54054438D01*
X77848801Y-54101778D01*
X77699208Y-54181739D01*
X77615525Y-54435920D01*
X78500000Y-55320395D01*
X78514143Y-55306253D01*
X78693748Y-55485858D01*
X78679605Y-55500000D01*
X79564080Y-56384475D01*
X79818261Y-56300792D01*
X79949158Y-56028225D01*
X80024365Y-55735358D01*
X80040991Y-55433447D01*
X79998397Y-55134093D01*
X79898222Y-54848801D01*
X79818261Y-54699208D01*
X79564082Y-54615526D01*
X79680030Y-54499578D01*
X79624620Y-54444168D01*
X79827095Y-54360299D01*
X80078505Y-54192312D01*
X80292312Y-53978505D01*
X80460299Y-53727095D01*
X80576011Y-53447743D01*
X80635000Y-53151184D01*
X80635000Y-52848816D01*
X85365000Y-52848816D01*
X85365000Y-53151184D01*
X85423989Y-53447743D01*
X85539701Y-53727095D01*
X85707688Y-53978505D01*
X85921495Y-54192312D01*
X86172905Y-54360299D01*
X86375380Y-54444168D01*
X86319970Y-54499578D01*
X86435918Y-54615526D01*
X86181739Y-54699208D01*
X86050842Y-54971775D01*
X85975635Y-55264642D01*
X85959009Y-55566553D01*
X86001603Y-55865907D01*
X86101778Y-56151199D01*
X86181739Y-56300792D01*
X86435920Y-56384475D01*
X87320395Y-55500000D01*
X87679605Y-55500000D01*
X88564080Y-56384475D01*
X88818261Y-56300792D01*
X88949158Y-56028225D01*
X89024365Y-55735358D01*
X89033660Y-55566553D01*
X90959009Y-55566553D01*
X91001603Y-55865907D01*
X91101778Y-56151199D01*
X91181739Y-56300792D01*
X91435920Y-56384475D01*
X92320395Y-55500000D01*
X91435920Y-54615525D01*
X91181739Y-54699208D01*
X91050842Y-54971775D01*
X90975635Y-55264642D01*
X90959009Y-55566553D01*
X89033660Y-55566553D01*
X89040991Y-55433447D01*
X88998397Y-55134093D01*
X88898222Y-54848801D01*
X88818261Y-54699208D01*
X88564080Y-54615525D01*
X87679605Y-55500000D01*
X87320395Y-55500000D01*
X87306253Y-55485858D01*
X87485858Y-55306253D01*
X87500000Y-55320395D01*
X88384475Y-54435920D01*
X88300792Y-54181739D01*
X88028225Y-54050842D01*
X88021661Y-54049156D01*
X88092312Y-53978505D01*
X88260299Y-53727095D01*
X88376011Y-53447743D01*
X88435000Y-53151184D01*
X88435000Y-52848816D01*
X88376011Y-52552257D01*
X88260299Y-52272905D01*
X88092312Y-52021495D01*
X88017807Y-51946990D01*
X88227095Y-51860299D01*
X88478505Y-51692312D01*
X88692312Y-51478505D01*
X88860299Y-51227095D01*
X88976011Y-50947743D01*
X89035000Y-50651184D01*
X89035000Y-50348816D01*
X90965000Y-50348816D01*
X90965000Y-50651184D01*
X91023989Y-50947743D01*
X91139701Y-51227095D01*
X91307688Y-51478505D01*
X91521495Y-51692312D01*
X91772905Y-51860299D01*
X91982193Y-51946990D01*
X91907688Y-52021495D01*
X91739701Y-52272905D01*
X91623989Y-52552257D01*
X91565000Y-52848816D01*
X91565000Y-53151184D01*
X91623989Y-53447743D01*
X91739701Y-53727095D01*
X91907688Y-53978505D01*
X91983621Y-54054438D01*
X91848801Y-54101778D01*
X91699208Y-54181739D01*
X91615525Y-54435920D01*
X92500000Y-55320395D01*
X92514143Y-55306253D01*
X92693748Y-55485858D01*
X92679605Y-55500000D01*
X93564080Y-56384475D01*
X93818261Y-56300792D01*
X93949158Y-56028225D01*
X94024365Y-55735358D01*
X94040991Y-55433447D01*
X93998397Y-55134093D01*
X93898222Y-54848801D01*
X93818261Y-54699208D01*
X93564082Y-54615526D01*
X93680030Y-54499578D01*
X93624620Y-54444168D01*
X93827095Y-54360299D01*
X94078505Y-54192312D01*
X94292312Y-53978505D01*
X94460299Y-53727095D01*
X94576011Y-53447743D01*
X94635000Y-53151184D01*
X94635000Y-52848816D01*
X103365000Y-52848816D01*
X103365000Y-53151184D01*
X103423989Y-53447743D01*
X103539701Y-53727095D01*
X103707688Y-53978505D01*
X103921495Y-54192312D01*
X104172905Y-54360299D01*
X104375380Y-54444168D01*
X104319970Y-54499578D01*
X104435918Y-54615526D01*
X104181739Y-54699208D01*
X104050842Y-54971775D01*
X103975635Y-55264642D01*
X103959009Y-55566553D01*
X104001603Y-55865907D01*
X104101778Y-56151199D01*
X104181739Y-56300792D01*
X104435920Y-56384475D01*
X105320395Y-55500000D01*
X105679605Y-55500000D01*
X106564080Y-56384475D01*
X106818261Y-56300792D01*
X106949158Y-56028225D01*
X107024365Y-55735358D01*
X107033660Y-55566553D01*
X108959009Y-55566553D01*
X109001603Y-55865907D01*
X109101778Y-56151199D01*
X109181739Y-56300792D01*
X109435920Y-56384475D01*
X110320395Y-55500000D01*
X109435920Y-54615525D01*
X109181739Y-54699208D01*
X109050842Y-54971775D01*
X108975635Y-55264642D01*
X108959009Y-55566553D01*
X107033660Y-55566553D01*
X107040991Y-55433447D01*
X106998397Y-55134093D01*
X106898222Y-54848801D01*
X106818261Y-54699208D01*
X106564080Y-54615525D01*
X105679605Y-55500000D01*
X105320395Y-55500000D01*
X105306253Y-55485858D01*
X105485858Y-55306253D01*
X105500000Y-55320395D01*
X106384475Y-54435920D01*
X106300792Y-54181739D01*
X106028225Y-54050842D01*
X106021661Y-54049156D01*
X106092312Y-53978505D01*
X106260299Y-53727095D01*
X106376011Y-53447743D01*
X106435000Y-53151184D01*
X106435000Y-52848816D01*
X106376011Y-52552257D01*
X106260299Y-52272905D01*
X106092312Y-52021495D01*
X106017807Y-51946990D01*
X106227095Y-51860299D01*
X106478505Y-51692312D01*
X106692312Y-51478505D01*
X106860299Y-51227095D01*
X106976011Y-50947743D01*
X107035000Y-50651184D01*
X107035000Y-50348816D01*
X108965000Y-50348816D01*
X108965000Y-50651184D01*
X109023989Y-50947743D01*
X109139701Y-51227095D01*
X109307688Y-51478505D01*
X109521495Y-51692312D01*
X109772905Y-51860299D01*
X109982193Y-51946990D01*
X109907688Y-52021495D01*
X109739701Y-52272905D01*
X109623989Y-52552257D01*
X109565000Y-52848816D01*
X109565000Y-53151184D01*
X109623989Y-53447743D01*
X109739701Y-53727095D01*
X109907688Y-53978505D01*
X109983621Y-54054438D01*
X109848801Y-54101778D01*
X109699208Y-54181739D01*
X109615525Y-54435920D01*
X110500000Y-55320395D01*
X110514143Y-55306253D01*
X110693748Y-55485858D01*
X110679605Y-55500000D01*
X111564080Y-56384475D01*
X111818261Y-56300792D01*
X111949158Y-56028225D01*
X112024365Y-55735358D01*
X112040991Y-55433447D01*
X111998397Y-55134093D01*
X111898222Y-54848801D01*
X111818261Y-54699208D01*
X111564082Y-54615526D01*
X111680030Y-54499578D01*
X111624620Y-54444168D01*
X111827095Y-54360299D01*
X112078505Y-54192312D01*
X112292312Y-53978505D01*
X112460299Y-53727095D01*
X112576011Y-53447743D01*
X112635000Y-53151184D01*
X112635000Y-52848816D01*
X117365000Y-52848816D01*
X117365000Y-53151184D01*
X117423989Y-53447743D01*
X117539701Y-53727095D01*
X117707688Y-53978505D01*
X117921495Y-54192312D01*
X118172905Y-54360299D01*
X118375380Y-54444168D01*
X118319970Y-54499578D01*
X118435918Y-54615526D01*
X118181739Y-54699208D01*
X118050842Y-54971775D01*
X117975635Y-55264642D01*
X117959009Y-55566553D01*
X118001603Y-55865907D01*
X118101778Y-56151199D01*
X118181739Y-56300792D01*
X118435920Y-56384475D01*
X119320395Y-55500000D01*
X119679605Y-55500000D01*
X120564080Y-56384475D01*
X120818261Y-56300792D01*
X120949158Y-56028225D01*
X121024365Y-55735358D01*
X121033660Y-55566553D01*
X122959009Y-55566553D01*
X123001603Y-55865907D01*
X123101778Y-56151199D01*
X123181739Y-56300792D01*
X123435920Y-56384475D01*
X124320395Y-55500000D01*
X123435920Y-54615525D01*
X123181739Y-54699208D01*
X123050842Y-54971775D01*
X122975635Y-55264642D01*
X122959009Y-55566553D01*
X121033660Y-55566553D01*
X121040991Y-55433447D01*
X120998397Y-55134093D01*
X120898222Y-54848801D01*
X120818261Y-54699208D01*
X120564080Y-54615525D01*
X119679605Y-55500000D01*
X119320395Y-55500000D01*
X119306253Y-55485858D01*
X119485858Y-55306253D01*
X119500000Y-55320395D01*
X120384475Y-54435920D01*
X120300792Y-54181739D01*
X120028225Y-54050842D01*
X120021661Y-54049156D01*
X120092312Y-53978505D01*
X120260299Y-53727095D01*
X120376011Y-53447743D01*
X120435000Y-53151184D01*
X120435000Y-52848816D01*
X120376011Y-52552257D01*
X120260299Y-52272905D01*
X120092312Y-52021495D01*
X120017807Y-51946990D01*
X120227095Y-51860299D01*
X120478505Y-51692312D01*
X120692312Y-51478505D01*
X120860299Y-51227095D01*
X120976011Y-50947743D01*
X121035000Y-50651184D01*
X121035000Y-50348816D01*
X122965000Y-50348816D01*
X122965000Y-50651184D01*
X123023989Y-50947743D01*
X123139701Y-51227095D01*
X123307688Y-51478505D01*
X123521495Y-51692312D01*
X123772905Y-51860299D01*
X123982193Y-51946990D01*
X123907688Y-52021495D01*
X123739701Y-52272905D01*
X123623989Y-52552257D01*
X123565000Y-52848816D01*
X123565000Y-53151184D01*
X123623989Y-53447743D01*
X123739701Y-53727095D01*
X123907688Y-53978505D01*
X123983621Y-54054438D01*
X123848801Y-54101778D01*
X123699208Y-54181739D01*
X123615525Y-54435920D01*
X124500000Y-55320395D01*
X124514143Y-55306253D01*
X124693748Y-55485858D01*
X124679605Y-55500000D01*
X125564080Y-56384475D01*
X125818261Y-56300792D01*
X125949158Y-56028225D01*
X126024365Y-55735358D01*
X126040991Y-55433447D01*
X125998397Y-55134093D01*
X125898222Y-54848801D01*
X125818261Y-54699208D01*
X125564082Y-54615526D01*
X125680030Y-54499578D01*
X125624620Y-54444168D01*
X125827095Y-54360299D01*
X126078505Y-54192312D01*
X126292312Y-53978505D01*
X126460299Y-53727095D01*
X126576011Y-53447743D01*
X126635000Y-53151184D01*
X126635000Y-52848816D01*
X135365000Y-52848816D01*
X135365000Y-53151184D01*
X135423989Y-53447743D01*
X135539701Y-53727095D01*
X135707688Y-53978505D01*
X135921495Y-54192312D01*
X136172905Y-54360299D01*
X136375380Y-54444168D01*
X136319970Y-54499578D01*
X136435918Y-54615526D01*
X136181739Y-54699208D01*
X136050842Y-54971775D01*
X135975635Y-55264642D01*
X135959009Y-55566553D01*
X136001603Y-55865907D01*
X136101778Y-56151199D01*
X136181739Y-56300792D01*
X136435920Y-56384475D01*
X137320395Y-55500000D01*
X137679605Y-55500000D01*
X138564080Y-56384475D01*
X138818261Y-56300792D01*
X138949158Y-56028225D01*
X139024365Y-55735358D01*
X139033660Y-55566553D01*
X140959009Y-55566553D01*
X141001603Y-55865907D01*
X141101778Y-56151199D01*
X141181739Y-56300792D01*
X141435920Y-56384475D01*
X142320395Y-55500000D01*
X141435920Y-54615525D01*
X141181739Y-54699208D01*
X141050842Y-54971775D01*
X140975635Y-55264642D01*
X140959009Y-55566553D01*
X139033660Y-55566553D01*
X139040991Y-55433447D01*
X138998397Y-55134093D01*
X138898222Y-54848801D01*
X138818261Y-54699208D01*
X138564080Y-54615525D01*
X137679605Y-55500000D01*
X137320395Y-55500000D01*
X137306253Y-55485858D01*
X137485858Y-55306253D01*
X137500000Y-55320395D01*
X138384475Y-54435920D01*
X138300792Y-54181739D01*
X138028225Y-54050842D01*
X138021661Y-54049156D01*
X138092312Y-53978505D01*
X138260299Y-53727095D01*
X138376011Y-53447743D01*
X138435000Y-53151184D01*
X138435000Y-52848816D01*
X138376011Y-52552257D01*
X138260299Y-52272905D01*
X138092312Y-52021495D01*
X138017807Y-51946990D01*
X138227095Y-51860299D01*
X138478505Y-51692312D01*
X138692312Y-51478505D01*
X138860299Y-51227095D01*
X138976011Y-50947743D01*
X139035000Y-50651184D01*
X139035000Y-50348816D01*
X140965000Y-50348816D01*
X140965000Y-50651184D01*
X141023989Y-50947743D01*
X141139701Y-51227095D01*
X141307688Y-51478505D01*
X141521495Y-51692312D01*
X141772905Y-51860299D01*
X141982193Y-51946990D01*
X141907688Y-52021495D01*
X141739701Y-52272905D01*
X141623989Y-52552257D01*
X141565000Y-52848816D01*
X141565000Y-53151184D01*
X141623989Y-53447743D01*
X141739701Y-53727095D01*
X141907688Y-53978505D01*
X141983621Y-54054438D01*
X141848801Y-54101778D01*
X141699208Y-54181739D01*
X141615525Y-54435920D01*
X142500000Y-55320395D01*
X142514143Y-55306253D01*
X142693748Y-55485858D01*
X142679605Y-55500000D01*
X143564080Y-56384475D01*
X143818261Y-56300792D01*
X143949158Y-56028225D01*
X144024365Y-55735358D01*
X144040991Y-55433447D01*
X143998397Y-55134093D01*
X143898222Y-54848801D01*
X143818261Y-54699208D01*
X143564082Y-54615526D01*
X143680030Y-54499578D01*
X143624620Y-54444168D01*
X143827095Y-54360299D01*
X144078505Y-54192312D01*
X144292312Y-53978505D01*
X144460299Y-53727095D01*
X144576011Y-53447743D01*
X144635000Y-53151184D01*
X144635000Y-52848816D01*
X149365000Y-52848816D01*
X149365000Y-53151184D01*
X149423989Y-53447743D01*
X149539701Y-53727095D01*
X149707688Y-53978505D01*
X149921495Y-54192312D01*
X150172905Y-54360299D01*
X150375380Y-54444168D01*
X150319970Y-54499578D01*
X150435918Y-54615526D01*
X150181739Y-54699208D01*
X150050842Y-54971775D01*
X149975635Y-55264642D01*
X149959009Y-55566553D01*
X150001603Y-55865907D01*
X150101778Y-56151199D01*
X150181739Y-56300792D01*
X150435920Y-56384475D01*
X151320395Y-55500000D01*
X151679605Y-55500000D01*
X152564080Y-56384475D01*
X152818261Y-56300792D01*
X152949158Y-56028225D01*
X153024365Y-55735358D01*
X153033660Y-55566553D01*
X154959009Y-55566553D01*
X155001603Y-55865907D01*
X155101778Y-56151199D01*
X155181739Y-56300792D01*
X155435920Y-56384475D01*
X156320395Y-55500000D01*
X155435920Y-54615525D01*
X155181739Y-54699208D01*
X155050842Y-54971775D01*
X154975635Y-55264642D01*
X154959009Y-55566553D01*
X153033660Y-55566553D01*
X153040991Y-55433447D01*
X152998397Y-55134093D01*
X152898222Y-54848801D01*
X152818261Y-54699208D01*
X152564080Y-54615525D01*
X151679605Y-55500000D01*
X151320395Y-55500000D01*
X151306253Y-55485858D01*
X151485858Y-55306253D01*
X151500000Y-55320395D01*
X152384475Y-54435920D01*
X152300792Y-54181739D01*
X152028225Y-54050842D01*
X152021661Y-54049156D01*
X152092312Y-53978505D01*
X152260299Y-53727095D01*
X152376011Y-53447743D01*
X152435000Y-53151184D01*
X152435000Y-52848816D01*
X152376011Y-52552257D01*
X152260299Y-52272905D01*
X152092312Y-52021495D01*
X152017807Y-51946990D01*
X152227095Y-51860299D01*
X152478505Y-51692312D01*
X152692312Y-51478505D01*
X152860299Y-51227095D01*
X152976011Y-50947743D01*
X153035000Y-50651184D01*
X153035000Y-50348816D01*
X154965000Y-50348816D01*
X154965000Y-50651184D01*
X155023989Y-50947743D01*
X155139701Y-51227095D01*
X155307688Y-51478505D01*
X155521495Y-51692312D01*
X155772905Y-51860299D01*
X155982193Y-51946990D01*
X155907688Y-52021495D01*
X155739701Y-52272905D01*
X155623989Y-52552257D01*
X155565000Y-52848816D01*
X155565000Y-53151184D01*
X155623989Y-53447743D01*
X155739701Y-53727095D01*
X155907688Y-53978505D01*
X155983621Y-54054438D01*
X155848801Y-54101778D01*
X155699208Y-54181739D01*
X155615525Y-54435920D01*
X156500000Y-55320395D01*
X156514143Y-55306253D01*
X156693748Y-55485858D01*
X156679605Y-55500000D01*
X157564080Y-56384475D01*
X157818261Y-56300792D01*
X157949158Y-56028225D01*
X158024365Y-55735358D01*
X158040991Y-55433447D01*
X157998397Y-55134093D01*
X157898222Y-54848801D01*
X157818261Y-54699208D01*
X157564082Y-54615526D01*
X157680030Y-54499578D01*
X157624620Y-54444168D01*
X157827095Y-54360299D01*
X158078505Y-54192312D01*
X158292312Y-53978505D01*
X158460299Y-53727095D01*
X158576011Y-53447743D01*
X158635000Y-53151184D01*
X158635000Y-52848816D01*
X158576011Y-52552257D01*
X158460299Y-52272905D01*
X158292312Y-52021495D01*
X158078505Y-51807688D01*
X157827095Y-51639701D01*
X157617807Y-51553010D01*
X157692312Y-51478505D01*
X157860299Y-51227095D01*
X157976011Y-50947743D01*
X158035000Y-50651184D01*
X158035000Y-50348816D01*
X157976011Y-50052257D01*
X157860299Y-49772905D01*
X157692312Y-49521495D01*
X157478505Y-49307688D01*
X157227095Y-49139701D01*
X156947743Y-49023989D01*
X156651184Y-48965000D01*
X156348816Y-48965000D01*
X156052257Y-49023989D01*
X155772905Y-49139701D01*
X155521495Y-49307688D01*
X155307688Y-49521495D01*
X155139701Y-49772905D01*
X155023989Y-50052257D01*
X154965000Y-50348816D01*
X153035000Y-50348816D01*
X152976011Y-50052257D01*
X152860299Y-49772905D01*
X152692312Y-49521495D01*
X152478505Y-49307688D01*
X152227095Y-49139701D01*
X151947743Y-49023989D01*
X151651184Y-48965000D01*
X151348816Y-48965000D01*
X151052257Y-49023989D01*
X150772905Y-49139701D01*
X150521495Y-49307688D01*
X150307688Y-49521495D01*
X150139701Y-49772905D01*
X150023989Y-50052257D01*
X149965000Y-50348816D01*
X149965000Y-50651184D01*
X150023989Y-50947743D01*
X150139701Y-51227095D01*
X150307688Y-51478505D01*
X150382193Y-51553010D01*
X150172905Y-51639701D01*
X149921495Y-51807688D01*
X149707688Y-52021495D01*
X149539701Y-52272905D01*
X149423989Y-52552257D01*
X149365000Y-52848816D01*
X144635000Y-52848816D01*
X144576011Y-52552257D01*
X144460299Y-52272905D01*
X144292312Y-52021495D01*
X144078505Y-51807688D01*
X143827095Y-51639701D01*
X143617807Y-51553010D01*
X143692312Y-51478505D01*
X143860299Y-51227095D01*
X143976011Y-50947743D01*
X144035000Y-50651184D01*
X144035000Y-50348816D01*
X143976011Y-50052257D01*
X143860299Y-49772905D01*
X143692312Y-49521495D01*
X143478505Y-49307688D01*
X143227095Y-49139701D01*
X142947743Y-49023989D01*
X142651184Y-48965000D01*
X142348816Y-48965000D01*
X142052257Y-49023989D01*
X141772905Y-49139701D01*
X141521495Y-49307688D01*
X141307688Y-49521495D01*
X141139701Y-49772905D01*
X141023989Y-50052257D01*
X140965000Y-50348816D01*
X139035000Y-50348816D01*
X138976011Y-50052257D01*
X138860299Y-49772905D01*
X138692312Y-49521495D01*
X138478505Y-49307688D01*
X138227095Y-49139701D01*
X137947743Y-49023989D01*
X137651184Y-48965000D01*
X137348816Y-48965000D01*
X137052257Y-49023989D01*
X136772905Y-49139701D01*
X136521495Y-49307688D01*
X136307688Y-49521495D01*
X136139701Y-49772905D01*
X136023989Y-50052257D01*
X135965000Y-50348816D01*
X135965000Y-50651184D01*
X136023989Y-50947743D01*
X136139701Y-51227095D01*
X136307688Y-51478505D01*
X136382193Y-51553010D01*
X136172905Y-51639701D01*
X135921495Y-51807688D01*
X135707688Y-52021495D01*
X135539701Y-52272905D01*
X135423989Y-52552257D01*
X135365000Y-52848816D01*
X126635000Y-52848816D01*
X126576011Y-52552257D01*
X126460299Y-52272905D01*
X126292312Y-52021495D01*
X126078505Y-51807688D01*
X125827095Y-51639701D01*
X125617807Y-51553010D01*
X125692312Y-51478505D01*
X125860299Y-51227095D01*
X125976011Y-50947743D01*
X126035000Y-50651184D01*
X126035000Y-50348816D01*
X125976011Y-50052257D01*
X125860299Y-49772905D01*
X125692312Y-49521495D01*
X125478505Y-49307688D01*
X125227095Y-49139701D01*
X124947743Y-49023989D01*
X124651184Y-48965000D01*
X124348816Y-48965000D01*
X124052257Y-49023989D01*
X123772905Y-49139701D01*
X123521495Y-49307688D01*
X123307688Y-49521495D01*
X123139701Y-49772905D01*
X123023989Y-50052257D01*
X122965000Y-50348816D01*
X121035000Y-50348816D01*
X120976011Y-50052257D01*
X120860299Y-49772905D01*
X120692312Y-49521495D01*
X120478505Y-49307688D01*
X120227095Y-49139701D01*
X119947743Y-49023989D01*
X119651184Y-48965000D01*
X119348816Y-48965000D01*
X119052257Y-49023989D01*
X118772905Y-49139701D01*
X118521495Y-49307688D01*
X118307688Y-49521495D01*
X118139701Y-49772905D01*
X118023989Y-50052257D01*
X117965000Y-50348816D01*
X117965000Y-50651184D01*
X118023989Y-50947743D01*
X118139701Y-51227095D01*
X118307688Y-51478505D01*
X118382193Y-51553010D01*
X118172905Y-51639701D01*
X117921495Y-51807688D01*
X117707688Y-52021495D01*
X117539701Y-52272905D01*
X117423989Y-52552257D01*
X117365000Y-52848816D01*
X112635000Y-52848816D01*
X112576011Y-52552257D01*
X112460299Y-52272905D01*
X112292312Y-52021495D01*
X112078505Y-51807688D01*
X111827095Y-51639701D01*
X111617807Y-51553010D01*
X111692312Y-51478505D01*
X111860299Y-51227095D01*
X111976011Y-50947743D01*
X112035000Y-50651184D01*
X112035000Y-50348816D01*
X111976011Y-50052257D01*
X111860299Y-49772905D01*
X111692312Y-49521495D01*
X111478505Y-49307688D01*
X111227095Y-49139701D01*
X110947743Y-49023989D01*
X110651184Y-48965000D01*
X110348816Y-48965000D01*
X110052257Y-49023989D01*
X109772905Y-49139701D01*
X109521495Y-49307688D01*
X109307688Y-49521495D01*
X109139701Y-49772905D01*
X109023989Y-50052257D01*
X108965000Y-50348816D01*
X107035000Y-50348816D01*
X106976011Y-50052257D01*
X106860299Y-49772905D01*
X106692312Y-49521495D01*
X106478505Y-49307688D01*
X106227095Y-49139701D01*
X105947743Y-49023989D01*
X105651184Y-48965000D01*
X105348816Y-48965000D01*
X105052257Y-49023989D01*
X104772905Y-49139701D01*
X104521495Y-49307688D01*
X104307688Y-49521495D01*
X104139701Y-49772905D01*
X104023989Y-50052257D01*
X103965000Y-50348816D01*
X103965000Y-50651184D01*
X104023989Y-50947743D01*
X104139701Y-51227095D01*
X104307688Y-51478505D01*
X104382193Y-51553010D01*
X104172905Y-51639701D01*
X103921495Y-51807688D01*
X103707688Y-52021495D01*
X103539701Y-52272905D01*
X103423989Y-52552257D01*
X103365000Y-52848816D01*
X94635000Y-52848816D01*
X94576011Y-52552257D01*
X94460299Y-52272905D01*
X94292312Y-52021495D01*
X94078505Y-51807688D01*
X93827095Y-51639701D01*
X93617807Y-51553010D01*
X93692312Y-51478505D01*
X93860299Y-51227095D01*
X93976011Y-50947743D01*
X94035000Y-50651184D01*
X94035000Y-50348816D01*
X93976011Y-50052257D01*
X93860299Y-49772905D01*
X93692312Y-49521495D01*
X93478505Y-49307688D01*
X93227095Y-49139701D01*
X92947743Y-49023989D01*
X92651184Y-48965000D01*
X92348816Y-48965000D01*
X92052257Y-49023989D01*
X91772905Y-49139701D01*
X91521495Y-49307688D01*
X91307688Y-49521495D01*
X91139701Y-49772905D01*
X91023989Y-50052257D01*
X90965000Y-50348816D01*
X89035000Y-50348816D01*
X88976011Y-50052257D01*
X88860299Y-49772905D01*
X88692312Y-49521495D01*
X88478505Y-49307688D01*
X88227095Y-49139701D01*
X87947743Y-49023989D01*
X87651184Y-48965000D01*
X87348816Y-48965000D01*
X87052257Y-49023989D01*
X86772905Y-49139701D01*
X86521495Y-49307688D01*
X86307688Y-49521495D01*
X86139701Y-49772905D01*
X86023989Y-50052257D01*
X85965000Y-50348816D01*
X85965000Y-50651184D01*
X86023989Y-50947743D01*
X86139701Y-51227095D01*
X86307688Y-51478505D01*
X86382193Y-51553010D01*
X86172905Y-51639701D01*
X85921495Y-51807688D01*
X85707688Y-52021495D01*
X85539701Y-52272905D01*
X85423989Y-52552257D01*
X85365000Y-52848816D01*
X80635000Y-52848816D01*
X80576011Y-52552257D01*
X80460299Y-52272905D01*
X80292312Y-52021495D01*
X80078505Y-51807688D01*
X79827095Y-51639701D01*
X79617807Y-51553010D01*
X79692312Y-51478505D01*
X79860299Y-51227095D01*
X79976011Y-50947743D01*
X80035000Y-50651184D01*
X80035000Y-50348816D01*
X79976011Y-50052257D01*
X79860299Y-49772905D01*
X79692312Y-49521495D01*
X79478505Y-49307688D01*
X79227095Y-49139701D01*
X78947743Y-49023989D01*
X78651184Y-48965000D01*
X78348816Y-48965000D01*
X78052257Y-49023989D01*
X77772905Y-49139701D01*
X77521495Y-49307688D01*
X77307688Y-49521495D01*
X77139701Y-49772905D01*
X77023989Y-50052257D01*
X76965000Y-50348816D01*
X75035000Y-50348816D01*
X74976011Y-50052257D01*
X74860299Y-49772905D01*
X74692312Y-49521495D01*
X74478505Y-49307688D01*
X74227095Y-49139701D01*
X73947743Y-49023989D01*
X73651184Y-48965000D01*
X73348816Y-48965000D01*
X73052257Y-49023989D01*
X72772905Y-49139701D01*
X72521495Y-49307688D01*
X72307688Y-49521495D01*
X72139701Y-49772905D01*
X72023989Y-50052257D01*
X71965000Y-50348816D01*
X71965000Y-50651184D01*
X72023989Y-50947743D01*
X72139701Y-51227095D01*
X72307688Y-51478505D01*
X72382193Y-51553010D01*
X72172905Y-51639701D01*
X71921495Y-51807688D01*
X71707688Y-52021495D01*
X71539701Y-52272905D01*
X71423989Y-52552257D01*
X71365000Y-52848816D01*
X62660000Y-52848816D01*
X62660000Y-44779872D01*
X63765000Y-44779872D01*
X63765000Y-45220128D01*
X63850890Y-45651925D01*
X64019369Y-46058669D01*
X64263962Y-46424729D01*
X64575271Y-46736038D01*
X64941331Y-46980631D01*
X65348075Y-47149110D01*
X65779872Y-47235000D01*
X66220128Y-47235000D01*
X66651925Y-47149110D01*
X67058669Y-46980631D01*
X67424729Y-46736038D01*
X67736038Y-46424729D01*
X67980631Y-46058669D01*
X68149110Y-45651925D01*
X68235000Y-45220128D01*
X68235000Y-44779872D01*
X161765000Y-44779872D01*
X161765000Y-45220128D01*
X161850890Y-45651925D01*
X162019369Y-46058669D01*
X162263962Y-46424729D01*
X162575271Y-46736038D01*
X162941331Y-46980631D01*
X163348075Y-47149110D01*
X163779872Y-47235000D01*
X164220128Y-47235000D01*
X164651925Y-47149110D01*
X165058669Y-46980631D01*
X165424729Y-46736038D01*
X165736038Y-46424729D01*
X165980631Y-46058669D01*
X166149110Y-45651925D01*
X166235000Y-45220128D01*
X166235000Y-44779872D01*
X166149110Y-44348075D01*
X165980631Y-43941331D01*
X165736038Y-43575271D01*
X165424729Y-43263962D01*
X165058669Y-43019369D01*
X164651925Y-42850890D01*
X164220128Y-42765000D01*
X163779872Y-42765000D01*
X163348075Y-42850890D01*
X162941331Y-43019369D01*
X162575271Y-43263962D01*
X162263962Y-43575271D01*
X162019369Y-43941331D01*
X161850890Y-44348075D01*
X161765000Y-44779872D01*
X68235000Y-44779872D01*
X68149110Y-44348075D01*
X67980631Y-43941331D01*
X67736038Y-43575271D01*
X67424729Y-43263962D01*
X67058669Y-43019369D01*
X66651925Y-42850890D01*
X66220128Y-42765000D01*
X65779872Y-42765000D01*
X65348075Y-42850890D01*
X64941331Y-43019369D01*
X64575271Y-43263962D01*
X64263962Y-43575271D01*
X64019369Y-43941331D01*
X63850890Y-44348075D01*
X63765000Y-44779872D01*
X62660000Y-44779872D01*
X62660000Y-42150000D01*
X89511928Y-42150000D01*
X89511928Y-43850000D01*
X89524188Y-43974482D01*
X89560498Y-44094180D01*
X89619463Y-44204494D01*
X89698815Y-44301185D01*
X89795506Y-44380537D01*
X89905820Y-44439502D01*
X90025518Y-44475812D01*
X90150000Y-44488072D01*
X91850000Y-44488072D01*
X91974482Y-44475812D01*
X92094180Y-44439502D01*
X92204494Y-44380537D01*
X92301185Y-44301185D01*
X92380537Y-44204494D01*
X92439502Y-44094180D01*
X92461513Y-44021620D01*
X92593368Y-44153475D01*
X92836589Y-44315990D01*
X93106842Y-44427932D01*
X93393740Y-44485000D01*
X93686260Y-44485000D01*
X93973158Y-44427932D01*
X94243411Y-44315990D01*
X94486632Y-44153475D01*
X94693475Y-43946632D01*
X94810000Y-43772240D01*
X94926525Y-43946632D01*
X95133368Y-44153475D01*
X95376589Y-44315990D01*
X95646842Y-44427932D01*
X95933740Y-44485000D01*
X96226260Y-44485000D01*
X96513158Y-44427932D01*
X96783411Y-44315990D01*
X97026632Y-44153475D01*
X97233475Y-43946632D01*
X97350000Y-43772240D01*
X97466525Y-43946632D01*
X97673368Y-44153475D01*
X97916589Y-44315990D01*
X98186842Y-44427932D01*
X98473740Y-44485000D01*
X98766260Y-44485000D01*
X99053158Y-44427932D01*
X99323411Y-44315990D01*
X99566632Y-44153475D01*
X99773475Y-43946632D01*
X99890000Y-43772240D01*
X100006525Y-43946632D01*
X100213368Y-44153475D01*
X100456589Y-44315990D01*
X100726842Y-44427932D01*
X101013740Y-44485000D01*
X101306260Y-44485000D01*
X101593158Y-44427932D01*
X101863411Y-44315990D01*
X102106632Y-44153475D01*
X102313475Y-43946632D01*
X102430000Y-43772240D01*
X102546525Y-43946632D01*
X102753368Y-44153475D01*
X102996589Y-44315990D01*
X103266842Y-44427932D01*
X103553740Y-44485000D01*
X103846260Y-44485000D01*
X104133158Y-44427932D01*
X104403411Y-44315990D01*
X104646632Y-44153475D01*
X104853475Y-43946632D01*
X104970000Y-43772240D01*
X105086525Y-43946632D01*
X105293368Y-44153475D01*
X105536589Y-44315990D01*
X105806842Y-44427932D01*
X106093740Y-44485000D01*
X106386260Y-44485000D01*
X106673158Y-44427932D01*
X106943411Y-44315990D01*
X107186632Y-44153475D01*
X107393475Y-43946632D01*
X107510000Y-43772240D01*
X107626525Y-43946632D01*
X107833368Y-44153475D01*
X108076589Y-44315990D01*
X108346842Y-44427932D01*
X108633740Y-44485000D01*
X108926260Y-44485000D01*
X109213158Y-44427932D01*
X109483411Y-44315990D01*
X109726632Y-44153475D01*
X109933475Y-43946632D01*
X110050000Y-43772240D01*
X110166525Y-43946632D01*
X110373368Y-44153475D01*
X110616589Y-44315990D01*
X110886842Y-44427932D01*
X111173740Y-44485000D01*
X111466260Y-44485000D01*
X111753158Y-44427932D01*
X112023411Y-44315990D01*
X112266632Y-44153475D01*
X112473475Y-43946632D01*
X112590000Y-43772240D01*
X112706525Y-43946632D01*
X112913368Y-44153475D01*
X113156589Y-44315990D01*
X113426842Y-44427932D01*
X113713740Y-44485000D01*
X114006260Y-44485000D01*
X114293158Y-44427932D01*
X114563411Y-44315990D01*
X114806632Y-44153475D01*
X115013475Y-43946632D01*
X115130000Y-43772240D01*
X115246525Y-43946632D01*
X115453368Y-44153475D01*
X115696589Y-44315990D01*
X115966842Y-44427932D01*
X116253740Y-44485000D01*
X116546260Y-44485000D01*
X116833158Y-44427932D01*
X117103411Y-44315990D01*
X117346632Y-44153475D01*
X117553475Y-43946632D01*
X117670000Y-43772240D01*
X117786525Y-43946632D01*
X117993368Y-44153475D01*
X118236589Y-44315990D01*
X118506842Y-44427932D01*
X118793740Y-44485000D01*
X119086260Y-44485000D01*
X119373158Y-44427932D01*
X119643411Y-44315990D01*
X119886632Y-44153475D01*
X120093475Y-43946632D01*
X120210000Y-43772240D01*
X120326525Y-43946632D01*
X120533368Y-44153475D01*
X120776589Y-44315990D01*
X121046842Y-44427932D01*
X121333740Y-44485000D01*
X121626260Y-44485000D01*
X121913158Y-44427932D01*
X122183411Y-44315990D01*
X122426632Y-44153475D01*
X122633475Y-43946632D01*
X122750000Y-43772240D01*
X122866525Y-43946632D01*
X123073368Y-44153475D01*
X123316589Y-44315990D01*
X123586842Y-44427932D01*
X123873740Y-44485000D01*
X124166260Y-44485000D01*
X124453158Y-44427932D01*
X124723411Y-44315990D01*
X124966632Y-44153475D01*
X125173475Y-43946632D01*
X125290000Y-43772240D01*
X125406525Y-43946632D01*
X125613368Y-44153475D01*
X125856589Y-44315990D01*
X126126842Y-44427932D01*
X126413740Y-44485000D01*
X126706260Y-44485000D01*
X126993158Y-44427932D01*
X127263411Y-44315990D01*
X127506632Y-44153475D01*
X127713475Y-43946632D01*
X127830000Y-43772240D01*
X127946525Y-43946632D01*
X128153368Y-44153475D01*
X128396589Y-44315990D01*
X128666842Y-44427932D01*
X128953740Y-44485000D01*
X129246260Y-44485000D01*
X129533158Y-44427932D01*
X129803411Y-44315990D01*
X130046632Y-44153475D01*
X130253475Y-43946632D01*
X130370000Y-43772240D01*
X130486525Y-43946632D01*
X130693368Y-44153475D01*
X130936589Y-44315990D01*
X131206842Y-44427932D01*
X131493740Y-44485000D01*
X131786260Y-44485000D01*
X132073158Y-44427932D01*
X132343411Y-44315990D01*
X132586632Y-44153475D01*
X132793475Y-43946632D01*
X132910000Y-43772240D01*
X133026525Y-43946632D01*
X133233368Y-44153475D01*
X133476589Y-44315990D01*
X133746842Y-44427932D01*
X134033740Y-44485000D01*
X134326260Y-44485000D01*
X134613158Y-44427932D01*
X134883411Y-44315990D01*
X135126632Y-44153475D01*
X135333475Y-43946632D01*
X135450000Y-43772240D01*
X135566525Y-43946632D01*
X135773368Y-44153475D01*
X136016589Y-44315990D01*
X136286842Y-44427932D01*
X136573740Y-44485000D01*
X136866260Y-44485000D01*
X137153158Y-44427932D01*
X137423411Y-44315990D01*
X137666632Y-44153475D01*
X137873475Y-43946632D01*
X137995195Y-43764466D01*
X138064822Y-43881355D01*
X138259731Y-44097588D01*
X138493080Y-44271641D01*
X138755901Y-44396825D01*
X138903110Y-44441476D01*
X139133000Y-44320155D01*
X139133000Y-43127000D01*
X139387000Y-43127000D01*
X139387000Y-44320155D01*
X139616890Y-44441476D01*
X139764099Y-44396825D01*
X140026920Y-44271641D01*
X140260269Y-44097588D01*
X140455178Y-43881355D01*
X140604157Y-43631252D01*
X140701481Y-43356891D01*
X140580814Y-43127000D01*
X139387000Y-43127000D01*
X139133000Y-43127000D01*
X139113000Y-43127000D01*
X139113000Y-42873000D01*
X139133000Y-42873000D01*
X139133000Y-41679845D01*
X139387000Y-41679845D01*
X139387000Y-42873000D01*
X140580814Y-42873000D01*
X140701481Y-42643109D01*
X140604157Y-42368748D01*
X140455178Y-42118645D01*
X140260269Y-41902412D01*
X140026920Y-41728359D01*
X139764099Y-41603175D01*
X139616890Y-41558524D01*
X139387000Y-41679845D01*
X139133000Y-41679845D01*
X138903110Y-41558524D01*
X138755901Y-41603175D01*
X138493080Y-41728359D01*
X138259731Y-41902412D01*
X138064822Y-42118645D01*
X137995195Y-42235534D01*
X137873475Y-42053368D01*
X137666632Y-41846525D01*
X137423411Y-41684010D01*
X137153158Y-41572068D01*
X136866260Y-41515000D01*
X136573740Y-41515000D01*
X136286842Y-41572068D01*
X136016589Y-41684010D01*
X135773368Y-41846525D01*
X135566525Y-42053368D01*
X135450000Y-42227760D01*
X135333475Y-42053368D01*
X135126632Y-41846525D01*
X134883411Y-41684010D01*
X134613158Y-41572068D01*
X134326260Y-41515000D01*
X134033740Y-41515000D01*
X133746842Y-41572068D01*
X133476589Y-41684010D01*
X133233368Y-41846525D01*
X133026525Y-42053368D01*
X132910000Y-42227760D01*
X132793475Y-42053368D01*
X132586632Y-41846525D01*
X132343411Y-41684010D01*
X132073158Y-41572068D01*
X131786260Y-41515000D01*
X131493740Y-41515000D01*
X131206842Y-41572068D01*
X130936589Y-41684010D01*
X130693368Y-41846525D01*
X130486525Y-42053368D01*
X130370000Y-42227760D01*
X130253475Y-42053368D01*
X130046632Y-41846525D01*
X129803411Y-41684010D01*
X129533158Y-41572068D01*
X129246260Y-41515000D01*
X128953740Y-41515000D01*
X128666842Y-41572068D01*
X128396589Y-41684010D01*
X128153368Y-41846525D01*
X127946525Y-42053368D01*
X127830000Y-42227760D01*
X127713475Y-42053368D01*
X127506632Y-41846525D01*
X127263411Y-41684010D01*
X126993158Y-41572068D01*
X126706260Y-41515000D01*
X126413740Y-41515000D01*
X126126842Y-41572068D01*
X125856589Y-41684010D01*
X125613368Y-41846525D01*
X125406525Y-42053368D01*
X125290000Y-42227760D01*
X125173475Y-42053368D01*
X124966632Y-41846525D01*
X124723411Y-41684010D01*
X124453158Y-41572068D01*
X124166260Y-41515000D01*
X123873740Y-41515000D01*
X123586842Y-41572068D01*
X123316589Y-41684010D01*
X123073368Y-41846525D01*
X122866525Y-42053368D01*
X122750000Y-42227760D01*
X122633475Y-42053368D01*
X122426632Y-41846525D01*
X122183411Y-41684010D01*
X121913158Y-41572068D01*
X121626260Y-41515000D01*
X121333740Y-41515000D01*
X121046842Y-41572068D01*
X120776589Y-41684010D01*
X120533368Y-41846525D01*
X120326525Y-42053368D01*
X120210000Y-42227760D01*
X120093475Y-42053368D01*
X119886632Y-41846525D01*
X119643411Y-41684010D01*
X119373158Y-41572068D01*
X119086260Y-41515000D01*
X118793740Y-41515000D01*
X118506842Y-41572068D01*
X118236589Y-41684010D01*
X117993368Y-41846525D01*
X117786525Y-42053368D01*
X117670000Y-42227760D01*
X117553475Y-42053368D01*
X117346632Y-41846525D01*
X117103411Y-41684010D01*
X116833158Y-41572068D01*
X116546260Y-41515000D01*
X116253740Y-41515000D01*
X115966842Y-41572068D01*
X115696589Y-41684010D01*
X115453368Y-41846525D01*
X115246525Y-42053368D01*
X115130000Y-42227760D01*
X115013475Y-42053368D01*
X114806632Y-41846525D01*
X114563411Y-41684010D01*
X114293158Y-41572068D01*
X114006260Y-41515000D01*
X113713740Y-41515000D01*
X113426842Y-41572068D01*
X113156589Y-41684010D01*
X112913368Y-41846525D01*
X112706525Y-42053368D01*
X112590000Y-42227760D01*
X112473475Y-42053368D01*
X112266632Y-41846525D01*
X112023411Y-41684010D01*
X111753158Y-41572068D01*
X111466260Y-41515000D01*
X111173740Y-41515000D01*
X110886842Y-41572068D01*
X110616589Y-41684010D01*
X110373368Y-41846525D01*
X110166525Y-42053368D01*
X110050000Y-42227760D01*
X109933475Y-42053368D01*
X109726632Y-41846525D01*
X109483411Y-41684010D01*
X109213158Y-41572068D01*
X108926260Y-41515000D01*
X108633740Y-41515000D01*
X108346842Y-41572068D01*
X108076589Y-41684010D01*
X107833368Y-41846525D01*
X107626525Y-42053368D01*
X107510000Y-42227760D01*
X107393475Y-42053368D01*
X107186632Y-41846525D01*
X106943411Y-41684010D01*
X106673158Y-41572068D01*
X106386260Y-41515000D01*
X106093740Y-41515000D01*
X105806842Y-41572068D01*
X105536589Y-41684010D01*
X105293368Y-41846525D01*
X105086525Y-42053368D01*
X104970000Y-42227760D01*
X104853475Y-42053368D01*
X104646632Y-41846525D01*
X104403411Y-41684010D01*
X104133158Y-41572068D01*
X103846260Y-41515000D01*
X103553740Y-41515000D01*
X103266842Y-41572068D01*
X102996589Y-41684010D01*
X102753368Y-41846525D01*
X102546525Y-42053368D01*
X102430000Y-42227760D01*
X102313475Y-42053368D01*
X102106632Y-41846525D01*
X101863411Y-41684010D01*
X101593158Y-41572068D01*
X101306260Y-41515000D01*
X101013740Y-41515000D01*
X100726842Y-41572068D01*
X100456589Y-41684010D01*
X100213368Y-41846525D01*
X100006525Y-42053368D01*
X99890000Y-42227760D01*
X99773475Y-42053368D01*
X99566632Y-41846525D01*
X99323411Y-41684010D01*
X99053158Y-41572068D01*
X98766260Y-41515000D01*
X98473740Y-41515000D01*
X98186842Y-41572068D01*
X97916589Y-41684010D01*
X97673368Y-41846525D01*
X97466525Y-42053368D01*
X97350000Y-42227760D01*
X97233475Y-42053368D01*
X97026632Y-41846525D01*
X96783411Y-41684010D01*
X96513158Y-41572068D01*
X96226260Y-41515000D01*
X95933740Y-41515000D01*
X95646842Y-41572068D01*
X95376589Y-41684010D01*
X95133368Y-41846525D01*
X94926525Y-42053368D01*
X94810000Y-42227760D01*
X94693475Y-42053368D01*
X94486632Y-41846525D01*
X94243411Y-41684010D01*
X93973158Y-41572068D01*
X93686260Y-41515000D01*
X93393740Y-41515000D01*
X93106842Y-41572068D01*
X92836589Y-41684010D01*
X92593368Y-41846525D01*
X92461513Y-41978380D01*
X92439502Y-41905820D01*
X92380537Y-41795506D01*
X92301185Y-41698815D01*
X92204494Y-41619463D01*
X92094180Y-41560498D01*
X91974482Y-41524188D01*
X91850000Y-41511928D01*
X90150000Y-41511928D01*
X90025518Y-41524188D01*
X89905820Y-41560498D01*
X89795506Y-41619463D01*
X89698815Y-41698815D01*
X89619463Y-41795506D01*
X89560498Y-41905820D01*
X89524188Y-42025518D01*
X89511928Y-42150000D01*
X62660000Y-42150000D01*
X62660000Y-40660000D01*
X167340001Y-40660000D01*
X167340000Y-61340000D01*
G37*
X167340000Y-61340000D02*
X62660000Y-61340000D01*
X62660000Y-56779872D01*
X63765000Y-56779872D01*
X63765000Y-57220128D01*
X63850890Y-57651925D01*
X64019369Y-58058669D01*
X64263962Y-58424729D01*
X64575271Y-58736038D01*
X64941331Y-58980631D01*
X65348075Y-59149110D01*
X65779872Y-59235000D01*
X66220128Y-59235000D01*
X66651925Y-59149110D01*
X67058669Y-58980631D01*
X67424729Y-58736038D01*
X67736038Y-58424729D01*
X67980631Y-58058669D01*
X68149110Y-57651925D01*
X68235000Y-57220128D01*
X68235000Y-56779872D01*
X68192077Y-56564080D01*
X72615525Y-56564080D01*
X72699208Y-56818261D01*
X72971775Y-56949158D01*
X73264642Y-57024365D01*
X73566553Y-57040991D01*
X73865907Y-56998397D01*
X74151199Y-56898222D01*
X74300792Y-56818261D01*
X74384475Y-56564080D01*
X77615525Y-56564080D01*
X77699208Y-56818261D01*
X77971775Y-56949158D01*
X78264642Y-57024365D01*
X78566553Y-57040991D01*
X78865907Y-56998397D01*
X79151199Y-56898222D01*
X79300792Y-56818261D01*
X79384475Y-56564080D01*
X86615525Y-56564080D01*
X86699208Y-56818261D01*
X86971775Y-56949158D01*
X87264642Y-57024365D01*
X87566553Y-57040991D01*
X87865907Y-56998397D01*
X88151199Y-56898222D01*
X88300792Y-56818261D01*
X88384475Y-56564080D01*
X91615525Y-56564080D01*
X91699208Y-56818261D01*
X91971775Y-56949158D01*
X92264642Y-57024365D01*
X92566553Y-57040991D01*
X92865907Y-56998397D01*
X93151199Y-56898222D01*
X93300792Y-56818261D01*
X93384475Y-56564080D01*
X104615525Y-56564080D01*
X104699208Y-56818261D01*
X104971775Y-56949158D01*
X105264642Y-57024365D01*
X105566553Y-57040991D01*
X105865907Y-56998397D01*
X106151199Y-56898222D01*
X106300792Y-56818261D01*
X106384475Y-56564080D01*
X109615525Y-56564080D01*
X109699208Y-56818261D01*
X109971775Y-56949158D01*
X110264642Y-57024365D01*
X110566553Y-57040991D01*
X110865907Y-56998397D01*
X111151199Y-56898222D01*
X111300792Y-56818261D01*
X111384475Y-56564080D01*
X118615525Y-56564080D01*
X118699208Y-56818261D01*
X118971775Y-56949158D01*
X119264642Y-57024365D01*
X119566553Y-57040991D01*
X119865907Y-56998397D01*
X120151199Y-56898222D01*
X120300792Y-56818261D01*
X120384475Y-56564080D01*
X123615525Y-56564080D01*
X123699208Y-56818261D01*
X123971775Y-56949158D01*
X124264642Y-57024365D01*
X124566553Y-57040991D01*
X124865907Y-56998397D01*
X125151199Y-56898222D01*
X125300792Y-56818261D01*
X125384475Y-56564080D01*
X136615525Y-56564080D01*
X136699208Y-56818261D01*
X136971775Y-56949158D01*
X137264642Y-57024365D01*
X137566553Y-57040991D01*
X137865907Y-56998397D01*
X138151199Y-56898222D01*
X138300792Y-56818261D01*
X138384475Y-56564080D01*
X141615525Y-56564080D01*
X141699208Y-56818261D01*
X141971775Y-56949158D01*
X142264642Y-57024365D01*
X142566553Y-57040991D01*
X142865907Y-56998397D01*
X143151199Y-56898222D01*
X143300792Y-56818261D01*
X143384475Y-56564080D01*
X150615525Y-56564080D01*
X150699208Y-56818261D01*
X150971775Y-56949158D01*
X151264642Y-57024365D01*
X151566553Y-57040991D01*
X151865907Y-56998397D01*
X152151199Y-56898222D01*
X152300792Y-56818261D01*
X152384475Y-56564080D01*
X155615525Y-56564080D01*
X155699208Y-56818261D01*
X155971775Y-56949158D01*
X156264642Y-57024365D01*
X156566553Y-57040991D01*
X156865907Y-56998397D01*
X157151199Y-56898222D01*
X157300792Y-56818261D01*
X157313430Y-56779872D01*
X161765000Y-56779872D01*
X161765000Y-57220128D01*
X161850890Y-57651925D01*
X162019369Y-58058669D01*
X162263962Y-58424729D01*
X162575271Y-58736038D01*
X162941331Y-58980631D01*
X163348075Y-59149110D01*
X163779872Y-59235000D01*
X164220128Y-59235000D01*
X164651925Y-59149110D01*
X165058669Y-58980631D01*
X165424729Y-58736038D01*
X165736038Y-58424729D01*
X165980631Y-58058669D01*
X166149110Y-57651925D01*
X166235000Y-57220128D01*
X166235000Y-56779872D01*
X166149110Y-56348075D01*
X165980631Y-55941331D01*
X165736038Y-55575271D01*
X165424729Y-55263962D01*
X165058669Y-55019369D01*
X164651925Y-54850890D01*
X164220128Y-54765000D01*
X163779872Y-54765000D01*
X163348075Y-54850890D01*
X162941331Y-55019369D01*
X162575271Y-55263962D01*
X162263962Y-55575271D01*
X162019369Y-55941331D01*
X161850890Y-56348075D01*
X161765000Y-56779872D01*
X157313430Y-56779872D01*
X157384475Y-56564080D01*
X156500000Y-55679605D01*
X155615525Y-56564080D01*
X152384475Y-56564080D01*
X151500000Y-55679605D01*
X150615525Y-56564080D01*
X143384475Y-56564080D01*
X142500000Y-55679605D01*
X141615525Y-56564080D01*
X138384475Y-56564080D01*
X137500000Y-55679605D01*
X136615525Y-56564080D01*
X125384475Y-56564080D01*
X124500000Y-55679605D01*
X123615525Y-56564080D01*
X120384475Y-56564080D01*
X119500000Y-55679605D01*
X118615525Y-56564080D01*
X111384475Y-56564080D01*
X110500000Y-55679605D01*
X109615525Y-56564080D01*
X106384475Y-56564080D01*
X105500000Y-55679605D01*
X104615525Y-56564080D01*
X93384475Y-56564080D01*
X92500000Y-55679605D01*
X91615525Y-56564080D01*
X88384475Y-56564080D01*
X87500000Y-55679605D01*
X86615525Y-56564080D01*
X79384475Y-56564080D01*
X78500000Y-55679605D01*
X77615525Y-56564080D01*
X74384475Y-56564080D01*
X73500000Y-55679605D01*
X72615525Y-56564080D01*
X68192077Y-56564080D01*
X68149110Y-56348075D01*
X67980631Y-55941331D01*
X67736038Y-55575271D01*
X67424729Y-55263962D01*
X67058669Y-55019369D01*
X66651925Y-54850890D01*
X66220128Y-54765000D01*
X65779872Y-54765000D01*
X65348075Y-54850890D01*
X64941331Y-55019369D01*
X64575271Y-55263962D01*
X64263962Y-55575271D01*
X64019369Y-55941331D01*
X63850890Y-56348075D01*
X63765000Y-56779872D01*
X62660000Y-56779872D01*
X62660000Y-52848816D01*
X71365000Y-52848816D01*
X71365000Y-53151184D01*
X71423989Y-53447743D01*
X71539701Y-53727095D01*
X71707688Y-53978505D01*
X71921495Y-54192312D01*
X72172905Y-54360299D01*
X72375380Y-54444168D01*
X72319970Y-54499578D01*
X72435918Y-54615526D01*
X72181739Y-54699208D01*
X72050842Y-54971775D01*
X71975635Y-55264642D01*
X71959009Y-55566553D01*
X72001603Y-55865907D01*
X72101778Y-56151199D01*
X72181739Y-56300792D01*
X72435920Y-56384475D01*
X73320395Y-55500000D01*
X73679605Y-55500000D01*
X74564080Y-56384475D01*
X74818261Y-56300792D01*
X74949158Y-56028225D01*
X75024365Y-55735358D01*
X75033660Y-55566553D01*
X76959009Y-55566553D01*
X77001603Y-55865907D01*
X77101778Y-56151199D01*
X77181739Y-56300792D01*
X77435920Y-56384475D01*
X78320395Y-55500000D01*
X77435920Y-54615525D01*
X77181739Y-54699208D01*
X77050842Y-54971775D01*
X76975635Y-55264642D01*
X76959009Y-55566553D01*
X75033660Y-55566553D01*
X75040991Y-55433447D01*
X74998397Y-55134093D01*
X74898222Y-54848801D01*
X74818261Y-54699208D01*
X74564080Y-54615525D01*
X73679605Y-55500000D01*
X73320395Y-55500000D01*
X73306253Y-55485858D01*
X73485858Y-55306253D01*
X73500000Y-55320395D01*
X74384475Y-54435920D01*
X74300792Y-54181739D01*
X74028225Y-54050842D01*
X74021661Y-54049156D01*
X74092312Y-53978505D01*
X74260299Y-53727095D01*
X74376011Y-53447743D01*
X74435000Y-53151184D01*
X74435000Y-52848816D01*
X74376011Y-52552257D01*
X74260299Y-52272905D01*
X74092312Y-52021495D01*
X74017807Y-51946990D01*
X74227095Y-51860299D01*
X74478505Y-51692312D01*
X74692312Y-51478505D01*
X74860299Y-51227095D01*
X74976011Y-50947743D01*
X75035000Y-50651184D01*
X75035000Y-50348816D01*
X76965000Y-50348816D01*
X76965000Y-50651184D01*
X77023989Y-50947743D01*
X77139701Y-51227095D01*
X77307688Y-51478505D01*
X77521495Y-51692312D01*
X77772905Y-51860299D01*
X77982193Y-51946990D01*
X77907688Y-52021495D01*
X77739701Y-52272905D01*
X77623989Y-52552257D01*
X77565000Y-52848816D01*
X77565000Y-53151184D01*
X77623989Y-53447743D01*
X77739701Y-53727095D01*
X77907688Y-53978505D01*
X77983621Y-54054438D01*
X77848801Y-54101778D01*
X77699208Y-54181739D01*
X77615525Y-54435920D01*
X78500000Y-55320395D01*
X78514143Y-55306253D01*
X78693748Y-55485858D01*
X78679605Y-55500000D01*
X79564080Y-56384475D01*
X79818261Y-56300792D01*
X79949158Y-56028225D01*
X80024365Y-55735358D01*
X80040991Y-55433447D01*
X79998397Y-55134093D01*
X79898222Y-54848801D01*
X79818261Y-54699208D01*
X79564082Y-54615526D01*
X79680030Y-54499578D01*
X79624620Y-54444168D01*
X79827095Y-54360299D01*
X80078505Y-54192312D01*
X80292312Y-53978505D01*
X80460299Y-53727095D01*
X80576011Y-53447743D01*
X80635000Y-53151184D01*
X80635000Y-52848816D01*
X85365000Y-52848816D01*
X85365000Y-53151184D01*
X85423989Y-53447743D01*
X85539701Y-53727095D01*
X85707688Y-53978505D01*
X85921495Y-54192312D01*
X86172905Y-54360299D01*
X86375380Y-54444168D01*
X86319970Y-54499578D01*
X86435918Y-54615526D01*
X86181739Y-54699208D01*
X86050842Y-54971775D01*
X85975635Y-55264642D01*
X85959009Y-55566553D01*
X86001603Y-55865907D01*
X86101778Y-56151199D01*
X86181739Y-56300792D01*
X86435920Y-56384475D01*
X87320395Y-55500000D01*
X87679605Y-55500000D01*
X88564080Y-56384475D01*
X88818261Y-56300792D01*
X88949158Y-56028225D01*
X89024365Y-55735358D01*
X89033660Y-55566553D01*
X90959009Y-55566553D01*
X91001603Y-55865907D01*
X91101778Y-56151199D01*
X91181739Y-56300792D01*
X91435920Y-56384475D01*
X92320395Y-55500000D01*
X91435920Y-54615525D01*
X91181739Y-54699208D01*
X91050842Y-54971775D01*
X90975635Y-55264642D01*
X90959009Y-55566553D01*
X89033660Y-55566553D01*
X89040991Y-55433447D01*
X88998397Y-55134093D01*
X88898222Y-54848801D01*
X88818261Y-54699208D01*
X88564080Y-54615525D01*
X87679605Y-55500000D01*
X87320395Y-55500000D01*
X87306253Y-55485858D01*
X87485858Y-55306253D01*
X87500000Y-55320395D01*
X88384475Y-54435920D01*
X88300792Y-54181739D01*
X88028225Y-54050842D01*
X88021661Y-54049156D01*
X88092312Y-53978505D01*
X88260299Y-53727095D01*
X88376011Y-53447743D01*
X88435000Y-53151184D01*
X88435000Y-52848816D01*
X88376011Y-52552257D01*
X88260299Y-52272905D01*
X88092312Y-52021495D01*
X88017807Y-51946990D01*
X88227095Y-51860299D01*
X88478505Y-51692312D01*
X88692312Y-51478505D01*
X88860299Y-51227095D01*
X88976011Y-50947743D01*
X89035000Y-50651184D01*
X89035000Y-50348816D01*
X90965000Y-50348816D01*
X90965000Y-50651184D01*
X91023989Y-50947743D01*
X91139701Y-51227095D01*
X91307688Y-51478505D01*
X91521495Y-51692312D01*
X91772905Y-51860299D01*
X91982193Y-51946990D01*
X91907688Y-52021495D01*
X91739701Y-52272905D01*
X91623989Y-52552257D01*
X91565000Y-52848816D01*
X91565000Y-53151184D01*
X91623989Y-53447743D01*
X91739701Y-53727095D01*
X91907688Y-53978505D01*
X91983621Y-54054438D01*
X91848801Y-54101778D01*
X91699208Y-54181739D01*
X91615525Y-54435920D01*
X92500000Y-55320395D01*
X92514143Y-55306253D01*
X92693748Y-55485858D01*
X92679605Y-55500000D01*
X93564080Y-56384475D01*
X93818261Y-56300792D01*
X93949158Y-56028225D01*
X94024365Y-55735358D01*
X94040991Y-55433447D01*
X93998397Y-55134093D01*
X93898222Y-54848801D01*
X93818261Y-54699208D01*
X93564082Y-54615526D01*
X93680030Y-54499578D01*
X93624620Y-54444168D01*
X93827095Y-54360299D01*
X94078505Y-54192312D01*
X94292312Y-53978505D01*
X94460299Y-53727095D01*
X94576011Y-53447743D01*
X94635000Y-53151184D01*
X94635000Y-52848816D01*
X103365000Y-52848816D01*
X103365000Y-53151184D01*
X103423989Y-53447743D01*
X103539701Y-53727095D01*
X103707688Y-53978505D01*
X103921495Y-54192312D01*
X104172905Y-54360299D01*
X104375380Y-54444168D01*
X104319970Y-54499578D01*
X104435918Y-54615526D01*
X104181739Y-54699208D01*
X104050842Y-54971775D01*
X103975635Y-55264642D01*
X103959009Y-55566553D01*
X104001603Y-55865907D01*
X104101778Y-56151199D01*
X104181739Y-56300792D01*
X104435920Y-56384475D01*
X105320395Y-55500000D01*
X105679605Y-55500000D01*
X106564080Y-56384475D01*
X106818261Y-56300792D01*
X106949158Y-56028225D01*
X107024365Y-55735358D01*
X107033660Y-55566553D01*
X108959009Y-55566553D01*
X109001603Y-55865907D01*
X109101778Y-56151199D01*
X109181739Y-56300792D01*
X109435920Y-56384475D01*
X110320395Y-55500000D01*
X109435920Y-54615525D01*
X109181739Y-54699208D01*
X109050842Y-54971775D01*
X108975635Y-55264642D01*
X108959009Y-55566553D01*
X107033660Y-55566553D01*
X107040991Y-55433447D01*
X106998397Y-55134093D01*
X106898222Y-54848801D01*
X106818261Y-54699208D01*
X106564080Y-54615525D01*
X105679605Y-55500000D01*
X105320395Y-55500000D01*
X105306253Y-55485858D01*
X105485858Y-55306253D01*
X105500000Y-55320395D01*
X106384475Y-54435920D01*
X106300792Y-54181739D01*
X106028225Y-54050842D01*
X106021661Y-54049156D01*
X106092312Y-53978505D01*
X106260299Y-53727095D01*
X106376011Y-53447743D01*
X106435000Y-53151184D01*
X106435000Y-52848816D01*
X106376011Y-52552257D01*
X106260299Y-52272905D01*
X106092312Y-52021495D01*
X106017807Y-51946990D01*
X106227095Y-51860299D01*
X106478505Y-51692312D01*
X106692312Y-51478505D01*
X106860299Y-51227095D01*
X106976011Y-50947743D01*
X107035000Y-50651184D01*
X107035000Y-50348816D01*
X108965000Y-50348816D01*
X108965000Y-50651184D01*
X109023989Y-50947743D01*
X109139701Y-51227095D01*
X109307688Y-51478505D01*
X109521495Y-51692312D01*
X109772905Y-51860299D01*
X109982193Y-51946990D01*
X109907688Y-52021495D01*
X109739701Y-52272905D01*
X109623989Y-52552257D01*
X109565000Y-52848816D01*
X109565000Y-53151184D01*
X109623989Y-53447743D01*
X109739701Y-53727095D01*
X109907688Y-53978505D01*
X109983621Y-54054438D01*
X109848801Y-54101778D01*
X109699208Y-54181739D01*
X109615525Y-54435920D01*
X110500000Y-55320395D01*
X110514143Y-55306253D01*
X110693748Y-55485858D01*
X110679605Y-55500000D01*
X111564080Y-56384475D01*
X111818261Y-56300792D01*
X111949158Y-56028225D01*
X112024365Y-55735358D01*
X112040991Y-55433447D01*
X111998397Y-55134093D01*
X111898222Y-54848801D01*
X111818261Y-54699208D01*
X111564082Y-54615526D01*
X111680030Y-54499578D01*
X111624620Y-54444168D01*
X111827095Y-54360299D01*
X112078505Y-54192312D01*
X112292312Y-53978505D01*
X112460299Y-53727095D01*
X112576011Y-53447743D01*
X112635000Y-53151184D01*
X112635000Y-52848816D01*
X117365000Y-52848816D01*
X117365000Y-53151184D01*
X117423989Y-53447743D01*
X117539701Y-53727095D01*
X117707688Y-53978505D01*
X117921495Y-54192312D01*
X118172905Y-54360299D01*
X118375380Y-54444168D01*
X118319970Y-54499578D01*
X118435918Y-54615526D01*
X118181739Y-54699208D01*
X118050842Y-54971775D01*
X117975635Y-55264642D01*
X117959009Y-55566553D01*
X118001603Y-55865907D01*
X118101778Y-56151199D01*
X118181739Y-56300792D01*
X118435920Y-56384475D01*
X119320395Y-55500000D01*
X119679605Y-55500000D01*
X120564080Y-56384475D01*
X120818261Y-56300792D01*
X120949158Y-56028225D01*
X121024365Y-55735358D01*
X121033660Y-55566553D01*
X122959009Y-55566553D01*
X123001603Y-55865907D01*
X123101778Y-56151199D01*
X123181739Y-56300792D01*
X123435920Y-56384475D01*
X124320395Y-55500000D01*
X123435920Y-54615525D01*
X123181739Y-54699208D01*
X123050842Y-54971775D01*
X122975635Y-55264642D01*
X122959009Y-55566553D01*
X121033660Y-55566553D01*
X121040991Y-55433447D01*
X120998397Y-55134093D01*
X120898222Y-54848801D01*
X120818261Y-54699208D01*
X120564080Y-54615525D01*
X119679605Y-55500000D01*
X119320395Y-55500000D01*
X119306253Y-55485858D01*
X119485858Y-55306253D01*
X119500000Y-55320395D01*
X120384475Y-54435920D01*
X120300792Y-54181739D01*
X120028225Y-54050842D01*
X120021661Y-54049156D01*
X120092312Y-53978505D01*
X120260299Y-53727095D01*
X120376011Y-53447743D01*
X120435000Y-53151184D01*
X120435000Y-52848816D01*
X120376011Y-52552257D01*
X120260299Y-52272905D01*
X120092312Y-52021495D01*
X120017807Y-51946990D01*
X120227095Y-51860299D01*
X120478505Y-51692312D01*
X120692312Y-51478505D01*
X120860299Y-51227095D01*
X120976011Y-50947743D01*
X121035000Y-50651184D01*
X121035000Y-50348816D01*
X122965000Y-50348816D01*
X122965000Y-50651184D01*
X123023989Y-50947743D01*
X123139701Y-51227095D01*
X123307688Y-51478505D01*
X123521495Y-51692312D01*
X123772905Y-51860299D01*
X123982193Y-51946990D01*
X123907688Y-52021495D01*
X123739701Y-52272905D01*
X123623989Y-52552257D01*
X123565000Y-52848816D01*
X123565000Y-53151184D01*
X123623989Y-53447743D01*
X123739701Y-53727095D01*
X123907688Y-53978505D01*
X123983621Y-54054438D01*
X123848801Y-54101778D01*
X123699208Y-54181739D01*
X123615525Y-54435920D01*
X124500000Y-55320395D01*
X124514143Y-55306253D01*
X124693748Y-55485858D01*
X124679605Y-55500000D01*
X125564080Y-56384475D01*
X125818261Y-56300792D01*
X125949158Y-56028225D01*
X126024365Y-55735358D01*
X126040991Y-55433447D01*
X125998397Y-55134093D01*
X125898222Y-54848801D01*
X125818261Y-54699208D01*
X125564082Y-54615526D01*
X125680030Y-54499578D01*
X125624620Y-54444168D01*
X125827095Y-54360299D01*
X126078505Y-54192312D01*
X126292312Y-53978505D01*
X126460299Y-53727095D01*
X126576011Y-53447743D01*
X126635000Y-53151184D01*
X126635000Y-52848816D01*
X135365000Y-52848816D01*
X135365000Y-53151184D01*
X135423989Y-53447743D01*
X135539701Y-53727095D01*
X135707688Y-53978505D01*
X135921495Y-54192312D01*
X136172905Y-54360299D01*
X136375380Y-54444168D01*
X136319970Y-54499578D01*
X136435918Y-54615526D01*
X136181739Y-54699208D01*
X136050842Y-54971775D01*
X135975635Y-55264642D01*
X135959009Y-55566553D01*
X136001603Y-55865907D01*
X136101778Y-56151199D01*
X136181739Y-56300792D01*
X136435920Y-56384475D01*
X137320395Y-55500000D01*
X137679605Y-55500000D01*
X138564080Y-56384475D01*
X138818261Y-56300792D01*
X138949158Y-56028225D01*
X139024365Y-55735358D01*
X139033660Y-55566553D01*
X140959009Y-55566553D01*
X141001603Y-55865907D01*
X141101778Y-56151199D01*
X141181739Y-56300792D01*
X141435920Y-56384475D01*
X142320395Y-55500000D01*
X141435920Y-54615525D01*
X141181739Y-54699208D01*
X141050842Y-54971775D01*
X140975635Y-55264642D01*
X140959009Y-55566553D01*
X139033660Y-55566553D01*
X139040991Y-55433447D01*
X138998397Y-55134093D01*
X138898222Y-54848801D01*
X138818261Y-54699208D01*
X138564080Y-54615525D01*
X137679605Y-55500000D01*
X137320395Y-55500000D01*
X137306253Y-55485858D01*
X137485858Y-55306253D01*
X137500000Y-55320395D01*
X138384475Y-54435920D01*
X138300792Y-54181739D01*
X138028225Y-54050842D01*
X138021661Y-54049156D01*
X138092312Y-53978505D01*
X138260299Y-53727095D01*
X138376011Y-53447743D01*
X138435000Y-53151184D01*
X138435000Y-52848816D01*
X138376011Y-52552257D01*
X138260299Y-52272905D01*
X138092312Y-52021495D01*
X138017807Y-51946990D01*
X138227095Y-51860299D01*
X138478505Y-51692312D01*
X138692312Y-51478505D01*
X138860299Y-51227095D01*
X138976011Y-50947743D01*
X139035000Y-50651184D01*
X139035000Y-50348816D01*
X140965000Y-50348816D01*
X140965000Y-50651184D01*
X141023989Y-50947743D01*
X141139701Y-51227095D01*
X141307688Y-51478505D01*
X141521495Y-51692312D01*
X141772905Y-51860299D01*
X141982193Y-51946990D01*
X141907688Y-52021495D01*
X141739701Y-52272905D01*
X141623989Y-52552257D01*
X141565000Y-52848816D01*
X141565000Y-53151184D01*
X141623989Y-53447743D01*
X141739701Y-53727095D01*
X141907688Y-53978505D01*
X141983621Y-54054438D01*
X141848801Y-54101778D01*
X141699208Y-54181739D01*
X141615525Y-54435920D01*
X142500000Y-55320395D01*
X142514143Y-55306253D01*
X142693748Y-55485858D01*
X142679605Y-55500000D01*
X143564080Y-56384475D01*
X143818261Y-56300792D01*
X143949158Y-56028225D01*
X144024365Y-55735358D01*
X144040991Y-55433447D01*
X143998397Y-55134093D01*
X143898222Y-54848801D01*
X143818261Y-54699208D01*
X143564082Y-54615526D01*
X143680030Y-54499578D01*
X143624620Y-54444168D01*
X143827095Y-54360299D01*
X144078505Y-54192312D01*
X144292312Y-53978505D01*
X144460299Y-53727095D01*
X144576011Y-53447743D01*
X144635000Y-53151184D01*
X144635000Y-52848816D01*
X149365000Y-52848816D01*
X149365000Y-53151184D01*
X149423989Y-53447743D01*
X149539701Y-53727095D01*
X149707688Y-53978505D01*
X149921495Y-54192312D01*
X150172905Y-54360299D01*
X150375380Y-54444168D01*
X150319970Y-54499578D01*
X150435918Y-54615526D01*
X150181739Y-54699208D01*
X150050842Y-54971775D01*
X149975635Y-55264642D01*
X149959009Y-55566553D01*
X150001603Y-55865907D01*
X150101778Y-56151199D01*
X150181739Y-56300792D01*
X150435920Y-56384475D01*
X151320395Y-55500000D01*
X151679605Y-55500000D01*
X152564080Y-56384475D01*
X152818261Y-56300792D01*
X152949158Y-56028225D01*
X153024365Y-55735358D01*
X153033660Y-55566553D01*
X154959009Y-55566553D01*
X155001603Y-55865907D01*
X155101778Y-56151199D01*
X155181739Y-56300792D01*
X155435920Y-56384475D01*
X156320395Y-55500000D01*
X155435920Y-54615525D01*
X155181739Y-54699208D01*
X155050842Y-54971775D01*
X154975635Y-55264642D01*
X154959009Y-55566553D01*
X153033660Y-55566553D01*
X153040991Y-55433447D01*
X152998397Y-55134093D01*
X152898222Y-54848801D01*
X152818261Y-54699208D01*
X152564080Y-54615525D01*
X151679605Y-55500000D01*
X151320395Y-55500000D01*
X151306253Y-55485858D01*
X151485858Y-55306253D01*
X151500000Y-55320395D01*
X152384475Y-54435920D01*
X152300792Y-54181739D01*
X152028225Y-54050842D01*
X152021661Y-54049156D01*
X152092312Y-53978505D01*
X152260299Y-53727095D01*
X152376011Y-53447743D01*
X152435000Y-53151184D01*
X152435000Y-52848816D01*
X152376011Y-52552257D01*
X152260299Y-52272905D01*
X152092312Y-52021495D01*
X152017807Y-51946990D01*
X152227095Y-51860299D01*
X152478505Y-51692312D01*
X152692312Y-51478505D01*
X152860299Y-51227095D01*
X152976011Y-50947743D01*
X153035000Y-50651184D01*
X153035000Y-50348816D01*
X154965000Y-50348816D01*
X154965000Y-50651184D01*
X155023989Y-50947743D01*
X155139701Y-51227095D01*
X155307688Y-51478505D01*
X155521495Y-51692312D01*
X155772905Y-51860299D01*
X155982193Y-51946990D01*
X155907688Y-52021495D01*
X155739701Y-52272905D01*
X155623989Y-52552257D01*
X155565000Y-52848816D01*
X155565000Y-53151184D01*
X155623989Y-53447743D01*
X155739701Y-53727095D01*
X155907688Y-53978505D01*
X155983621Y-54054438D01*
X155848801Y-54101778D01*
X155699208Y-54181739D01*
X155615525Y-54435920D01*
X156500000Y-55320395D01*
X156514143Y-55306253D01*
X156693748Y-55485858D01*
X156679605Y-55500000D01*
X157564080Y-56384475D01*
X157818261Y-56300792D01*
X157949158Y-56028225D01*
X158024365Y-55735358D01*
X158040991Y-55433447D01*
X157998397Y-55134093D01*
X157898222Y-54848801D01*
X157818261Y-54699208D01*
X157564082Y-54615526D01*
X157680030Y-54499578D01*
X157624620Y-54444168D01*
X157827095Y-54360299D01*
X158078505Y-54192312D01*
X158292312Y-53978505D01*
X158460299Y-53727095D01*
X158576011Y-53447743D01*
X158635000Y-53151184D01*
X158635000Y-52848816D01*
X158576011Y-52552257D01*
X158460299Y-52272905D01*
X158292312Y-52021495D01*
X158078505Y-51807688D01*
X157827095Y-51639701D01*
X157617807Y-51553010D01*
X157692312Y-51478505D01*
X157860299Y-51227095D01*
X157976011Y-50947743D01*
X158035000Y-50651184D01*
X158035000Y-50348816D01*
X157976011Y-50052257D01*
X157860299Y-49772905D01*
X157692312Y-49521495D01*
X157478505Y-49307688D01*
X157227095Y-49139701D01*
X156947743Y-49023989D01*
X156651184Y-48965000D01*
X156348816Y-48965000D01*
X156052257Y-49023989D01*
X155772905Y-49139701D01*
X155521495Y-49307688D01*
X155307688Y-49521495D01*
X155139701Y-49772905D01*
X155023989Y-50052257D01*
X154965000Y-50348816D01*
X153035000Y-50348816D01*
X152976011Y-50052257D01*
X152860299Y-49772905D01*
X152692312Y-49521495D01*
X152478505Y-49307688D01*
X152227095Y-49139701D01*
X151947743Y-49023989D01*
X151651184Y-48965000D01*
X151348816Y-48965000D01*
X151052257Y-49023989D01*
X150772905Y-49139701D01*
X150521495Y-49307688D01*
X150307688Y-49521495D01*
X150139701Y-49772905D01*
X150023989Y-50052257D01*
X149965000Y-50348816D01*
X149965000Y-50651184D01*
X150023989Y-50947743D01*
X150139701Y-51227095D01*
X150307688Y-51478505D01*
X150382193Y-51553010D01*
X150172905Y-51639701D01*
X149921495Y-51807688D01*
X149707688Y-52021495D01*
X149539701Y-52272905D01*
X149423989Y-52552257D01*
X149365000Y-52848816D01*
X144635000Y-52848816D01*
X144576011Y-52552257D01*
X144460299Y-52272905D01*
X144292312Y-52021495D01*
X144078505Y-51807688D01*
X143827095Y-51639701D01*
X143617807Y-51553010D01*
X143692312Y-51478505D01*
X143860299Y-51227095D01*
X143976011Y-50947743D01*
X144035000Y-50651184D01*
X144035000Y-50348816D01*
X143976011Y-50052257D01*
X143860299Y-49772905D01*
X143692312Y-49521495D01*
X143478505Y-49307688D01*
X143227095Y-49139701D01*
X142947743Y-49023989D01*
X142651184Y-48965000D01*
X142348816Y-48965000D01*
X142052257Y-49023989D01*
X141772905Y-49139701D01*
X141521495Y-49307688D01*
X141307688Y-49521495D01*
X141139701Y-49772905D01*
X141023989Y-50052257D01*
X140965000Y-50348816D01*
X139035000Y-50348816D01*
X138976011Y-50052257D01*
X138860299Y-49772905D01*
X138692312Y-49521495D01*
X138478505Y-49307688D01*
X138227095Y-49139701D01*
X137947743Y-49023989D01*
X137651184Y-48965000D01*
X137348816Y-48965000D01*
X137052257Y-49023989D01*
X136772905Y-49139701D01*
X136521495Y-49307688D01*
X136307688Y-49521495D01*
X136139701Y-49772905D01*
X136023989Y-50052257D01*
X135965000Y-50348816D01*
X135965000Y-50651184D01*
X136023989Y-50947743D01*
X136139701Y-51227095D01*
X136307688Y-51478505D01*
X136382193Y-51553010D01*
X136172905Y-51639701D01*
X135921495Y-51807688D01*
X135707688Y-52021495D01*
X135539701Y-52272905D01*
X135423989Y-52552257D01*
X135365000Y-52848816D01*
X126635000Y-52848816D01*
X126576011Y-52552257D01*
X126460299Y-52272905D01*
X126292312Y-52021495D01*
X126078505Y-51807688D01*
X125827095Y-51639701D01*
X125617807Y-51553010D01*
X125692312Y-51478505D01*
X125860299Y-51227095D01*
X125976011Y-50947743D01*
X126035000Y-50651184D01*
X126035000Y-50348816D01*
X125976011Y-50052257D01*
X125860299Y-49772905D01*
X125692312Y-49521495D01*
X125478505Y-49307688D01*
X125227095Y-49139701D01*
X124947743Y-49023989D01*
X124651184Y-48965000D01*
X124348816Y-48965000D01*
X124052257Y-49023989D01*
X123772905Y-49139701D01*
X123521495Y-49307688D01*
X123307688Y-49521495D01*
X123139701Y-49772905D01*
X123023989Y-50052257D01*
X122965000Y-50348816D01*
X121035000Y-50348816D01*
X120976011Y-50052257D01*
X120860299Y-49772905D01*
X120692312Y-49521495D01*
X120478505Y-49307688D01*
X120227095Y-49139701D01*
X119947743Y-49023989D01*
X119651184Y-48965000D01*
X119348816Y-48965000D01*
X119052257Y-49023989D01*
X118772905Y-49139701D01*
X118521495Y-49307688D01*
X118307688Y-49521495D01*
X118139701Y-49772905D01*
X118023989Y-50052257D01*
X117965000Y-50348816D01*
X117965000Y-50651184D01*
X118023989Y-50947743D01*
X118139701Y-51227095D01*
X118307688Y-51478505D01*
X118382193Y-51553010D01*
X118172905Y-51639701D01*
X117921495Y-51807688D01*
X117707688Y-52021495D01*
X117539701Y-52272905D01*
X117423989Y-52552257D01*
X117365000Y-52848816D01*
X112635000Y-52848816D01*
X112576011Y-52552257D01*
X112460299Y-52272905D01*
X112292312Y-52021495D01*
X112078505Y-51807688D01*
X111827095Y-51639701D01*
X111617807Y-51553010D01*
X111692312Y-51478505D01*
X111860299Y-51227095D01*
X111976011Y-50947743D01*
X112035000Y-50651184D01*
X112035000Y-50348816D01*
X111976011Y-50052257D01*
X111860299Y-49772905D01*
X111692312Y-49521495D01*
X111478505Y-49307688D01*
X111227095Y-49139701D01*
X110947743Y-49023989D01*
X110651184Y-48965000D01*
X110348816Y-48965000D01*
X110052257Y-49023989D01*
X109772905Y-49139701D01*
X109521495Y-49307688D01*
X109307688Y-49521495D01*
X109139701Y-49772905D01*
X109023989Y-50052257D01*
X108965000Y-50348816D01*
X107035000Y-50348816D01*
X106976011Y-50052257D01*
X106860299Y-49772905D01*
X106692312Y-49521495D01*
X106478505Y-49307688D01*
X106227095Y-49139701D01*
X105947743Y-49023989D01*
X105651184Y-48965000D01*
X105348816Y-48965000D01*
X105052257Y-49023989D01*
X104772905Y-49139701D01*
X104521495Y-49307688D01*
X104307688Y-49521495D01*
X104139701Y-49772905D01*
X104023989Y-50052257D01*
X103965000Y-50348816D01*
X103965000Y-50651184D01*
X104023989Y-50947743D01*
X104139701Y-51227095D01*
X104307688Y-51478505D01*
X104382193Y-51553010D01*
X104172905Y-51639701D01*
X103921495Y-51807688D01*
X103707688Y-52021495D01*
X103539701Y-52272905D01*
X103423989Y-52552257D01*
X103365000Y-52848816D01*
X94635000Y-52848816D01*
X94576011Y-52552257D01*
X94460299Y-52272905D01*
X94292312Y-52021495D01*
X94078505Y-51807688D01*
X93827095Y-51639701D01*
X93617807Y-51553010D01*
X93692312Y-51478505D01*
X93860299Y-51227095D01*
X93976011Y-50947743D01*
X94035000Y-50651184D01*
X94035000Y-50348816D01*
X93976011Y-50052257D01*
X93860299Y-49772905D01*
X93692312Y-49521495D01*
X93478505Y-49307688D01*
X93227095Y-49139701D01*
X92947743Y-49023989D01*
X92651184Y-48965000D01*
X92348816Y-48965000D01*
X92052257Y-49023989D01*
X91772905Y-49139701D01*
X91521495Y-49307688D01*
X91307688Y-49521495D01*
X91139701Y-49772905D01*
X91023989Y-50052257D01*
X90965000Y-50348816D01*
X89035000Y-50348816D01*
X88976011Y-50052257D01*
X88860299Y-49772905D01*
X88692312Y-49521495D01*
X88478505Y-49307688D01*
X88227095Y-49139701D01*
X87947743Y-49023989D01*
X87651184Y-48965000D01*
X87348816Y-48965000D01*
X87052257Y-49023989D01*
X86772905Y-49139701D01*
X86521495Y-49307688D01*
X86307688Y-49521495D01*
X86139701Y-49772905D01*
X86023989Y-50052257D01*
X85965000Y-50348816D01*
X85965000Y-50651184D01*
X86023989Y-50947743D01*
X86139701Y-51227095D01*
X86307688Y-51478505D01*
X86382193Y-51553010D01*
X86172905Y-51639701D01*
X85921495Y-51807688D01*
X85707688Y-52021495D01*
X85539701Y-52272905D01*
X85423989Y-52552257D01*
X85365000Y-52848816D01*
X80635000Y-52848816D01*
X80576011Y-52552257D01*
X80460299Y-52272905D01*
X80292312Y-52021495D01*
X80078505Y-51807688D01*
X79827095Y-51639701D01*
X79617807Y-51553010D01*
X79692312Y-51478505D01*
X79860299Y-51227095D01*
X79976011Y-50947743D01*
X80035000Y-50651184D01*
X80035000Y-50348816D01*
X79976011Y-50052257D01*
X79860299Y-49772905D01*
X79692312Y-49521495D01*
X79478505Y-49307688D01*
X79227095Y-49139701D01*
X78947743Y-49023989D01*
X78651184Y-48965000D01*
X78348816Y-48965000D01*
X78052257Y-49023989D01*
X77772905Y-49139701D01*
X77521495Y-49307688D01*
X77307688Y-49521495D01*
X77139701Y-49772905D01*
X77023989Y-50052257D01*
X76965000Y-50348816D01*
X75035000Y-50348816D01*
X74976011Y-50052257D01*
X74860299Y-49772905D01*
X74692312Y-49521495D01*
X74478505Y-49307688D01*
X74227095Y-49139701D01*
X73947743Y-49023989D01*
X73651184Y-48965000D01*
X73348816Y-48965000D01*
X73052257Y-49023989D01*
X72772905Y-49139701D01*
X72521495Y-49307688D01*
X72307688Y-49521495D01*
X72139701Y-49772905D01*
X72023989Y-50052257D01*
X71965000Y-50348816D01*
X71965000Y-50651184D01*
X72023989Y-50947743D01*
X72139701Y-51227095D01*
X72307688Y-51478505D01*
X72382193Y-51553010D01*
X72172905Y-51639701D01*
X71921495Y-51807688D01*
X71707688Y-52021495D01*
X71539701Y-52272905D01*
X71423989Y-52552257D01*
X71365000Y-52848816D01*
X62660000Y-52848816D01*
X62660000Y-44779872D01*
X63765000Y-44779872D01*
X63765000Y-45220128D01*
X63850890Y-45651925D01*
X64019369Y-46058669D01*
X64263962Y-46424729D01*
X64575271Y-46736038D01*
X64941331Y-46980631D01*
X65348075Y-47149110D01*
X65779872Y-47235000D01*
X66220128Y-47235000D01*
X66651925Y-47149110D01*
X67058669Y-46980631D01*
X67424729Y-46736038D01*
X67736038Y-46424729D01*
X67980631Y-46058669D01*
X68149110Y-45651925D01*
X68235000Y-45220128D01*
X68235000Y-44779872D01*
X161765000Y-44779872D01*
X161765000Y-45220128D01*
X161850890Y-45651925D01*
X162019369Y-46058669D01*
X162263962Y-46424729D01*
X162575271Y-46736038D01*
X162941331Y-46980631D01*
X163348075Y-47149110D01*
X163779872Y-47235000D01*
X164220128Y-47235000D01*
X164651925Y-47149110D01*
X165058669Y-46980631D01*
X165424729Y-46736038D01*
X165736038Y-46424729D01*
X165980631Y-46058669D01*
X166149110Y-45651925D01*
X166235000Y-45220128D01*
X166235000Y-44779872D01*
X166149110Y-44348075D01*
X165980631Y-43941331D01*
X165736038Y-43575271D01*
X165424729Y-43263962D01*
X165058669Y-43019369D01*
X164651925Y-42850890D01*
X164220128Y-42765000D01*
X163779872Y-42765000D01*
X163348075Y-42850890D01*
X162941331Y-43019369D01*
X162575271Y-43263962D01*
X162263962Y-43575271D01*
X162019369Y-43941331D01*
X161850890Y-44348075D01*
X161765000Y-44779872D01*
X68235000Y-44779872D01*
X68149110Y-44348075D01*
X67980631Y-43941331D01*
X67736038Y-43575271D01*
X67424729Y-43263962D01*
X67058669Y-43019369D01*
X66651925Y-42850890D01*
X66220128Y-42765000D01*
X65779872Y-42765000D01*
X65348075Y-42850890D01*
X64941331Y-43019369D01*
X64575271Y-43263962D01*
X64263962Y-43575271D01*
X64019369Y-43941331D01*
X63850890Y-44348075D01*
X63765000Y-44779872D01*
X62660000Y-44779872D01*
X62660000Y-42150000D01*
X89511928Y-42150000D01*
X89511928Y-43850000D01*
X89524188Y-43974482D01*
X89560498Y-44094180D01*
X89619463Y-44204494D01*
X89698815Y-44301185D01*
X89795506Y-44380537D01*
X89905820Y-44439502D01*
X90025518Y-44475812D01*
X90150000Y-44488072D01*
X91850000Y-44488072D01*
X91974482Y-44475812D01*
X92094180Y-44439502D01*
X92204494Y-44380537D01*
X92301185Y-44301185D01*
X92380537Y-44204494D01*
X92439502Y-44094180D01*
X92461513Y-44021620D01*
X92593368Y-44153475D01*
X92836589Y-44315990D01*
X93106842Y-44427932D01*
X93393740Y-44485000D01*
X93686260Y-44485000D01*
X93973158Y-44427932D01*
X94243411Y-44315990D01*
X94486632Y-44153475D01*
X94693475Y-43946632D01*
X94810000Y-43772240D01*
X94926525Y-43946632D01*
X95133368Y-44153475D01*
X95376589Y-44315990D01*
X95646842Y-44427932D01*
X95933740Y-44485000D01*
X96226260Y-44485000D01*
X96513158Y-44427932D01*
X96783411Y-44315990D01*
X97026632Y-44153475D01*
X97233475Y-43946632D01*
X97350000Y-43772240D01*
X97466525Y-43946632D01*
X97673368Y-44153475D01*
X97916589Y-44315990D01*
X98186842Y-44427932D01*
X98473740Y-44485000D01*
X98766260Y-44485000D01*
X99053158Y-44427932D01*
X99323411Y-44315990D01*
X99566632Y-44153475D01*
X99773475Y-43946632D01*
X99890000Y-43772240D01*
X100006525Y-43946632D01*
X100213368Y-44153475D01*
X100456589Y-44315990D01*
X100726842Y-44427932D01*
X101013740Y-44485000D01*
X101306260Y-44485000D01*
X101593158Y-44427932D01*
X101863411Y-44315990D01*
X102106632Y-44153475D01*
X102313475Y-43946632D01*
X102430000Y-43772240D01*
X102546525Y-43946632D01*
X102753368Y-44153475D01*
X102996589Y-44315990D01*
X103266842Y-44427932D01*
X103553740Y-44485000D01*
X103846260Y-44485000D01*
X104133158Y-44427932D01*
X104403411Y-44315990D01*
X104646632Y-44153475D01*
X104853475Y-43946632D01*
X104970000Y-43772240D01*
X105086525Y-43946632D01*
X105293368Y-44153475D01*
X105536589Y-44315990D01*
X105806842Y-44427932D01*
X106093740Y-44485000D01*
X106386260Y-44485000D01*
X106673158Y-44427932D01*
X106943411Y-44315990D01*
X107186632Y-44153475D01*
X107393475Y-43946632D01*
X107510000Y-43772240D01*
X107626525Y-43946632D01*
X107833368Y-44153475D01*
X108076589Y-44315990D01*
X108346842Y-44427932D01*
X108633740Y-44485000D01*
X108926260Y-44485000D01*
X109213158Y-44427932D01*
X109483411Y-44315990D01*
X109726632Y-44153475D01*
X109933475Y-43946632D01*
X110050000Y-43772240D01*
X110166525Y-43946632D01*
X110373368Y-44153475D01*
X110616589Y-44315990D01*
X110886842Y-44427932D01*
X111173740Y-44485000D01*
X111466260Y-44485000D01*
X111753158Y-44427932D01*
X112023411Y-44315990D01*
X112266632Y-44153475D01*
X112473475Y-43946632D01*
X112590000Y-43772240D01*
X112706525Y-43946632D01*
X112913368Y-44153475D01*
X113156589Y-44315990D01*
X113426842Y-44427932D01*
X113713740Y-44485000D01*
X114006260Y-44485000D01*
X114293158Y-44427932D01*
X114563411Y-44315990D01*
X114806632Y-44153475D01*
X115013475Y-43946632D01*
X115130000Y-43772240D01*
X115246525Y-43946632D01*
X115453368Y-44153475D01*
X115696589Y-44315990D01*
X115966842Y-44427932D01*
X116253740Y-44485000D01*
X116546260Y-44485000D01*
X116833158Y-44427932D01*
X117103411Y-44315990D01*
X117346632Y-44153475D01*
X117553475Y-43946632D01*
X117670000Y-43772240D01*
X117786525Y-43946632D01*
X117993368Y-44153475D01*
X118236589Y-44315990D01*
X118506842Y-44427932D01*
X118793740Y-44485000D01*
X119086260Y-44485000D01*
X119373158Y-44427932D01*
X119643411Y-44315990D01*
X119886632Y-44153475D01*
X120093475Y-43946632D01*
X120210000Y-43772240D01*
X120326525Y-43946632D01*
X120533368Y-44153475D01*
X120776589Y-44315990D01*
X121046842Y-44427932D01*
X121333740Y-44485000D01*
X121626260Y-44485000D01*
X121913158Y-44427932D01*
X122183411Y-44315990D01*
X122426632Y-44153475D01*
X122633475Y-43946632D01*
X122750000Y-43772240D01*
X122866525Y-43946632D01*
X123073368Y-44153475D01*
X123316589Y-44315990D01*
X123586842Y-44427932D01*
X123873740Y-44485000D01*
X124166260Y-44485000D01*
X124453158Y-44427932D01*
X124723411Y-44315990D01*
X124966632Y-44153475D01*
X125173475Y-43946632D01*
X125290000Y-43772240D01*
X125406525Y-43946632D01*
X125613368Y-44153475D01*
X125856589Y-44315990D01*
X126126842Y-44427932D01*
X126413740Y-44485000D01*
X126706260Y-44485000D01*
X126993158Y-44427932D01*
X127263411Y-44315990D01*
X127506632Y-44153475D01*
X127713475Y-43946632D01*
X127830000Y-43772240D01*
X127946525Y-43946632D01*
X128153368Y-44153475D01*
X128396589Y-44315990D01*
X128666842Y-44427932D01*
X128953740Y-44485000D01*
X129246260Y-44485000D01*
X129533158Y-44427932D01*
X129803411Y-44315990D01*
X130046632Y-44153475D01*
X130253475Y-43946632D01*
X130370000Y-43772240D01*
X130486525Y-43946632D01*
X130693368Y-44153475D01*
X130936589Y-44315990D01*
X131206842Y-44427932D01*
X131493740Y-44485000D01*
X131786260Y-44485000D01*
X132073158Y-44427932D01*
X132343411Y-44315990D01*
X132586632Y-44153475D01*
X132793475Y-43946632D01*
X132910000Y-43772240D01*
X133026525Y-43946632D01*
X133233368Y-44153475D01*
X133476589Y-44315990D01*
X133746842Y-44427932D01*
X134033740Y-44485000D01*
X134326260Y-44485000D01*
X134613158Y-44427932D01*
X134883411Y-44315990D01*
X135126632Y-44153475D01*
X135333475Y-43946632D01*
X135450000Y-43772240D01*
X135566525Y-43946632D01*
X135773368Y-44153475D01*
X136016589Y-44315990D01*
X136286842Y-44427932D01*
X136573740Y-44485000D01*
X136866260Y-44485000D01*
X137153158Y-44427932D01*
X137423411Y-44315990D01*
X137666632Y-44153475D01*
X137873475Y-43946632D01*
X137995195Y-43764466D01*
X138064822Y-43881355D01*
X138259731Y-44097588D01*
X138493080Y-44271641D01*
X138755901Y-44396825D01*
X138903110Y-44441476D01*
X139133000Y-44320155D01*
X139133000Y-43127000D01*
X139387000Y-43127000D01*
X139387000Y-44320155D01*
X139616890Y-44441476D01*
X139764099Y-44396825D01*
X140026920Y-44271641D01*
X140260269Y-44097588D01*
X140455178Y-43881355D01*
X140604157Y-43631252D01*
X140701481Y-43356891D01*
X140580814Y-43127000D01*
X139387000Y-43127000D01*
X139133000Y-43127000D01*
X139113000Y-43127000D01*
X139113000Y-42873000D01*
X139133000Y-42873000D01*
X139133000Y-41679845D01*
X139387000Y-41679845D01*
X139387000Y-42873000D01*
X140580814Y-42873000D01*
X140701481Y-42643109D01*
X140604157Y-42368748D01*
X140455178Y-42118645D01*
X140260269Y-41902412D01*
X140026920Y-41728359D01*
X139764099Y-41603175D01*
X139616890Y-41558524D01*
X139387000Y-41679845D01*
X139133000Y-41679845D01*
X138903110Y-41558524D01*
X138755901Y-41603175D01*
X138493080Y-41728359D01*
X138259731Y-41902412D01*
X138064822Y-42118645D01*
X137995195Y-42235534D01*
X137873475Y-42053368D01*
X137666632Y-41846525D01*
X137423411Y-41684010D01*
X137153158Y-41572068D01*
X136866260Y-41515000D01*
X136573740Y-41515000D01*
X136286842Y-41572068D01*
X136016589Y-41684010D01*
X135773368Y-41846525D01*
X135566525Y-42053368D01*
X135450000Y-42227760D01*
X135333475Y-42053368D01*
X135126632Y-41846525D01*
X134883411Y-41684010D01*
X134613158Y-41572068D01*
X134326260Y-41515000D01*
X134033740Y-41515000D01*
X133746842Y-41572068D01*
X133476589Y-41684010D01*
X133233368Y-41846525D01*
X133026525Y-42053368D01*
X132910000Y-42227760D01*
X132793475Y-42053368D01*
X132586632Y-41846525D01*
X132343411Y-41684010D01*
X132073158Y-41572068D01*
X131786260Y-41515000D01*
X131493740Y-41515000D01*
X131206842Y-41572068D01*
X130936589Y-41684010D01*
X130693368Y-41846525D01*
X130486525Y-42053368D01*
X130370000Y-42227760D01*
X130253475Y-42053368D01*
X130046632Y-41846525D01*
X129803411Y-41684010D01*
X129533158Y-41572068D01*
X129246260Y-41515000D01*
X128953740Y-41515000D01*
X128666842Y-41572068D01*
X128396589Y-41684010D01*
X128153368Y-41846525D01*
X127946525Y-42053368D01*
X127830000Y-42227760D01*
X127713475Y-42053368D01*
X127506632Y-41846525D01*
X127263411Y-41684010D01*
X126993158Y-41572068D01*
X126706260Y-41515000D01*
X126413740Y-41515000D01*
X126126842Y-41572068D01*
X125856589Y-41684010D01*
X125613368Y-41846525D01*
X125406525Y-42053368D01*
X125290000Y-42227760D01*
X125173475Y-42053368D01*
X124966632Y-41846525D01*
X124723411Y-41684010D01*
X124453158Y-41572068D01*
X124166260Y-41515000D01*
X123873740Y-41515000D01*
X123586842Y-41572068D01*
X123316589Y-41684010D01*
X123073368Y-41846525D01*
X122866525Y-42053368D01*
X122750000Y-42227760D01*
X122633475Y-42053368D01*
X122426632Y-41846525D01*
X122183411Y-41684010D01*
X121913158Y-41572068D01*
X121626260Y-41515000D01*
X121333740Y-41515000D01*
X121046842Y-41572068D01*
X120776589Y-41684010D01*
X120533368Y-41846525D01*
X120326525Y-42053368D01*
X120210000Y-42227760D01*
X120093475Y-42053368D01*
X119886632Y-41846525D01*
X119643411Y-41684010D01*
X119373158Y-41572068D01*
X119086260Y-41515000D01*
X118793740Y-41515000D01*
X118506842Y-41572068D01*
X118236589Y-41684010D01*
X117993368Y-41846525D01*
X117786525Y-42053368D01*
X117670000Y-42227760D01*
X117553475Y-42053368D01*
X117346632Y-41846525D01*
X117103411Y-41684010D01*
X116833158Y-41572068D01*
X116546260Y-41515000D01*
X116253740Y-41515000D01*
X115966842Y-41572068D01*
X115696589Y-41684010D01*
X115453368Y-41846525D01*
X115246525Y-42053368D01*
X115130000Y-42227760D01*
X115013475Y-42053368D01*
X114806632Y-41846525D01*
X114563411Y-41684010D01*
X114293158Y-41572068D01*
X114006260Y-41515000D01*
X113713740Y-41515000D01*
X113426842Y-41572068D01*
X113156589Y-41684010D01*
X112913368Y-41846525D01*
X112706525Y-42053368D01*
X112590000Y-42227760D01*
X112473475Y-42053368D01*
X112266632Y-41846525D01*
X112023411Y-41684010D01*
X111753158Y-41572068D01*
X111466260Y-41515000D01*
X111173740Y-41515000D01*
X110886842Y-41572068D01*
X110616589Y-41684010D01*
X110373368Y-41846525D01*
X110166525Y-42053368D01*
X110050000Y-42227760D01*
X109933475Y-42053368D01*
X109726632Y-41846525D01*
X109483411Y-41684010D01*
X109213158Y-41572068D01*
X108926260Y-41515000D01*
X108633740Y-41515000D01*
X108346842Y-41572068D01*
X108076589Y-41684010D01*
X107833368Y-41846525D01*
X107626525Y-42053368D01*
X107510000Y-42227760D01*
X107393475Y-42053368D01*
X107186632Y-41846525D01*
X106943411Y-41684010D01*
X106673158Y-41572068D01*
X106386260Y-41515000D01*
X106093740Y-41515000D01*
X105806842Y-41572068D01*
X105536589Y-41684010D01*
X105293368Y-41846525D01*
X105086525Y-42053368D01*
X104970000Y-42227760D01*
X104853475Y-42053368D01*
X104646632Y-41846525D01*
X104403411Y-41684010D01*
X104133158Y-41572068D01*
X103846260Y-41515000D01*
X103553740Y-41515000D01*
X103266842Y-41572068D01*
X102996589Y-41684010D01*
X102753368Y-41846525D01*
X102546525Y-42053368D01*
X102430000Y-42227760D01*
X102313475Y-42053368D01*
X102106632Y-41846525D01*
X101863411Y-41684010D01*
X101593158Y-41572068D01*
X101306260Y-41515000D01*
X101013740Y-41515000D01*
X100726842Y-41572068D01*
X100456589Y-41684010D01*
X100213368Y-41846525D01*
X100006525Y-42053368D01*
X99890000Y-42227760D01*
X99773475Y-42053368D01*
X99566632Y-41846525D01*
X99323411Y-41684010D01*
X99053158Y-41572068D01*
X98766260Y-41515000D01*
X98473740Y-41515000D01*
X98186842Y-41572068D01*
X97916589Y-41684010D01*
X97673368Y-41846525D01*
X97466525Y-42053368D01*
X97350000Y-42227760D01*
X97233475Y-42053368D01*
X97026632Y-41846525D01*
X96783411Y-41684010D01*
X96513158Y-41572068D01*
X96226260Y-41515000D01*
X95933740Y-41515000D01*
X95646842Y-41572068D01*
X95376589Y-41684010D01*
X95133368Y-41846525D01*
X94926525Y-42053368D01*
X94810000Y-42227760D01*
X94693475Y-42053368D01*
X94486632Y-41846525D01*
X94243411Y-41684010D01*
X93973158Y-41572068D01*
X93686260Y-41515000D01*
X93393740Y-41515000D01*
X93106842Y-41572068D01*
X92836589Y-41684010D01*
X92593368Y-41846525D01*
X92461513Y-41978380D01*
X92439502Y-41905820D01*
X92380537Y-41795506D01*
X92301185Y-41698815D01*
X92204494Y-41619463D01*
X92094180Y-41560498D01*
X91974482Y-41524188D01*
X91850000Y-41511928D01*
X90150000Y-41511928D01*
X90025518Y-41524188D01*
X89905820Y-41560498D01*
X89795506Y-41619463D01*
X89698815Y-41698815D01*
X89619463Y-41795506D01*
X89560498Y-41905820D01*
X89524188Y-42025518D01*
X89511928Y-42150000D01*
X62660000Y-42150000D01*
X62660000Y-40660000D01*
X167340001Y-40660000D01*
X167340000Y-61340000D01*
M02*
