G04 #@! TF.GenerationSoftware,KiCad,Pcbnew,(5.1.6)-1*
G04 #@! TF.CreationDate,2020-10-30T20:33:45+01:00*
G04 #@! TF.ProjectId,light-btn,6c696768-742d-4627-946e-2e6b69636164,rev?*
G04 #@! TF.SameCoordinates,Original*
G04 #@! TF.FileFunction,Legend,Bot*
G04 #@! TF.FilePolarity,Positive*
%FSLAX46Y46*%
G04 Gerber Fmt 4.6, Leading zero omitted, Abs format (unit mm)*
G04 Created by KiCad (PCBNEW (5.1.6)-1) date 2020-10-30 20:33:45*
%MOMM*%
%LPD*%
G01*
G04 APERTURE LIST*
%ADD10C,0.150000*%
%ADD11C,0.300000*%
%ADD12C,0.120000*%
G04 APERTURE END LIST*
D10*
X84619047Y-42452380D02*
X84619047Y-43166666D01*
X84666666Y-43309523D01*
X84761904Y-43404761D01*
X84904761Y-43452380D01*
X85000000Y-43452380D01*
X83666666Y-43452380D02*
X84142857Y-43452380D01*
X84142857Y-42452380D01*
X82761904Y-43357142D02*
X82809523Y-43404761D01*
X82952380Y-43452380D01*
X83047619Y-43452380D01*
X83190476Y-43404761D01*
X83285714Y-43309523D01*
X83333333Y-43214285D01*
X83380952Y-43023809D01*
X83380952Y-42880952D01*
X83333333Y-42690476D01*
X83285714Y-42595238D01*
X83190476Y-42500000D01*
X83047619Y-42452380D01*
X82952380Y-42452380D01*
X82809523Y-42500000D01*
X82761904Y-42547619D01*
X82047619Y-42452380D02*
X82047619Y-43166666D01*
X82095238Y-43309523D01*
X82190476Y-43404761D01*
X82333333Y-43452380D01*
X82428571Y-43452380D01*
X81095238Y-43452380D02*
X81571428Y-43452380D01*
X81571428Y-42452380D01*
X80190476Y-43357142D02*
X80238095Y-43404761D01*
X80380952Y-43452380D01*
X80476190Y-43452380D01*
X80619047Y-43404761D01*
X80714285Y-43309523D01*
X80761904Y-43214285D01*
X80809523Y-43023809D01*
X80809523Y-42880952D01*
X80761904Y-42690476D01*
X80714285Y-42595238D01*
X80619047Y-42500000D01*
X80476190Y-42452380D01*
X80380952Y-42452380D01*
X80238095Y-42500000D01*
X80190476Y-42547619D01*
X79476190Y-42452380D02*
X79476190Y-43166666D01*
X79523809Y-43309523D01*
X79619047Y-43404761D01*
X79761904Y-43452380D01*
X79857142Y-43452380D01*
X78523809Y-43452380D02*
X79000000Y-43452380D01*
X79000000Y-42452380D01*
X77619047Y-43357142D02*
X77666666Y-43404761D01*
X77809523Y-43452380D01*
X77904761Y-43452380D01*
X78047619Y-43404761D01*
X78142857Y-43309523D01*
X78190476Y-43214285D01*
X78238095Y-43023809D01*
X78238095Y-42880952D01*
X78190476Y-42690476D01*
X78142857Y-42595238D01*
X78047619Y-42500000D01*
X77904761Y-42452380D01*
X77809523Y-42452380D01*
X77666666Y-42500000D01*
X77619047Y-42547619D01*
X76904761Y-42452380D02*
X76904761Y-43166666D01*
X76952380Y-43309523D01*
X77047619Y-43404761D01*
X77190476Y-43452380D01*
X77285714Y-43452380D01*
X75952380Y-43452380D02*
X76428571Y-43452380D01*
X76428571Y-42452380D01*
X75047619Y-43357142D02*
X75095238Y-43404761D01*
X75238095Y-43452380D01*
X75333333Y-43452380D01*
X75476190Y-43404761D01*
X75571428Y-43309523D01*
X75619047Y-43214285D01*
X75666666Y-43023809D01*
X75666666Y-42880952D01*
X75619047Y-42690476D01*
X75571428Y-42595238D01*
X75476190Y-42500000D01*
X75333333Y-42452380D01*
X75238095Y-42452380D01*
X75095238Y-42500000D01*
X75047619Y-42547619D01*
D11*
X77285714Y-60678571D02*
X77285714Y-59178571D01*
X77142857Y-60107142D02*
X76714285Y-60678571D01*
X76714285Y-59678571D02*
X77285714Y-60250000D01*
X76071428Y-60678571D02*
X76071428Y-59678571D01*
X76071428Y-59178571D02*
X76142857Y-59250000D01*
X76071428Y-59321428D01*
X76000000Y-59250000D01*
X76071428Y-59178571D01*
X76071428Y-59321428D01*
X74714285Y-59678571D02*
X74714285Y-60678571D01*
X75357142Y-59678571D02*
X75357142Y-60464285D01*
X75285714Y-60607142D01*
X75142857Y-60678571D01*
X74928571Y-60678571D01*
X74785714Y-60607142D01*
X74714285Y-60535714D01*
X142071428Y-60678571D02*
X142571428Y-59964285D01*
X142928571Y-60678571D02*
X142928571Y-59178571D01*
X142357142Y-59178571D01*
X142214285Y-59250000D01*
X142142857Y-59321428D01*
X142071428Y-59464285D01*
X142071428Y-59678571D01*
X142142857Y-59821428D01*
X142214285Y-59892857D01*
X142357142Y-59964285D01*
X142928571Y-59964285D01*
X141428571Y-59892857D02*
X140928571Y-59892857D01*
X140714285Y-60678571D02*
X141428571Y-60678571D01*
X141428571Y-59178571D01*
X140714285Y-59178571D01*
X140285714Y-59178571D02*
X139785714Y-60678571D01*
X139285714Y-59178571D01*
X137714285Y-60250000D02*
X137000000Y-60250000D01*
X137857142Y-60678571D02*
X137357142Y-59178571D01*
X136857142Y-60678571D01*
X158678571Y-60678571D02*
X158821428Y-60607142D01*
X158892857Y-60464285D01*
X158892857Y-59178571D01*
X158107142Y-60678571D02*
X158107142Y-59678571D01*
X158107142Y-59178571D02*
X158178571Y-59250000D01*
X158107142Y-59321428D01*
X158035714Y-59250000D01*
X158107142Y-59178571D01*
X158107142Y-59321428D01*
X156750000Y-59678571D02*
X156750000Y-60892857D01*
X156821428Y-61035714D01*
X156892857Y-61107142D01*
X157035714Y-61178571D01*
X157250000Y-61178571D01*
X157392857Y-61107142D01*
X156750000Y-60607142D02*
X156892857Y-60678571D01*
X157178571Y-60678571D01*
X157321428Y-60607142D01*
X157392857Y-60535714D01*
X157464285Y-60392857D01*
X157464285Y-59964285D01*
X157392857Y-59821428D01*
X157321428Y-59750000D01*
X157178571Y-59678571D01*
X156892857Y-59678571D01*
X156750000Y-59750000D01*
X156035714Y-60678571D02*
X156035714Y-59178571D01*
X155392857Y-60678571D02*
X155392857Y-59892857D01*
X155464285Y-59750000D01*
X155607142Y-59678571D01*
X155821428Y-59678571D01*
X155964285Y-59750000D01*
X156035714Y-59821428D01*
X154892857Y-59678571D02*
X154321428Y-59678571D01*
X154678571Y-59178571D02*
X154678571Y-60464285D01*
X154607142Y-60607142D01*
X154464285Y-60678571D01*
X154321428Y-60678571D01*
X153821428Y-60107142D02*
X152678571Y-60107142D01*
X151964285Y-60678571D02*
X151964285Y-59178571D01*
X151964285Y-59750000D02*
X151821428Y-59678571D01*
X151535714Y-59678571D01*
X151392857Y-59750000D01*
X151321428Y-59821428D01*
X151250000Y-59964285D01*
X151250000Y-60392857D01*
X151321428Y-60535714D01*
X151392857Y-60607142D01*
X151535714Y-60678571D01*
X151821428Y-60678571D01*
X151964285Y-60607142D01*
X150821428Y-59678571D02*
X150250000Y-59678571D01*
X150607142Y-59178571D02*
X150607142Y-60464285D01*
X150535714Y-60607142D01*
X150392857Y-60678571D01*
X150250000Y-60678571D01*
X149750000Y-59678571D02*
X149750000Y-60678571D01*
X149750000Y-59821428D02*
X149678571Y-59750000D01*
X149535714Y-59678571D01*
X149321428Y-59678571D01*
X149178571Y-59750000D01*
X149107142Y-59892857D01*
X149107142Y-60678571D01*
D12*
X89670000Y-41670000D02*
X89670000Y-43000000D01*
X91000000Y-41670000D02*
X89670000Y-41670000D01*
X92270000Y-41670000D02*
X92270000Y-44330000D01*
X92270000Y-44330000D02*
X140590000Y-44330000D01*
X92270000Y-41670000D02*
X140590000Y-41670000D01*
X140590000Y-41670000D02*
X140590000Y-44330000D01*
D10*
X88122380Y-42666666D02*
X88836666Y-42666666D01*
X88979523Y-42619047D01*
X89074761Y-42523809D01*
X89122380Y-42380952D01*
X89122380Y-42285714D01*
X89122380Y-43666666D02*
X89122380Y-43095238D01*
X89122380Y-43380952D02*
X88122380Y-43380952D01*
X88265238Y-43285714D01*
X88360476Y-43190476D01*
X88408095Y-43095238D01*
M02*
