M48
; DRILL file {KiCad (5.1.6)-1} date 10/30/20 20:33:48
; FORMAT={-:-/ absolute / inch / decimal}
; #@! TF.CreationDate,2020-10-30T20:33:48+01:00
; #@! TF.GenerationSoftware,Kicad,Pcbnew,(5.1.6)-1
; #@! TF.FileFunction,Plated,1,2,PTH
FMAT,2
INCH
T1C0.0394
%
G90
G05
T1
X3.5827Y-1.6929
X3.6827Y-1.6929
X3.7827Y-1.6929
X3.8827Y-1.6929
X3.9827Y-1.6929
X4.0827Y-1.6929
X4.1827Y-1.6929
X4.2827Y-1.6929
X4.3827Y-1.6929
X4.4827Y-1.6929
X4.5827Y-1.6929
X4.6827Y-1.6929
X4.7827Y-1.6929
X4.8827Y-1.6929
X4.9827Y-1.6929
X5.0827Y-1.6929
X5.1827Y-1.6929
X5.2827Y-1.6929
X5.3827Y-1.6929
X5.4827Y-1.6929
X4.6811Y-2.0866
X4.7047Y-1.9882
X4.7047Y-2.185
X4.9016Y-1.9882
X4.9016Y-2.185
X4.9252Y-2.0866
X2.8701Y-2.0866
X2.8937Y-1.9882
X2.8937Y-2.185
X3.0906Y-1.9882
X3.0906Y-2.185
X3.1142Y-2.0866
X5.9409Y-2.0866
X5.9646Y-1.9882
X5.9646Y-2.185
X6.1614Y-1.9882
X6.1614Y-2.185
X6.185Y-2.0866
X3.4213Y-2.0866
X3.4449Y-1.9882
X3.4449Y-2.185
X3.6417Y-1.9882
X3.6417Y-2.185
X3.6654Y-2.0866
X5.3898Y-2.0866
X5.4134Y-1.9882
X5.4134Y-2.185
X5.6102Y-1.9882
X5.6102Y-2.185
X5.6339Y-2.0866
X4.1299Y-2.0866
X4.1535Y-1.9882
X4.1535Y-2.185
X4.3504Y-1.9882
X4.3504Y-2.185
X4.374Y-2.0866
T0
M30
